<svg width="16" height="16" viewBox="0 0 16 16" fill="none" xmlns="http://www.w3.org/2000/svg">
<circle cx="8" cy="8" r="8" fill="#EC7D18"/>
<path d="M7.83161 4.32315C7.19801 4.32315 6.57881 4.48635 5.97401 4.81275L5.59961 3.77595C5.92601 3.60315 6.29081 3.46395 6.69401 3.35835C7.10681 3.25275 7.54361 3.19995 8.00441 3.19995C8.55161 3.19995 8.99801 3.27675 9.34361 3.43035C9.69881 3.57435 9.98201 3.76155 10.1932 3.99195C10.4044 4.22235 10.5484 4.48155 10.6252 4.76955C10.7116 5.04795 10.7548 5.31675 10.7548 5.57595C10.7548 5.90235 10.6924 6.19515 10.5676 6.45435C10.4428 6.70395 10.2892 6.93915 10.1068 7.15995C9.92441 7.38075 9.72281 7.59195 9.50201 7.79355C9.28121 7.99515 9.07961 8.20635 8.89721 8.42715C8.71481 8.63835 8.56121 8.87355 8.43641 9.13275C8.31161 9.38235 8.24921 9.66555 8.24921 9.98235C8.24921 10.0304 8.24921 10.0832 8.24921 10.1408C8.24921 10.1984 8.25401 10.2512 8.26361 10.2992H7.14041C7.10201 10.1072 7.08281 9.90555 7.08281 9.69435C7.08281 9.38715 7.13561 9.10875 7.24121 8.85915C7.35641 8.60955 7.50041 8.37915 7.67321 8.16795C7.84601 7.94715 8.02841 7.74555 8.22041 7.56315C8.41241 7.37115 8.59481 7.17915 8.76761 6.98715C8.94041 6.79515 9.07961 6.59355 9.18521 6.38235C9.30041 6.17115 9.35801 5.94075 9.35801 5.69115C9.35801 5.28795 9.22841 4.96155 8.96921 4.71195C8.71001 4.45275 8.33081 4.32315 7.83161 4.32315ZM8.73881 12.632C8.73881 12.8912 8.65241 13.1168 8.47961 13.3088C8.30681 13.5008 8.07161 13.5968 7.77401 13.5968C7.47641 13.5968 7.24121 13.5008 7.06841 13.3088C6.89561 13.1168 6.80921 12.8912 6.80921 12.632C6.80921 12.3728 6.89561 12.1472 7.06841 11.9552C7.24121 11.7632 7.47641 11.6672 7.77401 11.6672C8.07161 11.6672 8.30681 11.7632 8.47961 11.9552C8.65241 12.1472 8.73881 12.3728 8.73881 12.632Z" fill="white"/>
</svg>
