<svg width="32" height="40" viewBox="0 0 32 40" fill="none" xmlns="http://www.w3.org/2000/svg">
<path d="M30.8047 33.8901H29.3116V28.5958C29.3116 28.1644 28.9617 27.8147 28.5303 27.8147H20.6885L16.7812 25.9708V23.9887C19.6945 23.8029 22.4076 22.5804 24.4896 20.4978C28.1665 16.8219 29.0631 11.2364 26.7207 6.59905C26.5262 6.2139 26.0563 6.05937 25.6712 6.2539C25.286 6.44835 25.1315 6.91819 25.326 7.30319C27.3634 11.3368 26.5834 16.1953 23.3846 19.3932C21.4125 21.3659 18.7898 22.4522 16 22.4522C13.2102 22.4522 10.5875 21.3658 8.61531 19.3931C4.54437 15.3233 4.54445 8.69936 8.61531 4.62741C11.8144 1.42913 16.6741 0.64999 20.708 2.68874C21.0933 2.88327 21.563 2.72905 21.7577 2.34397C21.9523 1.95897 21.798 1.48913 21.413 1.29452C16.7749 -1.04946 11.188 -0.153916 7.51039 3.52288C2.83047 8.20405 2.83055 15.8189 7.51039 20.4976C9.5925 22.5803 12.3055 23.8028 15.2188 23.9887V25.9708L11.3116 27.8147H3.46969C3.03828 27.8147 2.68844 28.1644 2.68844 28.5958V33.8901H1.19531C0.763906 33.8901 0.414062 34.2398 0.414062 34.6712V39.2188C0.414062 39.6502 0.763906 39.9999 1.19531 39.9999H5.74414C6.17555 39.9999 6.52539 39.6502 6.52539 39.2188V34.6712C6.52539 34.2398 6.17555 33.8901 5.74414 33.8901H4.25102V29.3769H11.3117L15.2188 31.2188V33.8901H13.7256C13.2942 33.8901 12.9444 34.2398 12.9444 34.6712V39.2188C12.9444 39.6502 13.2942 39.9999 13.7256 39.9999H18.2745C18.7059 39.9999 19.0557 39.6502 19.0557 39.2188V34.6712C19.0557 34.2398 18.7059 33.8901 18.2745 33.8901H16.7812V31.2188L20.6883 29.3769H27.749V33.8901H26.2559C25.8245 33.8901 25.4746 34.2398 25.4746 34.6712V39.2189C25.4746 39.6503 25.8245 40 26.2559 40H30.8047C31.2361 40 31.5859 39.6503 31.5859 39.2189V34.6712C31.5859 34.2398 31.2361 33.8901 30.8047 33.8901ZM4.96289 38.4378H1.97656V35.4523H4.96289V38.4378ZM17.4931 38.4378H14.5068V35.4523H17.4931V38.4378ZM16 29.86L13.3177 28.5955L16 27.3297L18.6823 28.5955L16 29.86ZM30.0234 38.4378H27.0371V35.4523H30.0234V38.4378Z" fill="black"/>
</svg>
