<svg width="44" height="44" viewBox="0 0 44 44" fill="none" xmlns="http://www.w3.org/2000/svg">
    <path d="M26.2636 4.58337C18.9097 4.58337 12.9267 10.5663 12.9267 17.9203C12.9267 20.4846 13.6548 22.8817 14.9142 24.9171L5.48404 34.3472C4.28397 35.5472 4.28397 37.4998 5.48404 38.6999C6.68404 39.8998 8.63655 39.8999 9.83662 38.6999C10.3431 38.1934 18.7728 29.7637 19.2669 29.2697C21.3022 30.5291 23.6994 31.2572 26.2637 31.2572C33.6177 31.2572 39.6006 25.2743 39.6006 17.9203C39.6006 10.5663 33.6177 4.58337 26.2636 4.58337ZM8.38576 37.249C7.98574 37.649 7.33492 37.649 6.9349 37.249C6.53488 36.849 6.53488 36.1981 6.9349 35.7981L13.1392 29.5938L14.5901 31.0447L8.38576 37.249ZM16.0409 29.5939L14.59 28.143L16.1401 26.5929C16.586 27.1127 17.0712 27.5979 17.5909 28.0438L16.0409 29.5939ZM26.2636 29.2053C20.041 29.2053 14.9785 24.1429 14.9785 17.9202C14.9785 11.6976 20.0411 6.63519 26.2636 6.63519C32.4862 6.63519 37.5487 11.6977 37.5487 17.9203C37.5487 24.1429 32.4863 29.2053 26.2636 29.2053Z" fill="currentColor"/>
    <path d="M29.3201 15.5262C29.9711 14.7997 30.368 13.8409 30.368 12.7908C30.368 10.5281 28.5271 8.68713 26.2644 8.68713C24.0017 8.68713 22.1607 10.5281 22.1607 12.7909C22.1607 13.841 22.5576 14.7997 23.2087 15.5263C20.7728 16.6765 19.083 19.1565 19.083 22.0242V24.076C19.083 24.6426 19.5423 25.102 20.109 25.102H32.4199C32.9865 25.102 33.4459 24.6427 33.4459 24.076V22.0242C33.4458 19.1565 31.7561 16.6765 29.3201 15.5262ZM26.2643 10.739C27.3957 10.739 28.3162 11.6595 28.3162 12.7908C28.3162 13.9222 27.3957 14.8427 26.2643 14.8427C25.133 14.8427 24.2125 13.9222 24.2125 12.7908C24.2125 11.6595 25.133 10.739 26.2643 10.739ZM31.394 23.0501H21.1348V22.0241C21.1348 19.1957 23.4359 16.8946 26.2643 16.8946C29.0928 16.8946 31.3939 19.1957 31.3939 22.0241V23.0501H31.394Z" fill="currentColor"/>
</svg>
