<svg width="44" height="44" viewBox="0 0 44 44" fill="none" xmlns="http://www.w3.org/2000/svg">
    <path d="M10.543 14.653C10.317 14.653 10.0952 14.561 9.93536 14.4012C9.89575 14.3616 9.85983 14.317 9.82895 14.2707C9.79807 14.2233 9.77121 14.1736 9.74973 14.1219C9.72824 14.0702 9.71213 14.0162 9.70071 13.9611C9.68964 13.9061 9.68359 13.8494 9.68359 13.7936C9.68359 13.7369 9.68964 13.6812 9.70071 13.6251C9.71213 13.5701 9.72824 13.516 9.74973 13.4647C9.77121 13.413 9.79807 13.3629 9.82895 13.3159C9.85983 13.2696 9.89575 13.225 9.93536 13.1854C9.97498 13.1457 10.0186 13.1095 10.0659 13.0786C10.1126 13.0477 10.1623 13.0212 10.2147 12.9997C10.2664 12.9782 10.3204 12.9618 10.3755 12.9507C10.4862 12.9282 10.6007 12.9282 10.7115 12.9507C10.7655 12.9618 10.8196 12.9782 10.8723 12.9997C10.9236 13.0212 10.9737 13.0477 11.02 13.0786C11.0673 13.1095 11.111 13.1457 11.1506 13.1854C11.1902 13.225 11.2261 13.2693 11.258 13.3159C11.2889 13.3633 11.3157 13.413 11.3372 13.4647C11.3587 13.516 11.3748 13.5701 11.3859 13.6251C11.3973 13.6812 11.4023 13.7369 11.4023 13.7936C11.4023 13.8494 11.3973 13.9064 11.3859 13.9611C11.3748 14.0162 11.3587 14.0702 11.3372 14.1219C11.3157 14.1736 11.2889 14.2233 11.258 14.2707C11.2261 14.317 11.1902 14.3616 11.1506 14.4012C11.111 14.4408 11.0673 14.4768 11.02 14.5077C10.9737 14.5389 10.9236 14.5654 10.8723 14.5869C10.8196 14.6084 10.7655 14.6248 10.7115 14.6359C10.6554 14.647 10.5987 14.653 10.543 14.653Z" fill="currentColor"/>
    <path d="M31.2698 23.5942L35.5556 23.0618H43.1406C43.6153 23.0618 44 22.6771 44 22.2024C44 21.7281 43.6153 21.343 43.1406 21.343H37.743L39.9875 16.2935H43.1406C43.6153 16.2935 44 15.9088 44 15.4342C44 14.9595 43.6153 14.5748 43.1406 14.5748H39.4289C39.0891 14.5748 38.7813 14.7749 38.6437 15.0851L35.8792 21.3055L35.4247 21.3467H35.4244C35.418 21.3471 35.4113 21.3477 35.4049 21.3488C35.4039 21.3488 35.4026 21.3488 35.4012 21.3491C35.3999 21.3491 35.3982 21.3494 35.3965 21.3498L32.0403 21.7667L32.144 21.4864C32.2309 21.2514 32.2108 20.9902 32.0893 20.771C31.9677 20.5518 31.7566 20.3967 31.5112 20.3464L28.9599 19.8214L27.2298 17.8747C27.0666 17.691 26.833 17.5863 26.5876 17.5863C26.3419 17.5863 26.1082 17.691 25.9451 17.8747L24.2109 19.8257L22.0087 20.3084L21.484 18.6494C20.9359 16.9169 19.347 15.7527 17.5296 15.7527H14.6933V10.4844C14.6933 10.0097 14.3086 9.625 13.8339 9.625H0.859375C0.384705 9.625 0 10.0097 0 10.4844C0 10.959 0.384705 11.3438 0.859375 11.3438H12.9749V29.7293H11.4025V16.9159C11.4025 16.4413 11.0175 16.0565 10.5431 16.0565C10.0685 16.0565 9.68375 16.4413 9.68375 16.9159V29.7293H0.859375C0.384705 29.7293 0 30.1144 0 30.5887C0 31.0634 0.384705 31.4481 0.859375 31.4481H14.8823C15.274 33.1652 16.8135 34.4505 18.6474 34.4505C20.4813 34.4505 22.0208 33.1655 22.4126 31.4481H24.515C24.9893 31.4481 25.3744 31.0634 25.3744 30.5887V29.345L25.9451 29.9872C26.1082 30.1708 26.3422 30.2758 26.5876 30.2758C26.833 30.2758 27.067 30.1708 27.2301 29.9872L28.9636 28.0368L29.3675 27.9492V30.7995C29.3675 31.2739 29.7525 31.6589 30.2268 31.6589H33.2581C33.5854 33.2501 34.997 34.4505 36.6839 34.4505C38.3704 34.4505 39.782 33.2501 40.1093 31.6589H43.1406C43.6153 31.6589 44 31.2739 44 30.7995C44 30.3249 43.6153 29.9402 43.1406 29.9402H40.0311C39.596 28.5044 38.26 27.456 36.6836 27.456C35.1075 27.456 33.7718 28.5044 33.3364 29.9402H31.0862V23.802C31.0862 23.6966 31.1651 23.6073 31.2698 23.5942ZM36.6836 29.1748C37.6645 29.1748 38.4621 29.9727 38.4621 30.9533C38.4621 31.9338 37.6645 32.7318 36.6836 32.7318C35.703 32.7318 34.9054 31.9338 34.9054 30.9533C34.9054 29.9727 35.703 29.1748 36.6836 29.1748ZM17.5296 17.4715C18.5937 17.4715 19.5246 18.1533 19.8455 19.1678L20.6639 21.7556H14.6933V17.4715H17.5296ZM18.6474 32.7318C17.4658 32.7318 16.5047 31.7704 16.5047 30.5887C16.5047 29.4074 17.4658 28.446 18.6474 28.446C19.8291 28.446 20.7905 29.4074 20.7905 30.5887C20.7905 31.7704 19.8291 32.7318 18.6474 32.7318ZM23.6553 29.7293H22.4126C22.0208 28.0126 20.4813 26.7272 18.6474 26.7272C16.8135 26.7272 15.274 28.0123 14.8823 29.7293H14.6933V23.4744H22.2642C23.0312 23.4744 23.6553 24.0988 23.6553 24.8658V29.7293ZM28.3255 26.4164C28.1472 26.455 27.9861 26.549 27.8649 26.6853L26.5876 28.1227L25.3741 26.7574V24.8658C25.3741 23.4096 24.3683 22.1843 23.0151 21.8476L24.8517 21.4451C25.029 21.4062 25.1894 21.3122 25.3099 21.1765L26.5876 19.7391L27.8649 21.1765C27.9881 21.3148 28.1526 21.4099 28.3339 21.4471L30.1849 21.8281L29.9751 22.3951C29.9744 22.3968 29.9737 22.3985 29.9734 22.3998C29.5988 22.7536 29.3675 23.2542 29.3675 23.802V26.1905L28.3255 26.4164Z" fill="currentColor"/>
</svg>
