<svg width="44" height="44" viewBox="0 0 44 44" fill="none" xmlns="http://www.w3.org/2000/svg">
    <g clip-path="url(#clip0)">
        <path d="M27.6826 8.38927C27.6826 7.91472 27.2977 7.53006 26.8232 7.53006H26.2648V5.72976C26.2648 5.25521 25.8799 4.87056 25.4054 4.87056C24.9308 4.87056 24.546 5.25521 24.546 5.72976V7.53006H22.8591V4.41706C22.8591 3.94252 22.4743 3.55786 21.9998 3.55786C21.5252 3.55786 21.1404 3.94252 21.1404 4.41706V7.53006H19.4535V5.72976C19.4535 5.25521 19.0687 4.87056 18.5942 4.87056C18.1196 4.87056 17.7348 5.25521 17.7348 5.72976V7.53006H17.174C16.6994 7.53006 16.3146 7.91472 16.3146 8.38927V8.94752H14.5162C14.0416 8.94752 13.6568 9.33217 13.6568 9.80672C13.6568 10.2813 14.0416 10.6659 14.5162 10.6659H16.3146V12.3523H13.2031C12.7286 12.3523 12.3438 12.7369 12.3438 13.2115C12.3438 13.686 12.7286 14.0707 13.2031 14.0707H16.3146V15.757H14.5162C14.0416 15.757 13.6568 16.1417 13.6568 16.6162C13.6568 17.0908 14.0416 17.4754 14.5162 17.4754H16.3146V18.0361C16.3146 18.5106 16.6994 18.8953 17.174 18.8953H17.7348V20.6932C17.7348 21.1677 18.1196 21.5524 18.5942 21.5524C19.0687 21.5524 19.4535 21.1677 19.4535 20.6932V18.8953H21.1404V22.0059C21.1404 22.4804 21.5252 22.8651 21.9998 22.8651C22.4743 22.8651 22.8591 22.4804 22.8591 22.0059V18.8953H24.546V20.6932C24.546 21.1677 24.9308 21.5524 25.4054 21.5524C25.8799 21.5524 26.2648 21.1677 26.2648 20.6932V18.8953H26.8232C27.2977 18.8953 27.6826 18.5106 27.6826 18.0361V17.4754H29.4834C29.9579 17.4754 30.3428 17.0908 30.3428 16.6162C30.3428 16.1417 29.9579 15.757 29.4834 15.757H27.6826V14.0707H30.7964C31.271 14.0707 31.6558 13.686 31.6558 13.2115C31.6558 12.7369 31.271 12.3523 30.7964 12.3523H27.6826V10.6659H29.4834C29.9579 10.6659 30.3428 10.2813 30.3428 9.80672C30.3428 9.33217 29.9579 8.94752 29.4834 8.94752H27.6826V8.38927ZM18.0333 17.177V9.24847H25.9638V17.177H18.0333Z" fill="currentColor"/>
        <path d="M38.2852 37.2791H36.6427V31.4554C36.6427 30.9809 36.2579 30.5962 35.7833 30.5962H27.1574L22.8594 28.568V26.3877C26.064 26.1832 29.0483 24.8385 31.3386 22.5476C35.3831 18.5041 36.3694 12.3601 33.7928 7.25903C33.5788 6.83535 33.062 6.66537 32.6383 6.87935C32.2146 7.09325 32.0446 7.61008 32.2586 8.03358C34.4998 12.4705 33.6417 17.8149 30.1231 21.3326C27.9538 23.5025 25.0688 24.6975 22 24.6975C18.9312 24.6975 16.0462 23.5025 13.8768 21.3325C9.39881 16.8557 9.3989 9.56937 13.8768 5.09022C17.3958 1.57211 22.7416 0.715056 27.1788 2.95768C27.6026 3.17167 28.1193 3.00203 28.3335 2.57844C28.5476 2.15494 28.3779 1.63811 27.9543 1.42404C22.8524 -1.15434 16.7068 -0.169241 12.6614 3.87524C7.51351 9.02452 7.5136 17.4009 12.6614 22.5474C14.9517 24.8384 17.9361 26.1831 21.1407 26.3876V28.5679L16.8427 30.5962H8.21666C7.74211 30.5962 7.35728 30.9809 7.35728 31.4554V37.2791H5.71484C5.2403 37.2791 4.85547 37.6638 4.85547 38.1383V43.1408C4.85547 43.6153 5.2403 44 5.71484 44H10.7186C11.1931 44 11.5779 43.6153 11.5779 43.1408V38.1383C11.5779 37.6638 11.1931 37.2791 10.7186 37.2791H9.07612V32.3146H16.8429L21.1406 34.3408V37.2791H19.4982C19.0236 37.2791 18.6388 37.6638 18.6388 38.1383V43.1408C18.6388 43.6153 19.0236 44 19.4982 44H24.5019C24.9764 44 25.3613 43.6153 25.3613 43.1408V38.1383C25.3613 37.6638 24.9764 37.2791 24.5019 37.2791H22.8594V34.3408L27.1571 32.3147H34.9239V37.2792H33.2814C32.8069 37.2792 32.4221 37.6639 32.4221 38.1384V43.1409C32.4221 43.6154 32.8069 44.0001 33.2814 44.0001H38.2852C38.7597 44.0001 39.1445 43.6154 39.1445 43.1409V38.1384C39.1445 37.6639 38.7597 37.2791 38.2852 37.2791ZM9.85918 42.2816H6.57422V38.9976H9.85918V42.2816ZM23.6424 42.2816H20.3575V38.9976H23.6424V42.2816ZM22 32.8461L19.0494 31.4551L22 30.0627L24.9506 31.4551L22 32.8461ZM37.4258 42.2816H34.1408V38.9976H37.4258V42.2816Z" fill="currentColor"/>
        <path d="M29.9645 4.8718C30.1148 5.17223 30.4167 5.34497 30.7308 5.34497C30.8605 5.34497 30.9923 5.31558 31.1162 5.25362C31.5406 5.04144 31.7116 4.52289 31.4993 4.09844C31.287 3.674 30.7705 3.50195 30.3464 3.71422C29.9218 3.9264 29.7498 4.44254 29.962 4.86698L29.9645 4.8718Z" fill="currentColor"/>
    </g>
    <defs>
        <clipPath id="clip0">
            <rect width="44" height="44" fill="white"/>
        </clipPath>
    </defs>
</svg>
