<svg width="128" height="33" viewBox="0 0 128 33" fill="none" xmlns="http://www.w3.org/2000/svg">
    <path d="M0 4.5C0 2.29086 1.79086 0.5 4 0.5H124C126.209 0.5 128 2.29086 128 4.5V28.5C128 30.7091 126.209 32.5 124 32.5H4C1.79086 32.5 0 30.7091 0 28.5V4.5Z" fill="white"/>
    <path d="M18.9658 22.608C18.7138 22.608 18.4378 22.602 18.1378 22.59C17.8498 22.578 17.5558 22.56 17.2558 22.536C16.9678 22.512 16.6798 22.482 16.3918 22.446C16.1038 22.41 15.8398 22.362 15.5998 22.302V10.206C15.8398 10.146 16.1038 10.098 16.3918 10.062C16.6798 10.026 16.9678 9.996 17.2558 9.972C17.5558 9.948 17.8498 9.93 18.1378 9.918C18.4258 9.906 18.6958 9.9 18.9478 9.9C19.6678 9.9 20.3398 9.954 20.9638 10.062C21.5998 10.17 22.1458 10.356 22.6018 10.62C23.0698 10.872 23.4358 11.208 23.6998 11.628C23.9638 12.048 24.0958 12.564 24.0958 13.176C24.0958 13.86 23.9338 14.424 23.6098 14.868C23.2858 15.3 22.8538 15.624 22.3138 15.84C23.0458 16.056 23.6278 16.398 24.0598 16.866C24.4918 17.334 24.7078 17.994 24.7078 18.846C24.7078 20.094 24.2458 21.036 23.3218 21.672C22.4098 22.296 20.9578 22.608 18.9658 22.608ZM17.3278 16.686V21.078C17.4598 21.09 17.6158 21.102 17.7958 21.114C17.9518 21.126 18.1318 21.138 18.3358 21.15C18.5518 21.15 18.7978 21.15 19.0738 21.15C19.5898 21.15 20.0758 21.12 20.5318 21.06C20.9998 20.988 21.4078 20.868 21.7558 20.7C22.1038 20.532 22.3798 20.298 22.5838 19.998C22.7998 19.698 22.9078 19.32 22.9078 18.864C22.9078 18.456 22.8298 18.114 22.6738 17.838C22.5178 17.55 22.2898 17.322 21.9898 17.154C21.7018 16.986 21.3538 16.866 20.9458 16.794C20.5378 16.722 20.0818 16.686 19.5778 16.686H17.3278ZM17.3278 15.282H19.1638C19.5958 15.282 20.0038 15.252 20.3878 15.192C20.7718 15.132 21.1018 15.024 21.3778 14.868C21.6658 14.712 21.8878 14.508 22.0438 14.256C22.2118 14.004 22.2958 13.686 22.2958 13.302C22.2958 12.942 22.2118 12.642 22.0438 12.402C21.8758 12.15 21.6418 11.952 21.3418 11.808C21.0538 11.652 20.7118 11.538 20.3158 11.466C19.9198 11.394 19.4998 11.358 19.0558 11.358C18.6118 11.358 18.2638 11.364 18.0118 11.376C17.7598 11.388 17.5318 11.406 17.3278 11.43V15.282ZM33.3662 14.832C35.1782 14.904 36.5042 15.3 37.3442 16.02C38.1962 16.74 38.6222 17.718 38.6222 18.954C38.6222 19.506 38.5262 20.016 38.3342 20.484C38.1542 20.952 37.8722 21.354 37.4882 21.69C37.1162 22.026 36.6422 22.29 36.0662 22.482C35.4902 22.674 34.8062 22.77 34.0142 22.77C33.7022 22.77 33.3842 22.746 33.0602 22.698C32.7362 22.65 32.4362 22.59 32.1602 22.518C31.8842 22.446 31.6382 22.374 31.4222 22.302C31.2062 22.23 31.0502 22.17 30.9542 22.122L31.2782 20.664C31.4822 20.76 31.8122 20.886 32.2682 21.042C32.7362 21.198 33.3062 21.276 33.9782 21.276C34.5182 21.276 34.9682 21.216 35.3282 21.096C35.7002 20.976 36.0002 20.814 36.2282 20.61C36.4562 20.406 36.6182 20.172 36.7142 19.908C36.8222 19.632 36.8762 19.344 36.8762 19.044C36.8762 18.588 36.7982 18.186 36.6422 17.838C36.4862 17.478 36.2102 17.178 35.8142 16.938C35.4182 16.698 34.8902 16.518 34.2302 16.398C33.5702 16.266 32.7362 16.2 31.7282 16.2C31.8002 15.612 31.8542 15.06 31.8902 14.544C31.9382 14.028 31.9802 13.524 32.0162 13.032C32.0522 12.54 32.0822 12.054 32.1062 11.574C32.1302 11.082 32.1542 10.566 32.1782 10.026H38.1902V11.448H33.6362C33.6242 11.628 33.6062 11.874 33.5822 12.186C33.5582 12.486 33.5342 12.804 33.5102 13.14C33.4862 13.464 33.4622 13.782 33.4382 14.094C33.4142 14.406 33.3902 14.652 33.3662 14.832ZM40.6643 18.18C40.8923 17.652 41.2043 17.04 41.6003 16.344C41.9963 15.636 42.4403 14.91 42.9323 14.166C43.4363 13.422 43.9703 12.69 44.5343 11.97C45.1103 11.25 45.6863 10.602 46.2623 10.026H47.8643V17.946H49.3403V19.314H47.8643V22.5H46.2443V19.314H40.6643V18.18ZM46.2443 12.006C45.8843 12.39 45.5183 12.822 45.1463 13.302C44.7863 13.77 44.4323 14.262 44.0843 14.778C43.7363 15.294 43.4063 15.822 43.0943 16.362C42.7943 16.902 42.5243 17.43 42.2843 17.946H46.2443V12.006ZM53.6865 14.832C55.4985 14.904 56.8245 15.3 57.6645 16.02C58.5165 16.74 58.9425 17.718 58.9425 18.954C58.9425 19.506 58.8465 20.016 58.6545 20.484C58.4745 20.952 58.1925 21.354 57.8085 21.69C57.4365 22.026 56.9625 22.29 56.3865 22.482C55.8105 22.674 55.1265 22.77 54.3345 22.77C54.0225 22.77 53.7045 22.746 53.3805 22.698C53.0565 22.65 52.7565 22.59 52.4805 22.518C52.2045 22.446 51.9585 22.374 51.7425 22.302C51.5265 22.23 51.3705 22.17 51.2745 22.122L51.5985 20.664C51.8025 20.76 52.1325 20.886 52.5885 21.042C53.0565 21.198 53.6265 21.276 54.2985 21.276C54.8385 21.276 55.2885 21.216 55.6485 21.096C56.0205 20.976 56.3205 20.814 56.5485 20.61C56.7765 20.406 56.9385 20.172 57.0345 19.908C57.1425 19.632 57.1965 19.344 57.1965 19.044C57.1965 18.588 57.1185 18.186 56.9625 17.838C56.8065 17.478 56.5305 17.178 56.1345 16.938C55.7385 16.698 55.2105 16.518 54.5505 16.398C53.8905 16.266 53.0565 16.2 52.0485 16.2C52.1205 15.612 52.1745 15.06 52.2105 14.544C52.2585 14.028 52.3005 13.524 52.3365 13.032C52.3725 12.54 52.4025 12.054 52.4265 11.574C52.4505 11.082 52.4745 10.566 52.4985 10.026H58.5105V11.448H53.9565C53.9445 11.628 53.9265 11.874 53.9025 12.186C53.8785 12.486 53.8545 12.804 53.8305 13.14C53.8065 13.464 53.7825 13.782 53.7585 14.094C53.7345 14.406 53.7105 14.652 53.6865 14.832ZM76.2207 16.254C76.2207 17.334 76.0527 18.276 75.7167 19.08C75.3807 19.872 74.9067 20.532 74.2947 21.06C73.6827 21.576 72.9507 21.966 72.0987 22.23C71.2467 22.482 70.3107 22.608 69.2907 22.608C68.7867 22.608 68.2287 22.584 67.6167 22.536C67.0167 22.5 66.4707 22.422 65.9787 22.302V10.206C66.4707 10.086 67.0167 10.008 67.6167 9.972C68.2287 9.924 68.7867 9.9 69.2907 9.9C70.3107 9.9 71.2467 10.032 72.0987 10.296C72.9507 10.548 73.6827 10.938 74.2947 11.466C74.9067 11.982 75.3807 12.642 75.7167 13.446C76.0527 14.238 76.2207 15.174 76.2207 16.254ZM69.4347 21.078C71.0907 21.078 72.3267 20.658 73.1427 19.818C73.9587 18.966 74.3667 17.778 74.3667 16.254C74.3667 14.73 73.9587 13.548 73.1427 12.708C72.3267 11.856 71.0907 11.43 69.4347 11.43C68.9427 11.43 68.5587 11.436 68.2827 11.448C68.0187 11.46 67.8327 11.472 67.7247 11.484V21.024C67.8327 21.036 68.0187 21.048 68.2827 21.06C68.5587 21.072 68.9427 21.078 69.4347 21.078ZM86.6525 10.026V11.538H82.7285V22.5H80.9825V11.538H77.0585V10.026H86.6525Z" fill="#201F32"/>
    <path d="M98.7032 11.34C98.7032 11.58 98.6532 11.8133 98.5532 12.04C98.4599 12.26 98.3332 12.48 98.1732 12.7C98.0132 12.9133 97.8332 13.1267 97.6332 13.34C97.4332 13.5467 97.2332 13.75 97.0332 13.95C96.9199 14.0633 96.7865 14.1967 96.6332 14.35C96.4865 14.5033 96.3465 14.6633 96.2132 14.83C96.0799 14.9967 95.9665 15.1567 95.8732 15.31C95.7865 15.4633 95.7432 15.5967 95.7432 15.71H98.9332V16.5H94.7332C94.7265 16.46 94.7232 16.42 94.7232 16.38C94.7232 16.34 94.7232 16.3033 94.7232 16.27C94.7232 15.9567 94.7732 15.6667 94.8732 15.4C94.9799 15.1267 95.1165 14.87 95.2832 14.63C95.4499 14.39 95.6365 14.1633 95.8432 13.95C96.0499 13.7367 96.2532 13.53 96.4532 13.33C96.6199 13.17 96.7765 13.0133 96.9232 12.86C97.0765 12.7 97.2099 12.5433 97.3232 12.39C97.4432 12.23 97.5365 12.0667 97.6032 11.9C97.6765 11.7333 97.7132 11.5567 97.7132 11.37C97.7132 11.17 97.6799 11 97.6132 10.86C97.5532 10.72 97.4699 10.6033 97.3632 10.51C97.2565 10.4167 97.1299 10.35 96.9832 10.31C96.8432 10.2633 96.6932 10.24 96.5332 10.24C96.3399 10.24 96.1632 10.2667 96.0032 10.32C95.8432 10.3733 95.6999 10.4367 95.5732 10.51C95.4465 10.5767 95.3399 10.65 95.2532 10.73C95.1665 10.8033 95.0999 10.86 95.0532 10.9L94.5932 10.24C94.6532 10.1733 94.7432 10.0933 94.8632 10C94.9832 9.9 95.1265 9.80667 95.2932 9.72C95.4599 9.63333 95.6465 9.56 95.8532 9.5C96.0599 9.44 96.2832 9.41 96.5232 9.41C97.2499 9.41 97.7932 9.58 98.1532 9.92C98.5199 10.2533 98.7032 10.7267 98.7032 11.34ZM101.668 12.24C102.674 12.28 103.411 12.5 103.878 12.9C104.351 13.3 104.588 13.8433 104.588 14.53C104.588 14.8367 104.534 15.12 104.428 15.38C104.328 15.64 104.171 15.8633 103.958 16.05C103.751 16.2367 103.488 16.3833 103.168 16.49C102.848 16.5967 102.468 16.65 102.028 16.65C101.854 16.65 101.678 16.6367 101.498 16.61C101.318 16.5833 101.151 16.55 100.998 16.51C100.844 16.47 100.708 16.43 100.588 16.39C100.468 16.35 100.381 16.3167 100.328 16.29L100.508 15.48C100.621 15.5333 100.804 15.6033 101.058 15.69C101.318 15.7767 101.634 15.82 102.008 15.82C102.308 15.82 102.558 15.7867 102.758 15.72C102.964 15.6533 103.131 15.5633 103.258 15.45C103.384 15.3367 103.474 15.2067 103.528 15.06C103.588 14.9067 103.618 14.7467 103.618 14.58C103.618 14.3267 103.574 14.1033 103.488 13.91C103.401 13.71 103.248 13.5433 103.028 13.41C102.808 13.2767 102.514 13.1767 102.148 13.11C101.781 13.0367 101.318 13 100.758 13C100.798 12.6733 100.828 12.3667 100.848 12.08C100.874 11.7933 100.898 11.5133 100.918 11.24C100.938 10.9667 100.954 10.6967 100.968 10.43C100.981 10.1567 100.994 9.87 101.008 9.57H104.348V10.36H101.818C101.811 10.46 101.801 10.5967 101.788 10.77C101.774 10.9367 101.761 11.1133 101.748 11.3C101.734 11.48 101.721 11.6567 101.708 11.83C101.694 12.0033 101.681 12.14 101.668 12.24ZM106.252 11C106.632 10.8533 107.002 10.6667 107.362 10.44C107.722 10.2067 108.052 9.91667 108.352 9.57H109.012V16.5H108.082V10.86C108.002 10.9333 107.902 11.01 107.782 11.09C107.669 11.17 107.542 11.2467 107.402 11.32C107.269 11.3933 107.126 11.4633 106.972 11.53C106.826 11.5967 106.682 11.6533 106.542 11.7L106.252 11Z" fill="#201F32"/>
    <g clip-path="url(#clip0)">
        <path d="M97.2176 24.4316H96.6632L96.3014 23.3942C96.2686 23.3067 96.2244 23.224 96.1698 23.1483C96.116 23.0721 96.052 23.0073 95.9802 22.9528C95.9085 22.8982 95.8289 22.8556 95.7398 22.8256C95.6492 22.795 95.5543 22.7796 95.4587 22.7801H94.5108V24.4316H94V20.566H95.7081C95.8116 20.566 95.9097 20.5684 96.003 20.5732C96.0957 20.5792 96.1848 20.5888 96.2691 20.6061C96.3546 20.6211 96.4342 20.6457 96.5101 20.6793C96.5861 20.7129 96.6572 20.7585 96.7254 20.8172C96.8421 20.9204 96.9312 21.0451 96.991 21.1915C97.0508 21.3378 97.0807 21.4889 97.0807 21.6454C97.0807 21.7804 97.0615 21.9045 97.0209 22.0172C96.982 22.1312 96.9252 22.2313 96.8504 22.3189C96.7745 22.407 96.683 22.4808 96.5765 22.5408C96.47 22.6007 96.3492 22.6451 96.2135 22.6703V22.6793C96.4826 22.7633 96.6883 22.9972 96.8325 23.3792L97.2153 24.4304L97.2176 24.4316ZM94.5114 22.3171H95.6567C95.814 22.3171 95.9497 22.3051 96.0634 22.2811C96.177 22.2583 96.2709 22.2199 96.3445 22.1672C96.4164 22.1149 96.4721 22.0431 96.5047 21.9603C96.5394 21.8739 96.5562 21.7702 96.5562 21.6472C96.5562 21.4253 96.488 21.2598 96.3516 21.1537C96.2159 21.0469 96.0089 20.9936 95.7332 20.9936H94.5108V22.3171H94.5114ZM99.4054 24.4988C99.168 24.4988 98.9658 24.4748 98.7978 24.4268C98.6472 24.3871 98.5048 24.3209 98.3773 24.2313C98.2637 24.1474 98.174 24.0514 98.1106 23.9393C98.0472 23.8271 97.9981 23.7096 97.9646 23.5837C97.9313 23.4561 97.9105 23.3255 97.9024 23.1939C97.8936 23.0629 97.8893 22.9317 97.8893 22.8004V20.566H98.4V22.7909C98.4 23.0511 98.4222 23.2616 98.467 23.4241C98.5119 23.5867 98.5765 23.712 98.6614 23.8037C98.7451 23.8937 98.8504 23.9573 98.9748 23.9897C99.0992 24.022 99.2409 24.0406 99.403 24.0406C99.5663 24.0406 99.711 24.0244 99.8354 23.9909C99.9598 23.9573 100.064 23.8961 100.149 23.8037C100.233 23.712 100.297 23.5855 100.34 23.4229C100.383 23.2604 100.404 23.0511 100.404 22.7933V20.5684H100.918V22.8016C100.918 23.0691 100.895 23.3078 100.85 23.5177C100.811 23.7114 100.729 23.8938 100.611 24.0514C100.497 24.1954 100.341 24.3075 100.146 24.3849C99.9502 24.461 99.7032 24.5 99.4024 24.5L99.4054 24.4988ZM103.237 24.4988C102.995 24.503 102.755 24.4706 102.523 24.4028C102.338 24.347 102.165 24.2549 102.015 24.1318C101.88 24.0154 101.778 23.8769 101.707 23.718C101.637 23.5591 101.6 23.3804 101.594 23.1873H102.084C102.097 23.3336 102.137 23.4607 102.201 23.5681C102.265 23.6754 102.348 23.7642 102.448 23.8343C102.548 23.9045 102.664 23.9561 102.794 23.9903C102.924 24.0244 103.064 24.0394 103.213 24.0394C103.356 24.0394 103.488 24.0244 103.605 23.9939C103.722 23.9639 103.823 23.9201 103.907 23.8619C103.991 23.8043 104.057 23.736 104.102 23.6538C104.148 23.5705 104.171 23.4767 104.17 23.3816C104.172 23.2878 104.151 23.1948 104.107 23.1117C104.057 23.0305 103.987 22.9642 103.902 22.9198C103.785 22.8556 103.661 22.8057 103.532 22.7711C103.378 22.7279 103.191 22.6823 102.966 22.6349C102.775 22.5945 102.588 22.5384 102.407 22.467C102.267 22.4139 102.137 22.339 102.021 22.2451C101.919 22.1612 101.846 22.0628 101.797 21.9537C101.749 21.8445 101.724 21.7174 101.724 21.5729C101.724 21.4181 101.758 21.2754 101.823 21.1429C101.889 21.0109 101.983 20.8982 102.103 20.8034C102.224 20.7093 102.368 20.6355 102.537 20.5816C102.707 20.5276 102.893 20.5 103.097 20.5C103.313 20.5 103.51 20.527 103.688 20.5798C103.868 20.6325 104.021 20.7093 104.149 20.8094C104.279 20.9102 104.381 21.0313 104.454 21.1753C104.527 21.3192 104.566 21.4811 104.572 21.6634H104.078C104.026 21.1957 103.706 20.963 103.12 20.963C102.833 20.963 102.613 21.0169 102.459 21.1231C102.386 21.1684 102.326 21.2321 102.285 21.3079C102.244 21.3836 102.224 21.4688 102.226 21.5549C102.226 21.6358 102.24 21.7048 102.268 21.763C102.298 21.8211 102.346 21.8721 102.414 21.9153C102.484 21.9603 102.576 21.9993 102.688 22.0352C102.8 22.0712 102.942 22.1072 103.111 22.1432C103.226 22.1672 103.344 22.1912 103.466 22.2193C103.588 22.2469 103.706 22.2805 103.822 22.3201C103.938 22.3603 104.048 22.4082 104.149 22.4652C104.251 22.5222 104.341 22.59 104.417 22.6703C104.494 22.7501 104.554 22.8442 104.6 22.954C104.645 23.0637 104.667 23.1915 104.667 23.3378C104.667 23.5075 104.631 23.664 104.56 23.8055C104.488 23.9483 104.39 24.0706 104.262 24.1738C104.134 24.2757 103.982 24.3561 103.808 24.4136C103.633 24.47 103.443 24.4988 103.235 24.4988H103.237Z" fill="#201F32"/>
        <path d="M105.668 23.1663H111.89V24.4995H105.668V23.1663Z" fill="#DB3B43"/>
        <path d="M105.668 21.8345H111.89V23.1677H105.668V21.8345Z" fill="#0167B2"/>
        <path d="M105.667 20.5007H111.889V21.834H105.667V20.5007Z" fill="#F9F9F9"/>
    </g>
    <circle cx="6" cy="16.5" r="2" fill="#201F32"/>
    <circle cx="122" cy="16.5" r="2" fill="#201F32"/>
    <path d="M4 1.5H124V-0.5H4V1.5ZM127 4.5V28.5H129V4.5H127ZM124 31.5H4V33.5H124V31.5ZM1 28.5V4.5H-1V28.5H1ZM4 31.5C2.34315 31.5 1 30.1569 1 28.5H-1C-1 31.2614 1.23858 33.5 4 33.5V31.5ZM127 28.5C127 30.1569 125.657 31.5 124 31.5V33.5C126.761 33.5 129 31.2614 129 28.5H127ZM124 1.5C125.657 1.5 127 2.84315 127 4.5H129C129 1.73858 126.761 -0.5 124 -0.5V1.5ZM4 -0.5C1.23858 -0.5 -1 1.73858 -1 4.5H1C1 2.84315 2.34315 1.5 4 1.5V-0.5Z" fill="#8F8E99"/>
    <g filter="url(#filter0_b)">
        <rect x="8" y="1.5" width="112" height="30" fill="white" fill-opacity="0.4"/>
    </g>
    <defs>
        <filter id="filter0_b" x="0" y="-6.5" width="128" height="46" filterUnits="userSpaceOnUse" color-interpolation-filters="sRGB">
            <feFlood flood-opacity="0" result="BackgroundImageFix"/>
            <feGaussianBlur in="BackgroundImage" stdDeviation="4"/>
            <feComposite in2="SourceAlpha" operator="in" result="effect1_backgroundBlur"/>
            <feBlend mode="normal" in="SourceGraphic" in2="effect1_backgroundBlur" result="shape"/>
        </filter>
        <clipPath id="clip0">
            <rect width="17.8894" height="4" fill="white" transform="translate(94 20.5)"/>
        </clipPath>
    </defs>
</svg>
