<svg width="232" height="232" viewBox="0 0 232 232" fill="none" xmlns="http://www.w3.org/2000/svg">
<g clip-path="url(#clip0)">
<mask id="mask0" mask-type="alpha" maskUnits="userSpaceOnUse" x="-55" y="-103" width="348" height="348">
<circle cx="119" cy="71" r="174" fill="#C4C4C4"/>
</mask>
<g mask="url(#mask0)">
<path d="M170.583 206.344C163.94 207.019 158.085 202.29 157.071 195.759L155.607 185.4L180.605 182.36L181.618 192.832C182.294 199.588 177.339 205.668 170.583 206.344Z" fill="white"/>
<path d="M182.293 201.276L181.617 230.665H159.66L157.408 202.177C156.845 194.746 161.912 188.102 168.668 187.427C175.537 186.751 181.504 192.268 182.18 199.813C182.293 200.376 182.293 200.826 182.293 201.276Z" fill="white"/>
<path d="M182.294 201.277L181.618 230.665H159.661L157.409 202.177C157.296 200.714 157.409 199.362 157.634 198.124C157.409 197.336 157.184 196.547 157.071 195.759L155.607 185.4L180.605 182.36L181.618 192.832C181.731 193.395 181.731 193.845 181.731 194.408C181.731 195.872 181.843 197.336 182.068 198.799C182.181 199.137 182.181 199.588 182.181 199.925C182.294 200.376 182.294 200.826 182.294 201.277Z" stroke="#5B5B5B" stroke-width="1.5" stroke-miterlimit="10" stroke-linecap="round" stroke-linejoin="round"/>
<path d="M180.603 182.36L155.606 185.4L147.837 130.564C146.711 123.02 152.003 116.039 159.547 115.025C167.091 114.012 174.072 119.192 175.086 126.736C175.086 126.961 175.198 127.186 175.198 127.299L180.603 182.36Z" fill="#E0E0E0"/>
<path d="M155.381 183.486L147.837 130.564C146.711 123.02 152.003 116.039 159.547 115.025C167.091 113.899 174.072 119.191 175.086 126.736C175.086 126.961 175.086 127.186 175.198 127.299L180.603 182.36" stroke="#5B5B5B" stroke-width="1.5" stroke-miterlimit="10" stroke-linecap="round" stroke-linejoin="round"/>
<path d="M152.566 190.691L181.617 187.989C183.756 187.764 185.333 185.85 185.22 183.71L184.882 179.882C184.657 177.742 182.743 176.166 180.604 176.279L151.666 178.981C149.526 179.206 147.95 181.12 148.062 183.26L148.4 187.088C148.513 189.34 150.427 190.917 152.566 190.691Z" fill="#E0E0E0"/>
<path d="M152.566 190.691L181.617 187.989C183.756 187.764 185.333 185.85 185.22 183.71L184.882 179.882C184.657 177.742 182.743 176.166 180.604 176.279L151.666 178.981C149.526 179.206 147.95 181.12 148.062 183.26L148.4 187.088C148.513 189.34 150.427 190.917 152.566 190.691Z" stroke="#5B5B5B" stroke-width="1.5" stroke-miterlimit="10" stroke-linecap="round" stroke-linejoin="round"/>
<path d="M88.2705 133.605L64.3993 194.972C61.9221 201.39 54.7157 204.543 48.4101 202.066C42.2171 199.701 39.0643 192.72 41.2037 186.527L62.3725 124.147C64.8497 116.94 72.6191 113.112 79.8255 115.589C87.0319 118.066 90.8603 125.836 88.3831 133.042C88.3831 133.267 88.3831 133.493 88.2705 133.605Z" fill="#E0E0E0"/>
<path d="M39.4027 194.408L12.6039 126.397C10.6898 121.443 13.0543 115.926 18.0087 114.011C22.5127 112.21 27.6923 114.237 29.9443 118.403L64.0621 183.035C67.5527 189.678 65.0755 197.898 58.4321 201.389C51.7887 204.879 43.5689 202.402 40.0783 195.759C39.7405 195.308 39.5153 194.858 39.4027 194.408Z" fill="white"/>
<path d="M79.8261 115.588C72.6197 113.111 64.7377 116.939 62.3731 124.145L50.8879 158.038L29.9443 118.403C27.6923 114.237 22.5127 112.21 18.0087 114.011C13.0543 115.926 10.6898 121.443 12.6039 126.397L39.4027 194.408C39.6279 194.858 39.7405 195.308 40.0783 195.759C42.6681 200.713 47.9603 203.416 53.2525 202.965C58.0943 202.853 62.5983 199.812 64.5125 195.083L88.3837 133.716C88.4963 133.604 88.4963 133.379 88.6089 133.153C90.9735 125.947 87.0325 118.065 79.8261 115.588Z" stroke="#5B5B5B" stroke-width="1.5" stroke-miterlimit="10" stroke-linecap="round" stroke-linejoin="round"/>
<path d="M73.8595 180.895L71.8327 185.962C71.1571 187.651 69.2429 188.552 67.4413 187.877L65.3019 187.088C65.1893 186.751 65.1893 186.525 65.0767 186.188C64.8515 185.174 64.4011 184.161 63.9507 183.147L57.9829 171.887L57.4199 170.874L71.8327 176.617C73.7469 177.18 74.5351 179.094 73.8595 180.895Z" fill="#E0E0E0"/>
<path d="M72.283 175.829L57.082 169.861L57.645 170.875L58.208 171.888L71.8326 177.293C73.1838 177.856 73.8594 179.32 73.2964 180.671L71.2696 185.738C71.0444 186.414 70.4814 186.864 69.8058 187.202C69.468 187.314 69.1302 187.427 68.7924 187.427C68.4546 187.427 68.1168 187.314 67.779 187.202L65.1892 186.188C65.3018 186.414 65.3018 186.751 65.4144 187.089C65.4144 187.314 65.527 187.652 65.527 187.877L67.216 188.553C67.6664 188.778 68.2294 188.891 68.6798 188.891C69.2428 188.891 69.8058 188.778 70.2562 188.553C71.2696 188.103 72.0578 187.314 72.3956 186.301L74.4224 181.234C75.3232 179.095 74.3098 176.73 72.283 175.829Z" fill="#5B5B5B"/>
<path d="M50.8887 158.039L62.3739 179.996" stroke="#5B5B5B" stroke-width="1.5" stroke-miterlimit="10" stroke-linecap="round" stroke-linejoin="round"/>
<path d="M22.0621 109.17L27.8047 107.819L21.1613 79.6687C20.8235 78.0923 19.2471 77.079 17.6707 77.5294C16.0943 77.8672 15.0809 79.4436 15.5313 81.02L22.0621 109.17Z" fill="white"/>
<path d="M15.869 110.635L22.062 109.171L18.7966 95.2084C18.3462 93.5194 16.6572 92.3934 14.9682 92.8438C13.2792 93.2942 12.1532 94.9832 12.6036 96.6722L15.869 110.635Z" fill="white"/>
<path d="M15.8693 110.633L9.78892 112.097L6.52352 98.5853C6.07312 96.8963 7.19912 95.2073 8.88812 94.7569C10.5771 94.3065 12.2661 95.4325 12.7165 97.1215L15.8693 110.633Z" fill="white"/>
<path d="M4.04634 113.448L9.67634 112.097L6.63614 99.4859C6.29834 97.9095 4.72194 97.0087 3.14554 97.3465C1.56914 97.6843 0.668341 99.2607 1.00614 100.837L4.04634 113.448Z" fill="white"/>
<path d="M18.5723 119.078L24.4275 122.344C25.3283 121.556 26.2291 120.655 26.7921 119.529L27.4677 118.403L37.0387 101.4C38.052 99.5986 37.3765 97.3466 35.5749 96.3332C34.6741 95.8828 33.7733 95.7702 32.8725 95.9954C31.8591 96.2206 31.0709 96.8962 30.5079 97.797L26.9047 104.215L18.5723 119.078Z" fill="white"/>
<path d="M2.24609 106.918L4.2729 115.476C5.84929 122.007 12.3801 126.06 18.9109 124.484C20.8251 124.034 22.5141 123.133 23.9779 121.894C24.8787 121.106 25.7795 120.205 26.3425 119.079C26.5677 118.741 26.7929 118.291 27.0181 117.953C28.2567 115.476 28.5945 112.661 27.9189 109.733L25.8921 101.176L2.24609 106.918Z" fill="white"/>
<path d="M19.0218 109.846C20.7108 109.396 21.8368 107.707 21.3864 106.018L18.7966 95.2084C18.3462 93.5194 16.6572 92.3934 14.9682 92.8438C13.2792 93.2942 12.1532 94.9832 12.6036 96.6722L15.1934 107.482C15.5312 109.171 17.2202 110.297 19.0218 109.846Z" stroke="#5B5B5B" stroke-width="1.5" stroke-miterlimit="10" stroke-linecap="round" stroke-linejoin="round"/>
<path d="M12.8291 111.309C11.1401 111.76 9.45112 110.634 9.00072 108.945L6.52352 98.473C6.07312 96.784 7.19912 95.095 8.88812 94.6446C10.5771 94.1942 12.2661 95.3202 12.7165 97.0092L15.1937 107.481C15.5315 109.17 14.5181 110.972 12.8291 111.309Z" stroke="#5B5B5B" stroke-width="1.5" stroke-miterlimit="10" stroke-linecap="round" stroke-linejoin="round"/>
<path d="M6.86134 112.773C8.43774 112.435 9.33853 110.858 9.00073 109.282L6.63614 99.4859C6.29834 97.9095 4.72194 97.0087 3.14554 97.3465C1.56914 97.6843 0.668341 99.2607 1.00614 100.837L3.37074 110.633C3.82114 112.097 5.28494 113.11 6.86134 112.773Z" stroke="#5B5B5B" stroke-width="1.5" stroke-miterlimit="10" stroke-linecap="round" stroke-linejoin="round"/>
<path d="M25.327 121.443C25.89 120.88 26.3404 120.205 26.7908 119.529L27.4664 118.403L37.0374 101.401C38.0508 99.5989 37.3752 97.3469 35.5736 96.3335C34.6728 95.8831 33.772 95.7705 32.8712 95.9957C31.8578 96.2209 31.0696 96.8965 30.5066 97.7973L26.9034 104.216L21.0482 79.6687C20.7104 78.0923 19.134 77.079 17.5576 77.5294C16.7694 77.7546 16.0938 78.205 15.756 78.8806C15.4182 79.5562 15.193 80.3444 15.4182 81.1326L18.7962 95.3202C18.3458 93.6312 16.6568 92.5052 14.9678 92.9556C14.067 93.1808 13.3914 93.6311 12.941 94.4193C12.4906 95.0949 12.378 95.9957 12.6032 96.7839L12.7158 97.2343C12.4906 96.3335 12.0402 95.658 11.252 95.3202C10.5764 94.8698 9.67559 94.7571 8.88739 94.9823C7.19839 95.4327 6.18499 97.1217 6.52279 98.8107L6.74799 99.7115C6.41019 98.1351 4.83379 97.2344 3.25739 97.5722C2.46919 97.7974 1.7936 98.2477 1.4558 98.9233C1.118 99.5989 0.892793 100.387 1.11799 101.175L4.7212 116.376C6.07239 122.119 11.252 125.947 16.9946 125.722" stroke="#5B5B5B" stroke-width="1.5" stroke-miterlimit="10" stroke-linecap="round" stroke-linejoin="round"/>
<path d="M160.673 230.665H76.5612L71.832 115.362L117.773 105.792L165.403 115.362L160.673 230.665Z" fill="#E0E0E0"/>
<path d="M165.403 115.362L160.673 230.665H76.5612L71.832 115.362L102.797 108.944L117.773 105.792L133.424 108.944L165.403 115.362Z" stroke="#5B5B5B" stroke-width="1.5" stroke-miterlimit="10" stroke-linecap="round" stroke-linejoin="round"/>
<path d="M133.423 110.521C133.423 118.966 126.554 125.947 117.996 125.947C109.552 125.947 102.57 119.078 102.57 110.521C102.57 109.958 102.57 109.395 102.683 108.944L117.659 105.792L133.31 108.944C133.423 109.507 133.423 110.07 133.423 110.521Z" stroke="#5B5B5B" stroke-width="1.5" stroke-miterlimit="10" stroke-linecap="round" stroke-linejoin="round"/>
<path d="M118.11 122.119C111.354 122.119 105.949 116.715 105.949 109.959V96.334H130.271V109.959C130.271 116.715 124.753 122.119 118.11 122.119Z" fill="white"/>
<path d="M118.11 122.119C111.354 122.119 105.949 116.715 105.949 109.959V96.334H130.271V109.959C130.271 116.715 124.753 122.119 118.11 122.119Z" stroke="#5B5B5B" stroke-width="1.5" stroke-miterlimit="10" stroke-linecap="round" stroke-linejoin="round"/>
<path d="M102.234 25.959H97.8429C92.5507 25.959 88.3845 30.5756 88.9475 35.8678V59.9641C88.9475 61.9909 90.6365 63.68 92.6633 63.68H92.7759L102.234 25.959Z" fill="#E0E0E0"/>
<path d="M102.234 25.959H97.8429C92.5507 25.959 88.3845 30.5756 88.9475 35.8678V59.9641C88.9475 61.9909 90.6365 63.68 92.6633 63.68H92.7759L102.234 25.959Z" stroke="#5B5B5B" stroke-width="1.5" stroke-miterlimit="10" stroke-linecap="round" stroke-linejoin="round"/>
<path d="M145.36 77.3043C145.472 90.5911 134.663 101.401 121.376 101.401H115.183C102.121 101.401 91.4244 90.9289 91.1992 77.8673C91.1992 77.5295 91.1992 77.1917 91.1992 76.7413L91.537 64.0175L91.8748 49.8299C92.2126 38.6825 101.333 29.7871 112.481 29.7871H144.121L145.022 65.4813L145.36 76.7413C145.36 76.9665 145.36 77.0791 145.36 77.3043Z" fill="white"/>
<path d="M145.36 77.3043C145.472 90.5911 134.663 101.401 121.376 101.401H115.183C102.121 101.401 91.4244 90.9289 91.1992 77.8673C91.1992 77.5295 91.1992 77.1917 91.1992 76.7413L91.537 64.0175L91.8748 49.8299C92.2126 38.6825 101.333 29.7871 112.481 29.7871H144.121L145.022 65.4813L145.36 76.7413C145.36 76.9665 145.36 77.0791 145.36 77.3043Z" stroke="#5B5B5B" stroke-width="1.5" stroke-miterlimit="10" stroke-linecap="round" stroke-linejoin="round"/>
<path d="M91.5362 64.0172L91.1984 76.741C91.1984 77.0788 91.1984 77.5292 91.1984 77.867C88.8338 77.867 86.4692 75.1646 86.0188 71.3362C85.4558 67.3952 87.1448 64.0172 89.622 63.6794C90.2976 63.5668 90.9732 63.6794 91.5362 64.0172Z" fill="white"/>
<path d="M152.339 71.3367C151.776 75.2777 149.299 78.0927 146.822 77.7549C146.371 77.6423 145.808 77.5297 145.471 77.1919C145.471 76.9667 145.471 76.8541 145.471 76.7415L145.133 65.4815C146.146 64.243 147.497 63.4547 148.736 63.6799C151.326 64.0177 152.902 67.5083 152.339 71.3367Z" fill="white"/>
<path d="M91.5362 64.0172L91.1984 76.741C91.1984 77.0788 91.1984 77.5292 91.1984 77.867C88.8338 77.867 86.4692 75.1646 86.0188 71.3362C85.4558 67.3952 87.1448 64.0172 89.622 63.6794C90.2976 63.5668 90.9732 63.6794 91.5362 64.0172Z" stroke="#5B5B5B" stroke-width="1.5" stroke-miterlimit="10" stroke-linecap="round" stroke-linejoin="round"/>
<path d="M152.339 71.3367C151.776 75.2777 149.299 78.0927 146.822 77.7549C146.371 77.6423 145.808 77.5297 145.471 77.1919C145.471 76.9667 145.471 76.8541 145.471 76.7415L145.133 65.4815C146.146 64.243 147.497 63.4547 148.736 63.6799C151.326 64.0177 152.902 67.5083 152.339 71.3367Z" stroke="#5B5B5B" stroke-width="1.5" stroke-miterlimit="10" stroke-linecap="round" stroke-linejoin="round"/>
<path d="M125.767 103.765H109.44C97.73 103.765 88.3842 93.969 89.0598 82.2586L90.0732 63.3418H91.6497V63.6796C91.6497 70.0978 93.1134 75.8404 95.2528 79.331C97.9552 77.8672 101.671 76.9664 105.725 76.9664C106.062 76.9664 106.4 76.9664 106.738 76.9664C108.765 77.079 110.679 77.3042 112.368 77.8672C114.057 78.3176 115.746 78.5428 117.435 78.5428C119.124 78.5428 120.813 78.3176 122.502 77.8672C124.191 77.4168 126.105 77.079 128.132 76.9664C128.47 76.9664 128.808 76.9664 129.145 76.9664C133.312 76.9664 137.027 77.8672 139.617 79.331C141.869 75.8404 143.108 70.0978 143.108 63.6796L143.22 63.3418H144.797L145.81 82.2586C146.711 93.969 137.478 103.765 125.767 103.765Z" fill="#E0E0E0"/>
<path d="M125.767 103.765H109.44C97.73 103.765 88.3842 93.969 89.0598 82.2586L90.0732 63.3418H91.6497V63.6796C91.6497 70.0978 93.1134 75.8404 95.2528 79.331C97.9552 77.8672 101.671 76.9664 105.725 76.9664C106.062 76.9664 106.4 76.9664 106.738 76.9664C108.765 77.079 110.679 77.3042 112.368 77.8672C114.057 78.3176 115.746 78.5428 117.435 78.5428C119.124 78.5428 120.813 78.3176 122.502 77.8672C124.191 77.4168 126.105 77.079 128.132 76.9664C128.47 76.9664 128.808 76.9664 129.145 76.9664C133.312 76.9664 137.027 77.8672 139.617 79.331C141.869 75.8404 143.108 70.0978 143.108 63.6796L143.22 63.3418H144.797L145.81 82.2586C146.711 93.969 137.478 103.765 125.767 103.765Z" stroke="#5B5B5B" stroke-width="1.5" stroke-miterlimit="10" stroke-linecap="round" stroke-linejoin="round"/>
<path d="M103.248 69.9858C104.262 69.9858 105.162 68.0716 105.162 65.707C105.162 63.3424 104.262 61.4282 103.248 61.4282C102.235 61.4282 101.334 63.3424 101.334 65.707C101.334 68.0716 102.235 69.9858 103.248 69.9858Z" fill="#5B5B5B"/>
<path d="M98.293 63.1172C99.3064 62.1038 100.77 61.4282 102.459 61.4282C105.162 61.4282 107.526 63.2298 108.089 65.707" stroke="#5B5B5B" stroke-width="0.75" stroke-miterlimit="10" stroke-linecap="round"/>
<path d="M131.623 69.9858C132.637 69.9858 133.537 68.0716 133.537 65.707C133.537 63.3424 132.637 61.4282 131.623 61.4282C130.61 61.4282 129.709 63.3424 129.709 65.707C129.709 68.0716 130.61 69.9858 131.623 69.9858Z" fill="#5B5B5B"/>
<path d="M136.575 63.1172C135.562 62.1038 134.098 61.4282 132.409 61.4282C129.707 61.4282 127.342 63.2298 126.779 65.707" stroke="#5B5B5B" stroke-width="0.75" stroke-miterlimit="10" stroke-linecap="round"/>
<path d="M129.37 81.1328C128.244 86.425 123.628 90.366 117.998 90.366H115.746C110.116 90.366 105.499 86.425 104.373 81.1328C107.526 82.0336 111.917 82.7092 116.872 82.7092C121.826 82.5966 126.33 82.0336 129.37 81.1328Z" fill="white"/>
<path d="M129.37 81.1328C128.244 86.425 123.628 90.366 117.998 90.366H115.746C110.116 90.366 105.499 86.425 104.373 81.1328C107.526 82.0336 111.917 82.7092 116.872 82.7092C121.826 82.5966 126.33 82.0336 129.37 81.1328Z" stroke="#5B5B5B" stroke-width="1.5" stroke-miterlimit="10" stroke-linecap="round" stroke-linejoin="round"/>
<path d="M108.426 52.7578C106.4 52.6452 104.26 52.983 102.121 53.4334C99.9815 53.8838 97.8421 54.5594 95.7027 55.4602H95.5901C95.3649 55.5728 95.1397 55.4602 95.0271 55.235C94.9145 55.0098 94.9145 54.7846 95.1397 54.5594C96.9413 53.0956 98.8555 51.7444 100.995 50.6184C103.022 49.4924 105.274 48.479 107.751 47.8034L109.102 47.4656C110.228 47.1278 111.354 48.0286 111.241 49.2672L111.129 50.6184C111.016 51.857 109.89 52.8704 108.652 52.7578H108.426Z" fill="#5B5B5B"/>
<path d="M126.442 52.7578C128.469 52.6452 130.608 52.983 132.748 53.4334C134.887 53.8838 137.026 54.5594 139.166 55.4602H139.278C139.504 55.5728 139.729 55.4602 139.841 55.235C139.954 55.0098 139.954 54.7846 139.729 54.5594C137.927 53.0956 136.013 51.7444 133.874 50.6184C131.847 49.4924 129.595 48.479 127.118 47.8034L125.766 47.4656C124.64 47.1278 123.514 48.0286 123.627 49.2672L123.74 50.6184C123.852 51.857 124.978 52.8704 126.217 52.7578H126.442Z" fill="#5B5B5B"/>
<path d="M113.943 95.8828C114.844 96.2206 116.083 96.4458 117.434 96.4458C118.785 96.4458 120.024 96.2206 120.925 95.8828" stroke="#5B5B5B" stroke-width="1.5" stroke-miterlimit="10" stroke-linecap="round" stroke-linejoin="round"/>
<path d="M140.518 25.959H150.089L147.499 60.4146C147.386 62.2162 145.81 63.68 144.008 63.68H143.333L140.518 25.959Z" fill="#E0E0E0"/>
<path d="M150.201 25.9586V23.7066C150.201 20.779 147.836 18.3018 144.796 18.3018L144.121 10.8702L140.63 16.3876C135.225 9.06864 126.668 4.67725 117.547 4.67725H107.526L108.877 7.94264L96.2656 4.67725V21.5672C96.2656 31.0256 103.922 38.6824 113.381 38.6824H141.418L150.201 25.9586Z" fill="#E0E0E0"/>
<path d="M144.796 18.3018L144.121 10.8702L140.63 16.3876C135.225 9.06864 126.668 4.67725 117.547 4.67725H107.526L108.877 7.94264L96.2656 4.67725V21.5672C96.2656 31.0256 103.922 38.6824 113.381 38.6824H141.418L143.332 63.567H144.008C145.81 63.567 147.386 62.2158 147.499 60.3016L150.088 25.846V23.594C150.201 20.6664 147.724 18.3018 144.796 18.3018Z" stroke="#5B5B5B" stroke-width="1.5" stroke-miterlimit="10" stroke-linecap="round" stroke-linejoin="round"/>
</g>
<path d="M159.967 91.6772C159.967 87.544 163.317 84.1934 167.451 84.1934H217.967C222.1 84.1934 225.451 87.544 225.451 91.6772V142.193C225.451 146.327 222.1 149.677 217.967 149.677H167.451C163.317 149.677 159.967 146.327 159.967 142.193V91.6772Z" fill="white"/>
<path fill-rule="evenodd" clip-rule="evenodd" d="M217.967 85.503H167.451C164.041 85.503 161.276 88.2673 161.276 91.6772V142.193C161.276 145.603 164.041 148.368 167.451 148.368H217.967C221.377 148.368 224.141 145.603 224.141 142.193V91.6772C224.141 88.2673 221.377 85.503 217.967 85.503ZM167.451 84.1934C163.317 84.1934 159.967 87.544 159.967 91.6772V142.193C159.967 146.327 163.317 149.677 167.451 149.677H217.967C222.1 149.677 225.451 146.327 225.451 142.193V91.6772C225.451 87.544 222.1 84.1934 217.967 84.1934H167.451Z" fill="#5B5B5B"/>
<path fill-rule="evenodd" clip-rule="evenodd" d="M174 133.774V100.097H211.419V133.774H203.95V107.662H196.444V133.774H188.963V107.662H181.481V133.774H174Z" fill="currentColor"/>
</g>
<defs>
<clipPath id="clip0">
<rect width="232" height="232" fill="white"/>
</clipPath>
</defs>
</svg>
