<svg width="184" height="184" viewBox="0 0 184 184" fill="none" xmlns="http://www.w3.org/2000/svg">
<path d="M84.7602 99.5522H20.0332V146.113H84.7602V99.5522Z" fill="white"/>
<path d="M84.7602 99.5522H20.0332V146.113H84.7602V99.5522Z" stroke="#5B5B5B" stroke-width="1.5" stroke-miterlimit="10" stroke-linecap="round" stroke-linejoin="round"/>
<path d="M84.719 146.161H120.045V99.6002H84.719V146.161Z" fill="#E0E0E0"/>
<path d="M84.719 146.161H120.045V99.6002H84.719V146.161Z" stroke="#5B5B5B" stroke-width="1.5" stroke-miterlimit="10" stroke-linecap="round" stroke-linejoin="round"/>
<path d="M43.3418 99.552V114.308L45.354 113.582L46.9191 114.308L48.7078 113.694L50.1052 114.308L51.8379 113.694L53.1794 114.308V99.552H43.3418Z" fill="#E0E0E0"/>
<path d="M43.3418 99.552V114.308L45.354 113.582L46.9191 114.308L48.7078 113.694L50.1052 114.308L51.8379 113.694L53.1794 114.308V99.552H43.3418Z" stroke="#5B5B5B" stroke-width="1.5" stroke-miterlimit="10" stroke-linecap="round" stroke-linejoin="round"/>
<path d="M75.425 128.395H59.1035V140.244H75.425V128.395Z" fill="#E0E0E0"/>
<path d="M75.425 128.395H59.1035V140.244H75.425V128.395Z" stroke="#5B5B5B" stroke-width="1.5" stroke-miterlimit="10" stroke-linecap="round" stroke-linejoin="round"/>
<path d="M60.7266 130.964H69.2786" stroke="#5B5B5B" stroke-width="1.5" stroke-miterlimit="10" stroke-linecap="round" stroke-linejoin="round"/>
<path d="M60.7246 134.319H65.0286" stroke="#5B5B5B" stroke-width="1.5" stroke-miterlimit="10" stroke-linecap="round" stroke-linejoin="round"/>
<path d="M60.7246 137.281H67.6557" stroke="#5B5B5B" stroke-width="1.5" stroke-miterlimit="10" stroke-linecap="round" stroke-linejoin="round"/>
<path d="M90.9088 37.8975H25.9023V99.6061H90.9088V37.8975Z" fill="white"/>
<path d="M90.9088 37.8975H25.9023V99.6061H90.9088V37.8975Z" stroke="#5B5B5B" stroke-width="1.5" stroke-miterlimit="10" stroke-linecap="round" stroke-linejoin="round"/>
<path d="M90.8803 99.5471H114.133L114.133 37.8385H90.8803V99.5471Z" fill="#E0E0E0"/>
<path d="M90.8803 99.5471H114.133L114.133 37.8385H90.8803V99.5471Z" stroke="#5B5B5B" stroke-width="1.5" stroke-miterlimit="10" stroke-linecap="round" stroke-linejoin="round"/>
<path d="M99.4043 37.8977V52.5982L100.69 51.9275L101.696 52.5982L102.814 51.9834L103.708 52.5982L104.826 51.9834L105.665 52.5982V37.8977H99.4043Z" fill="white"/>
<path d="M99.4043 37.8977V52.5982L100.69 51.9275L101.696 52.5982L102.814 51.9834L103.708 52.5982L104.826 51.9834L105.665 52.5982V37.8977H99.4043Z" stroke="#5B5B5B" stroke-width="1.5" stroke-miterlimit="10" stroke-linecap="round" stroke-linejoin="round"/>
<path d="M48.2609 80.0439H31.9395V91.8938H48.2609V80.0439Z" fill="#E0E0E0"/>
<path d="M48.2609 80.0439H31.9395V91.8938H48.2609V80.0439Z" stroke="#5B5B5B" stroke-width="1.5" stroke-miterlimit="10" stroke-linecap="round" stroke-linejoin="round"/>
<path d="M33.5605 82.616H44.572" stroke="#5B5B5B" stroke-width="1.5" stroke-miterlimit="10" stroke-linecap="round" stroke-linejoin="round"/>
<path d="M33.5605 85.9683H39.0383" stroke="#5B5B5B" stroke-width="1.5" stroke-miterlimit="10" stroke-linecap="round" stroke-linejoin="round"/>
<path d="M33.5605 88.9314H37.1379" stroke="#5B5B5B" stroke-width="1.5" stroke-miterlimit="10" stroke-linecap="round" stroke-linejoin="round"/>
<path d="M130.593 132.363C143.616 128.003 154.74 119.395 162.23 108.216C163.851 105.813 164.689 103.018 164.689 100.167V63.2761C151.889 61.7669 140.151 56.6804 130.537 49.0786C120.923 56.6804 109.185 61.711 96.3848 63.2761V100.111C96.3848 102.962 97.2791 105.813 98.8442 108.16C106.446 119.395 117.513 128.003 130.593 132.363Z" fill="#E0E0E0"/>
<path d="M130.593 132.363C143.616 128.003 154.74 119.395 162.23 108.216C163.851 105.813 164.689 103.018 164.689 100.167V63.2761C151.889 61.7669 140.151 56.6804 130.537 49.0786C120.923 56.6804 109.185 61.711 96.3848 63.2761V100.111C96.3848 102.962 97.2791 105.813 98.8442 108.16C106.446 119.395 117.513 128.003 130.593 132.363Z" stroke="#5B5B5B" stroke-width="1.5" stroke-miterlimit="10" stroke-linecap="round" stroke-linejoin="round"/>
<path d="M130.594 129.399C118.744 125.207 108.347 117.158 101.249 106.65C99.963 104.693 99.2363 102.458 99.2363 100.166V65.7343C110.583 64.0016 121.315 59.474 130.594 52.6548C139.872 59.474 150.604 64.0016 161.951 65.7343V100.166C161.951 102.458 161.28 104.749 159.939 106.65C152.84 117.158 142.444 125.207 130.594 129.399Z" fill="white"/>
<path d="M130.594 129.399C118.744 125.207 108.347 117.158 101.249 106.65C99.963 104.693 99.2363 102.458 99.2363 100.166V65.7343C110.583 64.0016 121.315 59.474 130.594 52.6548C139.872 59.474 150.604 64.0016 161.951 65.7343V100.166C161.951 102.458 161.28 104.749 159.939 106.65C152.84 117.158 142.444 125.207 130.594 129.399Z" stroke="#5B5B5B" stroke-width="0.75" stroke-miterlimit="10" stroke-linecap="round" stroke-linejoin="round"/>
<path d="M118.072 86.8634L129.084 103.688L146.02 77.8083" stroke="currentColor" stroke-width="6" stroke-miterlimit="10" stroke-linecap="round" stroke-linejoin="round"/>
</svg>
