<svg width="40" height="40" viewBox="-1 0 43 40" fill="none" xmlns="http://www.w3.org/2000/svg">
<path d="M14.6664 13.3892C14.4134 13.3893 14.1662 13.4648 13.9563 13.6062C13.7465 13.7475 13.5836 13.9483 13.4884 14.1827C13.3932 14.4172 13.37 14.6747 13.4219 14.9224C13.4738 15.1701 13.5984 15.3967 13.7797 15.5732L18.2016 19.9972L13.7797 24.4212C13.6576 24.5384 13.5602 24.6788 13.493 24.8342C13.4259 24.9895 13.3905 25.1567 13.3887 25.326C13.387 25.4952 13.4191 25.6631 13.483 25.8198C13.547 25.9765 13.6415 26.1189 13.7612 26.2385C13.8808 26.3582 14.0231 26.4528 14.1798 26.5168C14.3364 26.5808 14.5043 26.6128 14.6735 26.6111C14.8427 26.6094 15.0098 26.5739 15.1651 26.5068C15.3204 26.4396 15.4608 26.3421 15.578 26.22L19.9999 21.796L24.4219 26.22C24.539 26.3421 24.6794 26.4396 24.8347 26.5068C24.99 26.5739 25.1572 26.6094 25.3264 26.6111C25.4956 26.6128 25.6634 26.5808 25.82 26.5168C25.9767 26.4528 26.119 26.3582 26.2387 26.2385C26.3583 26.1189 26.4529 25.9765 26.5168 25.8198C26.5808 25.6631 26.6128 25.4952 26.6111 25.326C26.6094 25.1567 26.5739 24.9895 26.5068 24.8342C26.4397 24.6788 26.3422 24.5384 26.2202 24.4212L21.7982 19.9972L26.2202 15.5732C26.4039 15.3945 26.5294 15.1644 26.5803 14.9132C26.6311 14.6619 26.6048 14.4012 26.5049 14.1651C26.4051 13.929 26.2362 13.7286 26.0205 13.5901C25.8048 13.4517 25.5523 13.3817 25.2962 13.3892C24.9658 13.3991 24.6522 13.5372 24.4219 13.7743L19.9999 18.1983L15.578 13.7743C15.4595 13.6525 15.3177 13.5556 15.1612 13.4895C15.0046 13.4233 14.8364 13.3892 14.6664 13.3892Z" fill="white"/>
<path d="M20 39C9.50659 39 1 30.4934 1 20H-1C-1 31.598 8.40202 41 20 41V39ZM39 20C39 30.4934 30.4934 39 20 39V41C31.598 41 41 31.598 41 20H39ZM20 1C30.4934 1 39 9.50659 39 20H41C41 8.40202 31.598 -1 20 -1V1ZM20 -1C8.40202 -1 -1 8.40202 -1 20H1C1 9.50659 9.50659 1 20 1V-1Z" fill="white" fill-opacity="0.5"/>
</svg>
