<svg width="44" height="45" viewBox="0 0 44 45" fill="none" xmlns="http://www.w3.org/2000/svg">
    <path d="M10.543 15.153C10.317 15.153 10.0952 15.061 9.93536 14.9012C9.89575 14.8616 9.85983 14.817 9.82895 14.7707C9.79807 14.7233 9.77121 14.6736 9.74973 14.6219C9.72824 14.5702 9.71213 14.5162 9.70071 14.4611C9.68964 14.4061 9.68359 14.3494 9.68359 14.2936C9.68359 14.2369 9.68964 14.1812 9.70071 14.1251C9.71213 14.0701 9.72824 14.016 9.74973 13.9647C9.77121 13.913 9.79807 13.8629 9.82895 13.8159C9.85983 13.7696 9.89575 13.725 9.93536 13.6854C9.97498 13.6457 10.0186 13.6095 10.0659 13.5786C10.1126 13.5477 10.1623 13.5212 10.2147 13.4997C10.2664 13.4782 10.3204 13.4618 10.3755 13.4507C10.4862 13.4282 10.6007 13.4282 10.7115 13.4507C10.7655 13.4618 10.8196 13.4782 10.8723 13.4997C10.9236 13.5212 10.9737 13.5477 11.02 13.5786C11.0673 13.6095 11.111 13.6457 11.1506 13.6854C11.1902 13.725 11.2261 13.7693 11.258 13.8159C11.2889 13.8633 11.3157 13.913 11.3372 13.9647C11.3587 14.016 11.3748 14.0701 11.3859 14.1251C11.3973 14.1812 11.4023 14.2369 11.4023 14.2936C11.4023 14.3494 11.3973 14.4064 11.3859 14.4611C11.3748 14.5162 11.3587 14.5702 11.3372 14.6219C11.3157 14.6736 11.2889 14.7233 11.258 14.7707C11.2261 14.817 11.1902 14.8616 11.1506 14.9012C11.111 14.9408 11.0673 14.9768 11.02 15.0077C10.9737 15.0389 10.9236 15.0654 10.8723 15.0869C10.8196 15.1084 10.7655 15.1248 10.7115 15.1359C10.6554 15.147 10.5987 15.153 10.543 15.153Z" fill="#EF5740"/>
    <path d="M31.2698 24.0942L35.5556 23.5618H43.1406C43.6153 23.5618 44 23.1771 44 22.7024C44 22.2281 43.6153 21.843 43.1406 21.843H37.743L39.9875 16.7935H43.1406C43.6153 16.7935 44 16.4088 44 15.9342C44 15.4595 43.6153 15.0748 43.1406 15.0748H39.4289C39.0891 15.0748 38.7813 15.2749 38.6437 15.5851L35.8792 21.8055L35.4247 21.8467H35.4244C35.418 21.8471 35.4113 21.8477 35.4049 21.8488C35.4039 21.8488 35.4026 21.8488 35.4012 21.8491C35.3999 21.8491 35.3982 21.8494 35.3965 21.8498L32.0403 22.2667L32.144 21.9864C32.2309 21.7514 32.2108 21.4902 32.0893 21.271C31.9677 21.0518 31.7566 20.8967 31.5112 20.8464L28.9599 20.3214L27.2298 18.3747C27.0666 18.191 26.833 18.0863 26.5876 18.0863C26.3419 18.0863 26.1082 18.191 25.9451 18.3747L24.2109 20.3257L22.0087 20.8084L21.484 19.1494C20.9359 17.4169 19.347 16.2527 17.5296 16.2527H14.6933V10.9844C14.6933 10.5097 14.3086 10.125 13.8339 10.125H0.859375C0.384705 10.125 0 10.5097 0 10.9844C0 11.459 0.384705 11.8438 0.859375 11.8438H12.9749V30.2293H11.4025V17.4159C11.4025 16.9413 11.0175 16.5565 10.5431 16.5565C10.0685 16.5565 9.68375 16.9413 9.68375 17.4159V30.2293H0.859375C0.384705 30.2293 0 30.6144 0 31.0887C0 31.5634 0.384705 31.9481 0.859375 31.9481H14.8823C15.274 33.6652 16.8135 34.9505 18.6474 34.9505C20.4813 34.9505 22.0208 33.6655 22.4126 31.9481H24.515C24.9893 31.9481 25.3744 31.5634 25.3744 31.0887V29.845L25.9451 30.4872C26.1082 30.6708 26.3422 30.7758 26.5876 30.7758C26.833 30.7758 27.067 30.6708 27.2301 30.4872L28.9636 28.5368L29.3675 28.4492V31.2995C29.3675 31.7739 29.7525 32.1589 30.2268 32.1589H33.2581C33.5854 33.7501 34.997 34.9505 36.6839 34.9505C38.3704 34.9505 39.782 33.7501 40.1093 32.1589H43.1406C43.6153 32.1589 44 31.7739 44 31.2995C44 30.8249 43.6153 30.4402 43.1406 30.4402H40.0311C39.596 29.0044 38.26 27.956 36.6836 27.956C35.1075 27.956 33.7718 29.0044 33.3364 30.4402H31.0862V24.302C31.0862 24.1966 31.1651 24.1073 31.2698 24.0942ZM36.6836 29.6748C37.6645 29.6748 38.4621 30.4727 38.4621 31.4533C38.4621 32.4338 37.6645 33.2318 36.6836 33.2318C35.703 33.2318 34.9054 32.4338 34.9054 31.4533C34.9054 30.4727 35.703 29.6748 36.6836 29.6748ZM17.5296 17.9715C18.5937 17.9715 19.5246 18.6533 19.8455 19.6678L20.6639 22.2556H14.6933V17.9715H17.5296ZM18.6474 33.2318C17.4658 33.2318 16.5047 32.2704 16.5047 31.0887C16.5047 29.9074 17.4658 28.946 18.6474 28.946C19.8291 28.946 20.7905 29.9074 20.7905 31.0887C20.7905 32.2704 19.8291 33.2318 18.6474 33.2318ZM23.6553 30.2293H22.4126C22.0208 28.5126 20.4813 27.2272 18.6474 27.2272C16.8135 27.2272 15.274 28.5123 14.8823 30.2293H14.6933V23.9744H22.2642C23.0312 23.9744 23.6553 24.5988 23.6553 25.3658V30.2293ZM28.3255 26.9164C28.1472 26.955 27.9861 27.049 27.8649 27.1853L26.5876 28.6227L25.3741 27.2574V25.3658C25.3741 23.9096 24.3683 22.6843 23.0151 22.3476L24.8517 21.9451C25.029 21.9062 25.1894 21.8122 25.3099 21.6765L26.5876 20.2391L27.8649 21.6765C27.9881 21.8148 28.1526 21.9099 28.3339 21.9471L30.1849 22.3281L29.9751 22.8951C29.9744 22.8968 29.9737 22.8985 29.9734 22.8998C29.5988 23.2536 29.3675 23.7542 29.3675 24.302V26.6905L28.3255 26.9164Z" fill="#EF5740"/>
</svg>
