<svg width="24" height="24" viewBox="0 0 24 24" fill="none" xmlns="http://www.w3.org/2000/svg">
<path d="M22.0568 15.2168C21.4241 15.2168 20.9113 15.7296 20.9113 16.3622V20.55C20.9113 21.1826 20.3984 21.6954 19.7658 21.6954H4.23924C3.60659 21.6954 3.09374 21.1826 3.09374 20.55V16.3622C3.09374 15.7296 2.58089 15.2168 1.94824 15.2168C1.31558 15.2168 0.802734 15.7296 0.802734 16.3622V20.55C0.802734 22.4478 2.34128 23.9862 4.23917 23.9862H19.7658C21.6637 23.9862 23.2023 22.4478 23.2023 20.55V16.3622C23.2023 15.7296 22.6894 15.2168 22.0568 15.2168Z" fill="#27B4B8"/>
<path d="M13.0073 3.01421L13.0073 13.338L16.514 9.81413C16.9054 9.42094 17.5414 9.41943 17.9346 9.81077C18.3278 10.2021 18.3293 10.8381 17.938 11.2313L12.7148 16.4799C12.7145 16.4802 12.7141 16.4805 12.7138 16.4808C12.3225 16.873 11.6844 16.8742 11.2918 16.4809C11.2915 16.4805 11.2911 16.4803 11.2908 16.48L6.06763 11.2314C5.67639 10.8383 5.67774 10.2023 6.07104 9.81087C6.46424 9.41953 7.10021 9.42104 7.49155 9.81423L10.9983 13.338L10.9983 3.01421C10.9983 2.45945 11.448 2.00975 12.0028 2.00975C12.5576 2.00975 13.0073 2.45945 13.0073 3.01421Z" fill="#27B4B8"/>
</svg>
