<svg xmlns="http://www.w3.org/2000/svg" width="170" height="60" fill="none" viewBox="0 0 170 60">
  <path fill="#5B5B5B" d="M93.24 49.189H59.992v5.67H93.24v-5.67zM33.3 59.17a4.311 4.311 0 100-8.623 4.311 4.311 0 000 8.622zM24.146 59.17a4.311 4.311 0 100-8.623 4.311 4.311 0 000 8.622zM14.933 59.17a4.311 4.311 0 100-8.623 4.311 4.311 0 000 8.622zM54.972 59.17a4.311 4.311 0 100-8.623 4.311 4.311 0 000 8.622z"/>
  <path fill="#fff" d="M54.972 57.22a2.362 2.362 0 100-4.724 2.362 2.362 0 000 4.724z"/>
  <path fill="#5B5B5B" d="M54.972 55.685a.827.827 0 100-1.654.827.827 0 000 1.654zM45.819 59.17a4.311 4.311 0 100-8.623 4.311 4.311 0 000 8.622z"/>
  <path fill="#fff" d="M45.82 57.22a2.362 2.362 0 100-4.724 2.362 2.362 0 000 4.724z"/>
  <path fill="#5B5B5B" d="M45.819 55.685a.827.827 0 100-1.654.827.827 0 000 1.654z"/>
  <path fill="#fff" d="M36.606 50.547c2.362 0 4.311 1.949 4.311 4.311s-1.949 4.311-4.31 4.311c-2.363 0-4.312-1.949-4.312-4.31 0-2.363 1.949-4.312 4.311-4.312zm0-.413a4.738 4.738 0 00-4.724 4.724 4.738 4.738 0 004.724 4.725 4.738 4.738 0 004.725-4.725 4.738 4.738 0 00-4.725-4.724z"/>
  <path fill="#5B5B5B" d="M36.606 59.17a4.311 4.311 0 100-8.623 4.311 4.311 0 000 8.622z"/>
  <path fill="#fff" d="M36.606 57.22a2.362 2.362 0 100-4.724 2.362 2.362 0 000 4.724z"/>
  <path fill="#5B5B5B" d="M36.607 55.685a.827.827 0 100-1.654.827.827 0 000 1.654z"/>
  <path fill="#fff" d="M111.842 15.055h-88.17v34.193h88.17V15.055z"/>
  <path stroke="#5B5B5B" stroke-linecap="round" stroke-linejoin="round" stroke-miterlimit="10" stroke-width="1.5" d="M111.842 15.055h-88.17v34.193h88.17V15.055z"/>
  <path fill="#E0E0E0" d="M23.673 15.055H2v34.193h21.673V15.055z"/>
  <path stroke="#5B5B5B" stroke-linecap="round" stroke-linejoin="round" stroke-miterlimit="10" stroke-width="1.5" d="M23.673 15.055H2v34.193h21.673V15.055z"/>
  <path fill="#fff" d="M109.479 48.953l7.382-.237 3.779-3.248-.295-5.728-1.594-2.48-7.382-1.654-3.13 2.422-1.417 4.015-.532 3.898 3.189 3.012z"/>
  <path fill="#E0E0E0" d="M103.101 41.57a8.594 8.594 0 006.378 7.383c-.354-.355-.649-.827-.885-1.359-.237-.531-.355-1.004-.355-1.535a4.246 4.246 0 011.004-3.012c.591-.768.827-1.771.532-2.716.708.177 1.358.59 1.83 1.24.119.177.237.354.296.531.059.118.118.237.118.355.177-.355.295-.71.413-1.063.118-.355.177-.768.177-1.181.059-.473 0-.945-.118-1.418a4.992 4.992 0 00-.295-1.004c-.059-.059-.059-.177-.118-.236a5.146 5.146 0 012.185 1.3c.472.413.827.944 1.122 1.535.059.059.059.177.118.236a5.45 5.45 0 01.413 2.126c0 .59-.118 1.18-.295 1.771.354-.295.591-.708.768-1.122.295-.767.354-1.594.059-2.42a5.211 5.211 0 011.772 2.125c.885 2.008.236 4.311-1.359 5.67a10.045 10.045 0 006.969-10.808 9.955 9.955 0 00-3.839-6.85c0 .06 0 .177.059.236.177 1.418 0 2.835-.413 4.134.059-.65 0-1.358-.059-2.067a11.945 11.945 0 00-.827-3.248 11.567 11.567 0 00-11.929-6.91h-.118a10.984 10.984 0 012.894 6.438 8.321 8.321 0 010 2.42c-.06.473-.119.946-.237 1.418-.118-.413-.236-.827-.472-1.24-.709-1.417-2.067-2.48-3.602-2.894a3.423 3.423 0 011.24 2.185 3.146 3.146 0 01-.886 2.599c-.059.059-.118.118-.177.118-1.536 1.535-2.481 3.602-2.599 5.905.177.532.177.945.236 1.359z"/>
  <path stroke="#5B5B5B" stroke-linecap="round" stroke-linejoin="round" stroke-miterlimit="10" stroke-width="1.5" d="M103.101 41.57a8.594 8.594 0 006.378 7.383c-.354-.355-.649-.827-.885-1.359-.237-.531-.355-1.004-.355-1.535a4.246 4.246 0 011.004-3.012c.591-.768.827-1.771.532-2.716.708.177 1.358.59 1.83 1.24.119.177.237.354.296.531.059.118.118.237.118.355.177-.355.295-.71.413-1.063.118-.355.177-.768.177-1.181.059-.473 0-.945-.118-1.418a4.992 4.992 0 00-.295-1.004c-.059-.059-.059-.177-.118-.236a5.146 5.146 0 012.185 1.3c.472.413.827.944 1.122 1.535.059.059.059.177.118.236a5.45 5.45 0 01.413 2.126c0 .59-.118 1.18-.295 1.771.354-.295.591-.708.768-1.122.295-.767.354-1.594.059-2.42a5.211 5.211 0 011.772 2.125c.885 2.008.236 4.311-1.359 5.67a10.045 10.045 0 006.969-10.808 9.955 9.955 0 00-3.839-6.85c0 .06 0 .177.059.236.177 1.418 0 2.835-.413 4.134.059-.65 0-1.358-.059-2.067a11.945 11.945 0 00-.827-3.248 11.567 11.567 0 00-11.929-6.91h-.118a10.984 10.984 0 012.894 6.438 8.321 8.321 0 010 2.42c-.06.473-.119.946-.237 1.418-.118-.413-.236-.827-.472-1.24-.709-1.417-2.067-2.48-3.602-2.894a3.423 3.423 0 011.24 2.185 3.146 3.146 0 01-.886 2.599c-.059.059-.118.118-.177.118-1.536 1.535-2.481 3.602-2.599 5.905.177.532.177.945.236 1.359z"/>
  <path fill="#5B5B5B" d="M158.437 57.693a4.31 4.31 0 100-8.622 4.31 4.31 0 000 8.622z"/>
  <path fill="#E0E0E0" d="M165.996 24.15L167 53.026l-11.929-.59-9.744 1.299-15.414.532-1.299-37.382 28.583-1.004c4.547-.177 8.327 3.248 8.74 7.677.059.236.059.413.059.59z"/>
  <path fill="#fff" d="M144.323 24.917l1.004 28.878-35.551 1.24-.177-5.67 20.078-.708-1.122-31.771 6.91-.236c4.783-.119 8.74 3.543 8.858 8.267zM165.76 49.897l-3.839-.118c-.236 0-.413-.177-.354-.413l.059-2.067c0-.236.177-.413.414-.354l3.838.118c.236 0 .414.177.354.413l-.059 2.067c0 .177-.177.354-.413.354z"/>
  <path stroke="#5B5B5B" stroke-miterlimit="10" stroke-width=".75" d="M165.76 49.897l-3.839-.118c-.236 0-.413-.177-.354-.413l.059-2.067c0-.236.177-.413.414-.354l3.838.118c.236 0 .414.177.354.413l-.059 2.067c0 .177-.177.354-.413.354z"/>
  <path fill="#fff" d="M150.583 50.134l-3.839.413c-.236 0-.413-.118-.413-.354l-.236-2.067c0-.236.118-.414.354-.414l3.839-.413c.236 0 .413.118.413.354l.236 2.067c0 .236-.118.414-.354.414z"/>
  <path stroke="#5B5B5B" stroke-miterlimit="10" stroke-width=".75" d="M150.583 50.134l-3.839.413c-.236 0-.413-.118-.413-.354l-.236-2.067c0-.236.118-.414.354-.414l3.839-.413c.236 0 .413.118.413.354l.236 2.067c0 .236-.118.414-.354.414z"/>
  <path fill="#5B5B5B" d="M159.382 49.012l-3.839-.532-2.48.768c-.236 0-.414-.177-.414-.355v-.236c0-.236.178-.413.355-.413l2.48-.768 3.839.532c.236 0 .413.177.413.354v.236c0 .236-.177.414-.354.414z"/>
  <path stroke="#5B5B5B" stroke-miterlimit="10" stroke-width=".75" d="M162.747 44.346c0 .768-.59 1.477-1.358 1.477l-5.965-.768-4.606 1.122c-.768 0-1.476-.59-1.476-1.358l6.023-1.181 7.382.708z"/>
  <path stroke="#5B5B5B" stroke-miterlimit="10" stroke-width=".75" d="M163.692 42.161c0 .768-.59 1.477-1.358 1.477l-6.969-.768-5.551 1.181c-.767 0-1.476-.59-1.476-1.358l6.968-1.24 8.386.708z"/>
  <path stroke="#5B5B5B" stroke-miterlimit="10" stroke-width=".75" d="M164.578 39.976c0 .768-.59 1.477-1.358 1.477l-7.913-.71-6.555 1.241c-.768 0-1.477-.59-1.477-1.358l7.973-1.24 9.33.59zM132.984 41.276l.118 3.425"/>
  <path fill="#fff" d="M144.205 23.559c.118.413.118.886.177 1.358l.473 13.228 10.748-1.18 10.984 1.24-.473-14.115c0-.177 0-.354-.059-.531l-10.57-1.3-11.28 1.3z"/>
  <path fill="#E0E0E0" d="M130.799 26.453l.414 11.515c.059.886.767 1.536 1.653 1.536l11.988-1.3-.472-13.228c0-.472-.059-.945-.177-1.358l-11.87 1.24c-.886 0-1.595.709-1.536 1.595z"/>
  <path stroke="#5B5B5B" stroke-miterlimit="10" stroke-width=".75" d="M165.996 24.15l.472 14.114-10.984-1.24-22.736 2.42c-.886.06-1.594-.649-1.653-1.535l-.414-11.515c-.059-.886.65-1.595 1.536-1.654l23.09-2.48 10.571 1.299c.118.236.118.413.118.59z"/>
  <path stroke="#5B5B5B" stroke-linecap="round" stroke-linejoin="round" stroke-miterlimit="10" stroke-width=".75" d="M155.543 37.023l-2.067-2.244.472-2.834-1.476-2.126-4.075-1.24-1.712-4.134M152.472 29.819l1.713-3.19-1.89-1.83M155.543 37.023s2.244-3.189 2.185-3.425c-.059-.236-.827-3.13-.827-3.13l2.067-4.252-1.24-2.893M156.9 30.468l2.185-.826"/>
  <path stroke="#5B5B5B" stroke-linecap="round" stroke-linejoin="round" stroke-miterlimit="10" stroke-width="1.5" d="M165.996 24.15L167 53.026l-11.929-.59-9.744 1.299-15.414.532-1.299-37.382 28.583-1.004c4.547-.177 8.327 3.248 8.74 7.677.059.236.059.413.059.59z"/>
  <path stroke="#5B5B5B" stroke-linecap="round" stroke-linejoin="round" stroke-miterlimit="10" stroke-width="1.5" d="M144.323 24.917l1.004 28.878-35.551 1.24-.177-5.67 20.078-.708-1.122-31.771 6.91-.236c4.783-.119 8.74 3.543 8.858 8.267z"/>
  <path fill="#5B5B5B" d="M136.764 58.401a4.31 4.31 0 100-8.621 4.31 4.31 0 000 8.621z"/>
  <path fill="#fff" d="M136.764 56.453a2.362 2.362 0 100-4.725 2.362 2.362 0 000 4.724z"/>
  <path fill="#5B5B5B" d="M136.764 54.917a.827.827 0 100-1.653.827.827 0 000 1.653zM115.09 59.169a4.31 4.31 0 100-8.622 4.31 4.31 0 000 8.622z"/>
  <path fill="#fff" d="M115.091 57.22a2.362 2.362 0 100-4.725 2.362 2.362 0 000 4.725z"/>
  <path fill="#5B5B5B" d="M115.09 55.685a.827.827 0 100-1.654.827.827 0 000 1.654z"/>
  <path fill="#fff" d="M160.15 38.205h-4.488v20.964h4.488V38.205z"/>
  <path stroke="#5B5B5B" stroke-linecap="round" stroke-linejoin="round" stroke-miterlimit="10" stroke-width="1.5" d="M155.63 59.175h4.488V38.211h-4.488v20.964zM157.905 38.205V4.07h-11.752"/>
  <path fill="#fff" d="M128.555 4.07h17.598A3.05 3.05 0 00143.082 1h-11.397c-1.772 0-3.13 1.358-3.13 3.07z"/>
  <path stroke="#5B5B5B" stroke-linecap="round" stroke-linejoin="round" stroke-miterlimit="10" stroke-width="1.5" d="M128.555 4.07h17.598A3.05 3.05 0 00143.082 1h-11.397c-1.772 0-3.13 1.358-3.13 3.07z"/>
  <path fill="#fff" d="M117.688 27.634a5.847 5.847 0 100-11.694 5.847 5.847 0 000 11.694z"/>
  <path stroke="#5B5B5B" stroke-linecap="round" stroke-linejoin="round" stroke-miterlimit="10" stroke-width="1.5" d="M117.688 27.634a5.847 5.847 0 100-11.694 5.847 5.847 0 000 11.694z"/>
  <path stroke="#23B4BA" stroke-linecap="round" stroke-linejoin="round" stroke-miterlimit="10" stroke-width="2" d="M115.149 21.02l2.008 3.13 3.13-4.784"/>
</svg>