<svg width="72" height="24" viewBox="0 0 72 24" fill="none" xmlns="http://www.w3.org/2000/svg">
<g clip-path="url(#clip0)">
<path d="M52.5271 4.5312C49.4881 4.5312 47.0178 6.7968 47.0178 9.6192V14.0928C47.0178 16.896 49.4881 19.1808 52.5271 19.1808C55.566 19.1808 58.0364 16.896 58.0364 14.0928V9.6192C58.0168 6.7968 55.5464 4.5312 52.5271 4.5312ZM54.2916 14.0928C54.2916 15.2064 53.5662 15.9552 52.5271 15.9552C51.4879 15.9552 50.7625 15.2064 50.7625 14.0928V9.6192C50.7625 8.5056 51.4879 7.7568 52.5271 7.7568C53.5662 7.7568 54.2916 8.5056 54.2916 9.6192V14.0928ZM66.016 4.5696C62.9967 4.5696 60.5459 6.816 60.5459 9.6192V14.0544C60.5459 16.8384 62.9967 19.104 66.016 19.104C69.0354 19.104 71.4861 16.8384 71.4861 14.0544V9.6384C71.4861 6.816 69.0354 4.5696 66.016 4.5696ZM67.7806 14.0736C67.7806 15.1872 67.0551 15.936 66.0356 15.936C64.9965 15.936 64.2907 15.1872 64.2907 14.0736V9.6384C64.2907 8.5248 65.0161 7.776 66.0356 7.776C67.0748 7.776 67.7806 8.5248 67.7806 9.6384V14.0736ZM40.7242 19.0848H44.4886V4.5504L40.7242 7.392V19.0848ZM32.1368 19.0848H38.195V16.1856H32.1368V19.0848ZM32.1368 7.488H38.195V4.5888H32.1368V7.488ZM32.1368 13.2864H38.195V10.3872H32.1368V13.2864ZM27.2157 19.0848H31.0977V4.5888H27.1961L27.2157 19.0848ZM12.6288 0C5.8843 0 0.375 5.376 0.375 12C0.375 18.6048 5.86469 24 12.6288 24C19.3733 24 24.8825 18.624 24.8825 12C24.8825 5.376 19.3929 0 12.6288 0ZM12.6288 23.1744C6.31563 23.1744 1.19845 18.1632 1.19845 11.9808C1.19845 5.7984 6.31563 0.7872 12.6288 0.7872C18.9419 0.7872 24.0591 5.7984 24.0591 11.9808C24.0787 18.1632 18.9615 23.1744 12.6288 23.1744ZM17.5107 18.0864H17.2362V5.0496C17.2362 4.7808 17.0009 4.5504 16.7264 4.5504H10.178C9.90354 4.5504 9.66826 4.7808 9.66826 5.0496V11.4816C8.92323 11.5968 8.35466 11.8848 8.1782 12.576C7.82529 13.92 8.88402 17.2224 7.04105 17.2032C5.33533 17.184 6.29602 15.0528 6.5313 13.8048C6.84499 12.192 6.88421 10.0224 7.66845 8.8704C8.1586 8.1792 9.41338 7.5456 8.74678 6.7776C6.8842 7.3152 5.92351 8.736 5.35493 10.5408C5.49218 10.7328 5.9039 10.6752 6.04115 10.848C6.15878 12.768 5.27651 14.304 5.10006 15.84C4.78636 18.528 8.66835 18.72 9.06048 16.3968C9.33496 14.8032 8.37426 12.9216 9.66826 12.3648V18.0864H9.39378C9.11929 18.0864 8.88402 18.3168 8.88402 18.5856V19.0848H18.0008V18.5856C18.0204 18.2976 17.7852 18.0864 17.5107 18.0864ZM16.2167 10.9632H10.6878V5.5488H16.1971V10.9632H16.2167Z" fill="#50B946"/>
</g>
<defs>
<clipPath id="clip0">
<rect width="71.25" height="24" fill="white" transform="translate(0.375)"/>
</clipPath>
</defs>
</svg>
