<svg width="78" height="24" viewBox="0 0 78 24" fill="none" xmlns="http://www.w3.org/2000/svg">
<g clip-path="url(#clip0)">
<g clip-path="url(#clip1)">
<path fill-rule="evenodd" clip-rule="evenodd" d="M16.7534 0.514195C18.2228 0.179968 19.7436 0 21.3031 0H24.9635V0.321371V24H1.2355H0.900391V20.3493V2.63525V1.81254H1.77682H12.8869C13.4282 1.56829 13.9695 1.34976 14.5237 1.15693H3.43946V1.4783H2.73058V1.15693V0.514195H3.43946H16.7534ZM11.2629 2.62239H1.78971V14.4103C2.27948 12.7777 2.97547 11.2223 3.8519 9.7954H3.29768V8.9727H4.38033C4.79277 8.35565 5.24388 7.76435 5.72076 7.1987H3.29768V6.376H6.45542C6.76473 6.05465 7.08693 5.74615 7.40912 5.43765L7.40917 5.4376H3.29768V4.61489H8.35004C9.26515 3.86931 10.2318 3.20086 11.2629 2.62239ZM17.2561 17.9582C18.8801 17.9711 20.3752 16.8913 21.0454 15.4387C21.8832 13.7032 21.445 11.4794 20.0143 10.2067C19.2539 9.474 18.2228 9.12695 17.1917 9.0498C15.9672 7.81575 14.0726 7.2887 12.3842 7.7386C10.6958 8.14995 9.29091 9.5126 8.77536 11.1708C7.37052 11.595 6.37807 13.0219 6.40383 14.4874C6.3523 16.1971 7.78296 17.8811 9.52292 17.9582H17.2561ZM31.959 0.874475H31.263V6.1064H31.959V3.7154H34.7171V6.1064H35.4131V0.874475H34.7171V3.12407H31.959V0.874475ZM37.5267 6.18345C37.3591 6.18345 37.1916 6.1706 37.0369 6.132C36.8823 6.09345 36.7534 6.0292 36.6374 5.95205C36.5214 5.86205 36.4311 5.75925 36.3667 5.6178C36.3023 5.4893 36.2636 5.32215 36.2636 5.12935C36.2636 4.91081 36.3023 4.7437 36.3796 4.60229C36.4569 4.46089 36.5472 4.35805 36.676 4.26806C36.792 4.17808 36.9338 4.11381 37.0885 4.07524L37.0886 4.07521C37.2432 4.03665 37.3978 3.9981 37.5654 3.95955C37.7329 3.92098 37.9005 3.89528 38.0551 3.88242C38.2098 3.86957 38.3516 3.84385 38.4675 3.80529C38.5835 3.77958 38.6738 3.72816 38.7511 3.66389C38.8156 3.59961 38.8542 3.50963 38.8542 3.39393C38.8542 3.25253 38.8284 3.14969 38.7769 3.05971C38.7253 2.98258 38.6609 2.9183 38.5835 2.86688C38.5062 2.82833 38.416 2.78976 38.3129 2.77691L38.282 2.77302C38.1914 2.76158 38.1091 2.75119 38.0165 2.75119C37.7458 2.75119 37.5267 2.80262 37.3591 2.90545C37.1787 3.00829 37.0885 3.20112 37.0756 3.47107H36.4569C36.4698 3.23968 36.5214 3.034 36.5987 2.87974C36.6889 2.71263 36.8049 2.58408 36.9467 2.4941C37.0885 2.39126 37.256 2.32698 37.4494 2.27556C37.6427 2.237 37.836 2.21129 38.0551 2.21129C38.2227 2.21129 38.4031 2.22414 38.5707 2.24986C38.7383 2.27557 38.8929 2.32698 39.0347 2.40411C39.1764 2.48124 39.2796 2.58408 39.3698 2.72549C39.4471 2.86689 39.4986 3.04685 39.4986 3.26539V5.2193C39.4986 5.36075 39.5115 5.4764 39.5244 5.5407C39.5373 5.60495 39.6018 5.64355 39.692 5.64355C39.7307 5.64355 39.7951 5.6307 39.8853 5.60495V6.09345C39.7822 6.15775 39.6275 6.18345 39.4342 6.18345C39.2667 6.18345 39.1378 6.132 39.0476 6.04205C38.9573 5.95205 38.9058 5.7978 38.9058 5.60495C38.7383 5.81065 38.532 5.95205 38.3129 6.04205C38.0293 6.14485 37.7845 6.18345 37.5267 6.18345ZM37.6556 5.64355C37.8618 5.64355 38.0422 5.6178 38.184 5.55355C38.3258 5.50215 38.4547 5.425 38.5449 5.335C38.6351 5.24505 38.7124 5.15505 38.7511 5.0522C38.7898 4.94937 38.8156 4.85939 38.8156 4.7694V4.12666C38.7383 4.19093 38.6351 4.2295 38.5062 4.25521C38.3774 4.28092 38.2485 4.30663 38.1067 4.31949C38.0358 4.33234 37.9649 4.34198 37.894 4.35162C37.8232 4.36127 37.7523 4.3709 37.6814 4.38376C37.5396 4.40947 37.4107 4.43518 37.2947 4.4866C37.1787 4.53802 37.0885 4.60229 37.0241 4.69228C36.9467 4.78226 36.9209 4.91081 36.9209 5.06505C36.9209 5.1679 36.9467 5.2579 36.9854 5.32215C37.0241 5.3993 37.0756 5.4507 37.1529 5.4893C37.2174 5.52785 37.2947 5.5664 37.3849 5.57925C37.4751 5.6307 37.5654 5.64355 37.6556 5.64355ZM41.2128 6.04195C41.4449 6.13195 41.7026 6.18335 41.9862 6.18335C42.4759 6.18335 42.8626 6.0548 43.1719 5.82345C43.4426 5.56635 43.623 5.2064 43.6874 4.73076H43.0431C43.0043 5.02645 42.8883 5.24495 42.7208 5.41205C42.5533 5.5792 42.3084 5.6563 41.9991 5.6563C41.7928 5.6563 41.6253 5.61775 41.4835 5.5406C41.3417 5.4635 41.2257 5.36065 41.1355 5.2321C41.0453 5.10355 40.9808 4.96215 40.9422 4.79504C40.9035 4.62792 40.8777 4.46081 40.8777 4.28085C40.8777 4.08802 40.9035 3.90806 40.9422 3.72809C40.9808 3.54812 41.0453 3.39386 41.1355 3.25245C41.2257 3.11105 41.3417 2.99536 41.4964 2.91823C41.651 2.82825 41.8444 2.78968 42.0635 2.78968C42.3213 2.78968 42.5404 2.85396 42.695 2.98251C42.8497 3.11106 42.9528 3.29102 43.0043 3.53526H43.6488C43.623 3.31673 43.5586 3.12391 43.4684 2.95679C43.3652 2.78968 43.2492 2.64828 43.1075 2.54544C42.9657 2.42974 42.7982 2.35262 42.6048 2.3012C42.4115 2.24978 42.2181 2.22407 41.9991 2.22407C41.7026 2.22407 41.4319 2.27549 41.2128 2.37832C40.9937 2.49402 40.8133 2.63543 40.6586 2.81539C40.5039 2.99536 40.4009 3.21389 40.3235 3.45813C40.2462 3.70237 40.2075 3.97233 40.2075 4.25514C40.2075 4.53794 40.2462 4.8079 40.3235 5.0393C40.4009 5.27065 40.5039 5.47635 40.6586 5.64345C40.8004 5.82345 40.9937 5.952 41.2128 6.04195ZM45.2727 2.86699H43.9194V2.31422H47.2576V2.86699H45.9043V6.1064H45.2856V2.86699H45.2727ZM48.598 6.0291C48.83 6.13195 49.0878 6.18335 49.3971 6.18335C49.6936 6.18335 49.9643 6.1191 50.1962 6.0291C50.4282 5.9391 50.6216 5.7977 50.7762 5.61775C50.9309 5.4378 51.047 5.2321 51.1242 4.98786C51.2014 4.75648 51.24 4.49937 51.24 4.21657C51.24 3.93376 51.2014 3.67667 51.1242 3.43243C51.047 3.18818 50.9309 2.98251 50.7762 2.80254C50.6216 2.62257 50.4282 2.48116 50.1962 2.37832C49.9643 2.27549 49.6936 2.22407 49.3971 2.22407C49.0878 2.22407 48.83 2.27549 48.598 2.37832C48.3661 2.48116 48.1727 2.62257 48.0181 2.80254C47.8634 2.98251 47.7474 3.18818 47.67 3.43243C47.5927 3.67667 47.5541 3.94662 47.5541 4.21657C47.5541 4.48652 47.5927 4.74362 47.67 4.98786C47.7474 5.2321 47.8634 5.4378 48.0181 5.61775C48.1727 5.78485 48.3661 5.92625 48.598 6.0291ZM49.8611 5.55345C49.7065 5.61775 49.5647 5.64345 49.3971 5.64345C49.2425 5.64345 49.0878 5.61775 48.9332 5.55345C48.7914 5.4892 48.6625 5.3992 48.5594 5.2835C48.4434 5.15495 48.3661 5.01355 48.3016 4.8336C48.2372 4.65364 48.2114 4.44796 48.2114 4.21657C48.2114 3.98518 48.2372 3.77951 48.3016 3.59954C48.3661 3.41957 48.4563 3.27817 48.5594 3.14962C48.6625 3.02107 48.7914 2.93109 48.9332 2.86681C49.0878 2.80254 49.2296 2.77683 49.3971 2.77683C49.5647 2.77683 49.7194 2.80254 49.8611 2.86681C50.0029 2.93109 50.1318 3.03393 50.2349 3.14962C50.3509 3.26531 50.4282 3.41957 50.4927 3.59954C50.5571 3.77951 50.5829 3.98518 50.5829 4.21657C50.5829 4.44796 50.5571 4.65364 50.4927 4.8336C50.4282 5.01355 50.338 5.16785 50.2349 5.2835C50.1318 5.3992 50.0029 5.4892 49.8611 5.55345ZM52.774 4.62802C52.5033 4.58945 52.2843 4.46091 52.1168 4.26809C51.9489 4.06241 51.8586 3.80531 51.8586 3.49679C51.8586 3.13686 51.9619 2.85405 52.181 2.64838C52.4001 2.4427 52.6838 2.327 53.0573 2.327H54.9778V6.10635H54.3592V4.65373H53.5345L52.3745 6.10635H51.5493L52.774 4.62802ZM54.3462 4.11382V2.8669H53.2508C52.9801 2.8669 52.7996 2.91832 52.6838 3.03402C52.5675 3.14971 52.5033 3.30397 52.5033 3.48394C52.5033 3.67676 52.5675 3.83102 52.6838 3.94672C52.7996 4.06241 52.9931 4.11382 53.2508 4.11382H54.3462ZM55.9188 6.1064H60.8166V7.2505H61.4097V5.55365H60.8938V2.31422H60.2752V5.55365H58.7156V2.31422H58.097V5.55365H56.5374V2.31422H55.9188V6.1064ZM62.0153 2.31422H62.6339V5.41225L64.4251 2.31422H65.2242V6.1064H64.6056V3.00838L62.8269 6.1064H62.0153V2.31422ZM66.7968 2.31415H66.1782V6.10635H66.9773L68.769 3.00831V6.10635H69.3876V2.31415H68.5885L66.7968 5.41215V2.31415ZM67.3769 1.69712C67.5057 1.73568 67.6476 1.76139 67.7895 1.76139C67.9313 1.76139 68.0727 1.73568 68.176 1.68427C68.3048 1.63285 68.4206 1.56857 68.5108 1.49144C68.6011 1.40146 68.6788 1.31148 68.7304 1.18292C68.7816 1.06723 68.8076 0.925825 68.8076 0.784425H68.2918C68.2918 0.951535 68.2406 1.09294 68.1504 1.18292C68.0602 1.27291 67.9313 1.32432 67.7634 1.32432C67.4155 1.32432 67.248 1.14436 67.235 0.784425H66.7196C66.7196 0.93868 66.7582 1.08009 66.8099 1.19578C66.8741 1.32433 66.9518 1.42717 67.042 1.50429C67.1322 1.59428 67.248 1.65855 67.3769 1.69712ZM33.2735 14.8349C32.642 14.8349 32.1264 14.6678 31.714 14.3464C31.3015 14.025 31.0567 13.5365 30.9793 12.8938H31.6882C31.7656 13.3437 31.9331 13.6779 32.2038 13.9093C32.4744 14.1407 32.8224 14.2564 33.2477 14.2564C33.5184 14.2564 33.7633 14.205 33.9695 14.115C34.1886 14.025 34.3691 13.8836 34.5109 13.7165C34.6655 13.5494 34.7815 13.3437 34.8588 13.0995C34.9491 12.8552 35.0006 12.5982 35.0135 12.3025H32.5646V11.724H34.9877C34.9619 11.4926 34.8975 11.2612 34.8202 11.0427C34.7428 10.8242 34.6268 10.6313 34.485 10.4642C34.3433 10.2971 34.1757 10.1557 33.9695 10.0657C33.7633 9.9629 33.5313 9.91145 33.2606 9.91145C33.0673 9.91145 32.8868 9.93715 32.7193 9.9886C32.5518 10.04 32.3971 10.1043 32.2682 10.2071C32.1393 10.2971 32.0233 10.4128 31.9331 10.5414C31.8429 10.6699 31.7656 10.8242 31.7269 10.9784H31.0309C31.0696 10.7085 31.1469 10.4771 31.2886 10.2714C31.4304 10.0657 31.598 9.8986 31.8042 9.7572C32.0104 9.6158 32.2425 9.51295 32.4873 9.4487C32.7322 9.3844 32.99 9.34585 33.2349 9.34585C33.6473 9.34585 34.0082 9.423 34.3175 9.5644C34.6268 9.7058 34.8846 9.91145 35.0908 10.1557C35.2971 10.4 35.4517 10.6956 35.5419 11.0299C35.645 11.364 35.6966 11.7112 35.6966 12.084C35.6966 12.5082 35.6321 12.8938 35.5161 13.228C35.3873 13.5623 35.2197 13.845 35.0135 14.0893C34.7944 14.3207 34.5366 14.5007 34.2402 14.6292C33.9308 14.7706 33.6086 14.8349 33.2735 14.8349ZM35.8512 14.7449C35.9156 14.7577 35.9801 14.7577 36.0445 14.7577C36.3281 14.7577 36.5472 14.6549 36.7019 14.4878C36.8565 14.3206 36.9725 14.0764 37.037 13.7807C37.1014 13.4851 37.153 13.138 37.1659 12.7395C37.1916 12.341 37.2045 11.9296 37.2174 11.4797H38.6609V14.7191H39.2796V10.9141H36.6117C36.6117 11.4925 36.5987 11.981 36.5859 12.3924C36.573 12.8038 36.5472 13.1379 36.5086 13.4079C36.4698 13.6779 36.4054 13.8707 36.3152 13.9993C36.225 14.1278 36.109 14.192 35.9414 14.192C35.9221 14.192 35.9028 14.1888 35.8835 14.1856C35.8641 14.1825 35.8448 14.1792 35.8255 14.1792C35.7827 14.1792 35.7489 14.1704 35.7092 14.1601C35.701 14.1579 35.6925 14.1557 35.6837 14.1535V14.7063C35.7223 14.7191 35.7868 14.7319 35.8512 14.7449ZM41.8316 14.7963C41.5223 14.7963 41.2645 14.7448 41.0325 14.6549C40.8005 14.552 40.62 14.4235 40.4654 14.2435C40.3107 14.0635 40.1947 13.8579 40.1174 13.6136C40.04 13.3693 40.0014 13.0994 40.0014 12.8166C40.0014 12.5338 40.04 12.2767 40.1303 12.0324C40.2205 11.7882 40.3365 11.5825 40.504 11.4025C40.6587 11.2226 40.8521 11.0941 41.0711 10.9912C41.2902 10.8884 41.5223 10.8498 41.7929 10.8498C42.128 10.8498 42.4115 10.9141 42.6307 11.0555C42.8498 11.1969 43.0302 11.3769 43.172 11.5825C43.3009 11.8011 43.404 12.0324 43.4555 12.2895C43.5071 12.5466 43.5329 12.7909 43.52 13.0094H40.6716C40.6716 13.1765 40.6845 13.3308 40.736 13.4851C40.7747 13.6393 40.8521 13.7678 40.9551 13.8835C41.0582 13.9992 41.1742 14.0892 41.3289 14.1535C41.4836 14.2177 41.664 14.2563 41.8702 14.2563C42.1409 14.2563 42.3471 14.192 42.5147 14.0764C42.6822 13.9607 42.7982 13.7678 42.8497 13.5236H43.4684C43.3911 13.9478 43.1978 14.2692 42.9142 14.4877C42.6178 14.6934 42.2569 14.7963 41.8316 14.7963ZM42.8497 12.4566C42.8369 12.3152 42.8111 12.1738 42.7467 12.0453C42.6951 11.9167 42.6178 11.8011 42.5147 11.6982C42.4244 11.6083 42.3084 11.5311 42.1796 11.4668C42.0506 11.4154 41.9089 11.3769 41.7542 11.3769C41.5867 11.3769 41.4449 11.4025 41.316 11.4668C41.1871 11.5182 41.0711 11.5954 40.9809 11.6982C40.8907 11.8011 40.8134 11.9039 40.7618 12.0453C40.7103 12.1738 40.6716 12.3152 40.6716 12.4566H42.8497ZM44.77 10.9269H44.1514H44.1385V14.7191H44.7571V13.2921L45.1438 12.9193L46.7291 14.7191H47.5282L45.6465 12.5723L47.3349 10.9269H46.51L44.77 12.7394V10.9269ZM49.3071 11.4796H47.9538V10.9269H51.2921V11.4796H49.9386V14.7191H49.32V11.4796H49.3071ZM52.4261 10.9269H51.8075V16.1716H52.4261V14.2177H52.4392C52.5164 14.3334 52.5936 14.4234 52.6968 14.5006C52.8001 14.5777 52.9029 14.6419 53.0192 14.6805C53.135 14.7191 53.2383 14.7448 53.3541 14.7705L53.3887 14.7744C53.4909 14.7858 53.5837 14.7962 53.6764 14.7962C53.9602 14.7962 54.2178 14.7448 54.4369 14.6419C54.656 14.5391 54.8365 14.3977 54.9783 14.2177C55.1197 14.0506 55.236 13.845 55.3002 13.6007C55.3648 13.3565 55.4034 13.0993 55.4034 12.8294C55.4034 12.5595 55.3648 12.3152 55.2876 12.0709C55.223 11.8396 55.1072 11.621 54.9653 11.4411C54.8234 11.2611 54.6429 11.1068 54.4239 11.004C54.2048 10.8883 53.9471 10.8369 53.6503 10.8369C53.3927 10.8369 53.148 10.8755 52.9289 10.9783C52.7099 11.0812 52.5419 11.2354 52.4392 11.4411H52.4261V10.9269ZM54.1532 14.1278C53.9988 14.2178 53.8183 14.2563 53.6117 14.2563C53.3927 14.2563 53.2122 14.2178 53.0578 14.1406C52.9029 14.0634 52.774 13.9478 52.6838 13.8193C52.5936 13.6778 52.5164 13.5236 52.4778 13.3565C52.4392 13.1765 52.4131 12.9965 52.4131 12.8166C52.4131 12.6495 52.4392 12.4694 52.4778 12.3024C52.5294 12.1224 52.5936 11.9681 52.6838 11.8396C52.774 11.7111 52.9029 11.5954 53.0448 11.5182C53.1997 11.4283 53.3801 11.3897 53.5862 11.3897C53.7922 11.3897 53.9602 11.4283 54.1146 11.5054C54.2564 11.5954 54.3853 11.6982 54.4755 11.8267C54.5788 11.9553 54.6429 12.1096 54.6946 12.2767C54.7332 12.4438 54.7593 12.6109 54.7593 12.7908C54.7593 12.9708 54.7332 13.1508 54.6946 13.3308C54.656 13.4979 54.5913 13.6521 54.5011 13.7935C54.4239 13.9349 54.295 14.0506 54.1532 14.1278ZM57.7877 14.7962C57.4784 14.7962 57.2207 14.7448 56.9886 14.6419C56.757 14.5391 56.5635 14.3977 56.4086 14.2306C56.2542 14.0506 56.1384 13.845 56.0607 13.6007C55.9835 13.3565 55.9449 13.0993 55.9449 12.8294C55.9449 12.5595 55.9835 12.2895 56.0607 12.0452C56.1384 11.801 56.2542 11.5953 56.4086 11.4154C56.5635 11.2354 56.757 11.094 56.9886 10.9911C57.2207 10.8883 57.4784 10.8369 57.7877 10.8369C58.0845 10.8369 58.3552 10.8883 58.5868 10.9911C58.8189 11.094 59.0124 11.2354 59.1668 11.4154C59.3217 11.5953 59.4375 11.801 59.5152 12.0452C59.5924 12.2895 59.631 12.5466 59.631 12.8294C59.631 13.1122 59.5924 13.3693 59.5152 13.6007C59.4375 13.845 59.3217 14.0506 59.1668 14.2306C59.0124 14.4106 58.8189 14.5519 58.5868 14.6419C58.3422 14.7448 58.0845 14.7962 57.7877 14.7962ZM57.7877 14.2563C57.9556 14.2563 58.097 14.2306 58.2519 14.1663C58.3938 14.102 58.5226 14.012 58.6259 13.8963C58.7287 13.7807 58.8189 13.6264 58.8836 13.4465C58.9477 13.2664 58.9738 13.0608 58.9738 12.8294C58.9738 12.598 58.9477 12.3924 58.8836 12.2124C58.8189 12.0324 58.7417 11.8781 58.6259 11.7625C58.5226 11.6468 58.3938 11.5439 58.2519 11.4796C58.11 11.4154 57.9556 11.3897 57.7877 11.3897C57.6203 11.3897 57.4784 11.4154 57.324 11.4796C57.1821 11.5439 57.0533 11.6339 56.95 11.7625C56.8472 11.891 56.757 12.0324 56.6923 12.2124C56.6282 12.3924 56.6021 12.598 56.6021 12.8294C56.6021 13.0608 56.6282 13.2664 56.6923 13.4465C56.757 13.6264 56.8342 13.7678 56.95 13.8963C57.0533 14.012 57.1821 14.102 57.324 14.1663C57.4659 14.2306 57.6203 14.2563 57.7877 14.2563ZM60.9841 10.9269H60.3655V14.7191H60.9841V12.9708H62.9046V14.7191H63.5233V10.9269H62.9046V12.4309H60.9841V10.9269ZM64.4768 10.9269H65.0954V12.4309H67.0159V10.9269H67.6345V14.7191H67.0159V12.9708H65.0954V14.7191H64.4768V10.9269ZM69.2072 10.9269H68.5885V14.7191H70.4189C70.7798 14.7191 71.0761 14.6162 71.2952 14.3976C71.5142 14.1791 71.6175 13.8963 71.6175 13.5364C71.6175 13.1764 71.5142 12.8937 71.2821 12.688C71.0505 12.4823 70.7537 12.3794 70.3802 12.3794H69.2072V10.9269ZM70.9728 13.5364C70.9728 13.9606 70.7151 14.1663 70.1867 14.1663H69.2072V12.9193H70.1867C70.7151 12.9193 70.9728 13.125 70.9728 13.5364ZM72.8417 10.9269H72.2231V14.7191H72.8417V10.9269ZM73.7952 10.9269H74.4138V14.0249L76.2055 10.9269H77.0046V14.7191H76.386V11.621L74.5943 14.7191H73.7952V10.9269ZM75.3934 10.3742C75.2515 10.3742 75.1102 10.3484 74.9808 10.3098C74.852 10.2713 74.7362 10.207 74.646 10.1171C74.5557 10.0399 74.4785 9.93705 74.4138 9.8085C74.3622 9.69285 74.3236 9.5514 74.3236 9.39715H74.8395C74.852 9.7571 75.0199 9.93705 75.3678 9.93705C75.5353 9.93705 75.6641 9.88565 75.7544 9.79565C75.8446 9.7057 75.8962 9.5643 75.8962 9.39715H76.4116C76.4116 9.53855 76.386 9.67995 76.3344 9.79565C76.2827 9.9242 76.2055 10.0142 76.1153 10.1042C76.0251 10.1813 75.9093 10.2456 75.7799 10.297C75.6772 10.3484 75.5483 10.3742 75.3934 10.3742ZM35.3487 18.0998H31.2629V23.3318H31.9589V18.6912H34.6526V23.3318H35.3487V18.0998ZM38.0294 23.409C37.7201 23.409 37.4624 23.3575 37.2303 23.2547C36.9984 23.1518 36.805 23.0105 36.6504 22.8433C36.4957 22.6633 36.3797 22.4577 36.3024 22.2134C36.2251 21.9692 36.1864 21.7121 36.1864 21.4422C36.1864 21.1722 36.2251 20.9023 36.3024 20.658C36.3797 20.4138 36.4957 20.2081 36.6504 20.0282C36.805 19.8482 36.9984 19.7068 37.2303 19.6039C37.4624 19.5011 37.7201 19.4496 38.0294 19.4496C38.3259 19.4496 38.5966 19.5011 38.8285 19.6039C39.0606 19.7068 39.2539 19.8482 39.4086 20.0282C39.5632 20.2081 39.6792 20.4138 39.7565 20.658C39.8339 20.9023 39.8725 21.1593 39.8725 21.4422C39.8725 21.725 39.8339 21.982 39.7565 22.2134C39.6792 22.4577 39.5632 22.6633 39.4086 22.8433C39.2539 23.0233 39.0606 23.1647 38.8285 23.2547C38.5966 23.3575 38.3388 23.409 38.0294 23.409ZM38.0294 22.869C38.197 22.869 38.3388 22.8434 38.4935 22.7791C38.6352 22.7148 38.7641 22.6248 38.8672 22.5091C38.9703 22.3934 39.0605 22.2392 39.125 22.0592C39.1894 21.8792 39.2152 21.6735 39.2152 21.4422C39.2152 21.2108 39.1894 21.0051 39.125 20.8251C39.0605 20.6451 38.9832 20.4909 38.8672 20.3752C38.7641 20.2595 38.6352 20.1567 38.4935 20.0924C38.3517 20.0281 38.197 20.0024 38.0294 20.0024C37.8619 20.0024 37.7201 20.0281 37.5655 20.0924C37.4237 20.1567 37.2948 20.2467 37.1917 20.3752C37.0886 20.5037 36.9984 20.6451 36.9339 20.8251C36.8695 21.0051 36.8437 21.2108 36.8437 21.4422C36.8437 21.6735 36.8695 21.8792 36.9339 22.0592C36.9984 22.2392 37.0757 22.3806 37.1917 22.5091C37.2948 22.6248 37.4237 22.7148 37.5655 22.7791C37.7201 22.8434 37.8748 22.869 38.0294 22.869ZM40.0915 23.3575C40.1559 23.3704 40.2203 23.3704 40.2848 23.3704C40.5683 23.3704 40.7874 23.2676 40.9421 23.1005C41.0967 22.9333 41.2127 22.6891 41.2772 22.3934C41.3416 22.0978 41.3932 21.7507 41.4061 21.3522C41.4319 20.9537 41.4448 20.5423 41.4576 20.0924H42.9012V23.3319H43.5199V19.5268H40.8519C40.8519 20.1053 40.839 20.5938 40.8261 21.0051C40.8132 21.4165 40.7874 21.7507 40.7488 22.0207C40.7101 22.2906 40.6457 22.4834 40.5554 22.612C40.4652 22.7405 40.3492 22.8048 40.1817 22.8048C40.1623 22.8048 40.143 22.8016 40.1237 22.7984C40.1043 22.7952 40.085 22.792 40.0657 22.792C40.023 22.792 39.9891 22.7831 39.9495 22.7728H39.9494L39.9382 22.7699C39.9335 22.7687 39.9288 22.7675 39.9239 22.7663V23.319C39.9626 23.3319 40.027 23.3447 40.0915 23.3575ZM44.461 19.5397H45.0796V22.6378L46.8711 19.5397H47.6702V23.3319H47.0516V20.2339L45.2601 23.3319H44.461V19.5397ZM49.41 23.2675C49.642 23.3575 49.8997 23.409 50.1833 23.409C50.6731 23.409 51.0981 23.3061 51.3689 23.049C51.6396 22.7919 51.82 22.432 51.8847 21.9564H51.24C51.2014 22.252 51.0856 22.4705 50.9179 22.6376C50.7504 22.8048 50.5055 22.8819 50.1962 22.8819C49.9899 22.8819 49.8224 22.8433 49.6806 22.7662C49.5388 22.6891 49.4228 22.5863 49.3327 22.4577C49.2424 22.3292 49.178 22.1878 49.1393 22.0207C49.1007 21.8535 49.0749 21.6864 49.0749 21.5065C49.0749 21.3136 49.1007 21.1336 49.1393 20.9536C49.178 20.7737 49.2424 20.6194 49.3327 20.4781C49.4228 20.3367 49.5388 20.221 49.6935 20.1438C49.8482 20.0539 50.0415 20.0152 50.2606 20.0152C50.5184 20.0152 50.7375 20.0795 50.8922 20.2081C51.047 20.3366 51.1498 20.5166 51.2014 20.7609H51.8461C51.82 20.5423 51.7559 20.3495 51.6656 20.1824C51.5624 20.0152 51.4466 19.8738 51.3047 19.771C51.1628 19.6553 50.9953 19.5782 50.802 19.5268C50.6086 19.4753 50.4153 19.4496 50.1962 19.4496C49.8997 19.4496 49.6291 19.5011 49.41 19.6039C49.1909 19.7196 49.0104 19.861 48.8558 20.041C48.7011 20.221 48.598 20.4395 48.5206 20.6837C48.4433 20.9279 48.4047 21.1979 48.4047 21.4807C48.4047 21.7635 48.4433 22.0335 48.5206 22.2649C48.598 22.4963 48.7011 22.7019 48.8558 22.869C48.9975 23.049 49.1909 23.1775 49.41 23.2675Z" fill="#0055CC"/>
</g>
</g>
<defs>
<clipPath id="clip0">
<rect width="76.2" height="24" fill="white" transform="translate(0.900391)"/>
</clipPath>
<clipPath id="clip1">
<rect width="76.2" height="24" fill="white" transform="translate(0.900391)"/>
</clipPath>
</defs>
</svg>
