<svg width="108" height="24" viewBox="0 0 108 24" fill="none" xmlns="http://www.w3.org/2000/svg">
    <g clip-path="url(#clip0)">
        <path fill-rule="evenodd" clip-rule="evenodd" d="M15.3264 5.05314V7.58131H7.7483V10.1063H10.2733V12.6312H7.7483V15.1594L10.2733 16.4091L12.7982 15.1466V10.1063H20.3795V18.9469L10.2733 24L0.166992 18.9469V0H20.3795V7.58131H17.8514V2.52817H2.69516V17.6908L10.2733 21.4814L17.8514 17.6908V12.6312H15.3264V16.4091L10.2733 18.934L5.22013 16.4091V5.05314H15.3264Z" fill="url(#paint0_linear)"/>
        <path d="M31.2868 14.9898H28.0569V17.4763H31.902V18.8157H26.3105V10.1065H31.886V11.4555H28.0569V13.644H31.2868V14.9898ZM34.0393 18.8157V10.1065H36.8911C37.7337 10.0583 38.571 10.2685 39.2911 10.7089C39.5747 10.9085 39.8028 11.1771 39.9536 11.4894C40.1044 11.8018 40.1731 12.1474 40.153 12.4937C40.1564 12.8746 40.0448 13.2476 39.8326 13.5639C39.6127 13.8905 39.2953 14.1394 38.9258 14.2753C39.4115 14.3423 39.8519 14.5964 40.153 14.9834C40.4242 15.3553 40.568 15.8049 40.5631 16.2651C40.5871 16.6231 40.5248 16.9817 40.3815 17.3106C40.2382 17.6396 40.0181 17.9293 39.7396 18.1556C39.1885 18.5829 38.4088 18.7965 37.4005 18.7965L34.0393 18.8157ZM35.7856 14.9706V17.4827H37.4069C37.7836 17.5072 38.1571 17.4008 38.4643 17.1815C38.5895 17.0703 38.6875 16.9319 38.7508 16.7769C38.8141 16.622 38.8411 16.4545 38.8296 16.2875C38.8393 16.1112 38.8123 15.9348 38.7506 15.7694C38.6888 15.604 38.5936 15.4531 38.4708 15.3263C38.1664 15.0788 37.7789 14.9573 37.3877 14.9866L35.7856 14.9706ZM35.7856 13.7626H36.9423C37.3226 13.7866 37.7004 13.6865 38.019 13.4774C38.1443 13.3778 38.2438 13.2496 38.309 13.1034C38.3743 12.9573 38.4034 12.7976 38.3939 12.6379C38.4074 12.4699 38.38 12.3012 38.3142 12.146C38.2483 11.9909 38.146 11.8541 38.0158 11.7471C37.6781 11.5326 37.2804 11.4326 36.8814 11.4619H35.776V13.7626H35.7856ZM44.5044 15.6659V18.8221H42.7581V10.1065H46.0905C46.9457 10.0581 47.788 10.3313 48.4521 10.8723C48.7244 11.1323 48.9411 11.4448 49.0892 11.791C49.2373 12.1371 49.3136 12.5097 49.3136 12.8862C49.3136 13.2627 49.2373 13.6353 49.0892 13.9814C48.9411 14.3276 48.7244 14.6401 48.4521 14.9001C47.7865 15.4377 46.9447 15.7084 46.0905 15.6595L44.5044 15.6659ZM44.5044 14.3201H46.1065C46.3086 14.3346 46.5114 14.3064 46.7018 14.2374C46.8923 14.1684 47.0661 14.0601 47.212 13.9196C47.4669 13.6453 47.6029 13.2813 47.5901 12.907C47.604 12.5255 47.4696 12.1535 47.2152 11.8688C47.0703 11.7256 46.8964 11.6151 46.7051 11.5449C46.5138 11.4747 46.3097 11.4464 46.1065 11.4619H44.5044V14.3201ZM58.5263 15.2526C58.5424 15.7394 58.4611 16.2246 58.2873 16.6796C58.1134 17.1347 57.8504 17.5504 57.5137 17.9025C56.8051 18.5755 55.8651 18.9507 54.8878 18.9507C53.9106 18.9507 52.9706 18.5755 52.2619 17.9025C51.9273 17.5493 51.6661 17.1332 51.4934 16.6783C51.3207 16.2235 51.2399 15.7388 51.2558 15.2526V13.6857C51.2403 13.2002 51.3209 12.7164 51.493 12.2622C51.6651 11.8079 51.9254 11.3922 52.2587 11.0389C52.5954 10.6896 53.002 10.4153 53.4521 10.2342C53.9022 10.0531 54.3854 9.96915 54.8702 9.98794C55.3588 9.96914 55.8459 10.053 56.3002 10.234C56.7544 10.415 57.1656 10.6892 57.5073 11.0389C57.8453 11.3897 58.1097 11.8046 58.2847 12.2592C58.4597 12.7138 58.5418 13.1988 58.5263 13.6857V15.2526ZM56.7832 13.6729C56.8083 13.0746 56.6286 12.4857 56.2737 12.0034C56.1086 11.7916 55.8948 11.6227 55.6504 11.5111C55.4061 11.3996 55.1385 11.3486 54.8702 11.3626C54.6053 11.3496 54.3412 11.4011 54.1007 11.5127C53.8601 11.6244 53.6503 11.7927 53.4892 12.0034C53.1461 12.4906 52.9737 13.0775 52.9989 13.6729V15.2526C52.9715 15.8541 53.1464 16.4475 53.4956 16.938C53.6658 17.1419 53.8787 17.3059 54.1193 17.4185C54.3599 17.531 54.6222 17.5894 54.8878 17.5894C55.1534 17.5894 55.4158 17.531 55.6564 17.4185C55.897 17.3059 56.1099 17.1419 56.2801 16.938C56.6329 16.4489 56.8102 15.855 56.7832 15.2526V13.6729Z" fill="#18C9F5"/>
        <path d="M66.4863 11.4553H62.5546V18.8251H60.8115V10.1063H66.4863V11.4553ZM71.8502 16.9378H69.0273L68.4409 18.8155H66.6177L69.5528 10.1063H71.3408L74.2663 18.8155H72.443L71.8502 16.9378ZM69.4567 15.5664H71.4241L70.4628 12.4999H70.4275L69.4567 15.5664ZM77.7653 15.6593V18.8155H76.035V10.1063H79.3643C80.2204 10.058 81.0637 10.3311 81.729 10.8721C82.0013 11.1321 82.2181 11.4446 82.3661 11.7908C82.5142 12.1369 82.5906 12.5095 82.5906 12.886C82.5906 13.2625 82.5142 13.6351 82.3661 13.9812C82.2181 14.3274 82.0013 14.6399 81.729 14.8999C81.0622 15.4375 80.2194 15.7081 79.3643 15.6593H77.7653ZM77.7653 14.3135H79.3482C79.5503 14.3279 79.7531 14.2997 79.9436 14.2307C80.134 14.1617 80.3078 14.0535 80.4537 13.913C80.5807 13.7777 80.6795 13.6185 80.7444 13.4446C80.8093 13.2708 80.839 13.0858 80.8318 12.9004C80.8453 12.5196 80.7122 12.148 80.4601 11.8622C80.3145 11.7191 80.14 11.6087 79.9482 11.5385C79.7564 11.4683 79.5519 11.4399 79.3482 11.4553H77.7653V14.3135ZM88.2113 16.9378H85.3851L84.8019 18.8155H82.9787L85.9138 10.1063H87.7018L90.6273 18.8155H88.8008L88.2113 16.9378ZM85.8177 15.5664H87.7851L86.8238 12.4999H86.7886L85.8177 15.5664ZM99.4262 18.8155H97.6767V15.1979H94.1296V18.8155H92.3768V10.1063H94.1232V13.8457H97.6671V10.1063H99.4262V18.8155ZM107.837 11.4457H105.351V18.8155H103.592V11.4457H101.141V10.0967H107.825L107.837 11.4457Z" fill="#3A5BC4"/>
        <path d="M28.9769 6.36963C28.981 6.5018 28.9558 6.63325 28.9032 6.75456C28.8506 6.87587 28.7718 6.98406 28.6725 7.07136C28.435 7.26212 28.1374 7.36209 27.833 7.35334V7.60328H27.535V7.35334C27.2316 7.36132 26.9352 7.2614 26.6986 7.07136C26.5964 6.98559 26.5146 6.87809 26.4592 6.75669C26.4037 6.6353 26.3761 6.50306 26.3782 6.36963C26.3748 6.2304 26.4017 6.09211 26.457 5.9643C26.5124 5.8365 26.5948 5.72224 26.6986 5.62944C26.9308 5.42976 27.2289 5.32354 27.535 5.33144V5.11035H27.833V5.33144C28.1397 5.32286 28.4384 5.43044 28.6693 5.63264C28.7727 5.72509 28.8549 5.83883 28.9102 5.96605C28.9655 6.09326 28.9926 6.23094 28.9897 6.36963H28.9769ZM26.7051 6.36963C26.7018 6.46516 26.72 6.56021 26.7582 6.64781C26.7965 6.73541 26.8539 6.81335 26.9261 6.8759C27.1004 7.01576 27.3179 7.09054 27.5414 7.08739V5.60381C27.3161 5.59567 27.0961 5.67357 26.9261 5.8217C26.8524 5.89198 26.7944 5.97724 26.7563 6.07174C26.7182 6.16625 26.7007 6.26781 26.7051 6.36963ZM27.8265 7.08739C28.0507 7.09219 28.2694 7.01852 28.445 6.87911C28.5171 6.8159 28.5741 6.73731 28.6118 6.64914C28.6495 6.56096 28.667 6.46544 28.6629 6.36963C28.6674 6.26856 28.6503 6.16769 28.6127 6.07376C28.5751 5.97982 28.5179 5.89498 28.445 5.8249C28.2734 5.67706 28.053 5.59827 27.8265 5.60381V7.08739ZM30.3675 5.16482H30.6623V7.08739L32.0081 5.16482H32.2677V7.59366H31.9697V5.6711L30.6335 7.59366H30.3675V5.16482ZM33.8025 5.16482H34.1005V6.30554H35.3822V5.16482H35.661V7.59366H35.3662V6.5747H34.0845V7.59366H33.7865L33.8025 5.16482ZM37.9008 5.16482H38.1988L39.1216 7.59366H38.8012L38.5801 7.00087H37.497L37.2824 7.59366H36.9619L37.9008 5.16482ZM38.5 6.74133L38.0514 5.5237L37.6092 6.74133H38.5ZM40.4225 5.16482H40.7205V6.30554H41.9862V5.16482H42.2842V7.59366H41.9862V6.5747H40.7205V7.59366H40.4225V5.16482ZM44.9085 7.60968C44.5904 7.6193 44.2811 7.50433 44.0466 7.28925C43.9285 7.17217 43.8366 7.03138 43.777 6.87617C43.7173 6.72097 43.6913 6.55487 43.7005 6.38885C43.6897 6.06191 43.8044 5.74323 44.0209 5.49807C44.1343 5.37909 44.272 5.286 44.4246 5.22516C44.5772 5.16433 44.7412 5.13719 44.9053 5.1456C45.0908 5.14171 45.2747 5.18177 45.4417 5.26252C45.6088 5.34327 45.7544 5.46242 45.8666 5.61022L45.6423 5.79607C45.5591 5.682 45.4502 5.58917 45.3243 5.52514C45.1985 5.46111 45.0593 5.42768 44.9181 5.42757C44.7983 5.42407 44.6791 5.44628 44.5685 5.49271C44.458 5.53914 44.3587 5.60871 44.2773 5.69673C44.1102 5.88757 44.023 6.13542 44.0338 6.38885C44.0276 6.51431 44.0468 6.63971 44.0903 6.75755C44.1338 6.87538 44.2007 6.98321 44.2869 7.07457C44.3701 7.15946 44.47 7.2261 44.5803 7.27023C44.6907 7.31437 44.809 7.33503 44.9277 7.33091C45.0688 7.33221 45.2082 7.29973 45.3342 7.23618C45.4602 7.17263 45.5691 7.07986 45.6519 6.96562L45.8762 7.15467C45.7639 7.30188 45.6181 7.42021 45.4509 7.49989C45.2838 7.57957 45.1 7.61831 44.9149 7.61289L44.9085 7.60968ZM48.289 7.60968C48.1273 7.61531 47.9661 7.58748 47.8155 7.52794C47.665 7.46839 47.5284 7.37841 47.4143 7.26362C47.1916 7.02169 47.0679 6.70487 47.0679 6.37604C47.0679 6.04721 47.1916 5.73039 47.4143 5.48845C47.6489 5.2653 47.9604 5.14087 48.2842 5.14087C48.6081 5.14087 48.9195 5.2653 49.1542 5.48845C49.3767 5.73178 49.5 6.04955 49.5 6.37924C49.5 6.70894 49.3767 7.0267 49.1542 7.27003C49.0407 7.38273 48.9055 7.47122 48.7568 7.53016C48.608 7.58909 48.4489 7.61723 48.289 7.61289V7.60968ZM48.289 7.33091C48.4088 7.33359 48.5277 7.311 48.6381 7.26463C48.7486 7.21825 48.848 7.14912 48.9299 7.06175C49.0953 6.87162 49.1865 6.62808 49.1865 6.37604C49.1865 6.124 49.0953 5.88046 48.9299 5.69032C48.8486 5.60188 48.7494 5.53183 48.6389 5.48485C48.5284 5.43788 48.4091 5.41507 48.289 5.41796C48.1692 5.41648 48.0503 5.43993 47.94 5.48682C47.8297 5.53371 47.7303 5.60301 47.6482 5.69032C47.481 5.87902 47.3888 6.12237 47.3888 6.37443C47.3888 6.6265 47.481 6.86986 47.6482 7.05855C47.731 7.15022 47.8324 7.2231 47.9457 7.27229C48.059 7.32148 48.1816 7.34584 48.3051 7.34373L48.289 7.33091ZM50.9229 5.16162H51.7176C51.9193 5.15129 52.1194 5.20271 52.2912 5.30901C52.3609 5.35944 52.4166 5.4268 52.453 5.50473C52.4895 5.58266 52.5054 5.66859 52.4994 5.75441C52.5006 5.87396 52.4661 5.99113 52.4001 6.09086C52.331 6.19367 52.2295 6.27038 52.1117 6.30875C52.2526 6.33339 52.3812 6.40445 52.477 6.51062C52.5752 6.62527 52.6257 6.77321 52.618 6.92397C52.6216 7.01428 52.6051 7.10427 52.5697 7.18741C52.5342 7.27054 52.4806 7.34474 52.4129 7.40461C52.2396 7.53612 52.0243 7.59992 51.8073 7.58405H50.9229V5.16162ZM51.7208 6.20941C51.8414 6.21477 51.9605 6.18106 52.0605 6.11329C52.1064 6.07845 52.1428 6.03259 52.1664 5.97994C52.1899 5.92729 52.1998 5.86956 52.195 5.81208C52.195 5.55574 52.0252 5.43078 51.6856 5.43078H51.2209V6.20621L51.7208 6.20941ZM51.7817 7.3181C51.9175 7.32559 52.0522 7.28967 52.1662 7.21556C52.2151 7.17863 52.2537 7.12979 52.2784 7.0737C52.3031 7.01761 52.313 6.95613 52.3072 6.89513C52.3108 6.83373 52.2992 6.77238 52.2735 6.7165C52.2478 6.66062 52.2088 6.61192 52.1598 6.5747C52.0359 6.48965 51.8868 6.449 51.7368 6.45935H51.2209V7.30848L51.7817 7.3181ZM54.704 5.16162H54.9988L55.9216 7.59046H55.6012L55.3833 6.99767H54.3002L54.0856 7.59046H53.7651L54.6848 5.16162H54.704ZM55.3 6.73812L54.8546 5.5205L54.4156 6.73812H55.3ZM57.716 6.63238C57.5569 6.59939 57.4152 6.5097 57.3174 6.38C57.2195 6.25031 57.1722 6.08947 57.1841 5.92744C57.178 5.82388 57.1937 5.72021 57.2302 5.62309C57.2666 5.52596 57.3229 5.43753 57.3956 5.36349C57.5665 5.2185 57.7872 5.14605 58.0108 5.16162H58.8792V7.59046H58.5812V6.68044H58.0236L57.4468 7.59046H57.0912L57.716 6.63238ZM58.5812 6.41129V5.43398H58.0525C57.9041 5.42403 57.7571 5.46845 57.6391 5.55895C57.5884 5.60461 57.5487 5.66125 57.5232 5.72455C57.4976 5.78785 57.4869 5.85615 57.4917 5.92423C57.4888 5.99069 57.5005 6.05698 57.5259 6.11843C57.5514 6.17988 57.59 6.235 57.6391 6.27991C57.7675 6.37722 57.9271 6.42398 58.0877 6.41129H58.5812ZM61.3336 5.16162H62.8236V5.43398H61.6476V7.59046H61.3496V5.16162H61.3336ZM64.1566 5.16162H65.0057C65.1148 5.1534 65.2244 5.16733 65.3279 5.20257C65.4314 5.23782 65.5267 5.29364 65.6081 5.36669C65.6761 5.44014 65.7288 5.52646 65.7629 5.62056C65.797 5.71467 65.8119 5.81465 65.8068 5.91462C65.8144 6.01957 65.7975 6.12485 65.7575 6.22217C65.7174 6.31948 65.6553 6.40616 65.5761 6.47537C65.3971 6.60863 65.1773 6.67546 64.9545 6.66442H64.4546V7.59046H64.179V5.16162H64.1566ZM64.9256 6.39206C65.0814 6.40609 65.2365 6.35897 65.3582 6.26068C65.406 6.21581 65.4435 6.161 65.4678 6.1001C65.4922 6.0392 65.5029 5.9737 65.4992 5.90821C65.5035 5.84295 65.4934 5.77754 65.4696 5.71662C65.4458 5.6557 65.4088 5.60078 65.3614 5.55575C65.2518 5.46838 65.1136 5.42498 64.9737 5.43398H64.4546V6.39526L64.9256 6.39206ZM68.963 5.16162L68.1555 6.97203C68.0928 7.12217 68.0178 7.26686 67.9312 7.40461C67.8824 7.47128 67.8181 7.52508 67.7439 7.56137C67.6696 7.59765 67.5877 7.61534 67.5051 7.61289C67.4333 7.61111 67.3621 7.59925 67.2936 7.57764C67.2287 7.56174 67.1684 7.53103 67.1173 7.48792L67.2199 7.23158C67.3019 7.29114 67.4005 7.32363 67.5018 7.3245C67.5434 7.32691 67.5849 7.31979 67.6232 7.30369C67.6615 7.28758 67.6956 7.26291 67.7229 7.23158C67.7918 7.14351 67.8439 7.04361 67.8767 6.93679L66.893 5.16162H67.2135L67.9889 6.59393L68.6298 5.16162H68.963ZM70.2447 5.16162H72.0263V7.59046H71.7251V5.43398H70.5427V7.59046H70.2447V5.16162ZM73.5547 5.16162H75.3331V7.59046H75.0319V5.43398H73.8495V7.59046H73.5547V5.16162ZM77.5633 5.16162H77.8613L78.7841 7.59046H78.4637L78.2458 6.99767H77.1627L76.948 7.59046H76.6276L77.5633 5.16162ZM78.1625 6.73812L77.7139 5.5205L77.2749 6.73812H78.1625Z" fill="#2B2A29"/>
    </g>
    <defs>
        <linearGradient id="paint0_linear" x1="22.3688" y1="27.0667" x2="7.12574" y2="8.73447" gradientUnits="userSpaceOnUse">
            <stop stop-color="#3A4FC4"/>
            <stop offset="1" stop-color="#52D4F6"/>
        </linearGradient>
        <clipPath id="clip0">
            <rect width="107.667" height="24" fill="white" transform="translate(0.166992)"/>
        </clipPath>
    </defs>
</svg>
