<svg width="165" height="40" viewBox="0 0 165 40" fill="none" xmlns="http://www.w3.org/2000/svg">
<path d="M20.9774 9.47974H25.0138V10.7969H23.0936V20.0517H20.9774V9.47974ZM27.4068 16.0829L27.7695 10.7969H27.891L28.2537 16.0829H27.4068ZM25.0632 20.0517H27.1353L27.3313 17.244H28.3291L28.526 20.0517H30.5972L29.4935 9.47974H26.1668L25.0632 20.0517ZM33.628 16.3515V18.3445C33.628 18.6132 33.8362 18.6912 33.9577 18.6912C34.1572 18.6912 34.2961 18.5265 34.2961 18.3445V15.8837C34.2961 15.5543 34.2353 15.1904 33.4458 15.1904H32.5867V14.0293H33.4805C34.0792 14.0293 34.2961 13.8906 34.2961 13.2407V11.1436C34.2961 10.9615 34.1572 10.7969 33.9576 10.7969C33.8362 10.7969 33.628 10.8662 33.628 11.1436V12.868H31.5108V11.3689C31.5108 10.6323 31.5976 9.47974 33.0812 9.47974H34.8339C36.3176 9.47974 36.4131 10.6323 36.4131 11.3689V13.0586C36.4131 14.2111 35.6062 14.5231 34.9728 14.497V14.6011C36.3957 14.5664 36.4131 15.6582 36.4131 16.0309V18.1626C36.4131 18.9078 36.3176 20.0517 34.8339 20.0517H33.0812C31.5976 20.0517 31.5108 18.9077 31.5108 18.1625V16.3515H33.628ZM37.8015 9.47974H42.7038V20.0517H40.5867V10.7969H39.9186V20.0517H37.8015V9.47974ZM46.2092 15.2943V10.797H46.4869C46.7124 10.797 46.8773 10.9875 46.8773 11.3256V14.7657C46.8773 15.1038 46.7124 15.2943 46.4868 15.2943L46.2092 15.2943ZM44.092 20.0517H46.2092V16.4555H47.4238C48.8989 16.4555 48.9944 15.3116 48.9944 14.5663V11.3689C48.9944 10.6323 48.8989 9.47974 47.4239 9.47974H44.092V20.0517ZM53.1678 18.3445C53.1678 18.5265 53.029 18.6912 52.8294 18.6912C52.7079 18.6912 52.4998 18.6132 52.4998 18.3445V11.1436C52.4998 10.8662 52.708 10.7969 52.8294 10.7969C53.029 10.7969 53.1678 10.9615 53.1678 11.1436V18.3445ZM50.3826 18.1626C50.3826 18.9078 50.478 20.0517 51.9531 20.0517H53.7145C55.1895 20.0517 55.285 18.9077 55.285 18.1625V11.3689C55.285 10.6323 55.1896 9.47974 53.7145 9.47974H51.9531C50.4781 9.47974 50.3826 10.6323 50.3826 11.3689V18.1626ZM62.1742 9.47974H64.9334V20.0517H62.8163V13.4226H62.7382L61.6449 20.0517H59.953L58.8684 13.4226H58.7903V20.0517H56.6732V9.47974H59.4237L60.8033 16.9147L62.1742 9.47974ZM16.9004 5.58033C16.2524 2.74671 14.628 0.441724 14.4042 0.0690308C14.0502 0.597581 12.7547 2.63409 12.0962 4.88705C11.3769 7.40868 11.271 9.64438 11.5193 11.8367C11.7657 14.0378 12.6966 16.2995 12.6966 16.2995C13.1912 17.478 13.9322 18.7518 14.4146 19.3758C15.1217 18.4572 16.7469 15.7189 17.2536 12.1487C17.5356 10.1557 17.5478 8.41396 16.9004 5.58033ZM14.4042 18.6652C14.0858 18.0673 13.5911 16.932 13.5443 15.1643C13.5321 13.4659 14.215 12.0014 14.4146 11.6982C14.5925 12.0015 15.1807 13.2752 15.251 15.017C15.2987 16.7155 14.733 18.0585 14.4042 18.6652ZM16.7122 10.3896C16.6879 11.4728 16.5586 12.6167 16.3937 13.3013C16.4527 12.1228 16.3114 10.4676 16.0406 9.16784C15.7699 7.87663 15.0037 5.71032 14.3921 4.71373C13.8272 5.66699 13.1313 7.53867 12.7669 9.15916C12.4007 10.7795 12.3904 12.7467 12.3904 13.3359C12.2931 12.8419 12.0502 11.0656 12.1187 9.28915C12.1761 7.82471 12.5196 6.30825 12.7079 5.61498C13.4263 3.30131 14.2393 1.8195 14.392 1.58548C14.5448 1.8195 15.5686 3.64795 16.0996 5.56296C16.6281 7.47807 16.7348 9.31501 16.7122 10.3896Z" fill="#0079C2"/>
<path d="M15.5034 20.0343H10.576V23.3359C10.5804 23.3359 10.5838 23.3272 10.5881 23.3272C11.7491 22.1661 13.632 22.1661 14.7938 23.3272C15.9547 24.4797 15.9547 26.3601 14.7938 27.5213C14.7885 27.5299 14.7833 27.5299 14.7781 27.5386C14.7721 27.5386 14.766 27.5473 14.7607 27.556C13.6024 28.6998 12.0892 29.2717 10.576 29.2717C9.05587 29.2717 7.53568 28.6998 6.37651 27.5386C4.33223 25.5022 4.09015 22.3393 5.64849 20.0343C5.86242 19.7172 6.10621 19.4212 6.37651 19.1504C7.53568 17.9893 9.05587 17.4173 10.576 17.4173V9.47974C4.73486 9.47974 0 14.2024 0 20.0343C0 25.8662 4.73486 30.5976 10.576 30.5976C13.6215 30.5976 16.3651 29.3063 18.2947 27.2527V20.0343H15.5034ZM64.9333 23.1403H20.9773V30.5976H64.9333V23.1403ZM61.1324 28.3463H61.6901V27.2206H61.1324V28.3463ZM61.1324 26.3764H61.9763L62.5413 26.6579L62.6806 26.9393L62.8201 27.5021V27.7834C62.8055 29.7995 61.5067 29.0615 60.1418 29.1905V24.5473H61.1324V26.3764ZM53.802 24.5473V25.3915H53.0976V29.1905H51.9749V25.3915H51.2705V24.5473H53.802ZM43.5218 27.9242H43.6612L43.9401 27.7834V25.8136H43.5218V27.9242ZM42.3918 25.8137H41.9662V27.7834L42.2523 27.9242H42.3918V25.8137ZM43.5218 24.5473V24.9694H44.2263L44.6445 25.2508L44.9307 25.5323L45.0701 26.0951V27.6428L44.9307 28.2056L44.6445 28.487L44.2263 28.7684H43.5218V29.1905H42.3918V28.7684H41.6874L41.2618 28.487L40.983 28.2056L40.8436 27.6428V26.0951L40.9829 25.5323L41.2618 25.2508L41.6874 24.9694H42.3918V24.5473H43.5218ZM34.3614 24.5473V25.3915H33.5161V26.3764H34.3614V27.2206H33.5161V28.3463H34.5023V29.1905H32.389V24.5473H34.3614ZM24.2177 26.3764H24.7813V24.5473H25.7675V29.1905H24.7813V27.2206H24.2177V29.1905H23.0906V24.5473H24.2177V26.3764Z" fill="#0079C2"/>
<path d="M90.9431 10.1102C91.3575 10.5114 91.5647 11.0212 91.5647 11.6395C91.5647 12.2578 91.3575 12.7676 90.9431 13.1688C90.5353 13.5635 89.9926 13.7608 89.3151 13.7608H87.7167V16.5334H86.6511V9.5083H89.3151C89.9926 9.5083 90.5353 9.70892 90.9431 10.1102ZM90.1637 12.5078C90.3873 12.2973 90.4991 12.0079 90.4991 11.6395C90.4991 11.2711 90.3873 10.985 90.1637 10.7811C89.94 10.5706 89.6374 10.4654 89.2559 10.4654H87.7167V12.8136H89.2559C89.6374 12.8136 89.94 12.7117 90.1637 12.5078Z" fill="#0079C2"/>
<path d="M97.3073 16.5334H92.8081V9.5083H97.3073V10.4654H93.8737V12.5176H96.7943V13.4648H93.8737V15.5763H97.3073V16.5334Z" fill="#0079C2"/>
<path d="M103.124 10.4654H99.8681V16.5334H98.8025V9.5083H103.124V10.4654Z" fill="#0079C2"/>
<path d="M109.512 16.5334H108.446V11.4323L105.299 16.5334H104.332V9.5083H105.398V14.5995L108.535 9.5083H109.512V16.5334Z" fill="#0079C2"/>
<path d="M116.023 11.2054C116.102 11.5803 116.142 12.1855 116.142 13.0208C116.142 13.8562 116.102 14.4614 116.023 14.8363C115.951 15.2112 115.754 15.5599 115.431 15.8822C114.958 16.3558 114.353 16.5926 113.616 16.5926C112.879 16.5926 112.274 16.3558 111.801 15.8822C111.478 15.5599 111.278 15.2112 111.199 14.8363C111.126 14.4614 111.09 13.8562 111.09 13.0208C111.09 12.1855 111.126 11.5803 111.199 11.2054C111.278 10.8304 111.478 10.4818 111.801 10.1595C112.274 9.6859 112.879 9.4491 113.616 9.4491C114.353 9.4491 114.958 9.6859 115.431 10.1595C115.754 10.4818 115.951 10.8304 116.023 11.2054ZM114.997 14.5107C115.05 14.2279 115.076 13.7312 115.076 13.0208C115.076 12.3104 115.05 11.8138 114.997 11.531C114.945 11.2415 114.833 11.008 114.662 10.8304C114.386 10.541 114.037 10.3963 113.616 10.3963C113.195 10.3963 112.846 10.541 112.57 10.8304C112.399 11.0146 112.287 11.2514 112.235 11.5408C112.182 11.8237 112.156 12.317 112.156 13.0208C112.156 13.7247 112.182 14.218 112.235 14.5008C112.287 14.7837 112.399 15.0172 112.57 15.2014C112.853 15.4974 113.202 15.6454 113.616 15.6454C114.03 15.6454 114.379 15.4974 114.662 15.2014C114.833 15.0238 114.945 14.7935 114.997 14.5107Z" fill="#0079C2"/>
<path d="M122.708 16.5334H121.633V13.4648H118.791V16.5334H117.725V9.5083H118.791V12.5176H121.633V9.5083H122.708V16.5334Z" fill="#0079C2"/>
<path d="M129.698 16.5334H128.583L128.09 15.1224H125.317L124.824 16.5334H123.699L126.274 9.5083H127.132L129.698 16.5334ZM127.803 14.2147L126.728 11.0968L125.623 14.2147H127.803Z" fill="#0079C2"/>
<path d="M135.771 16.5334H134.705V10.4654H132.683V12.6854C132.683 14.1127 132.512 15.1126 132.17 15.6848C131.834 16.2505 131.298 16.5334 130.561 16.5334H130.117V15.5763H130.305C130.515 15.5763 130.696 15.5368 130.848 15.4579C130.999 15.3724 131.137 15.2244 131.262 15.0139C131.394 14.8034 131.489 14.4943 131.548 14.0864C131.614 13.672 131.647 13.1557 131.647 12.5374V9.5083H135.771V16.5334Z" fill="#0079C2"/>
<path d="M141.925 12.863C142.332 13.2576 142.536 13.7707 142.536 14.4022C142.536 15.0336 142.329 15.5467 141.915 15.9414C141.507 16.336 140.971 16.5334 140.306 16.5334H137.613V9.5083H138.678V12.271H140.306C140.977 12.271 141.517 12.4683 141.925 12.863ZM141.461 14.4022C141.461 14.0404 141.349 13.7543 141.125 13.5438C140.908 13.3333 140.606 13.228 140.218 13.228H138.678V15.5763H140.218C140.606 15.5763 140.908 15.4743 141.125 15.2704C141.349 15.0599 141.461 14.7705 141.461 14.4022Z" fill="#0079C2"/>
<path d="M148.801 16.5334H147.725V13.4648H144.884V16.5334H143.818V9.5083H144.884V12.5176H147.725V9.5083H148.801V16.5334Z" fill="#0079C2"/>
<path d="M157.468 16.5334H156.402V9.5083H157.468V16.5334ZM154.942 12.863C155.35 13.2576 155.554 13.7707 155.554 14.4022C155.554 15.0336 155.346 15.5467 154.932 15.9414C154.524 16.336 153.988 16.5334 153.324 16.5334H150.63V9.5083H151.696V12.271H153.324C153.995 12.271 154.534 12.4683 154.942 12.863ZM154.478 14.4022C154.478 14.0404 154.366 13.7543 154.143 13.5438C153.926 13.3333 153.623 13.228 153.235 13.228H151.696V15.5763H153.235C153.623 15.5763 153.926 15.4743 154.143 15.2704C154.366 15.0599 154.478 14.7705 154.478 14.4022Z" fill="#0079C2"/>
<path d="M163.801 16.5334H159.302V9.5083H163.801V10.4654H160.368V12.5176H163.288V13.4648H160.368V15.5763H163.801V16.5334Z" fill="#0079C2"/>
<path d="M91.6239 30.4H90.5583V24.332H87.7167V30.4H86.6511V23.375H91.6239V30.4Z" fill="#0079C2"/>
<path d="M97.7554 23.9768C98.1698 24.3781 98.377 24.8879 98.377 25.5062C98.377 26.1245 98.1698 26.6343 97.7554 27.0355C97.3475 27.4302 96.8049 27.6275 96.1274 27.6275H94.529V30.4H93.4634V23.375H96.1274C96.8049 23.375 97.3475 23.5756 97.7554 23.9768ZM96.9759 26.3744C97.1995 26.1639 97.3114 25.8745 97.3114 25.5062C97.3114 25.1378 97.1995 24.8517 96.9759 24.6478C96.7522 24.4373 96.4497 24.332 96.0682 24.332H94.529V26.6803H96.0682C96.4497 26.6803 96.7522 26.5783 96.9759 26.3744Z" fill="#0079C2"/>
<path d="M104.345 25.072C104.424 25.447 104.464 26.0521 104.464 26.8875C104.464 27.7229 104.424 28.328 104.345 28.703C104.273 29.0779 104.076 29.4265 103.753 29.7488C103.28 30.2224 102.675 30.4592 101.938 30.4592C101.201 30.4592 100.596 30.2224 100.122 29.7488C99.8001 29.4265 99.5995 29.0779 99.5206 28.703C99.4482 28.328 99.412 27.7229 99.412 26.8875C99.412 26.0521 99.4482 25.447 99.5206 25.072C99.5995 24.6971 99.8001 24.3485 100.122 24.0262C100.596 23.5526 101.201 23.3158 101.938 23.3158C102.675 23.3158 103.28 23.5526 103.753 24.0262C104.076 24.3485 104.273 24.6971 104.345 25.072ZM103.319 28.3774C103.372 28.0945 103.398 27.5979 103.398 26.8875C103.398 26.1771 103.372 25.6805 103.319 25.3976C103.267 25.1082 103.155 24.8747 102.984 24.6971C102.707 24.4077 102.359 24.263 101.938 24.263C101.517 24.263 101.168 24.4077 100.892 24.6971C100.721 24.8813 100.609 25.1181 100.557 25.4075C100.504 25.6903 100.478 26.1837 100.478 26.8875C100.478 27.5913 100.504 28.0847 100.557 28.3675C100.609 28.6503 100.721 28.8839 100.892 29.068C101.175 29.364 101.523 29.512 101.938 29.512C102.352 29.512 102.701 29.364 102.984 29.068C103.155 28.8904 103.267 28.6602 103.319 28.3774Z" fill="#0079C2"/>
<path d="M107.554 24.332V25.9008C107.554 27.394 107.324 28.5747 106.863 29.443H109.508V24.332H107.554ZM106.528 23.375H110.573V29.443H111.402V31.9787H110.356V30.4H106.094V31.9787H105.058V29.443H105.67C106.242 28.555 106.528 27.223 106.528 25.447V23.375Z" fill="#0079C2"/>
<path d="M117.817 30.4H116.702L116.209 28.9891H113.437L112.943 30.4H111.818L114.394 23.375H115.252L117.817 30.4ZM115.923 28.0814L114.847 24.9635L113.742 28.0814H115.923Z" fill="#0079C2"/>
<path d="M127.043 30.4H125.711L123.007 26.7198L125.494 23.375H126.786L124.181 26.6902L127.043 30.4ZM119.209 30.4H117.867L120.738 26.6902L118.113 23.375H119.416L121.912 26.7198L119.209 30.4ZM122.997 30.4H121.922V23.375H122.997V30.4Z" fill="#0079C2"/>
<path d="M133.1 30.4H132.034V25.299L128.887 30.4H127.92V23.375H128.985V28.4662L132.123 23.375H133.1V30.4Z" fill="#0079C2"/>
<path d="M74.6667 0H75.7334V40H74.6667V0Z" fill="#0079C2"/>
</svg>
