<svg width="242" height="40"
     viewBox="0 0 242 40"
     fill="none" xmlns="http://www.w3.org/2000/svg">
    <path d="M127.531 13.4213H132.242V15.533H126.638C125.869 15.533 125.241 15.3056 124.754 14.8508C124.277 14.3851 124.039 13.8003 124.039 13.0964V6.59899C124.039 5.89509 124.277 5.31574 124.754 4.86091C125.241 4.39526 125.869 4.16244 126.638 4.16244H132.242V5.54315L131.592 6.27411H127.531C127.369 6.27411 127.234 6.32826 127.125 6.43655C127.017 6.54484 126.963 6.6802 126.963 6.84264V12.8528C126.963 13.0152 127.017 13.1506 127.125 13.2589C127.234 13.3672 127.369 13.4213 127.531 13.4213Z"
          fill="currentColor"/>
    <path d="M133.062 6.27411V4.16244H142.321V5.54315L141.671 6.27411H139.153V15.533H136.229V6.27411H133.062Z"
          fill="currentColor"/>
    <path d="M146.781 15.533H143.858V4.16244H150.03C150.81 4.16244 151.438 4.40068 151.914 4.87716C152.391 5.35364 152.629 5.92758 152.629 6.59899V9.60406C152.629 10.308 152.386 10.8927 151.898 11.3584C151.422 11.8132 150.799 12.0406 150.03 12.0406H146.781V15.533ZM149.137 6.27411H146.781V9.92893H149.137C149.299 9.92893 149.435 9.87479 149.543 9.7665C149.651 9.65821 149.705 9.52284 149.705 9.36041V6.84264C149.705 6.6802 149.651 6.54484 149.543 6.43655C149.435 6.32826 149.299 6.27411 149.137 6.27411Z"
          fill="currentColor"/>
    <path d="M161.239 15.533L160.67 13.0964H157.259L156.691 15.533H153.767V14.3959L157.016 4.16244H160.914L164.163 14.3959V15.533H161.239ZM160.102 10.9848L159.046 6.76142H158.884L157.828 10.9848H160.102Z"
          fill="currentColor"/>
    <path d="M169.774 11.2284L167.906 15.533H164.982V14.3959L167.743 9.7665L165.226 5.29949V4.16244H168.149L169.774 8.46701H169.936L171.561 4.16244H174.484V5.29949L171.967 9.7665L174.728 14.3959V15.533H171.804L169.936 11.2284H169.774Z"
          fill="currentColor"/>
    <path d="M179.689 13.5838H181.8C181.963 13.5838 182.098 13.5296 182.207 13.4213C182.315 13.313 182.369 13.1777 182.369 13.0152V6.6802C182.369 6.51777 182.315 6.3824 182.207 6.27411C182.098 6.16582 181.963 6.11168 181.8 6.11168H179.689C179.526 6.11168 179.391 6.16582 179.283 6.27411C179.174 6.3824 179.12 6.51777 179.12 6.6802V13.0152C179.12 13.1777 179.174 13.313 179.283 13.4213C179.391 13.5296 179.526 13.5838 179.689 13.5838ZM182.694 15.6954H178.795C178.027 15.6954 177.398 15.468 176.911 15.0132C176.435 14.5475 176.196 13.9628 176.196 13.2589V6.43655C176.196 5.73266 176.435 5.1533 176.911 4.69848C177.398 4.23283 178.027 4 178.795 4H182.694C183.484 4 184.112 4.23824 184.578 4.71472C185.055 5.1912 185.293 5.76514 185.293 6.43655V13.2589C185.293 13.9628 185.049 14.5475 184.562 15.0132C184.085 15.468 183.463 15.6954 182.694 15.6954Z"
          fill="currentColor"/>
    <path d="M187.655 4.16244H193.584C194.353 4.16244 194.976 4.39526 195.452 4.86091C195.939 5.31574 196.183 5.89509 196.183 6.59899V7.89848C196.183 8.50491 195.923 8.97056 195.403 9.29543C195.198 9.43621 194.943 9.53909 194.64 9.60406V9.7665C195.03 9.83147 195.355 9.93435 195.615 10.0751C196.264 10.3892 196.589 10.8548 196.589 11.4721V13.0964C196.589 13.8003 196.346 14.3851 195.858 14.8508C195.382 15.3056 194.759 15.533 193.99 15.533H187.655V4.16244ZM190.579 13.4213H193.097C193.259 13.4213 193.395 13.3672 193.503 13.2589C193.611 13.1506 193.665 13.0152 193.665 12.8528V11.4721C193.665 11.3096 193.611 11.1743 193.503 11.066C193.395 10.9577 193.259 10.9036 193.097 10.9036H190.579V13.4213ZM192.691 6.27411H190.579V8.79188H192.691C192.853 8.79188 192.989 8.73773 193.097 8.62944C193.205 8.52115 193.259 8.38579 193.259 8.22335V6.84264C193.259 6.6802 193.205 6.54484 193.097 6.43655C192.989 6.32826 192.853 6.27411 192.691 6.27411Z"
          fill="currentColor"/>
    <path d="M205.354 15.533L204.785 13.0964H201.374L200.806 15.533H197.882V14.3959L201.13 4.16244H205.029L208.278 14.3959V15.533H205.354ZM204.217 10.9848L203.161 6.76142H202.998L201.943 10.9848H204.217Z"
          fill="currentColor"/>
    <path d="M212.995 15.533H210.071V4.16244H212.995V8.79188H216.082V4.16244H219.005V15.533H216.082V10.9036H212.995V15.533Z"
          fill="currentColor"/>
    <path d="M230.615 4.16244V15.533H227.691V11.797L228.179 8.38579H228.016L224.524 15.533H221.681V4.16244H224.605V7.89848L224.118 11.3096H224.28L227.773 4.16244H230.615Z"
          fill="currentColor"/>
    <path d="M241.335 4.16244V5.54315L240.686 6.27411H236.137V8.71066H239.873V10.8223H236.137V13.4213H241.335V15.533H233.214V4.16244H241.335Z"
          fill="currentColor"/>
    <path d="M124.283 35.8376V24.467H132.161V25.8477L131.511 26.5787H127.207V35.8376H124.283Z"
          fill="currentColor"/>
    <path d="M137.768 35.8376H134.844V24.467H141.017C141.797 24.467 142.425 24.7052 142.901 25.1817C143.378 25.6582 143.616 26.2321 143.616 26.9036V29.9086C143.616 30.6125 143.372 31.1973 142.885 31.6629C142.408 32.1178 141.786 32.3452 141.017 32.3452H137.768V35.8376ZM140.123 26.5787H137.768V30.2335H140.123C140.286 30.2335 140.421 30.1794 140.53 30.0711C140.638 29.9628 140.692 29.8274 140.692 29.665V27.1472C140.692 26.9848 140.638 26.8494 140.53 26.7411C140.421 26.6328 140.286 26.5787 140.123 26.5787Z"
          fill="currentColor"/>
    <path d="M145.891 24.467H148.814L151.007 30.6396H151.17L152.794 24.467H155.718V25.6041L152.55 33.401C152.204 34.2673 151.744 34.9171 151.17 35.3503C150.596 35.7834 149.811 36 148.814 36H147.515V33.8883H148.814C149.009 33.8883 149.156 33.8504 149.253 33.7746C149.35 33.6988 149.448 33.5743 149.545 33.401L149.627 33.2386L145.891 25.6041V24.467Z"
          fill="currentColor"/>
    <path d="M162.695 26.5787H158.472L157.822 25.8477V24.467H163.589C164.357 24.467 164.98 24.6998 165.457 25.1655C165.944 25.6203 166.188 26.1997 166.188 26.9036V28.203C166.188 28.8203 165.901 29.286 165.327 29.6C165.099 29.7299 164.818 29.8328 164.482 29.9086V30.0711C164.839 30.136 165.148 30.2389 165.408 30.3797C166.036 30.7046 166.35 31.1702 166.35 31.7766V33.401C166.35 34.1049 166.106 34.6897 165.619 35.1553C165.143 35.6102 164.52 35.8376 163.751 35.8376H157.741V33.7259H162.858C163.02 33.7259 163.155 33.6717 163.264 33.5635C163.372 33.4552 163.426 33.3198 163.426 33.1574V31.7766C163.426 31.6142 163.372 31.4788 163.264 31.3706C163.155 31.2623 163.02 31.2081 162.858 31.2081H159.853V29.0964H162.695C162.858 29.0964 162.993 29.0423 163.101 28.934C163.21 28.8257 163.264 28.6904 163.264 28.5279V27.1472C163.264 26.9848 163.21 26.8494 163.101 26.7411C162.993 26.6328 162.858 26.5787 162.695 26.5787Z"
          fill="currentColor"/>
    <path d="M173.014 33.8883H175.125C175.288 33.8883 175.423 33.8342 175.531 33.7259C175.64 33.6176 175.694 33.4822 175.694 33.3198V26.9848C175.694 26.8223 175.64 26.687 175.531 26.5787C175.423 26.4704 175.288 26.4162 175.125 26.4162H173.014C172.851 26.4162 172.716 26.4704 172.608 26.5787C172.499 26.687 172.445 26.8223 172.445 26.9848V33.3198C172.445 33.4822 172.499 33.6176 172.608 33.7259C172.716 33.8342 172.851 33.8883 173.014 33.8883ZM176.019 36H172.12C171.351 36 170.723 35.7726 170.236 35.3178C169.76 34.8521 169.521 34.2673 169.521 33.5635V26.7411C169.521 26.0372 169.76 25.4579 170.236 25.003C170.723 24.5374 171.351 24.3046 172.12 24.3046H176.019C176.809 24.3046 177.437 24.5428 177.903 25.0193C178.379 25.4958 178.618 26.0697 178.618 26.7411V33.5635C178.618 34.2673 178.374 34.8521 177.887 35.3178C177.41 35.7726 176.788 36 176.019 36Z"
          fill="currentColor"/>
    <path d="M182.198 24.467H188.127C188.896 24.467 189.519 24.6998 189.995 25.1655C190.483 25.6203 190.726 26.1997 190.726 26.9036V28.203C190.726 28.8095 190.466 29.2751 189.947 29.6C189.741 29.7408 189.486 29.8437 189.183 29.9086V30.0711C189.573 30.136 189.898 30.2389 190.158 30.3797C190.807 30.6937 191.132 31.1594 191.132 31.7766V33.401C191.132 34.1049 190.889 34.6897 190.401 35.1553C189.925 35.6102 189.302 35.8376 188.533 35.8376H182.198V24.467ZM185.122 33.7259H187.64C187.802 33.7259 187.938 33.6717 188.046 33.5635C188.154 33.4552 188.208 33.3198 188.208 33.1574V31.7766C188.208 31.6142 188.154 31.4788 188.046 31.3706C187.938 31.2623 187.802 31.2081 187.64 31.2081H185.122V33.7259ZM187.234 26.5787H185.122V29.0964H187.234C187.396 29.0964 187.532 29.0423 187.64 28.934C187.748 28.8257 187.802 28.6904 187.802 28.5279V27.1472C187.802 26.9848 187.748 26.8494 187.64 26.7411C187.532 26.6328 187.396 26.5787 187.234 26.5787Z"
          fill="currentColor"/>
    <path d="M203.471 24.467V35.8376H200.547V32.1015L201.034 28.6904H200.872L197.379 35.8376H194.537V24.467H197.46V28.203L196.973 31.6142H197.135L200.628 24.467H203.471Z"
          fill="currentColor"/>
    <path d="M210.211 35.8376H207.287V24.467H210.211V29.0964H211.592L213.379 24.467H216.302V25.6041L214.028 30.0711L216.546 34.7005V35.8376H213.622L211.592 31.2081H210.211V35.8376Z"
          fill="currentColor"/>
    <path d="M222.795 33.8883H224.906C225.069 33.8883 225.204 33.8342 225.313 33.7259C225.421 33.6176 225.475 33.4822 225.475 33.3198V26.9848C225.475 26.8223 225.421 26.687 225.313 26.5787C225.204 26.4704 225.069 26.4162 224.906 26.4162H222.795C222.632 26.4162 222.497 26.4704 222.389 26.5787C222.28 26.687 222.226 26.8223 222.226 26.9848V33.3198C222.226 33.4822 222.28 33.6176 222.389 33.7259C222.497 33.8342 222.632 33.8883 222.795 33.8883ZM225.8 36H221.901C221.132 36 220.504 35.7726 220.017 35.3178C219.541 34.8521 219.302 34.2673 219.302 33.5635V26.7411C219.302 26.0372 219.541 25.4579 220.017 25.003C220.504 24.5374 221.132 24.3046 221.901 24.3046H225.8C226.59 24.3046 227.218 24.5428 227.684 25.0193C228.161 25.4958 228.399 26.0697 228.399 26.7411V33.5635C228.399 34.2673 228.155 34.8521 227.668 35.3178C227.191 35.7726 226.569 36 225.8 36Z"
          fill="currentColor"/>
    <path d="M231.979 24.467H237.908C238.677 24.467 239.3 24.6998 239.776 25.1655C240.264 25.6203 240.507 26.1997 240.507 26.9036V28.203C240.507 28.8095 240.247 29.2751 239.728 29.6C239.522 29.7408 239.267 29.8437 238.964 29.9086V30.0711C239.354 30.136 239.679 30.2389 239.939 30.3797C240.589 30.6937 240.913 31.1594 240.913 31.7766V33.401C240.913 34.1049 240.67 34.6897 240.182 35.1553C239.706 35.6102 239.083 35.8376 238.314 35.8376H231.979V24.467ZM234.903 33.7259H237.421C237.583 33.7259 237.719 33.6717 237.827 33.5635C237.935 33.4552 237.99 33.3198 237.99 33.1574V31.7766C237.99 31.6142 237.935 31.4788 237.827 31.3706C237.719 31.2623 237.583 31.2081 237.421 31.2081H234.903V33.7259ZM237.015 26.5787H234.903V29.0964H237.015C237.177 29.0964 237.313 29.0423 237.421 28.934C237.529 28.8257 237.583 28.6904 237.583 28.5279V27.1472C237.583 26.9848 237.529 26.8494 237.421 26.7411C237.313 26.6328 237.177 26.5787 237.015 26.5787Z"
          fill="currentColor"/>
    <path d="M0 4C0 1.79086 1.79086 0 4 0H106C108.209 0 110 1.79086 110 4V36C110 38.2091 108.209 40 106 40H4C1.79086 40 0 38.2091 0 36V4Z"
          fill="#201F32"/>
    <path fill-rule="evenodd" clip-rule="evenodd"
          d="M15 29.0084V10.6665H35.6084V29.0084H31.4948V14.7868H27.361V29.0084H23.2406V14.7868H19.1203V29.0084H15ZM61.8525 17.7709H61.8593V10.7007H75.2757V14.821H65.9729V17.7709H75.2757V21.8912V29.0426H61.8525V24.9222H71.1554V21.8912H61.8593H61.8525V17.7709ZM52.0625 24.9017H45.4118V10.6802L41.2915 10.7005V29.022H56.1829V10.7005L52.0625 10.6802V24.9017ZM80.959 10.6733H94.3822V14.8546H89.7274V29.022H85.6138V14.8546H80.959V10.6733Z"
          fill="white"/>
</svg>
