<svg width="88" height="24" viewBox="0 0 88 24" fill="none" xmlns="http://www.w3.org/2000/svg">
    <g clip-path="url(#clip0)">
        <path fill-rule="evenodd" clip-rule="evenodd" d="M74.9174 3.21125C74.6376 3.07695 74.5928 2.97622 74.5928 2.60687V2.15918H76.8872H79.1816L79.2936 2.45018C79.3607 2.61806 79.4055 5.55044 79.4055 10.0161C79.4055 16.7212 79.3831 17.6995 79.8453 18.0654C79.9487 18.1472 80.0763 18.1983 80.2337 18.276C80.6814 18.4887 80.9165 18.4999 83.9496 18.4999C86.535 18.4999 87.2401 18.5335 87.408 18.6566C87.6094 18.8021 87.6094 18.8357 87.3408 20.134L87.061 21.4658H82.987C78.9802 21.4658 78.8906 21.4546 78.2639 21.2084C77.4245 20.8726 76.4731 19.9997 76.115 19.2498C75.6337 18.2201 75.6001 17.7052 75.6001 10.7436C75.6001 4.58244 75.6082 3.71165 75.1871 3.37068C75.1118 3.30967 75.0227 3.26562 74.9174 3.21125ZM8.68165 3.26722C8.40184 3.06576 8.33469 2.93145 8.33469 2.58449V2.15918H10.5172C12.9571 2.15918 13.2481 2.21514 13.7182 2.84191C13.8749 3.05456 15.7552 6.16601 17.8929 9.76992C20.0306 13.3738 21.8326 16.3622 21.8885 16.4181C21.9445 16.4853 21.9893 13.7544 21.9893 9.47892C21.9893 4.14021 22.0228 2.39422 22.1236 2.29349C22.2131 2.20395 22.7615 2.15918 23.836 2.15918C24.9104 2.15918 25.4589 2.20395 25.5484 2.29349C25.6491 2.39422 25.6827 4.57671 25.6827 11.4152L25.6827 12.313C25.6833 20.0111 25.6834 20.8992 25.258 21.216C25.2025 21.2573 25.1398 21.2889 25.0689 21.3246L25.0689 21.3246C25.0502 21.334 25.031 21.3437 25.0112 21.3539C24.7202 21.4994 24.3844 21.533 23.254 21.4994L21.8549 21.4658L21.4968 21.0629C21.1722 20.716 15.5313 11.404 13.6958 8.203L13.0914 7.15093L13.0578 14.1797C13.0466 19.1602 13.0019 21.2644 12.9123 21.3763C12.7444 21.5778 9.67776 21.589 9.4763 21.3875C9.37557 21.2868 9.34199 19.2162 9.34199 12.7694L9.34204 11.9116C9.34261 4.68934 9.34267 3.85546 8.92619 3.4573C8.87183 3.40533 8.81037 3.36078 8.74088 3.31041L8.74084 3.31038L8.74054 3.31017L8.74031 3.31C8.72136 3.29626 8.70181 3.28209 8.68165 3.26722ZM0.84696 3.26724C0.567154 3.06578 0.5 2.93147 0.5 2.58451V2.1592H2.72726C4.60756 2.1592 4.9881 2.18159 5.1336 2.33828C5.29029 2.49497 5.31267 3.50228 5.31267 11.7957C5.31267 17.9851 5.2791 21.1637 5.20075 21.3092C5.08883 21.4994 4.94333 21.5218 3.43237 21.5218C2.29076 21.5218 1.73115 21.4771 1.64161 21.3875C1.54088 21.2868 1.5073 19.2162 1.5073 12.7695L1.50735 11.9116V11.9116C1.50792 4.68936 1.50799 3.85548 1.0915 3.45732C1.03714 3.40535 0.975677 3.3608 0.906193 3.31043L0.906191 3.31043L0.90617 3.31042L0.906146 3.3104C0.887031 3.29654 0.867309 3.28225 0.84696 3.26724ZM31.995 2.31589C30.7191 2.62928 29.5999 3.51347 29.1074 4.61031C28.6373 5.67357 28.5926 6.52419 28.5926 14.079C28.5926 20.3802 28.615 21.1861 28.7717 21.3427C28.9172 21.4882 29.2417 21.5218 30.54 21.5218C31.6257 21.5218 32.1741 21.477 32.2636 21.3875C32.3644 21.2868 32.3979 20.1899 32.3979 17.1344V13.0157H35.8564C38.0165 13.0157 39.3483 12.9709 39.3931 12.9038C39.561 12.6352 40.0087 10.6317 39.9527 10.4303C39.8856 10.2288 39.7289 10.2176 36.1362 10.2176H32.3979V8.28137C32.3979 6.08769 32.4987 5.71834 33.1814 5.38257C33.5284 5.2035 33.9761 5.18111 37.2778 5.18111C40.0647 5.18111 41.016 5.14754 41.1503 5.03561C41.3182 4.90131 41.7995 3.1777 41.7995 2.68524C41.7995 2.55093 41.7435 2.37186 41.6651 2.29351C41.4749 2.10324 32.8009 2.12563 31.995 2.31589ZM43.0306 2.67405C43.0306 2.47259 43.0642 2.27113 43.109 2.23755C43.1985 2.13682 47.4292 2.13682 47.6642 2.22636C47.8209 2.28232 47.8433 2.8867 47.8433 7.85607C47.8433 10.9116 47.8992 13.9447 47.9552 14.6162C48.179 16.8882 48.8058 17.8955 50.4063 18.5223C50.9212 18.7126 51.3353 18.7685 52.6671 18.8133C53.6744 18.8357 54.5363 18.8133 54.928 18.7238L55.5659 18.6006V10.5534C55.5659 3.39036 55.5883 2.49497 55.745 2.33828C55.8905 2.19278 56.2151 2.15921 57.5246 2.15921C59.0243 2.15921 59.1475 2.1704 59.2594 2.38305C59.3377 2.53974 59.3713 5.23708 59.3489 11.1466C59.3153 19.0595 59.3042 19.7087 59.1139 20.1228C58.5431 21.3875 57.5134 21.7009 53.6073 21.8128C51.7718 21.8688 51.0107 21.8464 50.1377 21.7121C47.3284 21.2756 45.8734 20.3578 44.9893 18.444C44.1946 16.7539 44.0491 15.1646 44.0379 8.61714C44.0379 3.60301 44.0379 3.56943 43.3664 3.22247C43.0978 3.08816 43.0306 2.97624 43.0306 2.67405ZM61.7218 2.60689C61.7218 2.93147 61.7777 3.07697 61.9568 3.16651C62.0799 3.23366 62.2814 3.45751 62.3933 3.64778C62.6059 3.99474 62.6171 4.27454 62.6171 10.3855C62.6171 13.8887 62.6731 17.1233 62.7291 17.5598C62.9417 19.2274 63.6021 20.2907 64.822 20.9286C65.8405 21.4659 66.3218 21.5218 70.351 21.5218H74.0332L74.1452 21.2644C74.2795 20.9286 74.5929 19.3393 74.5929 18.9476C74.5929 18.7685 74.5145 18.6118 74.4138 18.5671C74.313 18.5335 72.7685 18.4999 70.9778 18.4999C67.385 18.4999 67.206 18.4663 66.7135 17.7948C66.479 17.4822 66.4785 17.3589 66.4451 10.013L66.4449 9.96021C66.4225 4.73342 66.3777 2.40543 66.2994 2.3047C66.1987 2.19278 65.6502 2.1592 63.949 2.1592H61.7218V2.60689Z" fill="url(#paint0_linear)"/>
    </g>
    <defs>
        <linearGradient id="paint0_linear" x1="1.45134" y1="3.33437" x2="87.5759" y2="20.9622" gradientUnits="userSpaceOnUse">
            <stop stop-color="#62B556"/>
            <stop offset="1" stop-color="#3B5FA6"/>
        </linearGradient>
        <clipPath id="clip0">
            <rect width="87" height="24" fill="white" transform="translate(0.5)"/>
        </clipPath>
    </defs>
</svg>
