<svg width="122" height="14" viewBox="0 0 122 14" fill="none" xmlns="http://www.w3.org/2000/svg">
<path d="M11.3604 13.7863H8.62861V4.88041L2.63189 13.7863H0V0.21374H2.76515V9.11959L8.79519 0.21374H11.3604V13.7863ZM13.3594 0.249364H16.1578V5.59288H21.7548V0.249364H24.5532V13.7863H21.7548V8.33588H16.1578V13.7863H13.3594V0.249364ZM29.3173 13.7863H26.5521V0.21374H35.1474V2.92112H29.3173V13.7863ZM48.5734 7.01781C48.5734 2.8855 45.7749 0.0712468 41.9104 0H41.8438C37.9792 0.0356234 35.1807 2.8855 35.1807 6.98219C35.1807 11.1145 37.9792 13.9288 41.8438 13.9644H41.9104C45.7749 13.9644 48.5734 11.1145 48.5734 7.01781V7.01781ZM41.8771 11.257C39.645 11.257 38.0792 9.61832 38.0792 7.01781C38.0792 4.38168 39.645 2.77863 41.8771 2.77863C44.1092 2.77863 45.675 4.4173 45.675 7.01781C45.675 9.61832 44.1092 11.257 41.8771 11.257ZM77.7241 2.99237H73.6264V0.249364H84.587V2.99237H80.5226V13.7863H77.7241V2.99237ZM86.2861 0.249364H91.983C95.0147 0.249364 96.847 2.17303 96.847 4.95165C96.847 8.08651 94.5816 9.72519 91.7165 9.72519H89.0846V13.7863H86.2861V0.249364ZM91.7831 7.05343C93.1823 7.05343 93.9819 6.16285 93.9819 4.95165C93.9819 3.63359 93.1157 2.8855 91.7165 2.8855H89.0513V7.01781H91.7831V7.05343ZM121.8 13.7863L117.302 6.8397L121.6 0.21374H118.402L115.703 4.38168L113.005 0.21374H109.707L114.038 6.91094L109.54 13.7863H112.738L115.637 9.33333L118.502 13.7863H121.8ZM106.408 13.7863H109.24L103.81 0.142494H101.245L95.8142 13.7863H98.646L99.8454 10.6514H105.209L106.408 13.7863V13.7863ZM100.845 8.01527L102.544 3.77608L104.243 8.01527H100.845V8.01527ZM56.4691 11.257C54.237 11.257 52.6712 9.61832 52.6712 7.01781C52.6712 4.38168 54.237 2.77863 56.4691 2.77863C57.6351 2.77863 58.6013 3.13486 59.4341 3.88295L61.1665 2.03053C60.0005 0.819338 58.4347 0.0356234 56.5024 0.0356234H56.4358C52.5712 0.0712468 49.7728 2.92112 49.7728 7.01781C49.7728 11.1501 52.5712 13.9644 56.4358 14H56.5024C58.4014 13.9644 59.9672 13.1807 61.1665 12.0051L59.4341 10.1527C58.6013 10.9008 57.6351 11.257 56.4691 11.257V11.257ZM68.0961 11.257C65.8639 11.257 64.2981 9.61832 64.2981 7.01781C64.2981 4.38168 65.8639 2.77863 68.0961 2.77863C69.2621 2.77863 70.2282 3.13486 71.0611 3.88295L72.7935 2.03053C71.6275 0.819338 70.0617 0.0356234 68.1294 0.0356234H68.0627C64.1982 0.0712468 61.3997 2.92112 61.3997 7.01781C61.3997 11.1501 64.1982 13.9644 68.0627 14H68.1294C70.0283 13.9644 71.5941 13.1807 72.7935 12.0051L71.0611 10.1527C70.2282 10.9008 69.2621 11.257 68.0961 11.257" fill="#0047BB"/>
</svg>
