<svg width="106" height="28" viewBox="0 0 106 28" fill="none" xmlns="http://www.w3.org/2000/svg">
<path fill-rule="evenodd" clip-rule="evenodd" d="M7.45554 0C3.63041 0 0.529541 3.10298 0.529541 6.93069V21.0693C0.529541 24.897 3.63042 28 7.45554 28C7.45554 28 94.9784 28 98.8035 28C102.629 28 105.73 24.897 105.73 21.0693V6.93069C105.73 3.10298 102.629 0 98.8035 0H7.45554Z" fill="#009846"/>
<path fill-rule="evenodd" clip-rule="evenodd" d="M7.74183 0.599976C4.08409 0.599976 1.1189 3.56997 1.1189 7.23364V20.7663C1.1189 24.43 4.08409 27.4 7.74184 27.4C7.74184 27.4 94.8775 27.4 98.5353 27.4C102.193 27.4 105.158 24.43 105.158 20.7663V7.23364C105.158 3.56997 102.193 0.599976 98.5353 0.599976H7.74183Z" fill="#1C1B17"/>
<path fill-rule="evenodd" clip-rule="evenodd" d="M13.1747 14.2322V23.8842H10.1783H7.18188V14.2322V4.5802H10.1783H13.1747V14.2322ZM43.2517 5.9202L44.6034 7.26683V10.5837V13.9005L43.2583 15.2405L41.9066 16.5871H38.8969H35.8806V20.2356V23.8842H32.8842H29.8878V14.2322V4.5802H35.8939H41.9066L43.2517 5.9202ZM59.299 5.9202L60.6507 7.26683V14.2322V21.1975L59.3056 22.5375L57.9539 23.8842H53.2596H48.5653L47.2535 22.5773L45.9351 21.2639V14.2587V7.25357L47.2868 5.9202L48.6319 4.5802H53.2929H57.9539L59.299 5.9202ZM67.9752 11.9104V19.2406H72.3366H76.698V21.5624V23.8842H70.6586H64.6126L63.3008 22.5773L61.9824 21.2639V12.9253V4.5802H64.9788H67.9752V11.9104ZM84.0225 14.2322V23.8842H81.0261H78.0297V14.2322V4.5802H81.0261H84.0225V14.2322ZM98.7247 5.92683L100.07 7.27347L100.056 8.92525L100.036 10.5837H97.0401H94.0437L94.0237 9.9004L94.0038 9.22376L92.692 9.23703L91.3803 9.25693V10.5837V11.9104L94.41 11.9303L97.4396 11.9436L98.758 13.257L100.07 14.5639V17.9139V21.2639L98.758 22.5707L97.4396 23.8842H92.712H87.9844L86.6726 22.5773L85.3542 21.2639V19.5922V17.9139H88.3839H91.4202L91.3736 18.5772L91.327 19.2406H92.712H94.097L94.0504 18.9885C94.0304 18.8558 94.0104 18.2588 94.0104 17.6618V16.5871H91.034H88.051L86.7059 15.2471L85.3542 13.9005V10.5837V7.26683L86.6992 5.92683L88.051 4.5802H92.712H97.373L98.7247 5.92683ZM28.5561 14.2653V16.5871H21.5312H14.5064V14.2653V11.9436H21.5312H28.5561V14.2653ZM35.9072 9.31002C35.8939 9.35645 35.8872 9.96012 35.8939 10.65L35.9139 11.9104L37.2323 11.9303L38.544 11.9436V10.5837V9.22378H37.2456C36.2468 9.22378 35.9338 9.24368 35.9072 9.31002ZM51.9279 14.2786C51.9279 11.5456 51.9479 9.29012 51.9745 9.27022C51.9945 9.24368 52.5937 9.22378 53.3062 9.22378H54.5913V14.2322V19.2406H53.2596H51.9279V14.2786Z" fill="white"/>
</svg>
