<svg width="103" height="26" viewBox="0 0 103 26" fill="none" xmlns="http://www.w3.org/2000/svg">
<path fill-rule="evenodd" clip-rule="evenodd" d="M7.65005 0V8.96943L16.0815 0H23.1703L15.8666 7.60699L20.8879 20.7773L27.4129 0H33.0517L39.4692 20.3231V0H48.5988L52.7877 14.6463L57.4598 0H66.1598V20.3231L72.4699 0H78.1087L84.8754 21.6288L91.7225 4.59825H84.8485V0H102.007L93.6021 21.6572H102.007L101.765 26H78.8337L77.8402 23.1616H70.456L69.5431 26H58.6682V11.8079L54.5062 26H48.4377L44.1146 11.8079V26H33.6424L32.7563 23.1616H25.2647L24.3518 26H14.3898L9.74448 13.5109L7.65005 15.6681V26H0.104736V0H7.65005ZM29.1314 11.3537L26.8221 18.762H31.4674L29.1314 11.2969V11.3537ZM74.3227 11.3537L71.9866 18.8188H76.4977L74.1884 11.3537H74.3227Z" fill="#0061A2"/>
</svg>
