<svg width="94" height="24" viewBox="0 0 94 24" fill="none" xmlns="http://www.w3.org/2000/svg">
<path d="M5.77233 19.929L0 14.1076L2.08688 12.0029L5.77233 15.7146L9.45264 12.0029L11.5395 14.1076L5.77233 19.929Z" fill="#558AFF"/>
<path d="M5.77233 15.7405L0 9.92427L2.08688 7.81445L5.77233 11.5313L9.45264 7.81445L11.5395 9.92427L5.77233 15.7405Z" fill="#1D25F6"/>
<path d="M5.77233 11.5257L0 5.70425L2.08688 3.59961L5.77233 7.31124L9.45264 3.59961L11.5395 5.70425L5.77233 11.5257Z" fill="#03ECFD"/>
<path opacity="0.4" d="M10.0897 8.46243L5.76689 12.8272L1.44922 8.46762L2.08659 7.81445L5.76689 11.5313L9.45233 7.81445L10.0897 8.46243Z" fill="black"/>
<path opacity="0.4" d="M10.0897 12.651L5.76689 17.0106L1.44922 12.6562L2.07631 12.0186L5.77203 15.7405L9.46261 12.0186L10.0897 12.651Z" fill="black"/>
<path d="M16.7637 15.7107V7.39996C16.7637 7.3189 16.8079 7.27838 16.8963 7.27838H17.6054C17.6931 7.27838 17.7369 7.3189 17.7369 7.39996V11.1679H18.2542L20.0198 7.35133C20.0439 7.30269 20.0797 7.27838 20.1272 7.27838H20.8242C20.9528 7.27838 20.997 7.33512 20.9568 7.44859L19.0586 11.41L21.233 15.662C21.2893 15.7755 21.2491 15.8323 21.1125 15.8323H20.4275C20.372 15.8323 20.3321 15.8079 20.308 15.7593L18.2542 11.7007H17.7369V15.7107C17.7369 15.7917 17.6931 15.8323 17.6054 15.8323H16.8963C16.8079 15.8323 16.7637 15.7917 16.7637 15.7107ZM22.0736 16.9099L22.0857 16.1705H22.146C22.2578 16.1786 22.3637 16.1826 22.4638 16.1826C22.5639 16.1826 22.6622 16.1826 22.7586 16.1826C22.8149 16.1826 22.8788 16.1727 22.9504 16.1528C23.0227 16.1329 23.0911 16.1148 23.1554 16.0986C23.2591 16.0581 23.3369 16.0095 23.3888 15.9527C23.4407 15.896 23.4787 15.8315 23.5028 15.7593C23.5189 15.7188 23.5309 15.6805 23.5389 15.6444C23.547 15.6075 23.559 15.5692 23.5751 15.5294L23.6113 15.2619L23.6233 14.9712V14.7413L21.7733 7.43643C21.7492 7.33106 21.7934 7.27838 21.906 7.27838L22.5778 7.30269C22.634 7.30269 22.6702 7.33512 22.6863 7.39996C22.9347 8.40946 23.1791 9.42523 23.4195 10.4473C23.6591 11.4686 23.8871 12.488 24.1034 13.5056C24.2875 12.488 24.4837 11.4686 24.6919 10.4473C24.9001 9.42523 25.1204 8.40946 25.3528 7.39996C25.3688 7.33512 25.405 7.30269 25.4613 7.30269L26.1342 7.27838C26.238 7.27838 26.2778 7.32701 26.2537 7.42428L24.6207 14.7657L24.5363 15.0563C24.4961 15.2177 24.4639 15.3651 24.4398 15.4985C24.4157 15.6318 24.3839 15.7549 24.3445 15.8676C24.2721 16.102 24.1819 16.288 24.0738 16.4258C23.9656 16.5629 23.8356 16.6679 23.6836 16.7408C23.5316 16.813 23.3614 16.8613 23.1729 16.8856C22.9844 16.9099 22.7743 16.9221 22.5427 16.9221C22.4784 16.9221 22.4101 16.9202 22.3378 16.9166C22.2662 16.9121 22.1982 16.9099 22.1339 16.9099H22.0736ZM27.263 15.7107V7.39996C27.263 7.3189 27.3073 7.27838 27.3957 7.27838H31.7675C31.8478 7.27838 31.888 7.3189 31.888 7.39996V15.7107C31.888 15.7917 31.8478 15.8323 31.7675 15.8323H31.0715C30.9912 15.8323 30.951 15.7917 30.951 15.7107V8.00566H28.2363V15.7107C28.2363 15.7917 28.1921 15.8323 28.1037 15.8323H27.3957C27.3073 15.8323 27.263 15.7917 27.263 15.7107ZM32.8371 15.8566V15.1293H32.8974C33.0092 15.1212 33.1152 15.1109 33.2153 15.0983C33.3153 15.0866 33.4096 15.0626 33.498 15.0265C33.5857 14.9897 33.6617 14.937 33.726 14.8684C33.7903 14.7999 33.8421 14.7052 33.8816 14.5844C33.9539 14.3582 34.016 14.0896 34.0679 13.7786C34.1198 13.4677 34.1658 13.1423 34.206 12.8026C34.2462 12.4637 34.2783 12.1369 34.3025 11.8222C34.3266 11.5069 34.3467 11.232 34.3627 10.9977C34.4029 10.3839 34.4427 9.77229 34.4822 9.16291C34.5224 8.55278 34.5666 7.94487 34.6148 7.33917V7.27838H38.0386C38.1263 7.27838 38.1701 7.3189 38.1701 7.39996V15.7107C38.1701 15.7917 38.1263 15.8323 38.0386 15.8323H37.3416C37.2532 15.8323 37.209 15.7917 37.209 15.7107V8.01782H35.5036L35.2877 11.0099C35.2797 11.1558 35.2676 11.3536 35.2516 11.6034C35.2355 11.8539 35.2114 12.1266 35.1792 12.4213C35.1471 12.7161 35.1091 13.0189 35.0652 13.3299C35.0214 13.6408 34.9673 13.9337 34.903 14.2086C34.8387 14.4834 34.7646 14.7259 34.6806 14.9359C34.5965 15.1451 34.5026 15.2944 34.3989 15.3835C34.1666 15.5935 33.9342 15.7247 33.7019 15.777C33.4695 15.8301 33.2014 15.8566 32.8974 15.8566H32.8371ZM39.8524 7.27838H40.5133C40.601 7.27838 40.6448 7.3189 40.6448 7.39996V11.1436H41.4613V9.82277C41.4613 9.45949 41.4935 9.12017 41.5578 8.80479C41.6221 8.49015 41.7382 8.21567 41.9063 7.98135C42.0743 7.74702 42.3027 7.56133 42.5913 7.42428C42.8791 7.28722 43.2514 7.21869 43.7081 7.21869C44.1647 7.21869 44.5392 7.28722 44.8314 7.42428C45.1237 7.56133 45.3538 7.74702 45.5219 7.98135C45.6899 8.21567 45.8061 8.49015 45.8704 8.80479C45.9347 9.12017 45.9668 9.45949 45.9668 9.82277V13.2757C45.9668 13.6309 45.9347 13.9702 45.8704 14.2937C45.8061 14.6164 45.6899 14.9009 45.5219 15.147C45.3538 15.3938 45.1237 15.5898 44.8314 15.735C44.5392 15.8802 44.1647 15.9527 43.7081 15.9527C43.2514 15.9527 42.8769 15.8802 42.5847 15.735C42.2924 15.5898 42.0645 15.392 41.9008 15.1415C41.7364 14.8909 41.6221 14.6043 41.5578 14.2815C41.4935 13.958 41.4613 13.6187 41.4613 13.2636V11.8698H40.6448V15.7107C40.6448 15.7917 40.601 15.8323 40.5133 15.8323H39.8524C39.764 15.8323 39.7198 15.7917 39.7198 15.7107V7.39996C39.7198 7.3189 39.764 7.27838 39.8524 7.27838ZM42.3633 9.6415V13.457C42.3633 13.6913 42.379 13.9135 42.4104 14.1235C42.4426 14.3335 42.5069 14.5173 42.6033 14.675C42.699 14.8327 42.8349 14.958 43.011 15.0508C43.1878 15.1437 43.4202 15.1901 43.7081 15.1901C43.9886 15.1901 44.2169 15.1496 44.393 15.0685C44.5691 14.9874 44.7072 14.8725 44.8073 14.7237C44.9074 14.5741 44.9775 14.3921 45.0177 14.1776C45.0579 13.9639 45.078 13.7237 45.078 13.457V9.6415C45.078 9.40718 45.0597 9.18685 45.0232 8.98053C44.9874 8.77495 44.9195 8.59552 44.8194 8.44225C44.7193 8.28825 44.5812 8.16703 44.4051 8.07861C44.229 7.98945 44.0007 7.94487 43.7201 7.94487C43.4315 7.94487 43.1992 7.98945 43.0231 8.07861C42.847 8.16703 42.7111 8.28825 42.6154 8.44225C42.5189 8.59552 42.4528 8.77495 42.417 8.98053C42.3812 9.18685 42.3633 9.40718 42.3633 9.6415ZM49.8225 12.4401H47.0716C46.9912 12.4401 46.951 12.3996 46.951 12.3185V11.8101C46.951 11.729 46.9912 11.6885 47.0716 11.6885H49.8225C49.9028 11.6885 49.943 11.729 49.943 11.8101V12.3185C49.943 12.3996 49.9028 12.4401 49.8225 12.4401ZM51.096 15.7107V7.39996C51.096 7.3189 51.1398 7.27838 51.2275 7.27838H55.6004C55.6808 7.27838 55.721 7.3189 55.721 7.39996V15.7107C55.721 15.7917 55.6808 15.8323 55.6004 15.8323H54.9034C54.8237 15.8323 54.7839 15.7917 54.7839 15.7107V8.00566H52.0692V15.7107C52.0692 15.7917 52.025 15.8323 51.9366 15.8323H51.2275C51.1398 15.8323 51.096 15.7917 51.096 15.7107ZM57.0657 13.2879V9.79845C57.0657 9.42707 57.1019 9.08406 57.1742 8.76942C57.2465 8.45404 57.3726 8.1814 57.5523 7.9515C57.7328 7.72086 57.975 7.54107 58.2789 7.41212C58.5836 7.28317 58.9643 7.21869 59.4209 7.21869C59.8769 7.21869 60.2531 7.28317 60.5498 7.41212C60.8457 7.54107 61.0821 7.72086 61.2589 7.9515C61.435 8.1814 61.5588 8.45404 61.6304 8.76942C61.7028 9.08406 61.7389 9.42707 61.7389 9.79845V13.3C61.7389 13.6633 61.7028 14.0063 61.6304 14.3291C61.5588 14.6525 61.435 14.9333 61.2589 15.1713C61.0821 15.41 60.8457 15.5998 60.5498 15.7405C60.2531 15.882 59.8769 15.9527 59.4209 15.9527C58.9643 15.9527 58.5836 15.8842 58.2789 15.7472C57.975 15.6101 57.7328 15.4204 57.5523 15.1779C57.3726 14.9355 57.2465 14.6525 57.1742 14.3291C57.1019 14.0063 57.0657 13.6593 57.0657 13.2879ZM60.7657 13.457V9.6415C60.7657 9.40718 60.7496 9.18685 60.7175 8.98053C60.6853 8.77495 60.6192 8.59552 60.5191 8.44225C60.419 8.28825 60.2809 8.16703 60.1048 8.07861C59.9287 7.98945 59.6968 7.94487 59.4089 7.94487C59.1283 7.94487 58.8978 7.98945 58.7173 8.07861C58.5376 8.16703 58.3977 8.28825 58.2976 8.44225C58.1975 8.59552 58.1292 8.77495 58.0926 8.98053C58.0568 9.18685 58.0389 9.40718 58.0389 9.6415V13.457C58.0389 13.6913 58.0568 13.9135 58.0926 14.1235C58.1292 14.3335 58.1975 14.5173 58.2976 14.675C58.3977 14.8327 58.5358 14.958 58.7119 15.0508C58.8879 15.1437 59.1203 15.1901 59.4089 15.1901C59.7048 15.1901 59.9408 15.1455 60.1169 15.0563C60.293 14.9679 60.4292 14.8449 60.5257 14.6872C60.6214 14.5295 60.6853 14.3456 60.7175 14.1356C60.7496 13.9256 60.7657 13.6994 60.7657 13.457ZM62.4951 15.8566V15.1293H62.5554C62.6679 15.1212 62.7742 15.1109 62.8743 15.0983C62.9744 15.0866 63.0683 15.0626 63.156 15.0265C63.2444 14.9897 63.3208 14.937 63.3851 14.8684C63.4486 14.7999 63.5005 14.7052 63.5407 14.5844C63.613 14.3582 63.6751 14.0896 63.727 13.7786C63.7789 13.4677 63.8249 13.1423 63.8651 12.8026C63.9053 12.4637 63.9374 12.1369 63.9615 11.8222C63.9857 11.5069 64.0054 11.232 64.0207 10.9977C64.0609 10.3839 64.1011 9.77229 64.1413 9.16291C64.1815 8.55278 64.2257 7.94487 64.2739 7.33917V7.27838H67.6966C67.785 7.27838 67.8292 7.3189 67.8292 7.39996V15.7107C67.8292 15.7917 67.785 15.8323 67.6966 15.8323H67.0007C66.9123 15.8323 66.868 15.7917 66.868 15.7107V8.01782H65.1627L64.9457 11.0099C64.9377 11.1558 64.926 11.3536 64.9107 11.6034C64.8946 11.8539 64.8705 12.1266 64.8383 12.4213C64.8062 12.7161 64.7682 13.0189 64.7243 13.3299C64.6798 13.6408 64.6257 13.9337 64.5621 14.2086C64.4978 14.4834 64.4237 14.7259 64.3396 14.9359C64.2556 15.1451 64.1614 15.2944 64.0569 15.3835C63.8253 15.5935 63.5933 15.7247 63.3609 15.777C63.1286 15.8301 62.8601 15.8566 62.5554 15.8566H62.4951ZM69.5104 7.27838H70.1121C70.1918 7.27838 70.2316 7.3189 70.2316 7.39996V13.7234L72.9583 7.35133C72.9825 7.30269 73.0267 7.27838 73.091 7.27838H73.5951C73.6755 7.27838 73.7157 7.3189 73.7157 7.39996V15.7107C73.7157 15.7917 73.6755 15.8323 73.5951 15.8323H72.9825C72.9021 15.8323 72.8619 15.7917 72.8619 15.7107V9.37512L70.1713 15.7593C70.1472 15.8079 70.1074 15.8323 70.0518 15.8323H69.5104C69.4228 15.8323 69.3789 15.7917 69.3789 15.7107V7.39996C69.3789 7.3189 69.4228 7.27838 69.5104 7.27838ZM75.0725 13.2392V9.89572C75.0725 9.52434 75.1064 9.17691 75.1744 8.85342C75.2431 8.53068 75.3633 8.24809 75.535 8.00566C75.7074 7.76323 75.9416 7.57128 76.2375 7.4298C76.5341 7.28906 76.9148 7.21869 77.3795 7.21869C77.9077 7.21869 78.3162 7.30343 78.6048 7.47291C78.8926 7.64239 79.1049 7.86455 79.2415 8.1394C79.3774 8.41352 79.4593 8.72853 79.487 9.08443C79.5155 9.4396 79.5298 9.80287 79.5298 10.1743V10.235H78.6168V10.1743C78.6168 10.0534 78.6187 9.92814 78.6223 9.79845C78.6267 9.6695 78.6249 9.54018 78.6168 9.41049C78.6168 9.20122 78.5986 9.00743 78.562 8.82911C78.5262 8.65152 78.4623 8.49826 78.3702 8.3693C78.2782 8.24035 78.154 8.13719 77.9976 8.05982C77.8412 7.98319 77.6432 7.94487 77.4036 7.94487C77.0989 7.94487 76.8563 7.99535 76.6759 8.0963C76.4961 8.19725 76.3602 8.33467 76.2682 8.50857C76.1761 8.68247 76.1158 8.88032 76.0873 9.10212C76.0596 9.32391 76.0457 9.55602 76.0457 9.79845V13.373C76.0457 13.6147 76.0596 13.8446 76.0873 14.0627C76.1158 14.2808 76.1779 14.4746 76.2736 14.6441C76.3701 14.8143 76.5082 14.9477 76.6879 15.0442C76.8684 15.1415 77.1069 15.1901 77.4036 15.1901C77.6432 15.1901 77.8434 15.1477 78.0042 15.063C78.1642 14.9782 78.288 14.8651 78.3757 14.7237C78.4641 14.5822 78.5262 14.4164 78.562 14.2263C78.5986 14.0369 78.6168 13.8413 78.6168 13.6394C78.6249 13.5016 78.6267 13.3682 78.6223 13.2392C78.6187 13.1103 78.6168 12.9891 78.6168 12.8756V12.8148H79.3972C79.4856 12.8148 79.5298 12.8553 79.5298 12.9364V13.3608C79.5298 13.6998 79.4994 14.0247 79.4388 14.3357C79.3789 14.6466 79.2708 14.9233 79.1144 15.1658C78.9588 15.4082 78.7407 15.5998 78.4601 15.7405C78.1795 15.882 77.8193 15.9527 77.3795 15.9527C76.9228 15.9527 76.5462 15.8802 76.2495 15.735C75.9536 15.5898 75.7176 15.392 75.5415 15.1415C75.3655 14.8909 75.2431 14.6021 75.1744 14.2749C75.1064 13.9477 75.0725 13.6025 75.0725 13.2392ZM81.1869 15.8079C80.9867 15.8079 80.8245 15.7431 80.7003 15.6134C80.5761 15.4845 80.5139 15.3231 80.5139 15.1293C80.5139 14.9274 80.5761 14.7638 80.7003 14.6385C80.8245 14.5133 80.9867 14.4506 81.1869 14.4506C81.379 14.4506 81.5394 14.5133 81.668 14.6385C81.7959 14.7638 81.8598 14.9274 81.8598 15.1293C81.8598 15.3231 81.7959 15.4845 81.668 15.6134C81.5394 15.7431 81.379 15.8079 81.1869 15.8079ZM83.0971 15.7107V7.39996C83.0971 7.3189 83.141 7.27838 83.2287 7.27838H85.2715C85.6719 7.27838 86.0102 7.33512 86.2864 7.44859C86.5626 7.56133 86.7847 7.72086 86.9528 7.92719C87.1208 8.13277 87.241 8.37483 87.3133 8.65336C87.3857 8.93264 87.4218 9.24175 87.4218 9.58071C87.4218 9.90345 87.3816 10.2023 87.3013 10.4771C87.2216 10.752 87.0956 10.9903 86.9232 11.1922C86.7507 11.3941 86.5304 11.5537 86.2623 11.6708C85.9942 11.788 85.6679 11.8466 85.2836 11.8466H84.0704V15.7107C84.0704 15.7917 84.0262 15.8323 83.9378 15.8323H83.2287C83.141 15.8323 83.0971 15.7917 83.0971 15.7107ZM85.0545 8.00566H84.0704V11.1436H85.0436C85.6201 11.1436 86.0084 11.0102 86.2086 10.7435C86.4088 10.4767 86.5089 10.0891 86.5089 9.58071C86.5089 9.30586 86.4928 9.06969 86.4607 8.87221C86.4285 8.674 86.3606 8.51041 86.2568 8.38146C86.1523 8.25177 86.004 8.15672 85.8119 8.0963C85.6197 8.03587 85.3673 8.00566 85.0545 8.00566ZM90.1486 8.07861H90.5925V6.66052C90.5925 6.5802 90.6327 6.54004 90.713 6.54004H91.4342C91.5219 6.54004 91.5657 6.5802 91.5657 6.66052V8.07861C91.6461 8.07051 91.7283 8.06645 91.8123 8.06645C91.8963 8.06645 91.9822 8.06645 92.0698 8.06645C92.4469 8.06645 92.7552 8.13093 92.9948 8.25988C93.2352 8.38957 93.4237 8.56126 93.5604 8.77495C93.6963 8.98937 93.7923 9.23365 93.8486 9.50776C93.9041 9.78261 93.9319 10.0652 93.9319 10.3555V12.6822C93.9319 12.957 93.9059 13.2256 93.8541 13.4879C93.8022 13.7503 93.7101 13.9842 93.5779 14.1898C93.4456 14.3961 93.2633 14.5638 93.031 14.6927C92.7987 14.8224 92.5024 14.8872 92.1422 14.8872C91.942 14.8872 91.7498 14.8751 91.5657 14.8508V16.2191C91.5657 16.3002 91.5219 16.3407 91.4342 16.3407H90.713C90.6327 16.3407 90.5925 16.3002 90.5925 16.2191V14.8508C90.4003 14.8751 90.2082 14.8872 90.016 14.8872C89.6558 14.8872 89.3595 14.8246 89.1272 14.6993C88.8948 14.5741 88.7125 14.4083 88.5803 14.202C88.4488 13.9964 88.3567 13.7602 88.3041 13.4935C88.2522 13.2274 88.2263 12.957 88.2263 12.6822V10.3555C88.2263 10.0571 88.2544 9.77045 88.3107 9.4956C88.3669 9.22149 88.467 8.97943 88.611 8.76942C88.7549 8.55941 88.9511 8.39178 89.1995 8.26651C89.4479 8.14124 89.7643 8.07861 90.1486 8.07861ZM91.5657 14.2451H91.9504C92.2068 14.2451 92.407 14.2027 92.551 14.1179C92.6949 14.0332 92.8008 13.9179 92.8688 13.772C92.9375 13.6268 92.9795 13.4592 92.9948 13.2691C93.0109 13.0797 93.0189 12.8841 93.0189 12.6822V10.3555C93.0189 10.259 93.0171 10.1499 93.0135 10.0284C93.0091 9.90751 92.997 9.78666 92.9773 9.66582C92.9576 9.54423 92.9316 9.42891 92.8995 9.31986C92.8673 9.2108 92.8271 9.12017 92.7789 9.04796C92.6832 8.89395 92.5469 8.79705 92.3701 8.75726C92.194 8.71674 92.0139 8.69647 91.8298 8.69647C91.7823 8.69647 91.7363 8.69647 91.6917 8.69647C91.6479 8.69647 91.6059 8.70052 91.5657 8.70863V14.2451ZM89.4033 13.93C89.4998 14.0671 89.6298 14.1537 89.7935 14.1898C89.9579 14.2266 90.1322 14.2451 90.3163 14.2451H90.5925V8.69647H90.2681C90.092 8.69647 89.928 8.72079 89.776 8.76942C89.624 8.81732 89.5038 8.91016 89.4154 9.04796C89.3036 9.20933 89.2295 9.41712 89.1929 9.67134C89.1571 9.92556 89.1392 10.1536 89.1392 10.3555V12.6822C89.1392 12.8679 89.1553 13.0838 89.1874 13.3299C89.2196 13.5767 89.2916 13.7768 89.4033 13.93Z" fill="black"/>
</svg>
