<svg width="64" height="24" viewBox="0 0 64 24" fill="none" xmlns="http://www.w3.org/2000/svg">
<path d="M0 3C0 1.34315 1.34315 0 3 0H61C62.6569 0 64 1.34315 64 3V21C64 22.6569 62.6569 24 61 24H3C1.34315 24 0 22.6569 0 21V3Z" fill="#27B4B8"/>
<path fill-rule="evenodd" clip-rule="evenodd" d="M12.3277 6H8.37715C7.69796 6 7.13198 6.22826 6.67919 6.68477C6.22639 7.14128 6 7.71192 6 8.39669V17.9917H10.0751L10.0751 9.08145L12.4272 9.08145L12.4272 17.9917L14.0886 17.9917L14.7048 17.9917L16.3662 17.9917V9.08145L18.7183 9.08145L18.7183 17.9917H22.7934V8.39669C22.7934 7.71192 22.567 7.14128 22.1142 6.68477C21.6614 6.22826 21.0955 6 20.4163 6H16.4658C15.7866 6 15.2206 6.22826 14.7678 6.68477C14.62 6.8338 14.4963 6.995 14.3967 7.16837C14.2972 6.995 14.1735 6.8338 14.0256 6.68477C13.5728 6.22826 13.0069 6 12.3277 6ZM33.5235 18.0005H26.5772C25.898 18.0005 25.332 17.7722 24.8792 17.3157C24.4264 16.8592 24.2 16.2886 24.2 15.6038V6.00879H28.2751V14.919H31.8256V6.00879H35.9007V15.6038C35.9007 16.2886 35.6743 16.8592 35.2215 17.3157C34.7687 17.7722 34.2027 18.0005 33.5235 18.0005ZM37.2588 10.7166V8.40547C37.2588 7.72071 37.4851 7.15007 37.9379 6.69356C38.3907 6.23704 38.9567 6.00879 39.6359 6.00879H46.5127V9.09024H41.3339V10.0318L44.7298 10.7166C45.3411 10.8421 45.8448 11.1274 46.241 11.5725C46.6485 12.0062 46.8523 12.5198 46.8523 13.1132V15.5955C46.8523 16.2803 46.6259 16.8509 46.1731 17.3074C45.7203 17.764 45.1543 17.9922 44.4751 17.9922H37.2588V14.9108H42.7771V13.798L39.3812 13.1132C38.7586 12.9877 38.2492 12.7081 37.853 12.2744C37.4569 11.8293 37.2588 11.31 37.2588 10.7166ZM47.8976 6.00879V9.09024H51.1537V17.9922H55.2288V9.09024H58.4849V6.00879H47.8976Z" fill="white"/>
</svg>
