<svg width="210" height="24" viewBox="0 0 210 24" fill="none" xmlns="http://www.w3.org/2000/svg">
<path d="M19.587 23.5464H14.8769V8.33554L4.53775 23.5464H0V0.36506H4.76751V15.5759L15.1641 0.36506H19.587V23.5464ZM23.0334 0.425903H27.8583V9.55241H37.5082V0.425903H42.3331V23.5464H37.5082V14.2373H27.8583V23.5464H23.0334V0.425903ZM50.547 23.5464H45.7795V0.36506H60.599V4.98915H50.547V23.5464ZM83.7473 11.9861C83.7473 4.92831 78.9223 0.121687 72.2593 0H72.1444C65.4814 0.0608434 60.6565 4.92831 60.6565 11.9253C60.6565 18.9831 65.4814 23.7898 72.1444 23.8506H72.2593C78.9223 23.8506 83.7473 18.9831 83.7473 11.9861ZM72.2019 19.2265C68.3534 19.2265 65.6537 16.4277 65.6537 11.9861C65.6537 7.48373 68.3534 4.74578 72.2019 4.74578C76.0503 4.74578 78.75 7.54458 78.75 11.9861C78.75 16.4277 76.0503 19.2265 72.2019 19.2265ZM134.007 5.11084H126.942V0.425903H145.84V5.11084H138.832V23.5464H134.007V5.11084ZM148.769 0.425903H158.591C163.818 0.425903 166.978 3.71144 166.978 8.45723C166.978 13.8114 163.072 16.6102 158.132 16.6102H153.594V23.5464H148.769V0.425903ZM158.247 12.047C160.659 12.047 162.038 10.5259 162.038 8.45723C162.038 6.20602 160.544 4.92831 158.132 4.92831H153.537V11.9861H158.247V12.047ZM210 23.5464L202.246 11.6819L209.655 0.36506H204.141L199.488 7.48373L194.836 0.36506H189.149L196.617 11.8036L188.862 23.5464H194.376L199.374 15.941L204.313 23.5464H210ZM183.463 23.5464H188.345L178.982 0.243373H174.56L165.197 23.5464H170.079L172.147 18.1922H181.395L183.463 23.5464ZM173.87 13.6898L176.8 6.4494L179.729 13.6898H173.87ZM97.3605 19.2265C93.512 19.2265 90.8124 16.4277 90.8124 11.9861C90.8124 7.48373 93.512 4.74578 97.3605 4.74578C99.3709 4.74578 101.037 5.35422 102.473 6.63193L105.46 3.46807C103.449 1.3994 100.749 0.0608434 97.4179 0.0608434H97.3031C90.64 0.121687 85.8151 4.98916 85.8151 11.9861C85.8151 19.044 90.64 23.8506 97.3031 23.9114H97.4179C100.692 23.8506 103.392 22.512 105.46 20.5042L102.473 17.3404C101.037 18.6181 99.3709 19.2265 97.3605 19.2265ZM117.407 19.2265C113.559 19.2265 110.859 16.4277 110.859 11.9861C110.859 7.48373 113.559 4.74578 117.407 4.74578C119.417 4.74578 121.083 5.35422 122.519 6.63193L125.506 3.46807C123.496 1.3994 120.796 0.0608434 117.464 0.0608434H117.35C110.687 0.121687 105.862 4.98916 105.862 11.9861C105.862 19.044 110.687 23.8506 117.35 23.9114H117.464C120.739 23.8506 123.438 22.512 125.506 20.5042L122.519 17.3404C121.083 18.6181 119.417 19.2265 117.407 19.2265Z" fill="#0047BB"/>
</svg>
