<svg width="120" height="44" viewBox="0 0 120 44" fill="none" xmlns="http://www.w3.org/2000/svg">
    <rect y="0.181816" width="120" height="43.6364" rx="4" fill="black"/>
    <path d="M67.483 19.568H67.4756V24.0629H67.483H77.6242V27.3695H67.4756V31.8644H82.1191V24.0629V19.568H71.9705V16.35H82.1191V11.8551H67.483V19.568Z" fill="white"/>
    <path d="M16.3638 11.8182V31.8275H20.8587V16.3131H25.3536V31.8275H29.8485V16.3131H34.3581V31.8275H38.8456V11.8182H16.3638Z" fill="white"/>
    <path d="M56.7956 27.3474H49.5403V11.8329L45.0454 11.8551V31.8423H61.2905V11.8551L56.7956 11.8329V27.3474Z" fill="white"/>
    <path d="M102.962 11.8256H88.3188V16.3869H93.3968V31.8423H97.8843V16.3869H102.962V11.8256Z" fill="white"/>
</svg>
