<svg width="157" height="18" viewBox="0 0 157 18" fill="none" xmlns="http://www.w3.org/2000/svg">
<path d="M15.0503 17.2405H11.5514V6.42621L3.8709 17.2405H0.5V0.759542H4.04158V11.5738L11.7648 0.759542H15.0503V17.2405ZM17.6105 0.802799H21.1947V7.29135H28.3632V0.802799H31.9475V17.2405H28.3632V10.6221H21.1947V17.2405H17.6105V0.802799ZM38.0492 17.2405H34.5077V0.759542H45.5164V4.04707H38.0492V17.2405ZM62.7123 9.02163C62.7123 4.00382 59.128 0.586514 54.1783 0.5H54.093C49.1433 0.543257 45.5591 4.00382 45.5591 8.97837C45.5591 13.9962 49.1433 17.4135 54.093 17.4567H54.1783C59.128 17.4567 62.7123 13.9962 62.7123 9.02163ZM54.1357 14.1692C51.2768 14.1692 49.2713 12.1794 49.2713 9.02163C49.2713 5.82061 51.2768 3.87405 54.1357 3.87405C56.9945 3.87405 59 5.86387 59 9.02163C59 12.1794 56.9945 14.1692 54.1357 14.1692ZM100.048 4.13359H94.7998V0.802799H108.838V4.13359H103.632V17.2405H100.048V4.13359ZM111.014 0.802799H118.311C122.194 0.802799 124.54 3.13868 124.54 6.51272C124.54 10.3193 121.639 12.3092 117.969 12.3092H114.598V17.2405H111.014V0.802799ZM118.055 9.06489C119.847 9.06489 120.871 7.98346 120.871 6.51272C120.871 4.91221 119.761 4.00382 117.969 4.00382H114.556V9.02163H118.055V9.06489ZM156.5 17.2405L150.74 8.80534L156.244 0.759542H152.148L148.691 5.82061L145.235 0.759542H141.011L146.558 8.89186L140.798 17.2405H144.894L148.606 11.8333L152.276 17.2405H156.5ZM136.787 17.2405H140.414L133.458 0.673028H130.173L123.218 17.2405H126.845L128.381 13.4338H135.251L136.787 17.2405ZM129.661 10.2328L131.837 5.08524L134.013 10.2328H129.661ZM72.8249 14.1692C69.9661 14.1692 67.9606 12.1794 67.9606 9.02163C67.9606 5.82061 69.9661 3.87405 72.8249 3.87405C74.3184 3.87405 75.5558 4.30662 76.6225 5.21501L78.8414 2.96565C77.3479 1.49491 75.3425 0.543257 72.8676 0.543257H72.7823C67.8326 0.586514 64.2484 4.04707 64.2484 9.02163C64.2484 14.0394 67.8326 17.4567 72.7823 17.5H72.8676C75.2998 17.4567 77.3053 16.5051 78.8414 15.0776L76.6225 12.8282C75.5558 13.7366 74.3184 14.1692 72.8249 14.1692ZM87.7166 14.1692C84.8578 14.1692 82.8523 12.1794 82.8523 9.02163C82.8523 5.82061 84.8578 3.87405 87.7166 3.87405C89.2101 3.87405 90.4475 4.30662 91.5142 5.21501L93.733 2.96565C92.2396 1.49491 90.2341 0.543257 87.7593 0.543257H87.674C82.7243 0.586514 79.14 4.04707 79.14 9.02163C79.14 14.0394 82.7243 17.4567 87.674 17.5H87.7593C90.1915 17.4567 92.1969 16.5051 93.733 15.0776L91.5142 12.8282C90.4475 13.7366 89.2101 14.1692 87.7166 14.1692Z" fill="#0047BB"/>
</svg>
