<svg width="240" height="40" viewBox="0 0 240 40" xmlns="http://www.w3.org/2000/svg">
    <path fill="#27B4B8" d="M124.48 12.92c-.32 0-.56-.24-.56-.56V6.44c0-.32.24-.56.56-.56h4l.64-.72V3.8h-5.52c-1.536 0-2.56 1.04-2.56 2.4v6.4c0 1.36 1.024 2.4 2.56 2.4h5.52v-2.08h-4.64zm5.448-7.04h3.12V15h2.88V5.88h2.48l.64-.72V3.8h-9.12v2.08zM143.441 15v-3.44h3.2c1.536 0 2.56-1.04 2.56-2.4V6.2c0-1.28-.96-2.4-2.56-2.4h-6.08V15h2.88zm2.32-9.12c.32 0 .56.24.56.56v2.48c0 .32-.24.56-.56.56h-2.32v-3.6h2.32zM157.198 15h2.88v-1.12l-3.2-10.08h-3.84l-3.2 10.08V15h2.88l.56-2.4h3.36l.56 2.4zm-1.12-4.48h-2.24l1.04-4.16h.16l1.04 4.16zm9.526.24h.16l1.84 4.24h2.88v-1.12l-2.72-4.56 2.48-4.4V3.8h-2.88l-1.6 4.24h-.16l-1.6-4.24h-2.88v1.12l2.48 4.4-2.72 4.56V15h2.88l1.84-4.24zm9.454 2.32c-.32 0-.56-.24-.56-.56V6.28c0-.32.24-.56.56-.56h2.08c.32 0 .56.24.56.56v6.24c0 .32-.24.56-.56.56h-2.08zm2.96 2.08c1.536 0 2.56-1.04 2.56-2.4V6.04c0-1.28-.96-2.4-2.56-2.4h-3.84c-1.536 0-2.56 1.04-2.56 2.4v6.72c0 1.36 1.024 2.4 2.56 2.4h3.84zm4.887-11.36V15h6.24c1.536 0 2.56-1.04 2.56-2.4V11c0-.72-.464-1.136-.96-1.376a3.223 3.223 0 00-.96-.304v-.16c.272-.064.528-.16.752-.304.384-.24.768-.656.768-1.376V6.2c0-1.36-1.024-2.4-2.56-2.4h-5.84zm2.88 9.12v-2.48h2.48c.32 0 .56.24.56.56v1.36c0 .32-.24.56-.56.56h-2.48zm2.08-7.04c.32 0 .56.24.56.56V7.8c0 .32-.24.56-.56.56h-2.08V5.88h2.08zM200.338 15h2.88v-1.12l-3.2-10.08h-3.84l-3.2 10.08V15h2.88l.56-2.4h3.36l.56 2.4zm-1.12-4.48h-2.24l1.04-4.16h.16l1.04 4.16zm8.647 4.48v-4.56h3.04V15h2.88V3.8h-2.88v4.56h-3.04V3.8h-2.88V15h2.88zm17.356-11.2h-2.8l-3.44 7.04h-.16l.48-3.36V3.8h-2.88V15h2.8l3.44-7.04h.16l-.48 3.36V15h2.88V3.8zm10.559 0h-8V15h8v-2.08h-5.12v-2.56h3.68V8.28h-3.68v-2.4h4.48l.64-.72V3.8zM121.28 35h2.88v-9.12h4.24l.64-.72V23.8h-7.76V35zm13.283 0v-3.44h3.2c1.536 0 2.56-1.04 2.56-2.4V26.2c0-1.28-.96-2.4-2.56-2.4h-6.08V35h2.88zm2.32-9.12c.32 0 .56.24.56.56v2.48c0 .32-.24.56-.56.56h-2.32v-3.6h2.32zm5.681-2.08v1.12l3.68 7.52-.08.16c-.176.32-.32.48-.72.48h-1.28v2.08h1.28c2.064 0 3.04-.944 3.68-2.56l3.12-7.68V23.8h-2.88l-1.6 6.08h-.16l-2.16-6.08h-2.88zm16.552 2.08c.32 0 .56.24.56.56v1.36c0 .32-.24.56-.56.56h-2.8v2.08h2.96c.32 0 .56.24.56.56v1.36c0 .32-.24.56-.56.56h-5.04V35h5.92c1.536 0 2.56-1.04 2.56-2.4V31c0-.72-.464-1.136-.928-1.376a3.22 3.22 0 00-.912-.304v-.16a2.71 2.71 0 00.832-.304c.432-.24.848-.656.848-1.376V26.2c0-1.36-1.024-2.4-2.56-2.4h-5.68v1.36l.64.72h4.16zm10.164 7.2c-.32 0-.56-.24-.56-.56v-6.24c0-.32.24-.56.56-.56h2.08c.32 0 .56.24.56.56v6.24c0 .32-.24.56-.56.56h-2.08zm2.96 2.08c1.536 0 2.56-1.04 2.56-2.4v-6.72c0-1.28-.96-2.4-2.56-2.4h-3.84c-1.536 0-2.56 1.04-2.56 2.4v6.72c0 1.36 1.024 2.4 2.56 2.4h3.84zm6.087-11.36V35h6.24c1.536 0 2.56-1.04 2.56-2.4V31c0-.72-.464-1.136-.96-1.376a3.223 3.223 0 00-.96-.304v-.16c.272-.064.528-.16.752-.304.384-.24.768-.656.768-1.376V26.2c0-1.36-1.024-2.4-2.56-2.4h-5.84zm2.88 9.12v-2.48h2.48c.32 0 .56.24.56.56v1.36c0 .32-.24.56-.56.56h-2.48zm2.08-7.04c.32 0 .56.24.56.56v1.36c0 .32-.24.56-.56.56h-2.08v-2.48h2.08zm15.993-2.08h-2.8l-3.44 7.04h-.16l.48-3.36V23.8h-2.88V35h2.8l3.44-7.04h.16l-.48 3.36V35h2.88V23.8zm6.639 11.2v-4.56h1.36l2 4.56h2.88v-1.12l-2.48-4.56 2.24-4.4V23.8h-2.88l-1.76 4.56h-1.36V23.8h-2.88V35h2.88zm12.239-1.92c-.32 0-.56-.24-.56-.56v-6.24c0-.32.24-.56.56-.56h2.08c.32 0 .56.24.56.56v6.24c0 .32-.24.56-.56.56h-2.08zm2.96 2.08c1.536 0 2.56-1.04 2.56-2.4v-6.72c0-1.28-.96-2.4-2.56-2.4h-3.84c-1.536 0-2.56 1.04-2.56 2.4v6.72c0 1.36 1.024 2.4 2.56 2.4h3.84zm6.087-11.36V35h6.24c1.536 0 2.56-1.04 2.56-2.4V31c0-.72-.464-1.136-.96-1.376a3.223 3.223 0 00-.96-.304v-.16c.272-.064.528-.16.752-.304.384-.24.768-.656.768-1.376V26.2c0-1.36-1.024-2.4-2.56-2.4h-5.84zm2.88 9.12v-2.48h2.48c.32 0 .56.24.56.56v1.36c0 .32-.24.56-.56.56h-2.48zm2.08-7.04c.32 0 .56.24.56.56v1.36c0 .32-.24.56-.56.56h-2.08v-2.48h2.08z"/>
    <rect width="110" height="40" fill="#000" rx="4"/>
    <path fill="#fff" d="M61.86 17.77h-.008v4.121H71.156v3.031h-9.303v4.12h13.424V17.771h-9.303v-2.95h9.303V10.7H61.859v7.07zM15 10.667v18.341h4.12V14.787h4.12v14.222h4.121V14.787h4.134v14.222h4.113V10.667H15zM52.063 24.902h-6.651V10.68l-4.12.02v18.322h14.89V10.7l-4.12-.02v14.222zM94.382 10.673H80.96v4.182h4.655v14.167h4.113V14.855h4.655v-4.182z"/>
</svg>