<svg width="100" height="158" viewBox="0 0 100 158" fill="none" xmlns="http://www.w3.org/2000/svg">
<path d="M96.1748 157H98.9306" stroke="#5B5B5B" stroke-width="1.5" stroke-miterlimit="10" stroke-linecap="round" stroke-linejoin="round"/>
<path d="M19.7002 157H88.8914" stroke="#5B5B5B" stroke-width="1.5" stroke-miterlimit="10" stroke-linecap="round" stroke-linejoin="round"/>
<path d="M5.9209 157H14.2868" stroke="#5B5B5B" stroke-width="1.5" stroke-miterlimit="10" stroke-linecap="round" stroke-linejoin="round"/>
<path d="M71.5692 82.3955L71.3723 90.2694L70.0929 148.929L69.9943 155.524H57.0026L56.9042 148.929L56.0184 107.592H50.9988L50.113 148.929L50.0146 155.524H37.1212L36.9243 148.929L35.6449 90.2694L35.5464 82.3955H71.5692Z" fill="#E0E0E0"/>
<path d="M71.5692 82.3955L71.3723 90.2694L70.0929 148.929L69.9943 155.524H57.0026L56.9042 148.929L56.0184 107.592H50.9988L50.113 148.929L50.0146 155.524H37.1212L36.9243 148.929L35.6449 90.2694L35.5464 82.3955H71.5692Z" stroke="#5B5B5B" stroke-width="1.5" stroke-miterlimit="10" stroke-linecap="round" stroke-linejoin="round"/>
<path d="M72.5536 157H54.4438V154.047C54.4438 151.291 56.7075 149.028 59.4634 149.028H67.4356C70.1914 149.028 72.4551 151.291 72.4551 154.047V157H72.5536Z" fill="white"/>
<path d="M72.5536 157H54.4438V154.047C54.4438 151.291 56.7075 149.028 59.4634 149.028H67.4356C70.1914 149.028 72.4551 151.291 72.4551 154.047V157H72.5536Z" stroke="#5B5B5B" stroke-width="1.5" stroke-miterlimit="10" stroke-linecap="round" stroke-linejoin="round"/>
<path d="M52.5737 157H34.4639V154.047C34.4639 151.291 36.7276 149.028 39.4834 149.028H47.4557C50.2116 149.028 52.4753 151.291 52.4753 154.047V157H52.5737Z" fill="white"/>
<path d="M52.5737 157H34.4639V154.047C34.4639 151.291 36.7276 149.028 39.4834 149.028H47.4557C50.2116 149.028 52.4753 151.291 52.4753 154.047V157H52.5737Z" stroke="#5B5B5B" stroke-width="1.5" stroke-miterlimit="10" stroke-linecap="round" stroke-linejoin="round"/>
<path d="M76.5887 50.2113L78.5571 56.6088L80.5256 63.0062L84.4625 75.998C84.8562 77.5728 85.053 79.246 85.053 80.8207L84.8562 84.2655L84.4625 90.9583C84.2656 95.3873 83.9703 99.8163 83.675 104.344C83.4782 106.706 81.5098 108.478 79.0492 108.379C76.7855 108.281 75.1123 106.411 75.0139 104.245C74.8171 99.8163 74.7186 95.3873 74.6202 90.8599L74.4233 84.1671L74.3249 80.9192C74.3249 80.3286 74.128 79.7381 73.9312 79.1476L69.3054 66.8447L66.9432 60.5457L64.6795 54.2466C63.4985 50.9987 65.1716 47.4554 68.4195 46.2744C71.6675 45.0933 75.2107 46.7665 76.3917 50.0144C76.4902 50.0144 76.4902 50.1129 76.5887 50.2113Z" fill="white"/>
<path d="M76.5887 50.2113L78.5571 56.6088L80.5256 63.0062L84.4625 75.998C84.8562 77.5728 85.053 79.246 85.053 80.8207L84.8562 84.2655L84.4625 90.9583C84.2656 95.3873 83.9703 99.8163 83.675 104.344C83.4782 106.706 81.5098 108.478 79.0492 108.379C76.7855 108.281 75.1123 106.411 75.0139 104.245C74.8171 99.8163 74.7186 95.3873 74.6202 90.8599L74.4233 84.1671L74.3249 80.9192C74.3249 80.3286 74.128 79.7381 73.9312 79.1476L69.3054 66.8447L66.9432 60.5457L64.6795 54.2466C63.4985 50.9987 65.1716 47.4554 68.4195 46.2744C71.6675 45.0933 75.2107 46.7665 76.3917 50.0144C76.4902 50.0144 76.4902 50.1129 76.5887 50.2113Z" stroke="#5B5B5B" stroke-width="1.5" stroke-miterlimit="10" stroke-linecap="round" stroke-linejoin="round"/>
<path d="M80.7226 63.6952L71.274 71.7659L69.404 66.7463L67.0418 60.4473L64.7782 54.1482C63.5971 50.9003 65.2702 47.3571 68.5182 46.176C71.7661 44.9949 75.3094 46.6681 76.4905 49.916C76.4905 50.0145 76.5889 50.1129 76.5889 50.2113L78.5573 56.6088L80.5258 63.0063L80.7226 63.6952Z" fill="white"/>
<path d="M80.7226 63.6952L71.274 71.7659L69.404 66.7463L67.0418 60.4473L64.7782 54.1482C63.5971 50.9003 65.2702 47.3571 68.5182 46.176C71.7661 44.9949 75.3094 46.6681 76.4905 49.916C76.4905 50.0145 76.5889 50.1129 76.5889 50.2113L78.5573 56.6088L80.5258 63.0063L80.7226 63.6952Z" stroke="#5B5B5B" stroke-width="1.5" stroke-miterlimit="10" stroke-linecap="round" stroke-linejoin="round"/>
<path d="M42.436 53.853C42.436 53.9514 42.3376 54.0498 42.3376 54.1482L40.074 60.2504L37.8102 66.2542L33.2828 78.3602L33.0859 78.7539L32.9875 78.9508V79.0492L32.8891 79.3444L32.6923 79.7381C32.2986 80.7224 31.5111 81.6082 30.6253 82.1987C29.7395 82.7892 28.7553 83.1829 27.6726 83.2814C26.6884 83.3798 25.6058 83.1829 24.6216 82.7892C23.6373 82.2971 22.7515 81.6082 22.161 80.7224L21.9642 80.4271L21.8658 80.2302L21.7673 80.1318L21.6689 79.935L21.4721 79.5413L19.9957 76.687L16.9447 70.9785C14.8778 67.14 12.9092 63.4 10.9408 59.5615C9.85813 57.4946 10.6455 54.8372 12.8108 53.7545C14.7793 52.7703 17.2399 53.3609 18.421 55.2309C20.7831 58.8725 23.1453 62.4157 25.409 66.0574L25.6058 66.2542L26.6884 62.5142L28.5585 56.3135L30.5269 50.1129C31.5111 46.865 35.0544 44.9949 38.3023 45.9792C41.6487 47.0618 43.4203 50.605 42.436 53.853Z" fill="white"/>
<path d="M42.4359 53.853C42.4359 53.9514 42.3375 54.0498 42.3375 54.1482L40.0738 60.2505L37.8101 66.2542L35.7432 71.6675L26.3931 63.5968L26.6883 62.5142L28.5583 56.3135L30.5268 50.1129C31.511 46.865 35.0542 44.9949 38.3022 45.9792C41.6486 47.0618 43.4201 50.605 42.4359 53.853Z" fill="white"/>
<path d="M42.436 53.853C42.436 53.9514 42.3376 54.0498 42.3376 54.1482L40.074 60.2504L37.8102 66.2542L33.2828 78.3602L33.0859 78.7539L32.9875 78.9508V79.0492L32.8891 79.3444L32.6923 79.7381C32.2986 80.7224 31.5111 81.6082 30.6253 82.1987C29.7395 82.7892 28.7553 83.1829 27.6726 83.2814C26.6884 83.3798 25.6058 83.1829 24.6216 82.7892C23.6373 82.2971 22.7515 81.6082 22.161 80.7224L21.9642 80.4271L21.8658 80.2302L21.7673 80.1318L21.6689 79.935L21.4721 79.5413L19.9957 76.687L16.9447 70.9785C14.8778 67.14 12.9092 63.4 10.9408 59.5615C9.85813 57.4946 10.6455 54.8372 12.8108 53.7545C14.7793 52.7703 17.2399 53.3609 18.421 55.2309C20.7831 58.8725 23.1453 62.4157 25.409 66.0574L25.6058 66.2542L26.6884 62.5142L28.5585 56.3135L30.5269 50.1129C31.5111 46.865 35.0544 44.9949 38.3023 45.9792C41.6487 47.0618 43.4203 50.605 42.436 53.853Z" stroke="#5B5B5B" stroke-width="1.5" stroke-miterlimit="10" stroke-linecap="round" stroke-linejoin="round"/>
<path d="M42.4359 53.853C42.4359 53.9514 42.3375 54.0498 42.3375 54.1482L40.0738 60.2504L37.8101 66.2542L35.7432 71.6675L26.3931 63.5968L26.6883 62.5142L28.5583 56.3135L30.5268 50.1129C31.511 46.865 35.0542 44.9949 38.3022 45.9792C41.6486 47.0618 43.4201 50.605 42.4359 53.853Z" stroke="#5B5B5B" stroke-width="1.5" stroke-miterlimit="10" stroke-linecap="round" stroke-linejoin="round"/>
<path d="M32.9877 46.865C45.3889 39.188 61.3334 39.188 73.8331 46.6681L75.3094 49.424L72.7505 102.277H34.3656L31.8066 49.1287L32.9877 46.865Z" fill="white"/>
<path d="M32.397 61.53L34.3654 102.277H72.7503L74.7187 61.53" stroke="#5B5B5B" stroke-width="1.5" stroke-miterlimit="10" stroke-linecap="round" stroke-linejoin="round"/>
<path d="M80.7226 63.6952L74.3251 69.2069L72.7504 102.375H34.3655L32.7908 69.1085L26.4917 63.6952L26.787 62.6126L28.657 56.412L30.6254 50.2113C31.0191 48.8334 31.9049 47.6523 33.086 46.865C33.2828 46.7665 33.3812 46.6681 33.5781 46.5697L33.6766 46.4713C45.881 39.2864 61.3333 39.2864 73.4393 46.4713C74.8172 47.1602 75.8999 48.3413 76.4905 49.9161C76.4905 50.0145 76.5889 50.1129 76.5889 50.2113L78.5573 56.6088L80.5258 63.0063L80.7226 63.6952Z" stroke="#5B5B5B" stroke-width="1.5" stroke-miterlimit="10" stroke-linecap="round" stroke-linejoin="round"/>
<path d="M45.9795 41.8454C48.2432 43.0265 50.8022 43.7155 53.558 43.7155C56.3138 43.7155 58.8728 43.0265 61.1365 41.8454" stroke="#5B5B5B" stroke-width="1.5" stroke-miterlimit="10" stroke-linecap="round" stroke-linejoin="round"/>
<path d="M53.5582 42.1407C45.2907 42.1407 38.4995 35.4479 38.4995 27.082V16.0587C38.4995 7.79117 45.1923 1 53.5582 1C61.8257 1 68.617 7.69275 68.617 16.0587V27.082C68.617 35.3495 61.8257 42.1407 53.5582 42.1407Z" fill="white"/>
<path d="M68.5177 16.0587V16.6492C66.254 17.9287 63.695 18.6177 60.9392 18.6177C55.526 18.6177 50.8017 15.8618 48.0459 11.6297C47.0616 16.2555 43.2231 19.7987 38.4004 20.2909V16.0587C38.4004 7.79117 45.0932 1 53.4591 1C57.5929 1 61.3329 2.67319 64.0887 5.42902C66.8445 8.08644 68.5177 11.9249 68.5177 16.0587Z" fill="#E0E0E0"/>
<path d="M53.5582 42.1407C45.2907 42.1407 38.4995 35.4479 38.4995 27.082V16.0587C38.4995 7.79117 45.1923 1 53.5582 1C61.8257 1 68.617 7.69275 68.617 16.0587V27.082C68.617 35.3495 61.8257 42.1407 53.5582 42.1407Z" stroke="#5B5B5B" stroke-width="1.5" stroke-miterlimit="10" stroke-linecap="round" stroke-linejoin="round"/>
<path d="M68.5177 16.0587V16.6492C66.254 17.9287 63.6951 18.6177 60.9392 18.6177C55.526 18.6177 50.8017 15.8618 48.0459 11.6297C47.0616 16.2555 43.2231 19.7987 38.4004 20.2909V16.0587C38.4004 7.79117 45.0932 1 53.4591 1C57.5929 1 61.3329 2.67319 64.0887 5.42902C66.8445 8.08644 68.5177 11.9249 68.5177 16.0587Z" stroke="#5B5B5B" stroke-width="0.75" stroke-miterlimit="10" stroke-linecap="round" stroke-linejoin="round"/>
<path d="M61.5296 30.2316C61.5296 29.3457 61.3328 28.4599 61.1359 27.5741C59.0691 28.7552 56.4117 29.4442 53.5574 29.4442C50.7032 29.4442 48.0458 28.7552 45.9789 27.5741C45.6837 28.3615 45.4868 29.2473 45.4868 30.2316C45.4868 34.6606 49.1284 38.3022 53.5574 38.3022C57.9865 38.2038 61.5296 34.6606 61.5296 30.2316Z" fill="white"/>
<path d="M61.5296 30.2316C61.5296 29.3457 61.3328 28.4599 61.1359 27.5741C59.0691 28.7552 56.4117 29.4442 53.5574 29.4442C50.7032 29.4442 48.0458 28.7552 45.9789 27.5741C45.6837 28.3615 45.4868 29.2473 45.4868 30.2316C45.4868 34.6606 49.1284 38.3022 53.5574 38.3022C57.9865 38.2038 61.5296 34.6606 61.5296 30.2316Z" stroke="#5B5B5B" stroke-width="1.5" stroke-miterlimit="10" stroke-linecap="round" stroke-linejoin="round"/>
<path d="M18.913 62.6126H2.57474C1.68893 62.6126 1 61.9236 1 61.0378V32.2984C1 31.4126 1.68893 30.7236 2.57474 30.7236H18.913C19.7988 30.7236 20.4877 31.4126 20.4877 32.2984V61.0378C20.4877 61.9236 19.7988 62.6126 18.913 62.6126Z" fill="white"/>
<path d="M20.4877 33.8731H1V59.5614H20.4877V33.8731Z" fill="#23B4BA"/>
<path d="M18.913 62.6126H2.57474C1.68893 62.6126 1 61.9236 1 61.0378V32.2984C1 31.4126 1.68893 30.7236 2.57474 30.7236H18.913C19.7988 30.7236 20.4877 31.4126 20.4877 32.2984V61.0378C20.4877 61.9236 19.7988 62.6126 18.913 62.6126Z" stroke="#5B5B5B" stroke-width="1.5" stroke-miterlimit="10" stroke-linecap="round" stroke-linejoin="round"/>
<path d="M6.01953 45.1918L10.055 51.4909L16.2555 41.8454" stroke="white" stroke-width="4" stroke-miterlimit="10" stroke-linecap="round" stroke-linejoin="round"/>
</svg>
