<?xml version="1.0" encoding="UTF-8"?> <svg xmlns="http://www.w3.org/2000/svg" width="30" height="24" viewBox="0 0 30 24" fill="none"> <g clip-path="url(#clip0)"> <path d="M19.0557 4.96924H10.9434V19.4534H19.0557V4.96924Z" fill="#F47D20"></path> <path fill-rule="evenodd" clip-rule="evenodd" d="M11.459 12.2114C11.459 9.27322 12.8438 6.65616 15.0001 4.96945C13.423 3.73614 11.4333 3 9.27048 3C4.15043 3 0 7.12415 0 12.2114C0 17.2989 4.15043 21.4228 9.27048 21.4228C11.4333 21.4228 13.423 20.6869 15.0001 19.4536C12.8438 17.7669 11.459 15.1498 11.459 12.2114Z" fill="#DE1F31"></path> <path fill-rule="evenodd" clip-rule="evenodd" d="M29.7106 17.9194V17.562H29.6169L29.5087 17.8078L29.4003 17.562H29.3065V17.9194H29.373V17.6497L29.4742 17.8823H29.543L29.6444 17.6492V17.9194H29.7106ZM29.1157 17.9194V17.6229H29.236V17.5625H28.9295V17.6229H29.0498V17.9194H29.1157ZM30.0001 12.2114C30.0001 17.2989 25.8497 21.4228 20.7296 21.4228C18.5669 21.4228 16.5769 20.6869 15 19.4536C17.1563 17.7669 18.5411 15.1498 18.5411 12.2114C18.5411 9.27322 17.1563 6.65616 15 4.96945C16.5769 3.73614 18.5669 3 20.7296 3C25.8497 3 30.0001 7.12415 30.0001 12.2114Z" fill="#F3A837"></path> </g> <defs> <clipPath id="clip0"> <rect width="30" height="24" fill="white"></rect> </clipPath> </defs> </svg> 