<svg width="36" height="10" viewBox="0 0 36 10" fill="none" xmlns="http://www.w3.org/2000/svg">
<path fill-rule="evenodd" clip-rule="evenodd" d="M4.10038 0.301398C4.40595 0.299569 5.31408 0.217721 5.69874 1.51687C5.95786 2.392 6.37061 3.82549 6.93701 5.81735H7.16768C7.77508 3.71739 8.19234 2.2839 8.41945 1.51687C8.80812 0.204188 9.77981 0.301424 10.1685 0.301424L13.1672 0.301427V9.63605H10.1108V4.135H9.90587L8.2021 9.63605H5.90258L4.19881 4.13092H3.99386V9.63605H0.9375V0.301427L4.10038 0.301398ZM17.5561 0.301427V5.80657H17.7999L19.8724 1.27973C20.2747 0.378876 21.1321 0.301427 21.1321 0.301427H24.0897V9.63607H20.9695V4.13092H20.7257L18.6939 8.65777C18.2916 9.55455 17.3935 9.63607 17.3935 9.63607H14.4359V0.301427H17.5561ZM34.8745 4.73731C34.4393 5.97152 33.0725 6.85543 31.5592 6.85543H28.2871V9.63607H25.32V4.73731H34.8745Z" fill="#0F754E"/>
<path fill-rule="evenodd" clip-rule="evenodd" d="M31.7023 0.301392H25.1644C25.32 2.3796 27.1084 4.15868 28.9598 4.15868H35.0807C35.4339 2.43145 34.2179 0.301392 31.7023 0.301392Z" fill="url(#paint0_linear)"/>
<defs>
<linearGradient id="paint0_linear" x1="35.1407" y1="2.72779" x2="25.1644" y2="2.72779" gradientUnits="userSpaceOnUse">
<stop stop-color="#1F5CD7"/>
<stop offset="1" stop-color="#02AEFF"/>
</linearGradient>
</defs>
</svg>
