<svg width="130" height="24" viewBox="0 0 130 24" fill="none" xmlns="http://www.w3.org/2000/svg">
<g clip-path="url(#clip0)">
<path d="M9.77133 6.20749C9.71859 7.35659 9.64828 8.51427 9.56039 9.68052C9.49007 10.8296 9.34945 11.9444 9.13851 13.0249C8.94515 14.1054 8.6551 15.1173 8.26838 16.0606C7.89924 17.0039 7.38068 17.8357 6.7127 18.556C6.06231 19.2764 5.24492 19.8509 4.26053 20.2797C3.27615 20.7085 2.07204 20.9486 0.648197 21L0.199951 17.5013C1.46559 17.3641 2.44118 17.0553 3.12674 16.5751C3.81229 16.0778 4.33085 15.3231 4.68241 14.3112C5.12187 13.0592 5.42949 11.4471 5.60527 9.47471C5.79863 7.48523 5.89531 5.2642 5.89531 2.81164H18.3671V20.6399H14.2538V6.20749H9.77133Z" fill="#BCBBC0"/>
<path d="M26.0417 11.7129C26.0417 12.5876 26.1471 13.3765 26.3581 14.0797C26.5866 14.7829 26.903 15.3917 27.3073 15.9062C27.7292 16.4036 28.239 16.7895 28.8366 17.0639C29.4343 17.3383 30.1198 17.4755 30.8933 17.4755C31.6491 17.4755 32.3259 17.3383 32.9236 17.0639C33.5388 16.7895 34.0486 16.4036 34.4529 15.9062C34.8748 15.3917 35.1912 14.7829 35.4021 14.0797C35.6306 13.3765 35.7449 12.5876 35.7449 11.7129C35.7449 10.8382 35.6306 10.0493 35.4021 9.34608C35.1912 8.62575 34.8748 8.0169 34.4529 7.51953C34.0486 7.005 33.5388 6.61054 32.9236 6.33612C32.3259 6.06171 31.6491 5.92451 30.8933 5.92451C30.1198 5.92451 29.4343 6.07029 28.8366 6.36185C28.239 6.63626 27.7292 7.03073 27.3073 7.54525C26.903 8.04262 26.5866 8.65148 26.3581 9.37181C26.1471 10.075 26.0417 10.8554 26.0417 11.7129ZM39.99 11.7129C39.99 13.2393 39.7527 14.5856 39.2781 15.7519C38.8211 16.901 38.1883 17.87 37.3797 18.6589C36.5711 19.4307 35.6043 20.0139 34.4792 20.4083C33.3718 20.8028 32.1765 21 30.8933 21C29.6452 21 28.4675 20.8028 27.36 20.4083C26.2526 20.0139 25.2858 19.4307 24.4596 18.6589C23.6334 17.87 22.9831 16.901 22.5084 15.7519C22.0338 14.5856 21.7965 13.2393 21.7965 11.7129C21.7965 10.1865 22.0426 8.84871 22.5348 7.69961C23.027 6.53336 23.6862 5.55576 24.5124 4.76683C25.3561 3.97789 26.3229 3.38619 27.4128 2.99173C28.5202 2.59726 29.6804 2.40002 30.8933 2.40002C32.1413 2.40002 33.3191 2.59726 34.4265 2.99173C35.5339 3.38619 36.5007 3.97789 37.3269 4.76683C38.1531 5.55576 38.8035 6.53336 39.2781 7.69961C39.7527 8.84871 39.99 10.1865 39.99 11.7129Z" fill="#BCBBC0"/>
<path d="M47.5322 20.6399H43.4188V2.81164H55.8906V6.20749H47.5322V20.6399Z" fill="#BCBBC0"/>
<path d="M61.8849 11.7129C61.8849 12.5876 61.9904 13.3765 62.2013 14.0797C62.4298 14.7829 62.7462 15.3917 63.1505 15.9062C63.5724 16.4036 64.0822 16.7895 64.6798 17.0639C65.2775 17.3383 65.9631 17.4755 66.7365 17.4755C67.4924 17.4755 68.1691 17.3383 68.7668 17.0639C69.382 16.7895 69.8918 16.4036 70.2961 15.9062C70.718 15.3917 71.0344 14.7829 71.2453 14.0797C71.4738 13.3765 71.5881 12.5876 71.5881 11.7129C71.5881 10.8382 71.4738 10.0493 71.2453 9.34608C71.0344 8.62575 70.718 8.0169 70.2961 7.51953C69.8918 7.005 69.382 6.61054 68.7668 6.33612C68.1691 6.06171 67.4924 5.92451 66.7365 5.92451C65.9631 5.92451 65.2775 6.07029 64.6798 6.36185C64.0822 6.63626 63.5724 7.03073 63.1505 7.54525C62.7462 8.04262 62.4298 8.65148 62.2013 9.37181C61.9904 10.075 61.8849 10.8554 61.8849 11.7129ZM75.8333 11.7129C75.8333 13.2393 75.5959 14.5856 75.1213 15.7519C74.6643 16.901 74.0315 17.87 73.2229 18.6589C72.4143 19.4307 71.4475 20.0139 70.3225 20.4083C69.215 20.8028 68.0197 21 66.7365 21C65.4884 21 64.3107 20.8028 63.2033 20.4083C62.0958 20.0139 61.129 19.4307 60.3028 18.6589C59.4767 17.87 58.8263 16.901 58.3517 15.7519C57.877 14.5856 57.6397 13.2393 57.6397 11.7129C57.6397 10.1865 57.8858 8.84871 58.378 7.69961C58.8702 6.53336 59.5294 5.55576 60.3556 4.76683C61.1993 3.97789 62.1661 3.38619 63.256 2.99173C64.3634 2.59726 65.5236 2.40002 66.7365 2.40002C67.9846 2.40002 69.1623 2.59726 70.2697 2.99173C71.3772 3.38619 72.344 3.97789 73.1702 4.76683C73.9963 5.55576 74.6467 6.53336 75.1213 7.69961C75.5959 8.84871 75.8333 10.1865 75.8333 11.7129Z" fill="#BCBBC0"/>
<path d="M92.1969 2.81164V6.23322H86.6861V20.6399H82.5728V6.23322H77.062V2.81164H92.1969Z" fill="#BCBBC0"/>
<path d="M94.8405 20.6399V2.81164H98.9274V13.3336C99.5602 12.4075 100.237 11.4471 100.958 10.4523C101.678 9.44041 102.399 8.47139 103.12 7.54525C103.858 6.60196 104.579 5.7187 105.282 4.89546C105.985 4.07222 106.627 3.37762 107.207 2.81164H110.555V20.6399H106.495V8.96019C104.948 10.7267 103.489 12.6047 102.118 14.5942C100.747 16.5837 99.4723 18.5989 98.2946 20.6399H94.8405Z" fill="#BCBBC0"/>
<path d="M129.8 2.81164V20.6399H125.687V6.20749H118.884V20.6399H114.771V2.81164H129.8Z" fill="#BCBBC0"/>
</g>
<defs>
<clipPath id="clip0">
<rect width="129.6" height="24" fill="white" transform="translate(0.199951)"/>
</clipPath>
</defs>
</svg>
