<svg width="79" height="32" viewBox="0 0 79 32" fill="none" xmlns="http://www.w3.org/2000/svg">
    <path d="M59.8096 22.1758V20.45L61.373 18.8224C63.3934 16.7246 65.053 14.9792 65.053 13.1554C65.053 12.1359 64.3556 11.4102 63.0569 11.4102C62.0704 11.4102 61.2768 11.7631 60.6995 12.0572L60.1463 10.0572C60.8679 9.68491 62.2146 9.27272 63.6338 9.27272C67.0495 9.27272 68.1561 11.1358 68.1561 12.9594C68.1561 15.3522 66.3275 17.2734 64.5237 18.9796L63.5859 19.8813V19.9208H68.3723V22.1758H59.8096Z" fill="#1D1D1B"/>
    <path d="M73.9047 17.0757V14.4674C73.9047 13.7814 74.0011 13.0363 74.0733 12.3696H73.9769C73.6163 13.0752 73.3035 13.6441 72.8943 14.3497L71.2108 17.0363V17.0757H73.9047ZM73.9047 22.1738V19.1348H68.541V17.3696L73.6643 9.42771H76.695V17.0757H78.2582V19.1348H76.695V22.1738H73.9047Z" fill="#1D1D1B"/>
    <path fill-rule="evenodd" clip-rule="evenodd" d="M56.425 8.68076C53.8824 0.824703 39.4342 -2.26632 24.163 1.77629C8.89263 5.81847 -1.42171 15.4651 1.12842 23.3208C3.67424 31.1745 18.1207 34.265 33.3858 30.2257C48.6623 26.1824 58.9764 16.5357 56.425 8.68076Z" fill="#0473BA"/>
    <path fill-rule="evenodd" clip-rule="evenodd" d="M14.0824 9.38872C16.5122 9.38872 18.1353 10.483 18.1353 13.6767V18.2216C18.1353 21.4146 16.5122 22.4395 14.0824 22.4395C11.689 22.4395 9.98047 21.3799 9.98047 18.2216V13.6767C9.98047 10.5192 11.689 9.38872 14.0824 9.38872ZM12.4252 13.3988V18.5176C12.4252 19.8184 12.9523 20.5298 14.0824 20.5298C15.1133 20.5298 15.6906 19.835 15.6906 18.5176V13.4326C15.6906 12.096 15.1133 11.2977 14.0824 11.2977C12.9523 11.2977 12.4252 12.0628 12.4252 13.3988Z" fill="#FFFEF8"/>
    <path fill-rule="evenodd" clip-rule="evenodd" d="M27.5029 9.62198V22.1465H25.0804V11.5288H21.8788V22.1465H19.4541V9.62198H27.5029Z" fill="#FFFEF8"/>
    <path fill-rule="evenodd" clip-rule="evenodd" d="M33.9083 22.1465H31.5145V11.5256H28.5479V9.61897H36.8752V11.5256H33.9083V22.1465Z" fill="#FFFEF8"/>
    <path fill-rule="evenodd" clip-rule="evenodd" d="M40.3847 9.61918V18.012L43.5979 9.61918H46.1815V22.1465H43.9463V13.7745L40.7335 22.1465H38.1484V9.61918H40.3847Z" fill="#FFFEF8"/>
</svg>
