<svg width="90" height="90" viewBox="0 0 90 90" fill="none" xmlns="http://www.w3.org/2000/svg">
<path d="M12 62H78V88H12V62Z" fill="#E0E0E0"/>
<path d="M60 2L78 20H60V2Z" fill="#E0E0E0"/>
<path d="M78.0601 18.9109L76.8637 17.7145L62.1991 3.04983L61.0027 1.85345C60.4611 1.3119 59.7101 1 58.942 1H14.9078C13.0675 1 11.0859 1.42138 11.0859 4.54035V61.5172V86.1781V86.8966C11.0859 88.4441 11.5 89 14.9078 89H76.0916C76.3399 89 76.5866 88.9736 76.8287 88.9255C76.9094 88.91 76.9839 88.8805 77.0615 88.8604C78.607 88.4616 78.9135 88.1953 78.9135 86.8966V86.1781V61.5172V21.69C78.9135 20.4998 78.7708 19.6216 78.0601 18.9109ZM74.3816 18.6207H61.2928V5.5319L74.3816 18.6207ZM13.9078 86.8966C13.7977 86.8966 13.6984 86.8562 13.6006 86.8205C13.3585 86.7057 13.1894 86.4636 13.1894 86.1781V63.6207H76.8101V86.1781C76.8101 86.4636 76.6409 86.7041 76.3989 86.8205C76.3011 86.8562 76.2018 86.8966 76.0916 86.8966H13.9078ZM13.1894 61.5172V4.54035C13.1894 4.20362 13.0913 3.10345 13.9078 3.10345C58.3385 3.1 59.1894 3.1 59.1894 3.1V20.7241H76.2034C76.3355 20.7241 76.5234 20.72 76.8101 20.72V61.5172H13.1894Z" fill="#5B5B5B"/>
<path fill-rule="evenodd" clip-rule="evenodd" d="M34.2029 69.4304C33.6862 69.0068 33.1027 68.6871 32.4525 68.4761C31.8024 68.2635 31.1444 68.158 30.4803 68.158H25.9834V83.7931H28.5298V78.1495H30.4182C31.2375 78.1495 31.9886 78.03 32.6667 77.7895C33.3448 77.549 33.9251 77.2092 34.4062 76.7716C34.8872 76.334 35.2612 75.7924 35.5312 75.1485C35.7996 74.5045 35.9346 73.7876 35.9346 72.9947C35.9346 72.2452 35.7748 71.5702 35.4567 70.9681C35.1386 70.3661 34.7196 69.8555 34.2029 69.4304ZM33.2377 74.5961C33.081 75.0274 32.8777 75.3626 32.6232 75.6031C32.3687 75.8436 32.0894 76.0174 31.7853 76.123C31.4812 76.2285 31.1724 76.2828 30.862 76.2828H28.5282V70.0883H30.4368C31.087 70.0883 31.6099 70.1907 32.0072 70.3955C32.4029 70.6004 32.7101 70.8549 32.9305 71.159C33.1493 71.4631 33.2936 71.7812 33.3649 72.1133C33.4348 72.4454 33.4705 72.7386 33.4705 72.9931C33.4705 73.6309 33.3929 74.1647 33.2377 74.5961ZM49.5832 70.4483C48.9253 69.7562 48.0982 69.1992 47.1004 68.7833C46.1027 68.3674 44.9466 68.158 43.6323 68.158H38.9229V83.7931H44.8411C45.0382 83.7931 45.3423 83.7683 45.7535 83.7186C46.1632 83.669 46.6163 83.5573 47.1113 83.3788C47.6063 83.2019 48.1184 82.9366 48.6491 82.5828C49.1798 82.229 49.6561 81.7448 50.0813 81.1288C50.5065 80.5128 50.8556 79.7493 51.1318 78.8369C51.408 77.9245 51.5461 76.8243 51.5461 75.538C51.5461 74.6038 51.3832 73.6945 51.0589 72.8116C50.7315 71.9302 50.2411 71.1419 49.5832 70.4483ZM47.7273 80.2707C46.9639 81.374 45.7194 81.9248 43.9939 81.9248H41.4692V70.0868H42.9542C44.1708 70.0868 45.1608 70.2466 45.9242 70.5647C46.6877 70.8828 47.2929 71.3002 47.7382 71.8169C48.1835 72.3336 48.483 72.9093 48.6398 73.5455C48.7949 74.1817 48.8725 74.8257 48.8725 75.4759C48.8725 77.5692 48.4908 79.169 47.7273 80.2707ZM57.8266 83.7931H55.2383V68.158H65.0172V70.0883H57.8266V75.0104H64.3609V76.7498H57.8266V83.7931Z" fill="#5B5B5B"/>
<path d="M56.6287 35.629C55.2027 35.629 53.4524 35.8152 51.418 36.1845C48.5784 33.1711 45.6146 28.7704 43.5229 24.4504C45.5975 15.7158 44.5594 14.479 44.1017 13.8956C43.6144 13.2749 42.927 12.2678 42.1449 12.2678C41.8175 12.2678 40.9237 12.4168 40.5684 12.5347C39.6746 12.8326 39.1936 13.5216 38.8087 14.4201C37.7117 16.9851 39.2168 21.3578 40.7655 24.7282C39.4418 29.9932 37.2213 36.2947 34.8875 41.4092C29.0065 44.103 25.8829 46.7487 25.6005 49.2733C25.4981 50.192 25.7153 51.5404 27.3306 52.7523C27.7729 53.0828 28.2912 53.2582 28.8312 53.2582C30.1889 53.2582 31.5606 52.2185 33.1481 49.9887C34.3056 48.3625 35.5486 46.1451 36.8458 43.3923C41.0013 41.5752 46.1422 39.9335 50.5444 39.0133C52.9962 41.3673 55.1918 42.559 57.0787 42.559C58.4691 42.559 59.6608 41.9197 60.5236 40.7109C61.422 39.4525 61.6268 38.3259 61.1287 37.3592C60.5313 36.197 59.0587 35.629 56.6287 35.629ZM28.8653 50.6389C28.1391 50.0818 28.181 49.7063 28.1965 49.5651C28.2927 48.7023 29.6443 47.1708 32.9603 45.3071C30.4465 49.9499 29.0965 50.5659 28.8653 50.6389ZM41.5894 15.0702C41.6562 15.0485 43.211 16.7787 41.7384 20.0606C39.5256 17.7966 41.4374 15.1214 41.5894 15.0702ZM38.382 39.9382C39.957 36.1845 41.4218 32.0399 42.5313 28.2009C44.2739 31.3323 46.3672 34.3706 48.462 36.8037C45.1506 37.5811 41.6251 38.6782 38.382 39.9382ZM58.4008 39.1949C57.9229 39.8637 56.8863 39.8792 56.5232 39.8792C55.6962 39.8792 55.3874 39.3873 54.1227 38.4144C55.1655 38.2809 56.1493 38.2468 56.9329 38.2468C58.3124 38.2468 58.5653 38.4501 58.7561 38.5525C58.722 38.6626 58.632 38.8706 58.4008 39.1949Z" fill="#5B5B5B"/>
</svg>
