<svg width="128" height="32" viewBox="0 0 128 32" fill="none" xmlns="http://www.w3.org/2000/svg">
    <path d="M0 4C0 1.79086 1.79086 0 4 0H124C126.209 0 128 1.79086 128 4V28C128 30.2091 126.209 32 124 32H4C1.79086 32 0 30.2091 0 28V4Z" fill="white"/>
    <g clip-path="url(#clip0)">
        <path d="M97.2176 23.9316H96.6632L96.3014 22.8942C96.2686 22.8067 96.2244 22.724 96.1698 22.6483C96.116 22.5721 96.052 22.5073 95.9802 22.4528C95.9085 22.3982 95.8289 22.3556 95.7398 22.3256C95.6492 22.295 95.5543 22.2796 95.4587 22.2801H94.5108V23.9316H94V20.066H95.7081C95.8116 20.066 95.9097 20.0684 96.003 20.0732C96.0957 20.0792 96.1848 20.0888 96.2691 20.1061C96.3546 20.1211 96.4342 20.1457 96.5101 20.1793C96.5861 20.2129 96.6572 20.2585 96.7254 20.3172C96.8421 20.4204 96.9312 20.5451 96.991 20.6915C97.0508 20.8378 97.0807 20.9889 97.0807 21.1454C97.0807 21.2804 97.0615 21.4045 97.0209 21.5172C96.982 21.6312 96.9252 21.7313 96.8504 21.8189C96.7745 21.907 96.683 21.9808 96.5765 22.0408C96.47 22.1007 96.3492 22.1451 96.2135 22.1703V22.1793C96.4826 22.2633 96.6883 22.4972 96.8325 22.8792L97.2153 23.9304L97.2176 23.9316ZM94.5114 21.8171H95.6567C95.814 21.8171 95.9497 21.8051 96.0634 21.7811C96.177 21.7583 96.2709 21.7199 96.3445 21.6672C96.4164 21.6149 96.4721 21.5431 96.5047 21.4603C96.5394 21.3739 96.5562 21.2702 96.5562 21.1472C96.5562 20.9253 96.488 20.7598 96.3516 20.6537C96.2159 20.5469 96.0089 20.4936 95.7332 20.4936H94.5108V21.8171H94.5114ZM99.4054 23.9988C99.168 23.9988 98.9658 23.9748 98.7978 23.9268C98.6472 23.8871 98.5048 23.8209 98.3773 23.7313C98.2637 23.6474 98.174 23.5514 98.1106 23.4393C98.0472 23.3271 97.9981 23.2096 97.9646 23.0837C97.9313 22.9561 97.9105 22.8255 97.9024 22.6939C97.8936 22.5629 97.8893 22.4317 97.8893 22.3004V20.066H98.4V22.2909C98.4 22.5511 98.4222 22.7616 98.467 22.9241C98.5119 23.0867 98.5765 23.212 98.6614 23.3037C98.7451 23.3937 98.8504 23.4573 98.9748 23.4897C99.0992 23.522 99.2409 23.5406 99.403 23.5406C99.5663 23.5406 99.711 23.5244 99.8354 23.4909C99.9598 23.4573 100.064 23.3961 100.149 23.3037C100.233 23.212 100.297 23.0855 100.34 22.9229C100.383 22.7604 100.404 22.5511 100.404 22.2933V20.0684H100.918V22.3016C100.918 22.5691 100.895 22.8078 100.85 23.0177C100.811 23.2114 100.729 23.3938 100.611 23.5514C100.497 23.6954 100.341 23.8075 100.146 23.8849C99.9502 23.961 99.7032 24 99.4024 24L99.4054 23.9988ZM103.237 23.9988C102.995 24.003 102.755 23.9706 102.523 23.9028C102.338 23.847 102.165 23.7549 102.015 23.6318C101.88 23.5154 101.778 23.3769 101.707 23.218C101.637 23.0591 101.6 22.8804 101.594 22.6873H102.084C102.097 22.8336 102.137 22.9607 102.201 23.0681C102.265 23.1754 102.348 23.2642 102.448 23.3343C102.548 23.4045 102.664 23.4561 102.794 23.4903C102.924 23.5244 103.064 23.5394 103.213 23.5394C103.356 23.5394 103.488 23.5244 103.605 23.4939C103.722 23.4639 103.823 23.4201 103.907 23.3619C103.991 23.3043 104.057 23.236 104.102 23.1538C104.148 23.0705 104.171 22.9767 104.17 22.8816C104.172 22.7878 104.151 22.6948 104.107 22.6117C104.057 22.5305 103.987 22.4642 103.902 22.4198C103.785 22.3556 103.661 22.3057 103.532 22.2711C103.378 22.2279 103.191 22.1823 102.966 22.1349C102.775 22.0945 102.588 22.0384 102.407 21.967C102.267 21.9139 102.137 21.839 102.021 21.7451C101.919 21.6612 101.846 21.5628 101.797 21.4537C101.749 21.3445 101.724 21.2174 101.724 21.0729C101.724 20.9181 101.758 20.7754 101.823 20.6429C101.889 20.5109 101.983 20.3982 102.103 20.3034C102.224 20.2093 102.368 20.1355 102.537 20.0816C102.707 20.0276 102.893 20 103.097 20C103.313 20 103.51 20.027 103.688 20.0798C103.868 20.1325 104.021 20.2093 104.149 20.3094C104.279 20.4102 104.381 20.5313 104.454 20.6753C104.527 20.8192 104.566 20.9811 104.572 21.1634H104.078C104.026 20.6957 103.706 20.463 103.12 20.463C102.833 20.463 102.613 20.5169 102.459 20.6231C102.386 20.6684 102.326 20.7321 102.285 20.8079C102.244 20.8836 102.224 20.9688 102.226 21.0549C102.226 21.1358 102.24 21.2048 102.268 21.263C102.298 21.3211 102.346 21.3721 102.414 21.4153C102.484 21.4603 102.576 21.4993 102.688 21.5352C102.8 21.5712 102.942 21.6072 103.111 21.6432C103.226 21.6672 103.344 21.6912 103.466 21.7193C103.588 21.7469 103.706 21.7805 103.822 21.8201C103.938 21.8603 104.048 21.9082 104.149 21.9652C104.251 22.0222 104.341 22.09 104.417 22.1703C104.494 22.2501 104.554 22.3442 104.6 22.454C104.645 22.5637 104.667 22.6915 104.667 22.8378C104.667 23.0075 104.631 23.164 104.56 23.3055C104.488 23.4483 104.39 23.5706 104.262 23.6738C104.134 23.7757 103.982 23.8561 103.808 23.9136C103.633 23.97 103.443 23.9988 103.235 23.9988H103.237Z" fill="#201F32"/>
        <path d="M105.668 22.6663H111.89V23.9995H105.668V22.6663Z" fill="#DB3B43"/>
        <path d="M105.668 21.3345H111.89V22.6677H105.668V21.3345Z" fill="#0167B2"/>
        <path d="M105.667 20.0007H111.889V21.334H105.667V20.0007Z" fill="#F9F9F9"/>
    </g>
    <circle cx="6" cy="16" r="2" fill="#201F32"/>
    <circle cx="122" cy="16" r="2" fill="#201F32"/>
    <path d="M4 1H124V-1H4V1ZM127 4V28H129V4H127ZM124 31H4V33H124V31ZM1 28V4H-1V28H1ZM4 31C2.34315 31 1 29.6569 1 28H-1C-1 30.7614 1.23858 33 4 33V31ZM127 28C127 29.6569 125.657 31 124 31V33C126.761 33 129 30.7614 129 28H127ZM124 1C125.657 1 127 2.34315 127 4H129C129 1.23858 126.761 -1 124 -1V1ZM4 -1C1.23858 -1 -1 1.23858 -1 4H1C1 2.34315 2.34315 1 4 1V-1Z" fill="#27B4B8"/>
    <defs>
        <clipPath id="clip0">
            <rect width="17.8894" height="4" fill="white" transform="translate(94 20)"/>
        </clipPath>
    </defs>
</svg>
