<svg width="162" height="24" viewBox="0 0 162 24" fill="none" xmlns="http://www.w3.org/2000/svg">
    <g clip-path="url(#clip0)">
        <path d="M14.9016 24H0.263672V6.29001H14.9016V24Z" fill="#F0F000"/>
        <path d="M5.68066 9.22149C5.68066 14.3142 9.80884 18.4424 14.9016 18.4424C19.9943 18.4424 24.1224 14.3142 24.1224 9.22149C24.1224 4.12878 19.9943 0.000598907 14.9016 0.000598907C9.80884 0.000598907 5.68066 4.12878 5.68066 9.22149Z" fill="#00E646"/>
        <path d="M54.6164 16.295C52.3427 16.295 50.7764 14.7536 50.7764 12.3788C50.7764 10.0045 52.3427 8.46311 54.6164 8.46311C56.865 8.46311 58.4314 10.0045 58.4314 12.3788C58.4314 14.7536 56.865 16.295 54.6164 16.295ZM54.6164 5.98759C51.2312 5.98759 48.0479 8.1851 48.0479 12.3788C48.0479 16.5725 51.2312 18.7705 54.6164 18.7705C58.0272 18.7705 61.1849 16.5725 61.1849 12.3788C61.1849 8.1851 58.0272 5.98759 54.6164 5.98759Z" fill="#3D3D3B"/>
        <path d="M39.6096 16.2949C37.3359 16.2949 35.7695 14.7535 35.7695 12.3787C35.7695 10.0044 37.3359 8.46301 39.6096 8.46301C41.8582 8.46301 43.4246 10.0044 43.4246 12.3787C43.4246 14.7535 41.8582 16.2949 39.6096 16.2949ZM39.8641 5.98749C38.2339 5.98749 36.6531 6.53926 35.4809 7.61671L35.3504 6.31557H33.041V24H35.7445V17.3686C36.8848 18.2959 38.3532 18.7704 39.8641 18.7704C43.1423 18.7704 46.1781 16.5724 46.1781 12.3787C46.1781 8.185 43.1423 5.98749 39.8641 5.98749Z" fill="#3D3D3B"/>
        <path d="M63.8633 18.4424H66.5668V6.29425e-05H63.8633V18.4424Z" fill="#3D3D3B"/>
        <path d="M70.0527 18.4424H72.7557V6.31563H70.0527V18.4424Z" fill="#3D3D3B"/>
        <path d="M71.417 0.782832C70.5324 0.782832 69.75 1.3133 69.75 2.37424C69.75 3.48577 70.5324 3.99121 71.417 3.99121C72.3012 3.99121 73.059 3.48577 73.059 2.37424C73.059 1.3133 72.3012 0.782832 71.417 0.782832Z" fill="#3D3D3B"/>
        <path d="M78.3141 9.52405C78.3141 8.53874 79.4762 8.21013 80.5627 8.21013C82.0023 8.21013 83.7455 8.71557 84.7564 9.39783V7.02296C83.5687 6.41687 82.0529 5.98706 80.3859 5.98706C77.9855 5.98706 75.5605 6.94734 75.5605 9.59968C75.5605 13.9452 82.8865 13.0104 82.8865 15.2591C82.8865 16.2439 81.7754 16.4968 80.2591 16.4968C78.7434 16.4968 76.8995 16.042 75.6362 15.208V17.6084C76.8233 18.3407 78.6171 18.7705 80.3859 18.7705C83.1394 18.7705 85.615 17.8864 85.615 15.208C85.615 10.7874 78.3141 11.8733 78.3141 9.52405Z" fill="#3D3D3B"/>
        <path d="M89.3031 15.4357C88.3934 15.4357 87.585 15.9662 87.585 17.0527C87.585 18.1893 88.3934 18.7197 89.3031 18.7197C90.2128 18.7197 90.9957 18.1893 90.9957 17.0527C90.9957 15.9662 90.2128 15.4357 89.3031 15.4357Z" fill="#3D3D3B"/>
        <path d="M99.4084 16.295C97.1347 16.295 95.5684 14.7536 95.5684 12.3788C95.5684 10.0045 97.1347 8.46311 99.4084 8.46311C101.657 8.46311 103.223 10.0045 103.223 12.3788C103.223 14.7536 101.657 16.295 99.4084 16.295ZM99.4084 5.98759C96.0232 5.98759 92.8398 8.1851 92.8398 12.3788C92.8398 16.5725 96.0232 18.7705 99.4084 18.7705C102.819 18.7705 105.977 16.5725 105.977 12.3788C105.977 8.1851 102.819 5.98759 99.4084 5.98759Z" fill="#3D3D3B"/>
        <path d="M123.511 18.4424H126.214V6.29425e-05H123.511V18.4424Z" fill="#3D3D3B"/>
        <path d="M129.7 18.4424H132.404V6.31563H129.7V18.4424Z" fill="#3D3D3B"/>
        <path d="M131.064 0.782832C130.18 0.782832 129.397 1.3133 129.397 2.37424C129.397 3.48577 130.18 3.99121 131.064 3.99121C131.949 3.99121 132.707 3.48577 132.707 2.37424C132.707 1.3133 131.949 0.782832 131.064 0.782832Z" fill="#3D3D3B"/>
        <path d="M159.127 11.3684H152.407C152.508 9.3222 154.15 8.23569 155.969 8.23569C158.621 8.23569 159.279 10.3075 159.127 11.3684ZM155.843 5.98759C153.039 5.98759 149.704 7.98324 149.704 12.3788C149.704 16.6486 152.862 18.7705 156.576 18.7705C158.268 18.7705 159.809 18.4675 160.921 17.937V15.6127C159.885 16.1182 158.546 16.4718 157.081 16.4718C154.858 16.4718 152.736 15.5621 152.433 13.3897H161.552C162.336 9.87823 160.668 5.98759 155.843 5.98759Z" fill="#3D3D3B"/>
        <path d="M115.225 5.98755C113.646 5.98755 111.969 6.673 111.037 7.53581L110.915 6.31563H108.605V18.4424H111.308V10.4087C111.991 9.42335 113.153 8.38744 114.694 8.38744C116.311 8.38744 117.523 9.32215 117.523 11.2928V18.4424H120.227V10.9391C120.227 8.05883 118.281 5.98755 115.225 5.98755Z" fill="#3D3D3B"/>
        <path d="M142.457 5.98755C140.879 5.98755 139.202 6.673 138.27 7.53581L138.148 6.31563H135.839V18.4424H138.541V10.4087C139.224 9.42335 140.386 8.38744 141.926 8.38744C143.544 8.38744 144.756 9.32215 144.756 11.2928V18.4424H147.46V10.9391C147.46 8.05883 145.514 5.98755 142.457 5.98755Z" fill="#3D3D3B"/>
    </g>
    <defs>
        <clipPath id="clip0">
            <rect width="161.473" height="23.9999" fill="white" transform="matrix(1 0 0 -1 0.263672 24)"/>
        </clipPath>
    </defs>
</svg>
