<svg width="90" height="90" viewBox="0 0 90 90" fill="none" xmlns="http://www.w3.org/2000/svg">
<circle cx="45" cy="45" r="45" fill="#F2F2F2"/>
<mask id="shturman" mask-type="alpha" maskUnits="userSpaceOnUse" x="0" y="0" width="90" height="90">
<circle cx="45" cy="45" r="45" fill="#F2F2F2"/>
</mask>
<g mask="url(#shturman)">
<path d="M74.8841 100.981L62.6673 102.467L58.8702 75.6675C58.3199 71.9805 60.9064 68.5686 64.5934 68.0733C68.2804 67.5781 71.6923 70.1094 72.1876 73.7965C72.1876 73.9065 72.2426 74.0166 72.2426 74.0716L74.8841 100.981Z" fill="#E0E0E0"/>
<path d="M62.5573 101.531L58.8702 75.6666C58.3199 71.9795 60.9064 68.5677 64.5934 68.0724C68.2804 67.5221 71.6923 70.1085 72.1876 73.7955C72.1876 73.9056 72.1876 74.0157 72.2426 74.0707L74.8841 100.981" stroke="#5B5B5B" stroke-width="0.910714" stroke-miterlimit="10" stroke-linecap="round" stroke-linejoin="round"/>
<path d="M14.6854 100.981L26.7563 102.467L30.5081 75.6675C31.0518 71.9805 28.4963 68.5686 24.8532 68.0733C21.2102 67.5781 17.839 70.1094 17.3497 73.7965C17.3497 73.9065 17.2953 74.0166 17.2953 74.0716L14.6854 100.981Z" fill="#E0E0E0"/>
<path d="M26.8641 101.531L30.5071 75.6666C31.0509 71.9795 28.4953 68.5677 24.8523 68.0724C21.2092 67.5221 17.838 70.1085 17.3487 73.7955C17.3487 73.9056 17.3487 74.0157 17.2943 74.0707L14.6844 100.981" stroke="#5B5B5B" stroke-width="0.910714" stroke-miterlimit="10" stroke-linecap="round" stroke-linejoin="round"/>
<path d="M65.1431 124.589H24.0354L21.7241 68.2378L44.1765 63.5602L67.4543 68.2378L65.1431 124.589Z" fill="#E0E0E0"/>
<path d="M67.4543 68.2378L65.1431 124.589H24.0354L21.7241 68.2378L36.8575 65.101L44.1765 63.5602L51.8257 65.101L67.4543 68.2378Z" stroke="#5B5B5B" stroke-width="0.910714" stroke-miterlimit="10" stroke-linecap="round" stroke-linejoin="round"/>
<path d="M51.8259 65.8715C51.8259 69.9987 48.469 73.4106 44.2867 73.4106C40.1594 73.4106 36.7476 70.0538 36.7476 65.8715C36.7476 65.5963 36.7476 65.3211 36.8026 65.101L44.1216 63.5602L51.7708 65.101C51.8259 65.3762 51.8259 65.6513 51.8259 65.8715Z" stroke="#5B5B5B" stroke-width="0.910714" stroke-miterlimit="10" stroke-linecap="round" stroke-linejoin="round"/>
<path d="M44.3422 71.5396C41.0404 71.5396 38.3989 68.8981 38.3989 65.5963V58.9376H50.2855V65.5963C50.2855 68.8981 47.589 71.5396 44.3422 71.5396Z" fill="white"/>
<path d="M44.3422 71.5396C41.0404 71.5396 38.3989 68.8981 38.3989 65.5963V58.9376H50.2855V65.5963C50.2855 68.8981 47.589 71.5396 44.3422 71.5396Z" stroke="#5B5B5B" stroke-width="0.910714" stroke-miterlimit="10" stroke-linecap="round" stroke-linejoin="round"/>
<path d="M36.583 24.5435H34.4368C31.8504 24.5435 29.8143 26.7997 30.0894 29.3861V41.1626C30.0894 42.1532 30.9149 42.9786 31.9054 42.9786H31.9604L36.583 24.5435Z" fill="#E0E0E0"/>
<path d="M36.583 24.5435H34.4368C31.8504 24.5435 29.8143 26.7997 30.0894 29.3861V41.1626C30.0894 42.1532 30.9149 42.9786 31.9054 42.9786H31.9604L36.583 24.5435Z" stroke="#5B5B5B" stroke-width="0.910714" stroke-miterlimit="10" stroke-linecap="round" stroke-linejoin="round"/>
<path d="M57.66 49.6374C57.715 56.1309 52.4321 61.4139 45.9386 61.4139H42.9119C36.5284 61.4139 31.3005 56.296 31.1904 49.9125C31.1904 49.7474 31.1904 49.5823 31.1904 49.3622L31.3555 43.1438L31.5206 36.2099C31.6857 30.7619 36.1432 26.4146 41.5912 26.4146H57.0547L57.4949 43.8592L57.66 49.3622C57.66 49.4723 57.66 49.5273 57.66 49.6374Z" fill="white"/>
<path d="M57.66 49.6374C57.715 56.1309 52.4321 61.4139 45.9386 61.4139H42.9119C36.5284 61.4139 31.3005 56.296 31.1904 49.9125C31.1904 49.7474 31.1904 49.5823 31.1904 49.3622L31.3555 43.1438L31.5206 36.2099C31.6857 30.7619 36.1432 26.4146 41.5912 26.4146H57.0547L57.4949 43.8592L57.66 49.3622C57.66 49.4723 57.66 49.5273 57.66 49.6374Z" stroke="#5B5B5B" stroke-width="0.910714" stroke-miterlimit="10" stroke-linecap="round" stroke-linejoin="round"/>
<path d="M31.3555 43.1439L31.1904 49.3623C31.1904 49.5274 31.1904 49.7475 31.1904 49.9126C30.0348 49.9126 28.8792 48.5919 28.659 46.7208C28.3839 44.7948 29.2093 43.1439 30.42 42.9788C30.7502 42.9237 31.0804 42.9788 31.3555 43.1439Z" fill="white"/>
<path d="M61.0722 46.7206C60.7971 48.6467 59.5864 50.0225 58.3757 49.8574C58.1556 49.8023 57.8805 49.7473 57.7154 49.5822C57.7154 49.4722 57.7154 49.4171 57.7154 49.3621L57.5503 43.8591C58.0456 43.2537 58.7059 42.8685 59.3113 42.9786C60.577 43.1437 61.3474 44.8496 61.0722 46.7206Z" fill="white"/>
<path d="M31.3555 43.1439L31.1904 49.3623C31.1904 49.5274 31.1904 49.7475 31.1904 49.9126C30.0348 49.9126 28.8792 48.5919 28.659 46.7208C28.3839 44.7948 29.2093 43.1439 30.42 42.9788C30.7502 42.9237 31.0804 42.9788 31.3555 43.1439Z" stroke="#5B5B5B" stroke-width="0.910714" stroke-miterlimit="10" stroke-linecap="round" stroke-linejoin="round"/>
<path d="M61.0722 46.7206C60.7971 48.6467 59.5864 50.0225 58.3757 49.8574C58.1556 49.8023 57.8805 49.7473 57.7154 49.5822C57.7154 49.4722 57.7154 49.4171 57.7154 49.3621L57.5503 43.8591C58.0456 43.2537 58.7059 42.8685 59.3113 42.9786C60.577 43.1437 61.3474 44.8496 61.0722 46.7206Z" stroke="#5B5B5B" stroke-width="0.910714" stroke-miterlimit="10" stroke-linecap="round" stroke-linejoin="round"/>
<path d="M48.0842 62.5693H40.1048C34.3816 62.5693 29.8141 57.7816 30.1443 52.0585L30.6396 42.8134H31.41V42.9785C31.41 46.1152 32.1254 48.9217 33.1709 50.6277C34.4917 49.9123 36.3077 49.472 38.2888 49.472C38.4539 49.472 38.619 49.472 38.784 49.472C39.7746 49.5271 40.7101 49.6371 41.5356 49.9123C42.361 50.1324 43.1865 50.2425 44.0119 50.2425C44.8374 50.2425 45.6628 50.1324 46.4883 49.9123C47.3137 49.6922 48.2493 49.5271 49.2398 49.472C49.4049 49.472 49.57 49.472 49.7351 49.472C51.7712 49.472 53.5872 49.9123 54.8529 50.6277C55.9535 48.9217 56.5588 46.1152 56.5588 42.9785L56.6139 42.8134H57.3843L57.8796 52.0585C58.3198 57.7816 53.8073 62.5693 48.0842 62.5693Z" fill="#E0E0E0"/>
<path d="M48.0842 62.5693H40.1048C34.3816 62.5693 29.8141 57.7816 30.1443 52.0585L30.6396 42.8134H31.41V42.9785C31.41 46.1152 32.1254 48.9217 33.1709 50.6277C34.4917 49.9123 36.3077 49.472 38.2888 49.472C38.4539 49.472 38.619 49.472 38.784 49.472C39.7746 49.5271 40.7101 49.6371 41.5356 49.9123C42.361 50.1324 43.1865 50.2425 44.0119 50.2425C44.8374 50.2425 45.6628 50.1324 46.4883 49.9123C47.3137 49.6922 48.2493 49.5271 49.2398 49.472C49.4049 49.472 49.57 49.472 49.7351 49.472C51.7712 49.472 53.5872 49.9123 54.8529 50.6277C55.9535 48.9217 56.5588 46.1152 56.5588 42.9785L56.6139 42.8134H57.3843L57.8796 52.0585C58.3198 57.7816 53.8073 62.5693 48.0842 62.5693Z" stroke="#5B5B5B" stroke-width="0.910714" stroke-miterlimit="10" stroke-linecap="round" stroke-linejoin="round"/>
<path d="M37.0786 46.0599C37.5952 46.0599 38.0141 45.1236 38.0141 43.9687C38.0141 42.8138 37.5952 41.8776 37.0786 41.8776C36.5619 41.8776 36.1431 42.8138 36.1431 43.9687C36.1431 45.1236 36.5619 46.0599 37.0786 46.0599Z" fill="#5B5B5B"/>
<path d="M34.6567 42.703C35.152 42.2077 35.8674 41.8776 36.6929 41.8776C38.0136 41.8776 39.1692 42.758 39.4444 43.9687" stroke="#5B5B5B" stroke-width="0.455357" stroke-miterlimit="10" stroke-linecap="round"/>
<path d="M50.9463 46.0599C51.4629 46.0599 51.8818 45.1236 51.8818 43.9687C51.8818 42.8138 51.4629 41.8776 50.9463 41.8776C50.4296 41.8776 50.0107 42.8138 50.0107 43.9687C50.0107 45.1236 50.4296 46.0599 50.9463 46.0599Z" fill="#5B5B5B"/>
<path d="M53.3677 42.703C52.8724 42.2077 52.157 41.8776 51.3316 41.8776C50.0109 41.8776 48.8552 42.758 48.5801 43.9687" stroke="#5B5B5B" stroke-width="0.455357" stroke-miterlimit="10" stroke-linecap="round"/>
<path d="M49.8452 51.5079C49.2949 54.0944 47.0386 56.0204 44.2871 56.0204H43.1865C40.435 56.0204 38.1787 54.0944 37.6284 51.5079C39.1693 51.9482 41.3155 52.2784 43.7368 52.2784C46.1581 52.2233 48.3593 51.9482 49.8452 51.5079Z" fill="white"/>
<path d="M49.8452 51.5079C49.2949 54.0944 47.0386 56.0204 44.2871 56.0204H43.1865C40.435 56.0204 38.1787 54.0944 37.6284 51.5079C39.1693 51.9482 41.3155 52.2784 43.7368 52.2784C46.1581 52.2233 48.3593 51.9482 49.8452 51.5079Z" stroke="#5B5B5B" stroke-width="0.910714" stroke-miterlimit="10" stroke-linecap="round" stroke-linejoin="round"/>
<path d="M39.6097 37.6403C38.6191 37.5853 37.5735 37.7504 36.528 37.9705C35.4824 38.1906 34.4368 38.5208 33.3912 38.961H33.3362C33.2261 39.0161 33.1161 38.9611 33.061 38.851C33.006 38.7409 33.006 38.6309 33.1161 38.5208C33.9966 37.8054 34.9321 37.145 35.9776 36.5947C36.9682 36.0444 38.0688 35.5492 39.2795 35.219L39.9398 35.0539C40.4901 34.8888 41.0404 35.329 40.9854 35.9344L40.9304 36.5947C40.8753 37.2001 40.3251 37.6953 39.7197 37.6403H39.6097Z" fill="#5B5B5B"/>
<path d="M48.4142 37.6403C49.4048 37.5853 50.4504 37.7504 51.4959 37.9705C52.5415 38.1906 53.5871 38.5208 54.6327 38.961H54.6877C54.7978 39.0161 54.9078 38.9611 54.9628 38.851C55.0179 38.7409 55.0179 38.6309 54.9078 38.5208C54.0273 37.8054 53.0918 37.145 52.0462 36.5947C51.0557 36.0444 49.9551 35.5492 48.7444 35.219L48.0841 35.0539C47.5337 34.8888 46.9834 35.329 47.0385 35.9344L47.0935 36.5947C47.1485 37.2001 47.6988 37.6953 48.3042 37.6403H48.4142Z" fill="#5B5B5B"/>
<path d="M42.3062 58.717C42.7464 58.8821 43.3517 58.9922 44.0121 58.9922C44.6725 58.9922 45.2778 58.8821 45.718 58.717" stroke="#5B5B5B" stroke-width="0.910714" stroke-miterlimit="10" stroke-linecap="round" stroke-linejoin="round"/>
<path d="M55.2935 24.5435H59.971L58.7054 41.3827C58.6503 42.2632 57.8799 42.9786 56.9994 42.9786H56.6692L55.2935 24.5435Z" fill="#E0E0E0"/>
<path d="M60.0255 24.5436V23.4429C60.0255 22.0122 58.8699 20.8015 57.3841 20.8015L57.0539 17.1695L55.348 19.866C52.7065 16.289 48.5242 14.1428 44.0667 14.1428H39.169L39.8294 15.7387L33.666 14.1428V22.3974C33.666 27.0199 37.4081 30.762 42.0306 30.762H55.7332L60.0255 24.5436Z" fill="#E0E0E0"/>
<path d="M57.3841 20.8015L57.0539 17.1695L55.348 19.866C52.7065 16.289 48.5242 14.1428 44.0667 14.1428H39.169L39.8294 15.7387L33.666 14.1428V22.3974C33.666 27.0199 37.4081 30.762 42.0306 30.762H55.7332L56.6687 42.9237H56.9989C57.8794 42.9237 58.6498 42.2633 58.7048 41.3278L59.9705 24.4885V23.3879C60.0255 21.9571 58.8149 20.8015 57.3841 20.8015Z" stroke="#5B5B5B" stroke-width="0.910714" stroke-miterlimit="10" stroke-linecap="round" stroke-linejoin="round"/>
</g>
</svg>
