<svg width="16" height="16" viewBox="0 0 16 16" fill="none" xmlns="http://www.w3.org/2000/svg">
<path fill-rule="evenodd" clip-rule="evenodd" d="M8 16C12.4183 16 16 12.4183 16 8C16 3.58172 12.4183 0 8 0C3.58172 0 0 3.58172 0 8C0 12.4183 3.58172 16 8 16ZM7.20801 8.71484C7.05762 9.07487 6.98242 9.55794 6.98242 10.1641H8.53418C8.54329 9.50781 8.69824 9.00879 8.99902 8.66699L9.83984 7.83984C10.5326 7.11979 10.8789 6.38835 10.8789 5.64551C10.8789 4.81152 10.6214 4.16211 10.1064 3.69727C9.59603 3.23242 8.88281 3 7.9668 3C7.07812 3 6.36263 3.2347 5.82031 3.7041C5.28255 4.1735 5.00911 4.81152 5 5.61816H6.66113C6.66113 5.23991 6.77962 4.94141 7.0166 4.72266C7.25814 4.49935 7.57487 4.3877 7.9668 4.3877C8.37695 4.3877 8.68685 4.50163 8.89648 4.72949C9.11068 4.9528 9.21777 5.27865 9.21777 5.70703C9.21777 6.0306 9.12663 6.33138 8.94434 6.60938C8.82585 6.79167 8.54329 7.09928 8.09668 7.53223C7.65462 7.96061 7.3584 8.35482 7.20801 8.71484ZM7.11914 11.6406C6.95052 11.8047 6.86621 12.0212 6.86621 12.29C6.86621 12.5407 6.94596 12.7503 7.10547 12.9189C7.26953 13.0876 7.50195 13.1719 7.80273 13.1719C8.10352 13.1719 8.33594 13.0876 8.5 12.9189C8.66406 12.7503 8.74609 12.5407 8.74609 12.29C8.74609 12.0303 8.66178 11.8161 8.49316 11.6475C8.32454 11.4743 8.0944 11.3877 7.80273 11.3877C7.51562 11.3877 7.28776 11.472 7.11914 11.6406Z" fill="currentColor"/>
</svg>
