<svg width="24" height="24" viewBox="0 0 24 24" fill="none" xmlns="http://www.w3.org/2000/svg">
    <path d="M11.9144 3C7.79018 3 4.34342 5.94815 3.56569 9.84621L2.83158 8.86774C2.51799 8.44979 1.92499 8.36513 1.50697 8.67863C1.08891 8.99218 1.00418 9.58527 1.31773 10.0033L3.5884 13.0309C3.77384 13.2788 4.05863 13.4093 4.34625 13.4093C4.54305 13.4093 4.74268 13.3478 4.91299 13.2201L7.94067 10.9494C8.35867 10.6359 8.44338 10.0429 8.12988 9.62487C7.81635 9.20683 7.22328 9.12215 6.80528 9.43573L5.37659 10.5076C5.8648 7.33328 8.60575 4.89226 11.9144 4.89226C13.9547 4.89226 15.876 5.84379 17.1221 7.42495C17.4456 7.83533 18.0194 7.99543 18.4717 7.73386C18.9239 7.47238 19.0826 6.88992 18.7725 6.46959C17.1786 4.30937 14.6288 3 11.9144 3Z" fill="currentColor"/>
    <path d="M20.2222 10.924C19.8967 10.5162 19.3044 10.45 18.8976 10.7726L16.0446 13.025C15.6347 13.3486 15.5647 13.9434 15.8884 14.3533C16.2121 14.7632 16.8068 14.8331 17.2167 14.5094L18.4406 13.5429C17.9212 16.6812 15.1963 19.0844 11.9142 19.0844C9.8749 19.0844 7.95391 18.1345 6.70776 16.5546C6.38409 16.1443 5.81003 15.9843 5.35772 16.2461C4.90558 16.5079 4.74719 17.0905 5.05761 17.5107C6.65196 19.669 9.20077 20.9767 11.9142 20.9767C16.0753 20.9767 19.5419 17.9746 20.2789 14.0245L21.1811 15.1524C21.5074 15.5605 22.1027 15.6267 22.5108 15.3004C22.9189 14.9741 22.9852 14.3786 22.6588 13.9705L20.2222 10.924Z" fill="currentColor"/>
</svg>
