<?xml version="1.0" encoding="UTF-8"?>
<svg width="210px" height="55px" viewBox="0 0 210 55" version="1.1" xmlns="http://www.w3.org/2000/svg" xmlns:xlink="http://www.w3.org/1999/xlink">
    <!-- Generator: Sketch 51.3 (57544) - http://www.bohemiancoding.com/sketch -->
    <title>Artboard</title>
    <desc>Created with Sketch.</desc>
    <defs></defs>
    <g id="Artboard" stroke="none" stroke-width="1" fill="none" fill-rule="evenodd">
        <g id="renessans-logo" fill-rule="nonzero">
            <path d="M16.6425,15.2925 C16.6476699,16.3595588 16.445597,17.4174697 16.0475,18.4075 C15.6751595,19.3192571 15.1146153,20.1421837 14.4025,20.8225 C13.6719226,21.5050896 12.8162043,22.0399135 11.8825,22.3975 C10.8428875,22.7891057 9.73821159,22.9791575 8.6275,22.9575 L5.4425,22.9575 L5.4425,32.5825 L1.4875,32.5825 L1.4875,7.47 L8.5925,7.47 C10.7174658,7.36783331 12.7896607,8.15139245 14.3153787,9.63399229 C15.8410966,11.1165921 16.6837231,13.165479 16.6425,15.2925 Z M5.4425,18.7925 L9.1175,18.7925 C10.0378855,18.8166102 10.9307039,18.4770877 11.6025,17.8475 C12.2842198,17.190344 12.6534212,16.2737058 12.6175,15.3275 C12.6416102,14.4071145 12.3020877,13.5142961 11.6725,12.8425 C11.0261345,12.1662688 10.1224635,11.7971637 9.1875,11.8275 L5.4425,11.8275 L5.4425,18.8275 L5.4425,18.7925 Z" id="Shape" fill="#50287D"></path>
            <polygon id="Shape" fill="#50287D" points="43.26 21.4175 51.8 21.4175 51.8 14.75 55.615 14.75 55.615 32.5825 51.8 32.5825 51.8 25.4775 43.26 25.4775 43.26 32.5825 39.445 32.5825 39.445 14.8375 43.26 14.8375 43.26 21.4175"></polygon>
            <path d="M69.3525,29.2575 C71.4393247,29.3189506 73.4480358,28.4617299 74.8475,26.9125 L75.9675,29.8875 C74.3338984,31.912392 71.8839339,33.1053066 69.2825,33.1425 C68.0171572,33.1685085 66.758328,32.9547451 65.5725,32.5125 C64.4611659,32.1107774 63.4473278,31.4786195 62.5975,30.6575 C61.7384618,29.8314255 61.069631,28.8281793 60.6375,27.7175 C60.160643,26.478403 59.9231126,25.1601095 59.9375,23.8325 C59.9387837,22.6377495 60.1520912,21.4527079 60.5675,20.3325 C60.9643335,19.2423194 61.5574489,18.2340232 62.3175,17.3575 C63.0925428,16.4769853 64.0473241,15.7728341 65.1175,15.2925 C66.2750378,14.7849519 67.5287928,14.5342009 68.7925,14.5575 C71.1564636,14.522235 73.4184057,15.5190231 74.9875,17.2875 C75.758616,18.1427933 76.3533163,19.1418898 76.7375,20.2275 C77.1272761,21.3534261 77.3283176,22.536023 77.3325,23.7275 C77.3368751,24.1962872 77.3017509,24.6646098 77.2275,25.1275 L63.8225,25.1275 C64.3747392,27.692672 66.7360925,29.4562144 69.3525,29.2575 Z M68.6525,18.4775 C66.4105283,18.3182076 64.3792267,19.795518 63.84,21.9775 L73.5,21.9775 C72.936096,19.8122294 70.9211765,18.3468334 68.6875,18.4775 L68.6525,18.4775 Z" id="Shape" fill="#50287D"></path>
            <path d="M27.37,29.2575 C29.4568247,29.3189506 31.4655358,28.4617299 32.865,26.9125 L33.985,29.8875 C32.3513984,31.912392 29.9014339,33.1053066 27.3,33.1425 C26.0346259,33.168932 24.7757178,32.9551551 23.59,32.5125 C22.4784337,32.1112557 21.4645005,31.4790386 20.615,30.6575 C19.7546568,29.8325176 19.085621,28.8289639 18.655,27.7175 C18.178143,26.478403 17.9406126,25.1601095 17.955,23.8325 C17.9562837,22.6377495 18.1695912,21.4527079 18.585,20.3325 C18.9818335,19.2423194 19.5749489,18.2340232 20.335,17.3575 C21.1104107,16.4773865 22.0650987,15.7733041 23.135,15.2925 C24.2925378,14.7849519 25.5462928,14.5342009 26.81,14.5575 C29.1739636,14.522235 31.4359057,15.5190231 33.005,17.2875 C33.776116,18.1427933 34.3708163,19.1418898 34.755,20.2275 C35.1438452,21.3536644 35.3448602,22.5361057 35.35,23.7275 C35.3543751,24.1962872 35.3192509,24.6646098 35.245,25.1275 L21.84,25.1275 C22.3922392,27.692672 24.7535925,29.4562144 27.37,29.2575 Z M26.67,18.4775 C24.4301221,18.3254966 22.4030159,19.7997557 21.8575,21.9775 L31.5,21.9775 C30.936096,19.8122294 28.9211765,18.3468334 26.6875,18.4775 L26.67,18.4775 Z" id="Shape" fill="#50287D"></path>
            <path d="M108.5,33.1075 C106.037386,33.1128686 103.676917,32.1237358 101.953796,30.3643741 C100.230676,28.6050123 99.2908822,26.224469 99.3475,23.7625 C99.2758304,21.2994728 100.211848,18.9137641 101.939282,17.1566039 C103.666716,15.3994437 106.036109,14.4228609 108.5,14.4525 C111.020089,14.3884854 113.426401,15.5010814 115.01,17.4625 L113.9775,20.6125 C112.622608,19.3879101 110.898681,18.6490843 109.0775,18.5125 C107.584671,18.3713142 106.100242,18.8563384 104.978777,19.8517216 C103.857312,20.8471048 103.199513,22.2634664 103.1625,23.7625 C103.115462,25.2156629 103.718497,26.6141896 104.8075,27.5775 C106.00416,28.5957023 107.543008,29.1211624 109.1125,29.0475 C111.025199,29.0161753 112.860777,28.2881664 114.275,27 L115.395,30.15 C113.615744,32.0628797 111.11228,33.1367007 108.5,33.1075 Z" id="Shape" fill="#50287D"></path>
            <path d="M89.4775,33.1075 C87.0118549,33.1175991 84.6468345,32.1305476 82.9199018,30.3706582 C81.1929691,28.6107687 80.2507973,26.2275137 80.3075,23.7625 C80.2353467,21.2902253 81.1784628,18.8961923 82.9174232,17.1373958 C84.6563836,15.3785994 87.039566,14.4083913 89.5125,14.4525 C92.0325892,14.3884854 94.4389014,15.5010814 96.0225,17.4625 L94.9725,20.6125 C93.6183375,19.3867714 91.8940017,18.6477703 90.0725,18.5125 C88.5796711,18.3713142 87.0952417,18.8563384 85.9737766,19.8517216 C84.8523115,20.8471048 84.194513,22.2634664 84.1575,23.7625 C84.107668,25.1951882 84.6899833,26.577387 85.75,27.5425 C86.9466604,28.5607023 88.4855078,29.0861624 90.055,29.0125 C91.9631173,28.990794 93.7981303,28.2754499 95.2175,27 L96.3375,30.15 C94.5664863,32.0538372 92.0776369,33.1268361 89.4775,33.1075 Z" id="Shape" fill="#50287D"></path>
            <path d="M170.94,33.1075 C168.474355,33.1175991 166.109335,32.1305476 164.382402,30.3706582 C162.655469,28.6107687 161.713297,26.2275137 161.77,23.7625 C161.697847,21.2902253 162.640963,18.8961923 164.379923,17.1373958 C166.118884,15.3785994 168.502066,14.4083913 170.975,14.4525 C173.495089,14.3884854 175.901401,15.5010814 177.485,17.4625 L176.4525,20.6125 C175.097608,19.3879101 173.373681,18.6490843 171.5525,18.5125 C170.059671,18.3713142 168.575242,18.8563384 167.453777,19.8517216 C166.332312,20.8471048 165.674513,22.2634664 165.6375,23.7625 C165.590462,25.2156629 166.193497,26.6141896 167.2825,27.5775 C168.47916,28.5957023 170.018008,29.1211624 171.5875,29.0475 C173.500199,29.0161753 175.335777,28.2881664 176.75,27 L177.87,30.15 C176.082523,32.0719748 173.564411,33.1466236 170.94,33.1075 Z" id="Shape" fill="#50287D"></path>
            <path d="M132.58,32.5825 L132.58,30.7275 C131.198499,32.2194546 129.258338,33.0690675 127.225,33.0725 C124.765616,33.1027261 122.401127,32.1245457 120.6819,30.3656433 C118.962672,28.606741 118.038681,26.2205543 118.125,23.7625 C117.94974,21.3347706 118.793646,18.943752 120.453967,17.1638873 C122.114289,15.3840226 124.440961,14.3761822 126.875,14.3825 C128.950332,14.3961744 130.941658,15.2039764 132.44,16.64 L132.44,14.89 L136.15,14.89 L136.15,32.5825 L132.58,32.5825 Z M121.905,23.8325 C121.901762,25.2877046 122.502668,26.6789741 123.564296,27.6742508 C124.625925,28.6695276 126.053029,29.1795175 127.505,29.0825 C129.386329,29.1633857 131.202318,28.3841849 132.44,26.965 L132.44,20.56 C131.174044,19.1841436 129.373908,18.4245114 127.505,18.4775 C126.053029,18.3804825 124.625925,18.8904724 123.564296,19.8857492 C122.502668,20.8810259 121.901762,22.2722954 121.905,23.7275 L121.905,23.8325 Z" id="Shape" fill="#50287D"></path>
            <polygon id="Shape" fill="#50287D" points="145.635 21.4175 154.175 21.4175 154.175 14.75 157.99 14.75 157.99 32.5825 154.175 32.5825 154.175 25.4775 145.635 25.4775 145.635 32.5825 141.75 32.5825 141.75 14.8375 145.565 14.8375 145.565 21.4175"></polygon>
            <path d="M6.2825,54.1425 C5.54616438,54.1438858 4.81608117,54.0073662 4.13,53.74 C3.47641508,53.4817791 2.88132338,53.0949695 2.38,52.6025 C0.183787598,50.4026519 0.183787598,46.8398481 2.38,44.64 C2.88132338,44.1475305 3.47641508,43.7607209 4.13,43.5025 C4.82167558,43.2333809 5.55782063,43.0968378 6.3,43.1 C6.78947043,43.0992393 7.27721713,43.1580039 7.7525,43.275 C8.18188193,43.381354 8.5984789,43.5339106 8.995,43.73 C9.34541557,43.8982256 9.6696151,44.1163234 9.9575,44.3775 C10.2045192,44.5948617 10.4169594,44.8486098 10.5875,45.13 L10.15,46.425 C9.95901966,46.1643228 9.73554721,45.9290887 9.485,45.725 C9.21086854,45.4936727 8.91146803,45.2940724 8.5925,45.13 C8.26587264,44.9545818 7.91917429,44.8194282 7.56,44.7275 C7.18603567,44.6036378 6.79800248,44.527207 6.405,44.5 C5.81001432,44.4934887 5.21825121,44.5881708 4.655,44.78 C4.14823232,44.9488729 3.68301046,45.2232345 3.29,45.585 C2.92004696,45.9411295 2.62805311,46.3701817 2.4325,46.845 C2.21234135,47.4011931 2.1110031,47.9973004 2.135,48.595 C2.12106265,49.1935953 2.22820604,49.7888363 2.45,50.345 C2.65790493,50.7868216 2.95595813,51.1802518 3.325,51.5 C3.72366605,51.849877 4.18755554,52.1175056 4.69,52.2875 C5.25325121,52.4793292 5.84501432,52.5740113 6.44,52.5675 C7.24134948,52.5840638 8.03452773,52.403796 8.75,52.0425 C9.35123684,51.7507285 9.87343602,51.3185637 10.2725,50.7825 L10.6925,52.06 C9.59181961,53.3579352 7.98411374,54.1171296 6.2825,54.1425 Z" id="Shape" fill="#50287D"></path>
            <polygon id="Shape" fill="#50287D" points="20.615 43.2575 20.615 44.7275 17.01 44.7275 17.01 53.9325 15.61 53.9325 15.61 44.7275 11.9525 44.7275 11.9525 43.2575 20.7025 43.2575"></polygon>
            <path d="M29.4525,46.5125 C29.4599945,46.9563571 29.376619,47.3970563 29.2075,47.8075 C29.0473222,48.186539 28.8155967,48.5311565 28.525,48.8225 C28.2277746,49.1182002 27.8693717,49.3451887 27.475,49.4875 C27.0369057,49.6429634 26.5748341,49.7199753 26.11,49.715 L24.15,49.715 L24.15,53.915 L22.75,53.915 L22.75,43.24 L26.11,43.24 C26.9927912,43.211297 27.8489833,43.5445226 28.4801146,44.1624364 C29.1112458,44.7803503 29.4625152,45.6292991 29.4525,46.5125 Z M28,46.5125 C28.0031462,46.2775614 27.9553853,46.044727 27.86,45.83 C27.7779879,45.6290252 27.659302,45.445062 27.51,45.2875 C27.3591126,45.1337289 27.1811289,45.0091404 26.985,44.92 C26.7543937,44.8162616 26.5025946,44.7682998 26.25,44.78 L24.115,44.78 L24.115,48.28 L26.25,48.28 C26.7261549,48.3235667 27.1970403,48.1532379 27.5351391,47.8151391 C27.8732379,47.4770403 28.0435667,47.0061549 28,46.53 L28,46.5125 Z" id="Shape" fill="#50287D"></path>
            <path d="M32.3225,51.5 L31.3075,53.985 L29.75,53.985 L34.1425,43.31 L35.6825,43.31 L40.075,53.985 L38.6225,53.985 L37.625,51.5 L32.375,51.5 L32.3225,51.5 Z M36.995,50.03 L35,45.0425 L32.97,49.96 L37.0475,49.96 L36.995,50.03 Z" id="Shape" fill="#50287D"></path>
            <polygon id="Shape" fill="#50287D" points="41.1075 53.915 44.905 48.385 41.405 43.24 43.155 43.24 45.85 47.0725 48.5625 43.24 50.3125 43.24 46.8125 48.385 50.645 53.915 48.895 53.915 45.7975 49.75 42.8925 53.95 41.1425 53.95"></polygon>
            <path d="M57.1725,54.125 C56.4283605,54.1314975 55.6904759,53.9886811 55.0025,53.705 C54.3566078,53.4243847 53.7644489,53.0335597 53.2525,52.55 C52.722245,52.0584505 52.2992407,51.4626697 52.01,50.8 C51.4090477,49.3792687 51.4090477,47.7757313 52.01,46.355 C52.2992407,45.6923303 52.722245,45.0965495 53.2525,44.605 C53.7640025,44.1208774 54.3562657,43.7299837 55.0025,43.45 C57.1115204,42.6055469 59.5185578,43.0555879 61.18,44.605 C61.710255,45.0965495 62.1332593,45.6923303 62.4225,46.355 C62.7261275,47.0564289 62.8810536,47.8131836 62.8775,48.5775 C62.8013561,51.6706261 60.2665455,54.1354573 57.1725,54.125 Z M61.425,48.6125 C61.4247161,48.0682439 61.3052513,47.5306522 61.075,47.0375 C60.640239,46.0512001 59.8264976,45.2816152 58.8175,44.9025 C57.7240003,44.4868448 56.5159997,44.4868448 55.4225,44.9025 C54.4135024,45.2816152 53.599761,46.0512001 53.165,47.0375 C52.7128073,48.044917 52.7128073,49.197583 53.165,50.205 C53.599761,51.1912999 54.4135024,51.9608848 55.4225,52.34 C56.5159997,52.7556552 57.7240003,52.7556552 58.8175,52.34 C59.8264976,51.9608848 60.640239,51.1912999 61.075,50.205 C61.3052513,49.7118478 61.4247161,49.1742561 61.425,48.63 L61.425,48.6125 Z" id="Shape" fill="#50287D"></path>
            <path d="M70.8575,48.2275 C71.2869932,48.4490672 71.6494921,48.7813579 71.9075,49.19 C72.2048082,49.6606579 72.3569677,50.2084321 72.345,50.765 C72.3496394,51.2329739 72.2603794,51.6971259 72.0825,52.13 C71.921019,52.5070069 71.6756209,52.8421848 71.365,53.11 C71.0538857,53.3796555 70.690475,53.5822123 70.2975,53.705 C69.8735098,53.8425255 69.4307334,53.9133697 68.985,53.915 L65.485,53.915 L65.485,43.24 L68.6,43.24 C69.0448373,43.2356876 69.4876359,43.3006314 69.9125,43.4325 C70.2966425,43.5465473 70.6537861,43.7370239 70.9625,43.9925 C71.25176,44.2441862 71.484374,44.5543383 71.645,44.9025 C71.9968822,45.6812623 71.9968822,46.5737377 71.645,47.3525 C71.4836527,47.6852503 71.2505637,47.9781056 70.9625,48.21 L70.8575,48.2275 Z M69.2125,52.4275 C69.4386136,52.4318349 69.6637222,52.3962914 69.8775,52.3225 C70.0820349,52.2474752 70.2673367,52.1279257 70.42,51.9725 C70.5800421,51.823122 70.7106348,51.645041 70.805,51.4475 C70.9058874,51.2339448 70.9596049,51.0011688 70.9625,50.765 C70.9673331,50.3422568 70.7961707,49.9365384 70.49,49.645 C70.1733106,49.3206223 69.7356775,49.143032 69.2825,49.155 L66.78,49.155 L66.78,52.3925 L69.2125,52.3925 L69.2125,52.4275 Z M68.775,47.7025 C69.189893,47.7074256 69.5930391,47.5647739 69.9125,47.3 C70.2277233,47.043282 70.4082245,46.6564936 70.4025,46.25 C70.4362897,45.8412856 70.289171,45.4383082 70,45.1475 C69.6884702,44.8539205 69.2728519,44.6964893 68.845,44.71 L66.78,44.71 L66.78,47.72 L68.775,47.7025 Z" id="Shape" fill="#50287D"></path>
            <path d="M76.335,51.5 L75.25,53.915 L73.7975,53.915 L78.19,43.24 L79.73,43.24 L84.1225,53.915 L82.6175,53.915 L81.62,51.5 L76.37,51.5 L76.335,51.5 Z M81.0075,50.03 L78.9775,45.1125 L77,49.96 L81.0775,49.96 L81.0075,50.03 Z" id="Shape" fill="#50287D"></path>
            <polygon id="Shape" fill="#50287D" points="87.6225 43.2575 87.6225 47.685 93.975 47.685 93.975 43.2575 95.375 43.2575 95.375 53.9325 93.975 53.9325 93.975 49.155 87.6225 49.155 87.6225 53.9325 86.24 53.9325 86.24 43.2575 87.6225 43.2575"></polygon>
            <polygon id="Shape" fill="#50287D" points="106.5925 53.915 106.5925 45.4625 100.2925 53.9325 98.735 53.9325 98.735 43.2575 100.1175 43.2575 100.1175 51.745 106.4525 43.2575 107.975 43.2575 107.975 53.9325 106.5925 53.9325"></polygon>
            <polygon id="Shape" fill="#50287D" points="117.355 43.2575 117.355 44.7275 112.735 44.7275 112.735 47.685 116.8825 47.685 116.8825 49.155 112.735 49.155 112.735 52.445 117.355 52.445 117.355 53.915 111.335 53.915 111.335 43.2575"></polygon>
            <rect id="Rectangle-path" fill="#50287D" x="181.5975" y="27.7" width="4.8825" height="4.8825"></rect>
            <polygon id="Shape" fill="#D0DF00" points="195.09 25.4775 181.5975 0.3475 208.5825 0.3475"></polygon>
        </g>
    </g>
</svg>