<svg width="180" height="180" viewBox="0 0 180 180" fill="none" xmlns="http://www.w3.org/2000/svg">
<circle cx="90" cy="90" r="90" fill="#F5F5F5"/>
<path d="M91.1357 161.586C84.0816 161.586 78.3631 155.867 78.3631 148.813C78.3631 141.759 84.0816 136.041 91.1357 136.041C98.1898 136.041 103.908 141.759 103.908 148.813C103.908 155.867 98.1898 161.586 91.1357 161.586Z" fill="white"/>
<path d="M91.1346 155.24C87.5851 155.24 84.7076 152.363 84.7076 148.813C84.7076 145.264 87.5851 142.386 91.1346 142.386C94.6841 142.386 97.5615 145.264 97.5615 148.813C97.5615 152.363 94.6841 155.24 91.1346 155.24Z" fill="#5B5B5B"/>
<path d="M91.1352 151.091C89.8772 151.091 88.8573 150.072 88.8573 148.814C88.8573 147.556 89.8772 146.536 91.1352 146.536C92.3933 146.536 93.4131 147.556 93.4131 148.814C93.4131 150.072 92.3933 151.091 91.1352 151.091Z" fill="white"/>
<path d="M91.1357 161.586C84.0816 161.586 78.3631 155.867 78.3631 148.813C78.3631 141.759 84.0816 136.041 91.1357 136.041C98.1898 136.041 103.908 141.759 103.908 148.813C103.908 155.867 98.1898 161.586 91.1357 161.586Z" stroke="#5B5B5B" stroke-width="1.5" stroke-miterlimit="10" stroke-linecap="round" stroke-linejoin="round"/>
<path d="M144.502 161.586C137.448 161.586 131.729 155.868 131.729 148.814C131.729 141.759 137.448 136.041 144.502 136.041C151.556 136.041 157.274 141.759 157.274 148.814C157.274 155.868 151.556 161.586 144.502 161.586Z" fill="white"/>
<path d="M144.502 155.24C140.952 155.24 138.075 152.363 138.075 148.813C138.075 145.264 140.952 142.386 144.502 142.386C148.051 142.386 150.929 145.264 150.929 148.813C150.929 152.363 148.051 155.24 144.502 155.24Z" fill="#5B5B5B"/>
<path d="M144.502 151.091C143.244 151.091 142.224 150.072 142.224 148.814C142.224 147.556 143.244 146.536 144.502 146.536C145.76 146.536 146.78 147.556 146.78 148.814C146.78 150.072 145.76 151.091 144.502 151.091Z" fill="white"/>
<path d="M144.502 161.586C137.448 161.586 131.729 155.868 131.729 148.814C131.729 141.759 137.448 136.041 144.502 136.041C151.556 136.041 157.274 141.759 157.274 148.814C157.274 155.868 151.556 161.586 144.502 161.586Z" stroke="#5B5B5B" stroke-width="1.5" stroke-miterlimit="10" stroke-linecap="round" stroke-linejoin="round"/>
<path d="M114.157 131.322H172V150.44H160.936C160.936 149.952 161.017 149.383 161.017 148.895C161.017 139.783 153.614 132.298 144.421 132.298C135.31 132.298 127.825 139.702 127.825 148.895C127.825 149.464 127.825 149.952 127.906 150.44H107.568C107.568 149.952 107.649 149.383 107.649 148.895C107.649 139.783 100.246 132.298 91.0531 132.298C81.9415 132.298 74.5383 139.702 74.5383 148.895C74.5383 149.464 74.5383 149.952 74.6196 150.44H62.6607V131.322H114.157Z" fill="white"/>
<path d="M62.7427 146.536H69.4951V143.281C69.4951 140.271 67.0544 137.912 64.1257 137.912H62.8241V146.536H62.7427Z" fill="#E0E0E0"/>
<path d="M62.7427 146.536H69.4951V143.281C69.4951 140.271 67.0544 137.912 64.1257 137.912H62.8241V146.536H62.7427Z" stroke="#5B5B5B" stroke-width="0.75" stroke-miterlimit="10" stroke-linecap="round" stroke-linejoin="round"/>
<path d="M114.157 131.322H172V150.44H160.936C160.936 149.952 161.017 149.383 161.017 148.895C161.017 139.783 153.614 132.298 144.421 132.298C135.31 132.298 127.825 139.702 127.825 148.895C127.825 149.464 127.825 149.952 127.906 150.44H107.568C107.568 149.952 107.649 149.383 107.649 148.895C107.649 139.783 100.246 132.298 91.0531 132.298C81.9415 132.298 74.5383 139.702 74.5383 148.895C74.5383 149.464 74.5383 149.952 74.6196 150.44H62.6607V131.322H114.157Z" stroke="#5B5B5B" stroke-width="1.5" stroke-miterlimit="10" stroke-linecap="round" stroke-linejoin="round"/>
<path d="M40.0118 99.7041L62.7329 85.2187C65.5241 83.4218 69.3243 84.1977 71.1677 87.0941L77.3261 96.638C79.1231 99.4292 78.2714 103.2 75.4802 104.997L51.694 120.204L62.7836 137.506L106.108 109.721L77.2936 64.7759L46.9947 84.1754C41.5764 87.5712 39.0883 93.7613 40.0118 99.7041Z" fill="currentColor"/>
<path d="M40.0116 99.7029C40.3504 101.754 41.0808 103.695 42.2788 105.556L51.6179 120.173L75.4041 104.966C78.1952 103.169 79.047 99.3985 77.2501 96.6074L71.0916 87.0635C69.2483 84.167 65.5239 83.4206 62.6568 85.1881L40.0116 99.7029Z" fill="white"/>
<path d="M40.0116 99.7029C40.3504 101.754 41.0808 103.695 42.2788 105.556L51.6179 120.173L75.4041 104.966C78.1952 103.169 79.047 99.3985 77.2501 96.6074L71.0916 87.0635C69.2482 84.167 65.5239 83.4206 62.6568 85.1881L40.0116 99.7029Z" stroke="#5B5B5B" stroke-width="0.75" stroke-miterlimit="10" stroke-linecap="round" stroke-linejoin="round"/>
<path d="M40.0125 99.7025C40.3513 101.754 41.0817 103.695 42.2797 105.556L51.6188 120.173L62.7084 137.475L106.033 109.69L77.2184 64.7449L46.9195 84.1444C41.5771 87.5696 39.0889 93.7597 40.0125 99.7025Z" stroke="#5B5B5B" stroke-width="1.5" stroke-miterlimit="10" stroke-linecap="round" stroke-linejoin="round"/>
<path d="M85.4773 114.544L81.0399 107.762" stroke="#5B5B5B" stroke-width="0.75" stroke-miterlimit="10" stroke-linecap="round" stroke-linejoin="round"/>
<path d="M32.7207 42.5199H40.1007V43.9599H32.7207V42.5199Z" fill="#EF5740"/>
<path d="M55.0414 49H53.0614V46.2999H46.5814V45.0399L52.4314 36.3999H55.0414V44.8599H56.8414V46.2999H55.0414V49ZM53.0614 38.5599H52.9714L48.7414 44.7699V44.8599H53.0614V38.5599Z" fill="#EF5740"/>
<path d="M60.1777 46.84V49H58.2877V46.84H60.1777Z" fill="#EF5740"/>
<path d="M70.3407 44.5V46.2999C70.3407 47.1399 70.0767 47.8 69.5487 48.28C69.0207 48.76 68.2647 49 67.2807 49H61.7907V47.5599H67.1007C67.4607 47.5599 67.7607 47.4399 68.0007 47.1999C68.2407 46.9599 68.3607 46.6599 68.3607 46.2999V44.5C68.3607 44.14 68.2407 43.8399 68.0007 43.5999C67.7607 43.3599 67.4607 43.2399 67.1007 43.2399H63.5907V41.9799L67.7307 37.9299V37.84H62.1507L61.6107 37.2099V36.3999H69.9807V37.7499L66.0207 41.7099V41.8H67.2807C68.2647 41.8 69.0207 42.0399 69.5487 42.5199C70.0767 42.9999 70.3407 43.66 70.3407 44.5Z" fill="#EF5740"/>
<path d="M71.773 47.65L77.335 41.7099C77.503 41.5539 77.671 41.3619 77.839 41.1339C78.175 40.7139 78.343 40.3359 78.343 39.9999V39.0999C78.343 38.7399 78.223 38.4399 77.983 38.1999C77.743 37.9599 77.443 37.84 77.083 37.84H72.493L71.953 37.2099V36.3999H77.263C78.247 36.3999 79.003 36.6399 79.531 37.1199C80.059 37.5999 80.323 38.2599 80.323 39.0999V39.9999C80.323 40.5639 80.065 41.2 79.549 41.9079C79.309 42.2439 79.057 42.5379 78.793 42.7899L74.293 47.4699V47.5599H80.323V49H71.773V47.65Z" fill="#EF5740"/>
<path d="M89.5873 46.4799V38.92C89.5873 38.5599 89.4673 38.2599 89.2273 38.0199C88.9873 37.7799 88.6873 37.6599 88.3273 37.6599H85.9873C85.6273 37.6599 85.3273 37.7799 85.0873 38.0199C84.8473 38.2599 84.7273 38.5599 84.7273 38.92V46.4799C84.7273 46.8399 84.8473 47.1399 85.0873 47.3799C85.3273 47.6199 85.6273 47.74 85.9873 47.74H88.3273C88.6873 47.74 88.9873 47.6199 89.2273 47.3799C89.4673 47.1399 89.5873 46.8399 89.5873 46.4799ZM91.5673 38.92V46.4799C91.5673 47.32 91.3033 47.9799 90.7753 48.4599C90.2473 48.9399 89.4913 49.18 88.5073 49.18H85.8073C84.8233 49.18 84.0673 48.9399 83.5393 48.4599C83.0113 47.9799 82.7473 47.32 82.7473 46.4799V38.92C82.7473 38.0799 83.0113 37.4199 83.5393 36.9399C84.0673 36.4599 84.8233 36.2199 85.8073 36.2199H88.5073C89.4913 36.2199 90.2473 36.4599 90.7753 36.9399C91.3033 37.4199 91.5673 38.0799 91.5673 38.92Z" fill="#EF5740"/>
<path d="M95.9844 46.84V49H94.0944V46.84H95.9844Z" fill="#EF5740"/>
<path d="M105.337 46.4799V38.92C105.337 38.5599 105.217 38.2599 104.977 38.0199C104.737 37.7799 104.437 37.6599 104.077 37.6599H101.737C101.377 37.6599 101.077 37.7799 100.837 38.0199C100.597 38.2599 100.477 38.5599 100.477 38.92V46.4799C100.477 46.8399 100.597 47.1399 100.837 47.3799C101.077 47.6199 101.377 47.74 101.737 47.74H104.077C104.437 47.74 104.737 47.6199 104.977 47.3799C105.217 47.1399 105.337 46.8399 105.337 46.4799ZM107.317 38.92V46.4799C107.317 47.32 107.053 47.9799 106.525 48.4599C105.997 48.9399 105.241 49.18 104.257 49.18H101.557C100.573 49.18 99.8173 48.9399 99.2893 48.4599C98.7613 47.9799 98.4973 47.32 98.4973 46.4799V38.92C98.4973 38.0799 98.7613 37.4199 99.2893 36.9399C99.8173 36.4599 100.573 36.2199 101.557 36.2199H104.257C105.241 36.2199 105.997 36.4599 106.525 36.9399C107.053 37.4199 107.317 38.0799 107.317 38.92Z" fill="#EF5740"/>
<path d="M117.044 46.4799V38.92C117.044 38.5599 116.924 38.2599 116.684 38.0199C116.444 37.7799 116.144 37.6599 115.784 37.6599H113.444C113.084 37.6599 112.784 37.7799 112.544 38.0199C112.304 38.2599 112.184 38.5599 112.184 38.92V46.4799C112.184 46.8399 112.304 47.1399 112.544 47.3799C112.784 47.6199 113.084 47.74 113.444 47.74H115.784C116.144 47.74 116.444 47.6199 116.684 47.3799C116.924 47.1399 117.044 46.8399 117.044 46.4799ZM119.024 38.92V46.4799C119.024 47.32 118.76 47.9799 118.232 48.4599C117.704 48.9399 116.948 49.18 115.964 49.18H113.264C112.28 49.18 111.524 48.9399 110.996 48.4599C110.468 47.9799 110.204 47.32 110.204 46.4799V38.92C110.204 38.0799 110.468 37.4199 110.996 36.9399C111.524 36.4599 112.28 36.2199 113.264 36.2199H115.964C116.948 36.2199 117.704 36.4599 118.232 36.9399C118.76 37.4199 119.024 38.0799 119.024 38.92Z" fill="#EF5740"/>
<path d="M128.751 46.4799V38.92C128.751 38.5599 128.631 38.2599 128.391 38.0199C128.151 37.7799 127.851 37.6599 127.491 37.6599H125.151C124.791 37.6599 124.491 37.7799 124.251 38.0199C124.011 38.2599 123.891 38.5599 123.891 38.92V46.4799C123.891 46.8399 124.011 47.1399 124.251 47.3799C124.491 47.6199 124.791 47.74 125.151 47.74H127.491C127.851 47.74 128.151 47.6199 128.391 47.3799C128.631 47.1399 128.751 46.8399 128.751 46.4799ZM130.731 38.92V46.4799C130.731 47.32 130.467 47.9799 129.939 48.4599C129.411 48.9399 128.655 49.18 127.671 49.18H124.971C123.987 49.18 123.231 48.9399 122.703 48.4599C122.175 47.9799 121.911 47.32 121.911 46.4799V38.92C121.911 38.0799 122.175 37.4199 122.703 36.9399C123.231 36.4599 123.987 36.2199 124.971 36.2199H127.671C128.655 36.2199 129.411 36.4599 129.939 36.9399C130.467 37.4199 130.731 38.0799 130.731 38.92Z" fill="#EF5740"/>
<path d="M139.321 49V46.552H137.755V45.382H139.321V43.7799H137.755V42.4119H139.321V36.1479H142.705C144.277 36.1479 145.441 36.4659 146.197 37.1019C146.965 37.7379 147.349 38.6619 147.349 39.8739C147.349 41.0979 146.935 42.0579 146.107 42.7539C145.279 43.4379 144.061 43.7799 142.453 43.7799H140.941V45.382H143.911V46.552H140.941V49H139.321ZM142.219 42.4119C143.311 42.4119 144.157 42.2319 144.757 41.8719C145.369 41.5119 145.675 40.8639 145.675 39.9279C145.675 39.1119 145.423 38.5059 144.919 38.1099C144.415 37.7139 143.629 37.5159 142.561 37.5159H140.941V42.4119H142.219Z" fill="#EF5740"/>
<path fill-rule="evenodd" clip-rule="evenodd" d="M139.75 59C140.164 59 140.5 59.3358 140.5 59.75L140.5 60.2636C140.5 60.6778 140.164 61.0136 139.75 61.0136C139.336 61.0136 139 60.6778 139 60.2636L139 59.75C139 59.3358 139.336 59 139.75 59ZM139.75 63.6227C140.164 63.6227 140.5 63.9585 140.5 64.3727L140.5 65.4C140.5 65.8142 140.164 66.15 139.75 66.15C139.336 66.15 139 65.8142 139 65.4L139 64.3727C139 63.9585 139.336 63.6227 139.75 63.6227ZM139.75 68.7591C140.164 68.7591 140.5 69.0949 140.5 69.5091L140.5 70.5364C140.5 70.9506 140.164 71.2864 139.75 71.2864C139.336 71.2864 139 70.9506 139 70.5364L139 69.5091C139 69.0949 139.336 68.7591 139.75 68.7591ZM139.75 73.8955C140.164 73.8955 140.5 74.2312 140.5 74.6455L140.5 75.6727C140.5 76.0869 140.164 76.4227 139.75 76.4227C139.336 76.4227 139 76.0869 139 75.6727L139 74.6455C139 74.2312 139.336 73.8955 139.75 73.8955ZM139.75 79.0318C140.164 79.0318 140.5 79.3676 140.5 79.7818L140.5 80.8091C140.5 81.2233 140.164 81.5591 139.75 81.5591C139.336 81.5591 139 81.2233 139 80.8091L139 79.7818C139 79.3676 139.336 79.0318 139.75 79.0318ZM139.75 84.1682C140.164 84.1682 140.5 84.504 140.5 84.9182L140.5 85.9455C140.5 86.3597 140.164 86.6955 139.75 86.6955C139.336 86.6955 139 86.3597 139 85.9455L139 84.9182C139 84.504 139.336 84.1682 139.75 84.1682ZM139.75 89.3045C140.164 89.3045 140.5 89.6403 140.5 90.0545L140.5 91.0818C140.5 91.496 140.164 91.8318 139.75 91.8318C139.336 91.8318 139 91.496 139 91.0818L139 90.0545C139 89.6403 139.336 89.3045 139.75 89.3045ZM139.75 94.4409C140.164 94.4409 140.5 94.7767 140.5 95.1909L140.5 96.2182C140.5 96.6324 140.164 96.9682 139.75 96.9682C139.336 96.9682 139 96.6324 139 96.2182L139 95.1909C139 94.7767 139.336 94.4409 139.75 94.4409ZM139.75 99.5773C140.164 99.5773 140.5 99.9131 140.5 100.327L140.5 101.355C140.5 101.769 140.164 102.105 139.75 102.105C139.336 102.105 139 101.769 139 101.355L139 100.327C139 99.9131 139.336 99.5773 139.75 99.5773ZM139.75 104.714C140.164 104.714 140.5 105.049 140.5 105.464L140.5 106.491C140.5 106.905 140.164 107.241 139.75 107.241C139.336 107.241 139 106.905 139 106.491L139 105.464C139 105.049 139.336 104.714 139.75 104.714ZM139.75 109.85C140.164 109.85 140.5 110.186 140.5 110.6L140.5 111.627C140.5 112.041 140.164 112.377 139.75 112.377C139.336 112.377 139 112.041 139 111.627L139 110.6C139 110.186 139.336 109.85 139.75 109.85ZM139.75 114.986C140.164 114.986 140.5 115.322 140.5 115.736L140.5 116.25C140.5 116.664 140.164 117 139.75 117C139.336 117 139 116.664 139 116.25L139 115.736C139 115.322 139.336 114.986 139.75 114.986Z" fill="#EF5740"/>
</svg>
