<svg width="180" height="180" viewBox="0 0 180 180" fill="none" xmlns="http://www.w3.org/2000/svg">
<g clip-path="url(#clip0)">
<circle cx="90" cy="90" r="90" fill="#F5F5F5"/>
<g clip-path="url(#clip1)">
<path d="M10.6018 144.001H-58.2578V155.809H10.6018V144.001Z" fill="#5B5B5B"/>
<path d="M49.1288 72.9109H-133.478V144.124H49.1288V72.9109Z" fill="currentColor"/>
<path d="M49.1288 72.9109H-133.478V144.124H49.1288V72.9109Z" stroke="#5B5B5B" stroke-width="1.5" stroke-miterlimit="10" stroke-linecap="round" stroke-linejoin="round"/>
<path d="M101.631 161.712C106.562 161.712 110.559 157.692 110.559 152.734C110.559 147.775 106.562 143.755 101.631 143.755C96.6996 143.755 92.7021 147.775 92.7021 152.734C92.7021 157.692 96.6996 161.712 101.631 161.712Z" fill="#5B5B5B"/>
<path d="M117.286 91.8522L119.366 151.996L94.6594 150.766L74.4785 153.472L42.556 154.579L39.8652 76.724L99.0624 74.6331C108.48 74.2641 116.308 81.3977 117.164 90.6222C117.286 91.1142 117.286 91.4832 117.286 91.8522Z" fill="#E0E0E0"/>
<path d="M72.3988 93.4507L74.478 153.595L0.848356 156.177L0.481445 144.37L42.0663 142.894L39.7424 76.7236L54.0525 76.2316C63.9595 75.9856 72.1541 83.6112 72.3988 93.4507Z" fill="white"/>
<path d="M116.797 145.477L108.847 145.231C108.358 145.231 107.991 144.863 108.114 144.371L108.236 140.066C108.236 139.574 108.603 139.205 109.092 139.328L117.042 139.574C117.531 139.574 117.898 139.943 117.776 140.435L117.654 144.74C117.654 145.109 117.287 145.477 116.797 145.477Z" fill="white"/>
<path d="M116.797 145.477L108.847 145.231C108.358 145.231 107.991 144.863 108.114 144.371L108.236 140.066C108.236 139.574 108.603 139.205 109.092 139.328L117.042 139.574C117.531 139.574 117.898 139.943 117.776 140.435L117.654 144.74C117.654 145.109 117.287 145.477 116.797 145.477Z" stroke="#5B5B5B" stroke-width="0.75" stroke-miterlimit="10"/>
<path d="M85.3638 145.969L77.4138 146.83C76.9246 146.83 76.5576 146.584 76.5576 146.092L76.0684 141.788C76.0684 141.296 76.313 140.927 76.8023 140.927L84.7523 140.066C85.2415 140.066 85.6084 140.312 85.6084 140.804L86.0977 145.108C86.0977 145.6 85.8531 145.969 85.3638 145.969Z" fill="white"/>
<path d="M85.3638 145.969L77.4138 146.83C76.9246 146.83 76.5576 146.584 76.5576 146.092L76.0684 141.788C76.0684 141.296 76.313 140.927 76.8023 140.927L84.7523 140.066C85.2415 140.066 85.6084 140.312 85.6084 140.804L86.0977 145.108C86.0977 145.6 85.8531 145.969 85.3638 145.969Z" stroke="#5B5B5B" stroke-width="0.75" stroke-miterlimit="10"/>
<path d="M103.587 143.632L95.6366 142.525L90.4997 144.124C90.0104 144.124 89.6436 143.755 89.6436 143.386V142.894C89.6436 142.402 90.0104 142.033 90.3774 142.033L95.5143 140.435L103.464 141.542C103.954 141.542 104.321 141.91 104.321 142.279V142.771C104.321 143.263 103.954 143.632 103.587 143.632Z" fill="#5B5B5B"/>
<path d="M110.558 133.916C110.558 135.515 109.335 136.991 107.745 136.991L95.3917 135.392L85.8517 137.729C84.2616 137.729 82.7939 136.499 82.7939 134.9L95.2694 132.44L110.558 133.916Z" stroke="#5B5B5B" stroke-width="0.75" stroke-miterlimit="10"/>
<path d="M112.515 129.365C112.515 130.964 111.292 132.44 109.702 132.44L95.2696 130.841L83.7726 133.301C82.1825 133.301 80.7148 132.071 80.7148 130.472L95.1473 127.889L112.515 129.365Z" stroke="#5B5B5B" stroke-width="0.75" stroke-miterlimit="10"/>
<path d="M114.35 124.814C114.35 126.413 113.127 127.889 111.537 127.889L95.1477 126.413L81.5714 128.996C79.9814 128.996 78.5137 127.766 78.5137 126.167L95.0253 123.584L114.35 124.814Z" stroke="#5B5B5B" stroke-width="0.75" stroke-miterlimit="10"/>
<path d="M48.915 127.521L49.1597 134.654" stroke="#5B5B5B" stroke-width="0.75" stroke-miterlimit="10"/>
<path d="M72.1553 90.6221C72.3999 91.4831 72.3999 92.467 72.5223 93.451L73.5007 121.002L95.7609 118.542L118.51 121.124L117.532 91.7291C117.532 91.3601 117.532 90.9911 117.409 90.6221L95.5162 87.9163L72.1553 90.6221Z" fill="white"/>
<path d="M44.3909 96.6486L45.247 120.632C45.3693 122.477 46.8371 123.83 48.6717 123.83L73.5003 121.124L72.5218 93.5737C72.5218 92.5898 72.3995 91.6058 72.1548 90.7449L47.5709 93.3277C45.7363 93.3277 44.2686 94.8037 44.3909 96.6486Z" fill="#E0E0E0"/>
<path d="M117.286 91.852L118.265 121.247L95.5153 118.665L48.4266 123.707C46.592 123.83 45.1243 122.354 45.002 120.51L44.1458 96.5258C44.0235 94.6809 45.4912 93.205 47.3258 93.082L95.1484 87.9163L117.042 90.6221C117.286 91.1141 117.286 91.4831 117.286 91.852Z" stroke="#5B5B5B" stroke-width="0.75" stroke-miterlimit="10"/>
<path d="M95.6373 118.664L91.3565 113.99L92.335 108.087L89.2772 103.659L80.838 101.076L77.291 92.4666" stroke="#5B5B5B" stroke-width="0.75" stroke-miterlimit="10" stroke-linecap="round" stroke-linejoin="round"/>
<path d="M89.2771 103.659L92.8241 97.0174L88.9102 93.2046" stroke="#5B5B5B" stroke-width="0.75" stroke-miterlimit="10" stroke-linecap="round" stroke-linejoin="round"/>
<path d="M95.6377 118.664C95.6377 118.664 100.285 112.023 100.163 111.531C100.041 111.039 98.4508 105.012 98.4508 105.012L102.732 96.1566L100.163 90.1299" stroke="#5B5B5B" stroke-width="0.75" stroke-miterlimit="10" stroke-linecap="round" stroke-linejoin="round"/>
<path d="M98.4502 105.012L102.976 103.29" stroke="#5B5B5B" stroke-width="0.75" stroke-miterlimit="10" stroke-linecap="round" stroke-linejoin="round"/>
<path d="M117.286 91.8522L119.366 151.996L94.6594 150.766L74.4785 153.472L42.556 154.579L39.8652 76.724L99.0624 74.6331C108.48 74.2641 116.308 81.3977 117.164 90.6222C117.286 91.1142 117.286 91.4832 117.286 91.8522Z" stroke="#5B5B5B" stroke-width="1.5" stroke-miterlimit="10" stroke-linecap="round" stroke-linejoin="round"/>
<path d="M72.3988 93.4507L74.478 153.595L0.848356 156.177L0.481445 144.37L42.0663 142.894L39.7424 76.7236L54.0525 76.2316C63.9595 75.9856 72.1541 83.6112 72.3988 93.4507Z" stroke="#5B5B5B" stroke-width="1.5" stroke-miterlimit="10" stroke-linecap="round" stroke-linejoin="round"/>
<path d="M56.7439 163.188C61.675 163.188 65.6724 159.169 65.6724 154.21C65.6724 149.251 61.675 145.231 56.7439 145.231C51.8128 145.231 47.8154 149.251 47.8154 154.21C47.8154 159.169 51.8128 163.188 56.7439 163.188Z" fill="#5B5B5B"/>
<path d="M56.7439 159.13C59.4458 159.13 61.6362 156.927 61.6362 154.21C61.6362 151.493 59.4458 149.29 56.7439 149.29C54.0419 149.29 51.8516 151.493 51.8516 154.21C51.8516 156.927 54.0419 159.13 56.7439 159.13Z" fill="white"/>
<path d="M56.7446 155.932C57.6903 155.932 58.4569 155.161 58.4569 154.21C58.4569 153.259 57.6903 152.488 56.7446 152.488C55.7989 152.488 55.0322 153.259 55.0322 154.21C55.0322 155.161 55.7989 155.932 56.7446 155.932Z" fill="#5B5B5B"/>
<path d="M11.8562 164.787C16.7873 164.787 20.7847 160.767 20.7847 155.809C20.7847 150.85 16.7873 146.83 11.8562 146.83C6.92515 146.83 2.92773 150.85 2.92773 155.809C2.92773 160.767 6.92515 164.787 11.8562 164.787Z" fill="#5B5B5B"/>
<path d="M11.8562 160.728C14.5582 160.728 16.7486 158.526 16.7486 155.809C16.7486 153.092 14.5582 150.889 11.8562 150.889C9.15424 150.889 6.96387 153.092 6.96387 155.809C6.96387 158.526 9.15424 160.728 11.8562 160.728Z" fill="white"/>
<path d="M11.8568 157.531C12.8025 157.531 13.5691 156.76 13.5691 155.809C13.5691 154.858 12.8025 154.087 11.8568 154.087C10.9111 154.087 10.1445 154.858 10.1445 155.809C10.1445 156.76 10.9111 157.531 11.8568 157.531Z" fill="#5B5B5B"/>
<path d="M105.177 111.125H95.8818V164.787H105.177V111.125Z" fill="white"/>
<path d="M95.815 164.8H105.11V111.137H95.815V164.8Z" stroke="#5B5B5B" stroke-width="1.5" stroke-miterlimit="10" stroke-linecap="round" stroke-linejoin="round"/>
</g>
<path fill-rule="evenodd" clip-rule="evenodd" d="M42.75 58C43.1642 58 43.5 58.3358 43.5 58.75L43.5 59.2636C43.5 59.6778 43.1642 60.0136 42.75 60.0136C42.3358 60.0136 42 59.6778 42 59.2636L42 58.75C42 58.3358 42.3358 58 42.75 58ZM42.75 62.6227C43.1642 62.6227 43.5 62.9585 43.5 63.3727L43.5 64.4C43.5 64.8142 43.1642 65.15 42.75 65.15C42.3358 65.15 42 64.8142 42 64.4L42 63.3727C42 62.9585 42.3358 62.6227 42.75 62.6227Z" fill="#EF5740"/>
<path d="M43.98 48.9999H42V36.3999H47.94C48.924 36.3999 49.68 36.6399 50.208 37.1199C50.736 37.5999 51 38.2599 51 39.0999V42.1599C51 42.9999 50.736 43.6599 50.208 44.1399C49.68 44.6199 48.924 44.8599 47.94 44.8599H43.98V48.9999ZM43.98 37.8399V43.4199H47.76C48.12 43.4199 48.42 43.2999 48.66 43.0599C48.9 42.8199 49.02 42.5199 49.02 42.1599V39.0999C49.02 38.7399 48.9 38.4399 48.66 38.1999C48.42 37.9599 48.12 37.8399 47.76 37.8399H43.98Z" fill="#EF5740"/>
<path d="M57.307 49.1799H55.687C54.859 49.1799 54.187 48.9519 53.671 48.4959C53.155 48.0399 52.897 47.4879 52.897 46.8399V45.8499C52.897 45.2019 53.155 44.6499 53.671 44.1939C54.187 43.7379 54.859 43.5099 55.687 43.5099H59.197V41.7999C59.197 41.4879 59.095 41.2299 58.891 41.0259C58.687 40.8219 58.429 40.7199 58.117 40.7199H53.797V39.4599H58.297C59.125 39.4599 59.797 39.6879 60.313 40.1439C60.829 40.5999 61.087 41.1519 61.087 41.7999V48.9999H59.917L59.557 47.8299H59.467C59.359 48.0819 59.203 48.3099 58.999 48.5139C58.555 48.9579 57.991 49.1799 57.307 49.1799ZM55.867 47.9199H57.307C57.907 47.9199 58.399 47.6679 58.783 47.1639C58.963 46.9239 59.101 46.6659 59.197 46.3899V44.7699H55.867C55.555 44.7699 55.297 44.8719 55.093 45.0759C54.889 45.2799 54.787 45.5379 54.787 45.8499V46.8399C54.787 47.1519 54.889 47.4099 55.093 47.6139C55.297 47.8179 55.555 47.9199 55.867 47.9199Z" fill="#EF5740"/>
<path d="M63.1605 40.0899V39.4599H67.9305C68.7585 39.4599 69.4305 39.6879 69.9465 40.1439C70.4625 40.5999 70.7205 41.1519 70.7205 41.7999V42.4119C70.7205 43.0119 70.4205 43.4679 69.8205 43.7799C69.5445 43.9119 69.2445 44.0019 68.9205 44.0499V44.1399C69.2205 44.1879 69.5505 44.2839 69.9105 44.4279C70.5705 44.7399 70.9005 45.2139 70.9005 45.8499V46.6599C70.9005 47.3079 70.6425 47.8599 70.1265 48.3159C69.6105 48.7719 68.9385 48.9999 68.1105 48.9999H62.9805V47.7399H67.9305C68.2425 47.7399 68.5005 47.6379 68.7045 47.4339C68.9085 47.2299 69.0105 46.9719 69.0105 46.6599V45.8499C69.0105 45.5379 68.9085 45.2799 68.7045 45.0759C68.5005 44.8719 68.2425 44.7699 67.9305 44.7699H65.1405V43.5099H67.7505C68.0625 43.5099 68.3205 43.4079 68.5245 43.2039C68.7285 42.9999 68.8305 42.7419 68.8305 42.4299V41.7999C68.8305 41.4879 68.7285 41.2299 68.5245 41.0259C68.3205 40.8219 68.0625 40.7199 67.7505 40.7199H63.7005L63.1605 40.0899Z" fill="#EF5740"/>
<path d="M83.7586 44.7699H80.4286V47.7399H83.7586C84.0706 47.7399 84.3286 47.6379 84.5326 47.4339C84.7366 47.2299 84.8386 46.9719 84.8386 46.6599V45.8499C84.8386 45.5379 84.7366 45.2799 84.5326 45.0759C84.3286 44.8719 84.0706 44.7699 83.7586 44.7699ZM84.3886 42.4299V41.7999C84.3886 41.4879 84.2866 41.2299 84.0826 41.0259C83.8786 40.8219 83.6206 40.7199 83.3086 40.7199H80.4286V43.5099H83.3086C83.6206 43.5099 83.8786 43.4079 84.0826 43.2039C84.2866 42.9999 84.3886 42.7419 84.3886 42.4299ZM86.2786 41.7999V42.4119C86.2786 42.9999 86.0206 43.4559 85.5046 43.7799C85.2886 43.8999 85.0366 43.9899 84.7486 44.0499V44.1399C85.0486 44.1879 85.3786 44.2839 85.7386 44.4279C86.3986 44.7399 86.7286 45.2139 86.7286 45.8499V46.6599C86.7286 47.3079 86.4706 47.8599 85.9546 48.3159C85.4386 48.7719 84.7666 48.9999 83.9386 48.9999H78.5386V39.4599H83.4886C84.3166 39.4599 84.9886 39.6879 85.5046 40.1439C86.0206 40.5999 86.2786 41.1519 86.2786 41.7999Z" fill="#EF5740"/>
<path d="M94.3765 42.8799V36.3999H102.206V37.2099L101.666 37.8399H96.3565V41.4399H99.5965C100.58 41.4399 101.336 41.6799 101.864 42.1599C102.392 42.6399 102.656 43.2999 102.656 44.1399V46.2999C102.656 47.1399 102.392 47.7999 101.864 48.2799C101.336 48.7599 100.58 48.9999 99.5965 48.9999H94.3765V47.5599H99.4165C99.7765 47.5599 100.076 47.4399 100.316 47.1999C100.556 46.9599 100.676 46.6599 100.676 46.2999V44.1399C100.676 43.7799 100.556 43.4799 100.316 43.2399C100.076 42.9999 99.7765 42.8799 99.4165 42.8799H94.3765Z" fill="#EF5740"/>
<path d="M111.47 39.4599H118.49V48.9999H116.6V40.7199H113.18L112.73 46.6599C112.67 47.4039 112.376 48.0099 111.848 48.4779C111.332 48.9459 110.636 49.1799 109.76 49.1799H109.22V47.9199H109.76C110.048 47.9199 110.288 47.8119 110.48 47.5959C110.684 47.3679 110.804 47.0559 110.84 46.6599L111.47 39.4599Z" fill="#EF5740"/>
<path d="M128.923 41.6199V44.9499H122.893V46.6599C122.893 46.9719 122.995 47.2299 123.199 47.4339C123.403 47.6379 123.661 47.7399 123.973 47.7399H128.563V48.9999H123.793C122.965 48.9999 122.293 48.7719 121.777 48.3159C121.261 47.8599 121.003 47.3079 121.003 46.6599V41.6199C121.003 40.9719 121.261 40.4199 121.777 39.9639C122.293 39.5079 122.965 39.2799 123.793 39.2799H126.133C126.961 39.2799 127.633 39.5079 128.149 39.9639C128.665 40.4199 128.923 40.9719 128.923 41.6199ZM122.893 41.6199V43.6899H127.033V41.6199C127.033 41.3079 126.931 41.0499 126.727 40.8459C126.523 40.6419 126.265 40.5399 125.953 40.5399H123.973C123.661 40.5399 123.403 40.6419 123.199 40.8459C122.995 41.0499 122.893 41.3079 122.893 41.6199Z" fill="#EF5740"/>
<path d="M130.369 40.7199V39.4599H138.739V40.0899L138.199 40.7199H135.499V48.9999H133.609V40.7199H130.369Z" fill="#EF5740"/>
</g>
<defs>
<clipPath id="clip0">
<path d="M0 90C0 40.2944 40.2944 0 90 0C139.706 0 180 40.2944 180 90C180 139.706 139.706 180 90 180C40.2944 180 0 139.706 0 90Z" fill="white"/>
</clipPath>
<clipPath id="clip1">
<rect width="343" height="122" fill="white" transform="translate(-223 43)"/>
</clipPath>
</defs>
</svg>
