<svg width="180" height="180" viewBox="0 0 180 180" fill="none" xmlns="http://www.w3.org/2000/svg">
<g clip-path="url(#clip0)">
<circle cx="90" cy="90" r="90" fill="#F5F5F5"/>
<path d="M-34.3242 97.3086L27.6758 97.3086V86.8086H-34.3242V97.3086Z" fill="#5B5B5B"/>
<path d="M94.4941 94.7998C98.9124 94.7998 102.494 91.2181 102.494 86.7998C102.494 82.3815 98.9124 78.7998 94.4941 78.7998C90.0759 78.7998 86.4941 82.3815 86.4941 86.7998C86.4941 91.2181 90.0759 94.7998 94.4941 94.7998Z" fill="#5B5B5B"/>
<path d="M111.595 94.7998C116.013 94.7998 119.595 91.2181 119.595 86.7998C119.595 82.3815 116.013 78.7998 111.595 78.7998C107.176 78.7998 103.595 82.3815 103.595 86.7998C103.595 91.2181 107.176 94.7998 111.595 94.7998Z" fill="#5B5B5B"/>
<path d="M77.3945 94.7998C81.8128 94.7998 85.3945 91.2181 85.3945 86.7998C85.3945 82.3815 81.8128 78.7998 77.3945 78.7998C72.9763 78.7998 69.3945 82.3815 69.3945 86.7998C69.3945 91.2181 72.9763 94.7998 77.3945 94.7998Z" fill="#5B5B5B"/>
<path d="M71.1946 78.8C75.5946 78.8 79.1946 82.4 79.1946 86.8C79.1946 91.2 75.5946 94.8 71.1946 94.8C66.7946 94.8 63.1946 91.2 63.1946 86.8C63.1946 82.4 66.7946 78.8 71.1946 78.8ZM71.1946 78C66.3946 78 62.3945 81.9 62.3945 86.8C62.3945 91.7 66.2946 95.6 71.1946 95.6C75.9946 95.6 79.9946 91.7 79.9946 86.8C79.9946 81.9 75.9946 78 71.1946 78Z" fill="white"/>
<path d="M71.1943 94.7998C75.6126 94.7998 79.1943 91.2181 79.1943 86.7998C79.1943 82.3815 75.6126 78.7998 71.1943 78.7998C66.7761 78.7998 63.1943 82.3815 63.1943 86.7998C63.1943 91.2181 66.7761 94.7998 71.1943 94.7998Z" fill="#5B5B5B"/>
<path d="M71.1949 91.1999C73.625 91.1999 75.595 89.2299 75.595 86.7999C75.595 84.3698 73.625 82.3999 71.1949 82.3999C68.7649 82.3999 66.7949 84.3698 66.7949 86.7999C66.7949 89.2299 68.7649 91.1999 71.1949 91.1999Z" fill="white"/>
<path d="M71.1947 88.3999C72.0784 88.3999 72.7947 87.6836 72.7947 86.7999C72.7947 85.9163 72.0784 85.2 71.1947 85.2C70.311 85.2 69.5947 85.9163 69.5947 86.7999C69.5947 87.6836 70.311 88.3999 71.1947 88.3999Z" fill="#5B5B5B"/>
<path d="M54.0947 94.7998C58.513 94.7998 62.0947 91.2181 62.0947 86.7998C62.0947 82.3815 58.513 78.7998 54.0947 78.7998C49.6764 78.7998 46.0947 82.3815 46.0947 86.7998C46.0947 91.2181 49.6764 94.7998 54.0947 94.7998Z" fill="#5B5B5B"/>
<path d="M54.0944 91.1999C56.5244 91.1999 58.4944 89.2299 58.4944 86.7999C58.4944 84.3698 56.5244 82.3999 54.0944 82.3999C51.6643 82.3999 49.6943 84.3698 49.6943 86.7999C49.6943 89.2299 51.6643 91.1999 54.0944 91.1999Z" fill="white"/>
<path d="M54.0951 88.3997C54.9787 88.3997 55.6951 87.6834 55.6951 86.7997C55.6951 85.916 54.9787 85.1997 54.0951 85.1997C53.2114 85.1997 52.4951 85.916 52.4951 86.7997C52.4951 87.6834 53.2114 88.3997 54.0951 88.3997Z" fill="#5B5B5B"/>
<path d="M36.9951 94.7998C41.4134 94.7998 44.9951 91.2181 44.9951 86.7998C44.9951 82.3815 41.4134 78.7998 36.9951 78.7998C32.5768 78.7998 28.9951 82.3815 28.9951 86.7998C28.9951 91.2181 32.5768 94.7998 36.9951 94.7998Z" fill="#5B5B5B"/>
<path d="M36.9948 91.1999C39.4248 91.1999 41.3947 89.2299 41.3947 86.7999C41.3947 84.3698 39.4248 82.3999 36.9948 82.3999C34.5647 82.3999 32.5947 84.3698 32.5947 86.7999C32.5947 89.2299 34.5647 91.1999 36.9948 91.1999Z" fill="white"/>
<path d="M36.9946 88.3997C37.8783 88.3997 38.5946 87.6834 38.5946 86.7997C38.5946 85.916 37.8783 85.1997 36.9946 85.1997C36.111 85.1997 35.3945 85.916 35.3945 86.7997C35.3945 87.6834 36.111 88.3997 36.9946 88.3997Z" fill="#5B5B5B"/>
<path d="M95.2201 161.036H135.62V97.3359H95.2201V161.036Z" fill="#E0E0E0"/>
<path d="M95.2201 161.036H135.62V97.3359H95.2201V161.036Z" stroke="#5B5B5B" stroke-width="1.5" stroke-miterlimit="10" stroke-linecap="round" stroke-linejoin="round"/>
<path d="M-69.0002 161.036L95.2998 161.036L95.2998 97.3359L-69.0002 97.3359V161.036Z" fill="currentColor"/>
<path d="M-69.0002 161.036L95.2998 161.036L95.2998 97.3359L-69.0002 97.3359V161.036Z" stroke="#5B5B5B" stroke-width="1.5" stroke-miterlimit="10" stroke-linecap="round" stroke-linejoin="round"/>
<path d="M65.0081 143.193L41.9697 150.599L45.1521 160.499L68.1904 153.094L65.0081 143.193Z" fill="white"/>
<path d="M65.0081 143.193L41.9697 150.599L45.1521 160.499L68.1904 153.094L65.0081 143.193Z" stroke="#5B5B5B" stroke-width="1.5" stroke-miterlimit="10" stroke-linecap="round" stroke-linejoin="round"/>
<path d="M42.2828 143.341L64.3828 143.244L64.3086 126.444L42.2086 126.541L42.2828 143.341Z" fill="white"/>
<path d="M42.2828 143.341L64.3828 143.244L64.3086 126.444L42.2086 126.541L42.2828 143.341Z" stroke="#5B5B5B" stroke-width="1.5" stroke-miterlimit="10" stroke-linecap="round" stroke-linejoin="round"/>
<path d="M44.6313 146.473L33.8037 133.628L17.9765 146.969L28.8041 159.814L44.6313 146.473Z" fill="white"/>
<path d="M44.6313 146.473L33.8037 133.628L17.9765 146.969L28.8041 159.814L44.6313 146.473Z" stroke="#5B5B5B" stroke-width="1.5" stroke-miterlimit="10" stroke-linecap="round" stroke-linejoin="round"/>
<path d="M19.3424 149.84L-4.44141 145.37L-6.36231 155.591L17.4215 160.061L19.3424 149.84Z" fill="white"/>
<path d="M19.3424 149.84L-4.44141 145.37L-6.36231 155.591L17.4215 160.061L19.3424 149.84Z" stroke="#5B5B5B" stroke-width="1.5" stroke-miterlimit="10" stroke-linecap="round" stroke-linejoin="round"/>
<path d="M121.472 160.697H128.972V150.997H121.472V160.697Z" fill="#E0E0E0"/>
<path d="M121.472 160.697H128.972V150.997H121.472V160.697Z" stroke="#5B5B5B" stroke-width="1.5" stroke-miterlimit="10" stroke-linecap="round" stroke-linejoin="round"/>
<path d="M121.395 151H107.495V160.7H121.395V151Z" fill="white"/>
<path d="M121.395 151H107.495V160.7H121.395V151Z" stroke="#5B5B5B" stroke-width="1.5" stroke-miterlimit="10" stroke-linecap="round" stroke-linejoin="round"/>
<path d="M105.653 151.784L111.609 148.302L103.031 133.626L97.0744 137.108L105.653 151.784Z" fill="#E0E0E0"/>
<path d="M105.653 151.784L111.609 148.302L103.031 133.626L97.0744 137.108L105.653 151.784Z" stroke="#5B5B5B" stroke-width="1.5" stroke-miterlimit="10" stroke-linecap="round" stroke-linejoin="round"/>
<path d="M97.0364 137.09L81.7559 146.022L90.3341 160.698L105.615 151.766L97.0364 137.09Z" fill="white"/>
<path d="M97.0364 137.09L81.7559 146.022L90.3341 160.698L105.615 151.766L97.0364 137.09Z" stroke="#5B5B5B" stroke-width="1.5" stroke-miterlimit="10" stroke-linecap="round" stroke-linejoin="round"/>
<path d="M71.1154 157.741L77.3232 160.752L84.7438 145.458L78.536 142.446L71.1154 157.741Z" fill="#E0E0E0"/>
<path d="M71.1154 157.741L77.3232 160.752L84.7438 145.458L78.536 142.446L71.1154 157.741Z" stroke="#5B5B5B" stroke-width="1.5" stroke-miterlimit="10" stroke-linecap="round" stroke-linejoin="round"/>
<path d="M78.5575 142.429L65.4219 136.056L58.0014 151.351L71.137 157.724L78.5575 142.429Z" fill="white"/>
<path d="M78.5575 142.429L65.4219 136.056L58.0014 151.351L71.137 157.724L78.5575 142.429Z" stroke="#5B5B5B" stroke-width="1.5" stroke-miterlimit="10" stroke-linecap="round" stroke-linejoin="round"/>
<path fill-rule="evenodd" clip-rule="evenodd" d="M135.75 58C136.164 58 136.5 58.3358 136.5 58.75L136.5 59.2636C136.5 59.6778 136.164 60.0136 135.75 60.0136C135.336 60.0136 135 59.6778 135 59.2636L135 58.75C135 58.3358 135.336 58 135.75 58ZM135.75 62.6227C136.164 62.6227 136.5 62.9585 136.5 63.3727L136.5 64.4C136.5 64.8142 136.164 65.15 135.75 65.15C135.336 65.15 135 64.8142 135 64.4L135 63.3727C135 62.9585 135.336 62.6227 135.75 62.6227ZM135.75 67.7591C136.164 67.7591 136.5 68.0949 136.5 68.5091L136.5 69.5364C136.5 69.9506 136.164 70.2864 135.75 70.2864C135.336 70.2864 135 69.9506 135 69.5364L135 68.5091C135 68.0949 135.336 67.7591 135.75 67.7591ZM135.75 72.8955C136.164 72.8955 136.5 73.2312 136.5 73.6455L136.5 74.6727C136.5 75.0869 136.164 75.4227 135.75 75.4227C135.336 75.4227 135 75.0869 135 74.6727L135 73.6455C135 73.2312 135.336 72.8955 135.75 72.8955ZM135.75 78.0318C136.164 78.0318 136.5 78.3676 136.5 78.7818L136.5 79.8091C136.5 80.2233 136.164 80.5591 135.75 80.5591C135.336 80.5591 135 80.2233 135 79.8091L135 78.7818C135 78.3676 135.336 78.0318 135.75 78.0318ZM135.75 83.1682C136.164 83.1682 136.5 83.504 136.5 83.9182L136.5 84.9455C136.5 85.3597 136.164 85.6955 135.75 85.6955C135.336 85.6955 135 85.3597 135 84.9455L135 83.9182C135 83.504 135.336 83.1682 135.75 83.1682ZM135.75 88.3045C136.164 88.3045 136.5 88.6403 136.5 89.0545L136.5 90.0818C136.5 90.496 136.164 90.8318 135.75 90.8318C135.336 90.8318 135 90.496 135 90.0818L135 89.0545C135 88.6403 135.336 88.3045 135.75 88.3045Z" fill="#EF5740"/>
<path d="M33.7197 42.5199H41.0997V43.9599H33.7197V42.5199Z" fill="#EF5740"/>
<path d="M47.5804 37.1199L50.6404 36.3999H52.0804V49H50.1004V38.0199H47.5804V37.1199Z" fill="#EF5740"/>
<path d="M56.7646 46.84V49H54.8746V46.84H56.7646Z" fill="#EF5740"/>
<path d="M66.1176 46.4799V38.92C66.1176 38.5599 65.9976 38.2599 65.7576 38.0199C65.5176 37.7799 65.2176 37.6599 64.8576 37.6599H62.5176C62.1576 37.6599 61.8576 37.7799 61.6176 38.0199C61.3776 38.2599 61.2576 38.5599 61.2576 38.92V46.4799C61.2576 46.8399 61.3776 47.1399 61.6176 47.3799C61.8576 47.6199 62.1576 47.74 62.5176 47.74H64.8576C65.2176 47.74 65.5176 47.6199 65.7576 47.3799C65.9976 47.1399 66.1176 46.8399 66.1176 46.4799ZM68.0976 38.92V46.4799C68.0976 47.32 67.8336 47.9799 67.3056 48.4599C66.7776 48.9399 66.0216 49.18 65.0376 49.18H62.3376C61.3536 49.18 60.5976 48.9399 60.0696 48.4599C59.5416 47.9799 59.2776 47.32 59.2776 46.4799V38.92C59.2776 38.0799 59.5416 37.4199 60.0696 36.9399C60.5976 36.4599 61.3536 36.2199 62.3376 36.2199H65.0376C66.0216 36.2199 66.7776 36.4599 67.3056 36.9399C67.8336 37.4199 68.0976 38.0799 68.0976 38.92Z" fill="#EF5740"/>
<path d="M76.8346 49.18H73.7746C72.7906 49.18 72.0346 48.9399 71.5066 48.4599C70.9786 47.9799 70.7146 47.32 70.7146 46.4799V44.41C70.7146 43.642 71.0446 43.0719 71.7046 42.6999C72.0166 42.5319 72.3466 42.412 72.6946 42.34V42.2499C72.3946 42.1779 72.1246 42.0699 71.8846 41.9259C71.3446 41.5779 71.0746 41.0859 71.0746 40.4499V38.92C71.0746 38.0799 71.3386 37.4199 71.8666 36.9399C72.3946 36.4599 73.1506 36.2199 74.1346 36.2199H76.4746C77.4586 36.2199 78.2146 36.4599 78.7426 36.9399C79.2706 37.4199 79.5346 38.0799 79.5346 38.92V40.4499C79.5346 41.0859 79.2646 41.5779 78.7246 41.9259C78.4846 42.0699 78.2146 42.1779 77.9146 42.2499V42.34C78.2506 42.412 78.5806 42.5319 78.9046 42.6999C79.5646 43.096 79.8946 43.666 79.8946 44.41V46.4799C79.8946 47.32 79.6306 47.9799 79.1026 48.4599C78.5746 48.9399 77.8186 49.18 76.8346 49.18ZM76.6546 43.1499H73.9546C73.5946 43.1499 73.2946 43.2699 73.0546 43.51C72.8146 43.7499 72.6946 44.05 72.6946 44.41V46.4799C72.6946 46.8399 72.8146 47.1399 73.0546 47.3799C73.2946 47.6199 73.5946 47.74 73.9546 47.74H76.6546C77.0146 47.74 77.3146 47.6199 77.5546 47.3799C77.7947 47.1399 77.9146 46.8399 77.9146 46.4799V44.41C77.9146 44.05 77.7947 43.7499 77.5546 43.51C77.3146 43.2699 77.0146 43.1499 76.6546 43.1499ZM76.2946 37.6599H74.3146C73.9546 37.6599 73.6546 37.7799 73.4146 38.0199C73.1746 38.2599 73.0546 38.5599 73.0546 38.92V40.4499C73.0546 40.8099 73.1746 41.1099 73.4146 41.3499C73.6546 41.5899 73.9546 41.7099 74.3146 41.7099H76.2946C76.6546 41.7099 76.9547 41.5899 77.1946 41.3499C77.4347 41.1099 77.5546 40.8099 77.5546 40.4499V38.92C77.5546 38.5599 77.4347 38.2599 77.1946 38.0199C76.9547 37.7799 76.6546 37.6599 76.2946 37.6599Z" fill="#EF5740"/>
<path d="M89.3383 46.4799V38.92C89.3383 38.5599 89.2183 38.2599 88.9783 38.0199C88.7383 37.7799 88.4383 37.6599 88.0783 37.6599H85.7383C85.3783 37.6599 85.0783 37.7799 84.8383 38.0199C84.5983 38.2599 84.4783 38.5599 84.4783 38.92V46.4799C84.4783 46.8399 84.5983 47.1399 84.8383 47.3799C85.0783 47.6199 85.3783 47.74 85.7383 47.74H88.0783C88.4383 47.74 88.7383 47.6199 88.9783 47.3799C89.2183 47.1399 89.3383 46.8399 89.3383 46.4799ZM91.3183 38.92V46.4799C91.3183 47.32 91.0543 47.9799 90.5263 48.4599C89.9983 48.9399 89.2423 49.18 88.2583 49.18H85.5583C84.5743 49.18 83.8183 48.9399 83.2903 48.4599C82.7623 47.9799 82.4983 47.32 82.4983 46.4799V38.92C82.4983 38.0799 82.7623 37.4199 83.2903 36.9399C83.8183 36.4599 84.5743 36.2199 85.5583 36.2199H88.2583C89.2423 36.2199 89.9983 36.4599 90.5263 36.9399C91.0543 37.4199 91.3183 38.0799 91.3183 38.92Z" fill="#EF5740"/>
<path d="M95.7354 46.84V49H93.8454V46.84H95.7354Z" fill="#EF5740"/>
<path d="M105.088 46.4799V38.92C105.088 38.5599 104.968 38.2599 104.728 38.0199C104.488 37.7799 104.188 37.6599 103.828 37.6599H101.488C101.128 37.6599 100.828 37.7799 100.588 38.0199C100.348 38.2599 100.228 38.5599 100.228 38.92V46.4799C100.228 46.8399 100.348 47.1399 100.588 47.3799C100.828 47.6199 101.128 47.74 101.488 47.74H103.828C104.188 47.74 104.488 47.6199 104.728 47.3799C104.968 47.1399 105.088 46.8399 105.088 46.4799ZM107.068 38.92V46.4799C107.068 47.32 106.804 47.9799 106.276 48.4599C105.748 48.9399 104.992 49.18 104.008 49.18H101.308C100.324 49.18 99.5683 48.9399 99.0403 48.4599C98.5123 47.9799 98.2483 47.32 98.2483 46.4799V38.92C98.2483 38.0799 98.5123 37.4199 99.0403 36.9399C99.5683 36.4599 100.324 36.2199 101.308 36.2199H104.008C104.992 36.2199 105.748 36.4599 106.276 36.9399C106.804 37.4199 107.068 38.0799 107.068 38.92Z" fill="#EF5740"/>
<path d="M116.795 46.4799V38.92C116.795 38.5599 116.675 38.2599 116.435 38.0199C116.195 37.7799 115.895 37.6599 115.535 37.6599H113.195C112.835 37.6599 112.535 37.7799 112.295 38.0199C112.055 38.2599 111.935 38.5599 111.935 38.92V46.4799C111.935 46.8399 112.055 47.1399 112.295 47.3799C112.535 47.6199 112.835 47.74 113.195 47.74H115.535C115.895 47.74 116.195 47.6199 116.435 47.3799C116.675 47.1399 116.795 46.8399 116.795 46.4799ZM118.775 38.92V46.4799C118.775 47.32 118.511 47.9799 117.983 48.4599C117.455 48.9399 116.699 49.18 115.715 49.18H113.015C112.031 49.18 111.275 48.9399 110.747 48.4599C110.219 47.9799 109.955 47.32 109.955 46.4799V38.92C109.955 38.0799 110.219 37.4199 110.747 36.9399C111.275 36.4599 112.031 36.2199 113.015 36.2199H115.715C116.699 36.2199 117.455 36.4599 117.983 36.9399C118.511 37.4199 118.775 38.0799 118.775 38.92Z" fill="#EF5740"/>
<path d="M128.502 46.4799V38.92C128.502 38.5599 128.382 38.2599 128.142 38.0199C127.902 37.7799 127.602 37.6599 127.242 37.6599H124.902C124.542 37.6599 124.242 37.7799 124.002 38.0199C123.762 38.2599 123.642 38.5599 123.642 38.92V46.4799C123.642 46.8399 123.762 47.1399 124.002 47.3799C124.242 47.6199 124.542 47.74 124.902 47.74H127.242C127.602 47.74 127.902 47.6199 128.142 47.3799C128.382 47.1399 128.502 46.8399 128.502 46.4799ZM130.482 38.92V46.4799C130.482 47.32 130.218 47.9799 129.69 48.4599C129.162 48.9399 128.406 49.18 127.422 49.18H124.722C123.738 49.18 122.982 48.9399 122.454 48.4599C121.926 47.9799 121.662 47.32 121.662 46.4799V38.92C121.662 38.0799 121.926 37.4199 122.454 36.9399C122.982 36.4599 123.738 36.2199 124.722 36.2199H127.422C128.406 36.2199 129.162 36.4599 129.69 36.9399C130.218 37.4199 130.482 38.0799 130.482 38.92Z" fill="#EF5740"/>
<path d="M139.072 49V46.552H137.506V45.382H139.072V43.7799H137.506V42.4119H139.072V36.1479H142.456C144.028 36.1479 145.192 36.4659 145.948 37.1019C146.716 37.7379 147.1 38.6619 147.1 39.8739C147.1 41.0979 146.686 42.0579 145.858 42.7539C145.03 43.4379 143.812 43.7799 142.204 43.7799H140.692V45.382H143.662V46.552H140.692V49H139.072ZM141.97 42.4119C143.062 42.4119 143.908 42.2319 144.508 41.8719C145.12 41.5119 145.426 40.8639 145.426 39.9279C145.426 39.1119 145.174 38.5059 144.67 38.1099C144.166 37.7139 143.38 37.5159 142.312 37.5159H140.692V42.4119H141.97Z" fill="#EF5740"/>
</g>
<defs>
<clipPath id="clip0">
<path d="M0 90C0 40.2944 40.2944 0 90 0C139.706 0 180 40.2944 180 90C180 139.706 139.706 180 90 180C40.2944 180 0 139.706 0 90Z" fill="white"/>
</clipPath>
</defs>
</svg>
