<svg width="121" height="28" viewBox="0 0 121 28" fill="none" xmlns="http://www.w3.org/2000/svg">
<g clip-path="url(#clip0)">
<path d="M34.4023 21.6973H37.7039V8.70558H41.9015V5.5994H34.4023V21.6973Z" fill="#A51537"/>
<path d="M74.3008 8.70558H77.6014V21.6973H80.9027V8.70558H84.2027V5.5994H74.3008V8.70558" fill="#A51537"/>
<path d="M6.55812 14.5025H3.22754V8.70632H6.55812V14.5025ZM0 5.5994V21.6973H3.22754V17.6092H7.42749L9.85988 15.2811V7.92652L7.53953 5.5994H0" fill="#A51537"/>
<path d="M18.9148 18.591H15.0449V8.70571H18.9148V18.591ZM14.0627 5.5994L11.7422 7.92652V19.3692L14.0642 21.6973H19.8928L22.2175 19.3692V7.92652L19.8928 5.5994H14.0627Z" fill="#A51537"/>
<path d="M27.6101 8.70627H32.2895V5.60009H26.6295L24.3086 7.92722V19.3701L26.6295 21.6992H32.3155V18.5917H27.6101V8.70627Z" fill="#A51537"/>
<path d="M50.0751 18.591H46.2049V8.70571H50.0751V18.591ZM45.2228 5.5994L42.9023 7.92652V19.3692L45.2244 21.6973H51.053L53.3776 19.3692V7.92652L51.053 5.5994H45.2228" fill="#A51537"/>
<path d="M92.4797 14.5025H89.1492V8.70632H92.4797V14.5025ZM85.9219 5.5994V21.6973H89.1492V17.6092H93.3496L95.7817 15.2811V7.92652L93.4615 5.5994H85.9219" fill="#A51537"/>
<path d="M58.7704 8.70627H63.4496V5.60009H57.7899L55.4688 7.92722V19.3701L57.7899 21.6992H63.4756V18.5917H58.7704V8.70627Z" fill="#A51537"/>
<path d="M68.3638 8.70627H73.0433V5.60009H67.3833L65.0625 7.92722V19.3701L67.3833 21.6992H73.0694V18.5917H68.3638V8.70627Z" fill="#A51537"/>
<path d="M117.87 13.4446L120.217 5.59941H116.908L115.123 11.681H114.528L112.743 5.59941H109.434L111.787 13.4785L109.402 21.6973H112.665L114.559 15.3491H115.092L116.988 21.6973H120.248L117.87 13.4446Z" fill="#A51537"/>
<path d="M100.975 14.8358L102.172 8.70569H102.802L104 14.8358H100.975ZM105.34 21.6973H108.662L105.349 5.59941H99.7074L96.3945 21.6973H99.6347L100.384 17.8598H104.591L105.34 21.6973Z" fill="#A51537"/>
</g>
<defs>
<clipPath id="clip0">
<rect width="120.4" height="28" fill="white"/>
</clipPath>
</defs>
</svg>
