<svg width="38" height="11" viewBox="0 0 38 11" fill="none" xmlns="http://www.w3.org/2000/svg">
<path d="M23 7H37V10H23V7Z" fill="#DB3B43"/>
<path d="M23 4H37V7H23V4Z" fill="#0167B2"/>
<path d="M23 1H37V4H23V1Z" fill="white"/>
<path d="M5.38 8.556H4.453L3.848 6.826C3.79319 6.68017 3.71921 6.5423 3.628 6.416C3.538 6.289 3.431 6.181 3.311 6.09C3.191 5.999 3.058 5.928 2.909 5.878C2.75758 5.82698 2.59878 5.8013 2.439 5.802H0.854V8.556H0V2.11H2.856C3.029 2.11 3.193 2.114 3.349 2.122C3.504 2.132 3.653 2.148 3.794 2.177C3.937 2.202 4.07 2.243 4.197 2.299C4.324 2.355 4.443 2.431 4.557 2.529C4.752 2.701 4.901 2.909 5.001 3.153C5.101 3.397 5.151 3.649 5.151 3.91C5.151 4.135 5.119 4.342 5.051 4.53C4.986 4.72 4.891 4.887 4.766 5.033C4.639 5.18 4.486 5.303 4.308 5.403C4.13 5.503 3.928 5.577 3.701 5.619V5.634C4.151 5.774 4.495 6.164 4.736 6.801L5.376 8.554L5.38 8.556ZM0.855 5.03H2.77C3.033 5.03 3.26 5.01 3.45 4.97C3.64 4.932 3.797 4.868 3.92 4.78C4.04037 4.69288 4.13335 4.57318 4.188 4.435C4.246 4.291 4.274 4.118 4.274 3.913C4.274 3.543 4.16 3.267 3.932 3.09C3.705 2.912 3.359 2.823 2.898 2.823H0.854V5.03H0.855ZM9.038 8.668C8.641 8.668 8.303 8.628 8.022 8.548C7.77024 8.48174 7.53222 8.37137 7.319 8.222C7.129 8.082 6.979 7.922 6.873 7.735C6.767 7.548 6.685 7.352 6.629 7.142C6.57333 6.92922 6.5385 6.71153 6.525 6.492C6.51029 6.27364 6.50296 6.05485 6.503 5.836V2.11H7.357V5.82C7.357 6.254 7.394 6.605 7.469 6.876C7.544 7.147 7.652 7.356 7.794 7.509C7.934 7.659 8.11 7.765 8.318 7.819C8.526 7.873 8.763 7.904 9.034 7.904C9.307 7.904 9.549 7.877 9.757 7.821C9.965 7.765 10.139 7.663 10.281 7.509C10.421 7.356 10.529 7.145 10.601 6.874C10.673 6.603 10.707 6.254 10.707 5.824V2.114H11.567V5.838C11.567 6.284 11.529 6.682 11.453 7.032C11.3883 7.35497 11.2516 7.65919 11.053 7.922C10.863 8.162 10.603 8.349 10.276 8.478C9.949 8.605 9.536 8.67 9.033 8.67L9.038 8.668ZM15.444 8.668C15.0405 8.67499 14.6384 8.62105 14.251 8.508C13.9406 8.41488 13.6517 8.26127 13.401 8.056C13.176 7.862 13.005 7.631 12.887 7.366C12.769 7.101 12.707 6.803 12.697 6.481H13.517C13.539 6.725 13.605 6.937 13.712 7.116C13.819 7.295 13.958 7.443 14.126 7.56C14.293 7.677 14.486 7.763 14.704 7.82C14.922 7.877 15.156 7.902 15.404 7.902C15.644 7.902 15.864 7.877 16.06 7.826C16.256 7.776 16.425 7.703 16.565 7.606C16.705 7.51 16.815 7.396 16.891 7.259C16.9676 7.1201 17.0065 6.9636 17.004 6.805C17.0084 6.64857 16.9726 6.49364 16.9 6.355C16.8163 6.21958 16.6979 6.10907 16.557 6.035C16.3609 5.92793 16.1528 5.84468 15.937 5.787C15.681 5.715 15.367 5.639 14.992 5.56C14.6728 5.49261 14.3598 5.39895 14.056 5.28C13.8228 5.19148 13.6051 5.0666 13.411 4.91C13.241 4.77 13.118 4.606 13.037 4.424C12.956 4.242 12.915 4.03 12.915 3.789C12.915 3.531 12.971 3.293 13.081 3.072C13.191 2.852 13.347 2.664 13.549 2.506C13.751 2.349 13.992 2.226 14.274 2.136C14.558 2.046 14.869 2 15.211 2C15.571 2 15.901 2.045 16.199 2.133C16.499 2.221 16.755 2.349 16.969 2.516C17.187 2.684 17.357 2.886 17.479 3.126C17.601 3.366 17.666 3.636 17.676 3.94H16.851C16.763 3.16 16.229 2.772 15.249 2.772C14.769 2.772 14.401 2.862 14.144 3.039C14.0219 3.11461 13.9216 3.22083 13.8532 3.34713C13.7848 3.47342 13.7506 3.61541 13.754 3.759C13.754 3.894 13.778 4.009 13.824 4.106C13.874 4.203 13.954 4.288 14.069 4.36C14.185 4.435 14.339 4.5 14.526 4.56C14.714 4.62 14.951 4.68 15.234 4.74C15.426 4.78 15.624 4.82 15.827 4.867C16.031 4.913 16.229 4.969 16.423 5.035C16.617 5.102 16.8 5.182 16.97 5.277C17.14 5.372 17.29 5.485 17.417 5.619C17.547 5.752 17.647 5.909 17.723 6.092C17.799 6.275 17.835 6.488 17.835 6.732C17.835 7.015 17.775 7.276 17.657 7.512C17.537 7.75 17.372 7.954 17.159 8.126C16.944 8.296 16.691 8.43 16.399 8.526C16.106 8.62 15.789 8.668 15.442 8.668H15.444Z" fill="black"/>
</svg>
