<svg width="88" height="88" viewBox="0 0 88 88" fill="none" xmlns="http://www.w3.org/2000/svg">
    <circle cx="44" cy="44" r="44" fill="#F2F2F2"/>
    <mask id="mask0" mask-type="alpha" maskUnits="userSpaceOnUse" x="0" y="0" width="88" height="88">
        <circle cx="44" cy="44" r="44" fill="white"/>
    </mask>
    <g mask="url(#mask0)">
        <path d="M73.2199 98.7378L61.2747 100.191L57.562 73.9864C57.0239 70.3813 59.5528 67.0452 63.1579 66.561C66.763 66.0767 70.0991 68.5518 70.5834 72.1569C70.5834 72.2645 70.6372 72.3722 70.6372 72.426L73.2199 98.7378Z" fill="#E0E0E0"/>
        <path d="M61.1671 99.2747L57.562 73.9852C57.0239 70.3801 59.5528 67.044 63.1579 66.5598C66.763 66.0217 70.0991 68.5506 70.5834 72.1557C70.5834 72.2633 70.5834 72.371 70.6372 72.4248L73.2199 98.7366" stroke="#5B5B5B" stroke-width="0.910714" stroke-miterlimit="10" stroke-linecap="round" stroke-linejoin="round"/>
        <path d="M14.3589 98.7378L26.1616 100.191L29.83 73.9864C30.3617 70.3813 27.8629 67.0452 24.3008 66.561C20.7388 66.0767 17.4425 68.5518 16.964 72.1569C16.964 72.2645 16.9109 72.3722 16.9109 72.426L14.3589 98.7378Z" fill="#E0E0E0"/>
        <path d="M26.267 99.2747L29.829 73.9852C30.3607 70.3801 27.8619 67.044 24.2999 66.5598C20.7378 66.0217 17.4415 68.5506 16.963 72.1557C16.963 72.2633 16.963 72.371 16.9099 72.4248L14.3579 98.7366" stroke="#5B5B5B" stroke-width="0.910714" stroke-miterlimit="10" stroke-linecap="round" stroke-linejoin="round"/>
        <path d="M63.6953 121.82H23.5011L21.2412 66.7213L43.1946 62.1477L65.9552 66.7213L63.6953 121.82Z" fill="#E0E0E0"/>
        <path d="M65.9552 66.7213L63.6953 121.82H23.5011L21.2412 66.7213L36.0383 63.6543L43.1946 62.1477L50.6739 63.6543L65.9552 66.7213Z" stroke="#5B5B5B" stroke-width="0.910714" stroke-miterlimit="10" stroke-linecap="round" stroke-linejoin="round"/>
        <path d="M50.6739 64.4076C50.6739 68.4432 47.3917 71.7792 43.3023 71.7792C39.2667 71.7792 35.9307 68.497 35.9307 64.4076C35.9307 64.1386 35.9307 63.8695 35.9845 63.6543L43.1409 62.1477L50.6201 63.6543C50.6739 63.9233 50.6739 64.1924 50.6739 64.4076Z" stroke="#5B5B5B" stroke-width="0.910714" stroke-miterlimit="10" stroke-linecap="round" stroke-linejoin="round"/>
        <path d="M43.3571 69.9498C40.1287 69.9498 37.5459 67.3671 37.5459 64.1386V57.6279H49.1683V64.1386C49.1683 67.3671 46.5318 69.9498 43.3571 69.9498Z" fill="white"/>
        <path d="M43.3571 69.9498C40.1287 69.9498 37.5459 67.3671 37.5459 64.1386V57.6279H49.1683V64.1386C49.1683 67.3671 46.5318 69.9498 43.3571 69.9498Z" stroke="#5B5B5B" stroke-width="0.910714" stroke-miterlimit="10" stroke-linecap="round" stroke-linejoin="round"/>
        <path d="M35.7702 23.998H33.6717C31.1427 23.998 29.1518 26.2041 29.4209 28.7331V40.2479C29.4209 41.2164 30.228 42.0235 31.1965 42.0235H31.2503L35.7702 23.998Z" fill="#E0E0E0"/>
        <path d="M35.7702 23.998H33.6717C31.1427 23.998 29.1518 26.2041 29.4209 28.7331V40.2479C29.4209 41.2164 30.228 42.0235 31.1965 42.0235H31.2503L35.7702 23.998Z" stroke="#5B5B5B" stroke-width="0.910714" stroke-miterlimit="10" stroke-linecap="round" stroke-linejoin="round"/>
        <path d="M56.3789 48.5344C56.4327 54.8837 51.2672 60.0492 44.9179 60.0492H41.9585C35.7169 60.0492 30.6052 55.0451 30.4976 48.8034C30.4976 48.642 30.4976 48.4806 30.4976 48.2654L30.659 42.1851L30.8204 35.4054C30.9818 30.0784 35.3402 25.8276 40.6672 25.8276H55.7871L56.2175 42.8846L56.3789 48.2654C56.3789 48.373 56.3789 48.4268 56.3789 48.5344Z" fill="white"/>
        <path d="M56.3789 48.5344C56.4327 54.8837 51.2672 60.0492 44.9179 60.0492H41.9585C35.7169 60.0492 30.6052 55.0451 30.4976 48.8034C30.4976 48.642 30.4976 48.4806 30.4976 48.2654L30.659 42.1851L30.8204 35.4054C30.9818 30.0784 35.3402 25.8276 40.6672 25.8276H55.7871L56.2175 42.8846L56.3789 48.2654C56.3789 48.373 56.3789 48.4268 56.3789 48.5344Z" stroke="#5B5B5B" stroke-width="0.910714" stroke-miterlimit="10" stroke-linecap="round" stroke-linejoin="round"/>
        <path d="M30.6587 42.1853L30.4973 48.2655C30.4973 48.4269 30.4973 48.6422 30.4973 48.8036C29.3673 48.8036 28.2373 47.5122 28.0221 45.6827C27.7531 43.7995 28.5602 42.1853 29.7439 42.0238C30.0668 41.97 30.3896 42.0238 30.6587 42.1853Z" fill="white"/>
        <path d="M59.7152 45.6826C59.4461 47.5659 58.2624 48.911 57.0786 48.7496C56.8634 48.6958 56.5943 48.642 56.4329 48.4806C56.4329 48.373 56.4329 48.3192 56.4329 48.2654L56.2715 42.8846C56.7558 42.2927 57.4014 41.9161 57.9933 42.0237C59.2309 42.1851 59.9842 43.8531 59.7152 45.6826Z" fill="white"/>
        <path d="M30.6587 42.1853L30.4973 48.2655C30.4973 48.4269 30.4973 48.6422 30.4973 48.8036C29.3673 48.8036 28.2373 47.5122 28.0221 45.6827C27.7531 43.7995 28.5602 42.1853 29.7439 42.0238C30.0668 41.97 30.3896 42.0238 30.6587 42.1853Z" stroke="#5B5B5B" stroke-width="0.910714" stroke-miterlimit="10" stroke-linecap="round" stroke-linejoin="round"/>
        <path d="M59.7152 45.6826C59.4461 47.5659 58.2624 48.911 57.0786 48.7496C56.8634 48.6958 56.5943 48.642 56.4329 48.4806C56.4329 48.373 56.4329 48.3192 56.4329 48.2654L56.2715 42.8846C56.7558 42.2927 57.4014 41.9161 57.9933 42.0237C59.2309 42.1851 59.9842 43.8531 59.7152 45.6826Z" stroke="#5B5B5B" stroke-width="0.910714" stroke-miterlimit="10" stroke-linecap="round" stroke-linejoin="round"/>
        <path d="M47.0157 61.179H39.2136C33.6176 61.179 29.1516 56.4977 29.4745 50.9017L29.9587 41.8621H30.712V42.0235C30.712 45.0905 31.4115 47.8347 32.4339 49.5027C33.7253 48.8032 35.5009 48.3728 37.438 48.3728C37.5994 48.3728 37.7608 48.3728 37.9222 48.3728C38.8908 48.4266 39.8055 48.5342 40.6126 48.8032C41.4197 49.0185 42.2268 49.1261 43.0339 49.1261C47 47 49.5 46.5 53.634 49.5027C54.7102 47.8347 55.302 45.0905 55.302 42.0235L55.3558 41.8621H56.1091L56.5934 50.9017C57.0239 56.4977 52.6117 61.179 47.0157 61.179Z" fill="#E0E0E0"/>
        <path d="M47.0157 61.179H39.2136C33.6176 61.179 29.1516 56.4977 29.4745 50.9017L29.9587 41.8621H30.712V42.0235C30.712 45.0905 31.4115 47.8347 32.4339 49.5027C33.7253 48.8032 35.5009 48.3728 37.438 48.3728C37.5994 48.3728 37.7608 48.3728 37.9222 48.3728C38.8908 48.4266 39.8055 48.5342 40.6126 48.8032C43.6528 49.6139 45.3386 47.5287 48.1457 47.3728C48.3071 47.3728 48.4685 47.3728 48.6299 47.3728C50.6208 47.3728 52.3964 48.8032 53.634 49.5027C54.7102 47.8347 55.302 45.0905 55.302 42.0235L55.3558 41.8621H56.1091L56.5934 50.9017C57.0239 56.4977 52.6117 61.179 47.0157 61.179Z" stroke="#5B5B5B" stroke-width="0.910714" stroke-miterlimit="10" stroke-linecap="round" stroke-linejoin="round"/>
        <path d="M36 44C36.5523 44 37 43.3284 37 42.5C37 41.6716 36.5523 41 36 41C35.4477 41 35 41.6716 35 42.5C35 43.3284 35.4477 44 36 44Z" fill="#5B5B5B"/>
        <path d="M33.8867 41.7541C34.371 41.2699 35.0705 40.947 35.8776 40.947C37.169 40.947 38.2989 41.8079 38.568 42.9917" stroke="#5B5B5B" stroke-width="0.455357" stroke-miterlimit="10" stroke-linecap="round"/>
        <path d="M49.5501 43.0944C50.3774 43.0521 51.0365 42.79 51.0221 42.5089C51.0077 42.2279 50.3254 42.0343 49.4981 42.0765C48.6707 42.1188 48.0116 42.3809 48.026 42.662C48.0404 42.9431 48.7227 43.1367 49.5501 43.0944Z" fill="#5B5B5B"/>
        <path d="M52.1001 41.5785C50.4131 39.8915 48.0766 40.602 46.6001 42.0785" stroke="#5B5B5B" stroke-width="0.455357" stroke-miterlimit="10" stroke-linecap="round"/>
        <path d="M48.7373 50.3633C51.4998 56.4999 37.9005 57.5731 36.792 52.3633C39.0945 53.0211 44.9998 52.9999 48.7373 50.3633Z" fill="white"/>
        <path d="M48.7373 50.3633C51.9998 56.4999 37.9005 57.5731 36.792 52.3633C39.0945 53.0211 44.9998 52.9999 48.7373 50.3633Z" stroke="#5B5B5B" stroke-width="0.910714" stroke-miterlimit="10" stroke-linecap="round" stroke-linejoin="round"/>
        <path d="M46.5869 37.4414C47.5086 37.1387 48.5378 37.03 49.5811 36.9733C50.6243 36.9166 51.6953 36.9639 52.7942 37.1151L52.8462 37.1011C52.9641 37.1253 53.0541 37.0454 53.0782 36.9276C53.1024 36.8097 53.0745 36.7057 52.9427 36.6296C51.9301 36.1768 50.8794 35.7899 49.7526 35.5347C48.6778 35.2657 47.513 35.0764 46.286 35.071L45.6206 35.0822C45.059 35.0655 44.6507 35.6206 44.8559 36.1783L45.075 36.7881C45.2801 37.3459 45.9252 37.6744 46.483 37.4692L46.5869 37.4414Z" fill="#5B5B5B"/>
        <path d="M39.0302 35.9804C38.0807 36.1791 36.635 35.7336 35.7032 36.2061C34.733 36.6981 33.8716 37.8718 33.4394 38.8154C33.3494 38.8952 33.2315 38.8711 33.1517 38.7811C31.1442 36.5173 39.4323 31.3275 39.8978 34.0211L40.013 34.6587C40.1142 35.2443 39.7198 35.8514 39.1341 35.9526L39.0302 35.9804Z" fill="#5B5B5B"/>
        <path d="M41.3657 57.4124C41.7962 57.5738 42.3881 57.6814 43.0338 57.6814C43.6794 57.6814 44.2713 57.5738 44.7018 57.4124" stroke="#5B5B5B" stroke-width="0.910714" stroke-miterlimit="10" stroke-linecap="round" stroke-linejoin="round"/>
        <path d="M54.0649 23.998H58.6386L57.401 40.4631C57.3472 41.324 56.5939 42.0235 55.733 42.0235H55.4101L54.0649 23.998Z" fill="#E0E0E0"/>
        <path d="M58.6917 23.9982V22.9221C58.6917 21.5231 57.5618 20.3393 56.109 20.3393L55.7861 16.788L54.1181 19.4246C51.5353 15.9271 47.446 13.8286 43.0876 13.8286H38.2987L38.9444 15.389L32.918 13.8286V21.8997C32.918 26.4196 36.5769 30.0784 41.0967 30.0784H54.4947L58.6917 23.9982Z" fill="#E0E0E0"/>
        <path d="M56.109 20.3393L55.7861 16.788L54.1181 19.4246C51.5353 15.9271 47.446 13.8286 43.0876 13.8286H38.2987L38.9444 15.389L32.918 13.8286V21.8997C32.918 26.4196 36.5769 30.0784 41.0967 30.0784H54.4947L55.4095 41.9699H55.7323C56.5932 41.9699 57.3465 41.3242 57.4004 40.4095L58.6379 23.9444V22.8683C58.6917 21.4693 57.508 20.3393 56.109 20.3393Z" stroke="#5B5B5B" stroke-width="0.910714" stroke-miterlimit="10" stroke-linecap="round" stroke-linejoin="round"/>
    </g>
</svg>
