<svg width="88" height="88" viewBox="0 0 88 88" fill="none" xmlns="http://www.w3.org/2000/svg">
    <circle cx="44" cy="44" r="44" fill="#F2F2F2"/>
    <mask id="mask0" mask-type="alpha" maskUnits="userSpaceOnUse" x="0" y="0" width="88" height="88">
        <circle cx="44" cy="44" r="44" fill="#F7FCFC"/>
    </mask>
    <g mask="url(#mask0)">
        <path d="M73.2199 98.7377L61.2747 100.19L57.562 73.9863C57.0239 70.3812 59.5528 67.0451 63.1579 66.5608C66.763 66.0766 70.0991 68.5517 70.5834 72.1568C70.5834 72.2644 70.6372 72.372 70.6372 72.4258L73.2199 98.7377Z" fill="#E0E0E0"/>
        <path d="M61.1669 99.2745L57.5618 73.985C57.0238 70.38 59.5527 67.0439 63.1578 66.5596C66.7629 66.0216 70.099 68.5505 70.5832 72.1556C70.5832 72.2632 70.5832 72.3708 70.637 72.4246L73.2198 98.7365" stroke="#5B5B5B" stroke-width="0.910714" stroke-miterlimit="10" stroke-linecap="round" stroke-linejoin="round"/>
        <path d="M14.359 98.7377L26.1617 100.19L29.8301 73.9863C30.3618 70.3812 27.863 67.0451 24.301 66.5608C20.7389 66.0766 17.4426 68.5517 16.9641 72.1568C16.9641 72.2644 16.911 72.372 16.911 72.4258L14.359 98.7377Z" fill="#E0E0E0"/>
        <path d="M26.2673 99.2745L29.8294 73.985C30.3611 70.38 27.8623 67.0439 24.3002 66.5596C20.7381 66.0216 17.4419 68.5505 16.9634 72.1556C16.9634 72.2632 16.9634 72.3708 16.9102 72.4246L14.3583 98.7365" stroke="#5B5B5B" stroke-width="0.910714" stroke-miterlimit="10" stroke-linecap="round" stroke-linejoin="round"/>
        <path d="M63.6953 121.82H23.5011L21.2412 66.7213L43.1946 62.1477L65.9552 66.7213L63.6953 121.82Z" fill="#E0E0E0"/>
        <path d="M65.9552 66.7213L63.6953 121.82H23.5011L21.2412 66.7213L36.0383 63.6543L43.1946 62.1477L50.6739 63.6543L65.9552 66.7213Z" stroke="#5B5B5B" stroke-width="0.910714" stroke-miterlimit="10" stroke-linecap="round" stroke-linejoin="round"/>
        <path d="M50.6743 64.4076C50.6743 68.4432 47.392 71.7792 43.3027 71.7792C39.2671 71.7792 35.931 68.497 35.931 64.4076C35.931 64.1386 35.931 63.8695 35.9848 63.6543L43.1412 62.1477L50.6205 63.6543C50.6743 63.9233 50.6743 64.1924 50.6743 64.4076Z" stroke="#5B5B5B" stroke-width="0.910714" stroke-miterlimit="10" stroke-linecap="round" stroke-linejoin="round"/>
        <path d="M43.357 69.9497C40.1285 69.9497 37.5458 67.367 37.5458 64.1385V57.6278H49.1682V64.1385C49.1682 67.367 46.5316 69.9497 43.357 69.9497Z" fill="white"/>
        <path d="M43.357 69.9497C40.1285 69.9497 37.5458 67.367 37.5458 64.1385V57.6278H49.1682V64.1385C49.1682 67.367 46.5316 69.9497 43.357 69.9497Z" stroke="#5B5B5B" stroke-width="0.910714" stroke-miterlimit="10" stroke-linecap="round" stroke-linejoin="round"/>
        <path d="M35.77 23.9979H33.6716C31.1426 23.9979 29.1517 26.204 29.4208 28.733V40.2478C29.4208 41.2163 30.2279 42.0234 31.1964 42.0234H31.2502L35.77 23.9979Z" fill="#E0E0E0"/>
        <path d="M35.77 23.9979H33.6716C31.1426 23.9979 29.1517 26.204 29.4208 28.733V40.2478C29.4208 41.2163 30.2279 42.0234 31.1964 42.0234H31.2502L35.77 23.9979Z" stroke="#5B5B5B" stroke-width="0.910714" stroke-miterlimit="10" stroke-linecap="round" stroke-linejoin="round"/>
        <path d="M56.3788 48.5343C56.4326 54.8836 51.2671 60.0491 44.9178 60.0491H41.9584C35.7168 60.0491 30.6051 55.045 30.4974 48.8033C30.4974 48.6419 30.4974 48.4805 30.4974 48.2652L30.6589 42.185L30.8203 35.4052C30.9817 30.0783 35.3401 25.8275 40.667 25.8275H55.7869L56.2174 42.8845L56.3788 48.2652C56.3788 48.3728 56.3788 48.4267 56.3788 48.5343Z" fill="white"/>
        <path d="M56.3788 48.5343C56.4326 54.8836 51.2671 60.0491 44.9178 60.0491H41.9584C35.7168 60.0491 30.6051 55.045 30.4974 48.8033C30.4974 48.6419 30.4974 48.4805 30.4974 48.2652L30.6589 42.185L30.8203 35.4052C30.9817 30.0783 35.3401 25.8275 40.667 25.8275H55.7869L56.2174 42.8845L56.3788 48.2652C56.3788 48.3728 56.3788 48.4267 56.3788 48.5343Z" stroke="#5B5B5B" stroke-width="0.910714" stroke-miterlimit="10" stroke-linecap="round" stroke-linejoin="round"/>
        <path d="M30.6587 42.1851L30.4973 48.2654C30.4973 48.4268 30.4973 48.642 30.4973 48.8035C29.3673 48.8035 28.2373 47.5121 28.0221 45.6826C27.7531 43.7994 28.5602 42.1851 29.7439 42.0237C30.0668 41.9699 30.3896 42.0237 30.6587 42.1851Z" fill="white"/>
        <path d="M59.7149 45.6823C59.4459 47.5656 58.2621 48.9108 57.0784 48.7494C56.8631 48.6956 56.5941 48.6418 56.4327 48.4803C56.4327 48.3727 56.4327 48.3189 56.4327 48.2651L56.2712 42.8844C56.7555 42.2925 57.4012 41.9158 57.9931 42.0234C59.2306 42.1849 59.984 43.8529 59.7149 45.6823Z" fill="white"/>
        <path d="M30.6587 42.1851L30.4973 48.2654C30.4973 48.4268 30.4973 48.642 30.4973 48.8035C29.3673 48.8035 28.2373 47.5121 28.0221 45.6826C27.7531 43.7994 28.5602 42.1851 29.7439 42.0237C30.0668 41.9699 30.3896 42.0237 30.6587 42.1851Z" stroke="#5B5B5B" stroke-width="0.910714" stroke-miterlimit="10" stroke-linecap="round" stroke-linejoin="round"/>
        <path d="M59.7149 45.6823C59.4459 47.5656 58.2621 48.9108 57.0784 48.7494C56.8631 48.6956 56.5941 48.6418 56.4327 48.4803C56.4327 48.3727 56.4327 48.3189 56.4327 48.2651L56.2712 42.8844C56.7555 42.2925 57.4012 41.9158 57.9931 42.0234C59.2306 42.1849 59.984 43.8529 59.7149 45.6823Z" stroke="#5B5B5B" stroke-width="0.910714" stroke-miterlimit="10" stroke-linecap="round" stroke-linejoin="round"/>
        <path d="M47.0157 61.1788H39.2136C33.6176 61.1788 29.1516 56.4976 29.4745 50.9016L29.9587 41.8619H30.712V42.0234C30.712 45.0904 31.4115 47.8346 32.4339 49.5026C33.7253 48.8031 35.5009 48.3726 37.438 48.3726C37.5994 48.3726 37.7608 48.3726 37.9222 48.3726C38.8908 48.4265 39.8055 48.5341 40.6126 48.8031C41.4197 49.0183 42.2268 49.1259 43.0339 49.1259C43.8411 49.1259 44.6482 49.0183 45.4553 48.8031C46.2624 48.5879 47.1771 48.4265 48.1457 48.3726C48.3071 48.3726 48.4685 48.3726 48.6299 48.3726C50.6208 48.3726 52.3964 48.8031 53.634 49.5026C54.7102 47.8346 55.302 45.0904 55.302 42.0234L55.3558 41.8619H56.1091L56.5934 50.9016C57.0239 56.4976 52.6117 61.1788 47.0157 61.1788Z" fill="#E0E0E0"/>
        <path d="M47.0157 61.1788H39.2136C33.6176 61.1788 29.1516 56.4976 29.4745 50.9016L29.9587 41.8619H30.712V42.0234C30.712 45.0904 31.4115 47.8346 32.4339 49.5026C33.7253 48.8031 35.5009 48.3726 37.438 48.3726C37.5994 48.3726 37.7608 48.3726 37.9222 48.3726C38.8908 48.4265 39.8055 48.5341 40.6126 48.8031C41.4197 49.0183 42.2268 49.1259 43.0339 49.1259C43.8411 49.1259 44.6482 49.0183 45.4553 48.8031C46.2624 48.5879 47.1771 48.4265 48.1457 48.3726C48.3071 48.3726 48.4685 48.3726 48.6299 48.3726C50.6208 48.3726 52.3964 48.8031 53.634 49.5026C54.7102 47.8346 55.302 45.0904 55.302 42.0234L55.3558 41.8619H56.1091L56.5934 50.9016C57.0239 56.4976 52.6117 61.1788 47.0157 61.1788Z" stroke="#5B5B5B" stroke-width="0.910714" stroke-miterlimit="10" stroke-linecap="round" stroke-linejoin="round"/>
        <path d="M35.9999 43.9999C36.5522 43.9999 36.9999 43.3283 36.9999 42.4999C36.9999 41.6714 36.5522 40.9999 35.9999 40.9999C35.4476 40.9999 34.9999 41.6714 34.9999 42.4999C34.9999 43.3283 35.4476 43.9999 35.9999 43.9999Z" fill="#5B5B5B"/>
        <path d="M33.8868 41.754C34.3711 41.2697 35.0706 40.9469 35.8777 40.9469C37.1691 40.9469 38.2991 41.8078 38.5681 42.9916" stroke="#5B5B5B" stroke-width="0.455357" stroke-miterlimit="10" stroke-linecap="round"/>
        <path d="M49.9999 43.9999C50.5522 43.9999 50.9999 43.3283 50.9999 42.4999C50.9999 41.6714 50.5522 40.9999 49.9999 40.9999C49.4476 40.9999 48.9999 41.6714 48.9999 42.4999C48.9999 43.3283 49.4476 43.9999 49.9999 43.9999Z" fill="#5B5B5B"/>
        <path d="M52.1819 41.754C51.6976 41.2697 50.9981 40.9469 50.191 40.9469C48.8996 40.9469 47.7696 41.8078 47.5006 42.9916" stroke="#5B5B5B" stroke-width="0.455357" stroke-miterlimit="10" stroke-linecap="round"/>
        <path d="M37.0546 55.7755C37.5927 53.2466 39.7988 51.3633 42.4892 51.3633L43.5653 51.3633C46.2557 51.3633 48.4618 53.2466 48.9999 55.7755C47.4933 55.3451 45.3948 55.0222 43.0272 55.0222C40.6597 55.076 38.5074 55.3451 37.0546 55.7755Z" fill="white"/>
        <path d="M37.0546 55.7755C37.5927 53.2466 39.7988 51.3633 42.4892 51.3633L43.5653 51.3633C46.2557 51.3633 48.4618 53.2466 48.9999 55.7755C47.4933 55.3451 45.3948 55.0222 43.0272 55.0222C40.6597 55.076 38.5074 55.3451 37.0546 55.7755Z" stroke="#5B5B5B" stroke-width="0.910714" stroke-miterlimit="10" stroke-linecap="round" stroke-linejoin="round"/>
        <path d="M46.6436 35.9803C47.5931 36.179 49.0388 35.7335 49.9706 36.206C50.9408 36.698 51.8022 37.8717 52.2345 38.8153C52.3245 38.8951 52.4423 38.871 52.5222 38.781C54.5296 36.5172 46.2415 31.3274 45.776 34.0209L45.6609 34.6586C45.5597 35.2442 45.9541 35.8512 46.5397 35.9524L46.6436 35.9803Z" fill="#5B5B5B"/>
        <path d="M39.0302 35.9803C38.0807 36.179 36.635 35.7335 35.7032 36.206C34.733 36.698 33.8716 37.8717 33.4394 38.8153C33.3494 38.8951 33.2315 38.871 33.1517 38.781C31.1442 36.5172 39.4323 31.3274 39.8978 34.0209L40.013 34.6586C40.1142 35.2442 39.7198 35.8512 39.1341 35.9524L39.0302 35.9803Z" fill="#5B5B5B"/>
        <path d="M41.3658 57.4122C41.7963 57.5737 42.3882 57.6813 43.0339 57.6813C43.6796 57.6813 44.2714 57.5737 44.7019 57.4122" stroke="#5B5B5B" stroke-width="0.910714" stroke-miterlimit="10" stroke-linecap="round" stroke-linejoin="round"/>
        <path d="M54.0647 23.9979H58.6383L57.4008 40.463C57.347 41.3239 56.5937 42.0234 55.7327 42.0234H55.4099L54.0647 23.9979Z" fill="#E0E0E0"/>
        <path d="M58.6917 23.9981V22.9219C58.6917 21.523 57.5618 20.3392 56.109 20.3392L55.7861 16.7879L54.1181 19.4245C51.5353 15.927 47.446 13.8285 43.0876 13.8285H38.2987L38.9444 15.3889L32.918 13.8285V21.8996C32.918 26.4194 36.5769 30.0783 41.0967 30.0783H54.4947L58.6917 23.9981Z" fill="#E0E0E0"/>
        <path d="M56.109 20.3392L55.7861 16.7879L54.1181 19.4245C51.5353 15.927 47.446 13.8285 43.0876 13.8285H38.2987L38.9444 15.3889L32.918 13.8285V21.8996C32.918 26.4194 36.5769 30.0783 41.0967 30.0783H54.4947L55.4095 41.9698H55.7323C56.5932 41.9698 57.3465 41.3241 57.4004 40.4094L58.6379 23.9443V22.8681C58.6917 21.4691 57.508 20.3392 56.109 20.3392Z" stroke="#5B5B5B" stroke-width="0.910714" stroke-miterlimit="10" stroke-linecap="round" stroke-linejoin="round"/>
    </g>
</svg>
