<svg class="must-sprite" xmlns="http://www.w3.org/2000/svg" xmlns:xlink="http://www.w3.org/1999/xlink">
    <!-- Logo -->
    <symbol id="logo" viewBox="0 0 110 40">
        <rect fill="#000" width="110" height="40" rx="4"/>
        <path fill="#fff" d="M61.86 17.77h-.008v4.121H71.156v3.031h-9.303v4.12h13.424V17.771h-9.303v-2.95h9.303V10.7H61.859v7.07zM15 10.667v18.341h4.12V14.787h4.12v14.222h4.121V14.787h4.134v14.222h4.113V10.667H15zM52.063 24.902h-6.651V10.68l-4.12.02v18.322h14.89V10.7l-4.12-.02v14.222zM94.382 10.673H80.96v4.182h4.655v14.167h4.113V14.855h4.655v-4.182z"/>
    </symbol>

    <!-- Check with circle -->
    <symbol id="check-with-circle" viewBox="0 0 24 24" xmlns="http://www.w3.org/2000/svg">
        <path d="M12 0C5.36794 0 0 5.36705 0 12C0 18.6321 5.36705 24 12 24C18.6321 24 24 18.633 24 12C24 5.36794 18.633 0 12 0ZM12 22.125C6.4042 22.125 1.875 17.5965 1.875 12C1.875 6.4042 6.40345 1.875 12 1.875C17.5958 1.875 22.125 6.40345 22.125 12C22.125 17.5958 17.5965 22.125 12 22.125Z"/>
        <path d="M18.3851 6.70772C18.8289 7.15156 18.8289 7.87103 18.3851 8.31465L10.3452 16.3548C9.90134 16.7984 9.18209 16.7984 8.73825 16.3548L5.62976 13.2461C5.18591 12.8025 5.18591 12.083 5.62976 11.6394C6.07338 11.1955 6.79285 11.1955 7.23647 11.6394L9.5416 13.9445L16.7782 6.70772C17.222 6.26409 17.9415 6.26409 18.3851 6.70772Z"/>
    </symbol>


    <!-- Logo Text -->
    <symbol id="logo-text" viewBox="0 0 116 33">
        <path fill="#27B4B8" d="M3.48 9.92c-.32 0-.56-.24-.56-.56V3.44c0-.32.24-.56.56-.56h4l.64-.72V.8H2.6C1.064.8.04 1.84.04 3.2v6.4c0 1.36 1.024 2.4 2.56 2.4h5.52V9.92H3.48zm5.447-7.04h3.12V12h2.88V2.88h2.48l.64-.72V.8h-9.12v2.08zM22.441 12V8.56h3.2c1.536 0 2.56-1.04 2.56-2.4V3.2c0-1.28-.96-2.4-2.56-2.4h-6.08V12h2.88zm2.32-9.12c.32 0 .56.24.56.56v2.48c0 .32-.24.56-.56.56h-2.32v-3.6h2.32zM36.197 12h2.88v-1.12L35.877.8h-3.84l-3.2 10.08V12h2.88l.56-2.4h3.36l.56 2.4zm-1.12-4.48h-2.24l1.04-4.16h.16l1.04 4.16zm9.527.24h.16l1.84 4.24h2.88v-1.12l-2.72-4.56 2.48-4.4V.8h-2.88l-1.6 4.24h-.16L43.004.8h-2.88v1.12l2.48 4.4-2.72 4.56V12h2.88l1.84-4.24zm9.454 2.32c-.32 0-.56-.24-.56-.56V3.28c0-.32.24-.56.56-.56h2.08c.32 0 .56.24.56.56v6.24c0 .32-.24.56-.56.56h-2.08zm2.96 2.08c1.536 0 2.56-1.04 2.56-2.4V3.04c0-1.28-.96-2.4-2.56-2.4h-3.84c-1.536 0-2.56 1.04-2.56 2.4v6.72c0 1.36 1.024 2.4 2.56 2.4h3.84zM61.905.8V12h6.24c1.536 0 2.56-1.04 2.56-2.4V8c0-.72-.464-1.136-.96-1.376a3.223 3.223 0 00-.96-.304v-.16c.272-.064.528-.16.752-.304.384-.24.768-.656.768-1.376V3.2c0-1.36-1.024-2.4-2.56-2.4h-5.84zm2.88 9.12V7.44h2.48c.32 0 .56.24.56.56v1.36c0 .32-.24.56-.56.56h-2.48zm2.08-7.04c.32 0 .56.24.56.56V4.8c0 .32-.24.56-.56.56h-2.08V2.88h2.08zM79.338 12h2.88v-1.12L79.018.8h-3.84l-3.2 10.08V12h2.88l.56-2.4h3.36l.56 2.4zm-1.12-4.48h-2.24l1.04-4.16h.16l1.04 4.16zM86.865 12V7.44h3.04V12h2.88V.8h-2.88v4.56h-3.04V.8h-2.88V12h2.88zM104.221.8h-2.8l-3.44 7.04h-.16l.48-3.36V.8h-2.88V12h2.8l3.44-7.04h.16l-.48 3.36V12h2.88V.8zm10.559 0h-8V12h8V9.92h-5.12V7.36h3.68V5.28h-3.68v-2.4h4.48l.64-.72V.8zM.28 32h2.88v-9.12H7.4l.64-.72V20.8H.28V32zm13.283 0v-3.44h3.2c1.536 0 2.56-1.04 2.56-2.4V23.2c0-1.28-.96-2.4-2.56-2.4h-6.08V32h2.88zm2.32-9.12c.32 0 .56.24.56.56v2.48c0 .32-.24.56-.56.56h-2.32v-3.6h2.32zm5.68-2.08v1.12l3.68 7.52-.08.16c-.175.32-.32.48-.72.48h-1.28v2.08h1.28c2.065 0 3.04-.944 3.68-2.56l3.12-7.68V20.8h-2.88l-1.6 6.08h-.16l-2.16-6.08h-2.88zm16.553 2.08c.32 0 .56.24.56.56v1.36c0 .32-.24.56-.56.56h-2.8v2.08h2.96c.32 0 .56.24.56.56v1.36c0 .32-.24.56-.56.56h-5.04V32h5.92c1.536 0 2.56-1.04 2.56-2.4V28c0-.72-.464-1.136-.928-1.376a3.22 3.22 0 00-.912-.304v-.16a2.71 2.71 0 00.832-.304c.432-.24.848-.656.848-1.376V23.2c0-1.36-1.024-2.4-2.56-2.4h-5.68v1.36l.64.72h4.16zm10.164 7.2c-.32 0-.56-.24-.56-.56v-6.24c0-.32.24-.56.56-.56h2.08c.32 0 .56.24.56.56v6.24c0 .32-.24.56-.56.56h-2.08zm2.96 2.08c1.536 0 2.56-1.04 2.56-2.4v-6.72c0-1.28-.96-2.4-2.56-2.4H47.4c-1.536 0-2.56 1.04-2.56 2.4v6.72c0 1.36 1.024 2.4 2.56 2.4h3.84zm6.087-11.36V32h6.24c1.536 0 2.56-1.04 2.56-2.4V28c0-.72-.464-1.136-.96-1.376a3.223 3.223 0 00-.96-.304v-.16c.272-.064.528-.16.752-.304.384-.24.768-.656.768-1.376V23.2c0-1.36-1.024-2.4-2.56-2.4h-5.84zm2.88 9.12v-2.48h2.48c.32 0 .56.24.56.56v1.36c0 .32-.24.56-.56.56h-2.48zm2.08-7.04c.32 0 .56.24.56.56v1.36c0 .32-.24.56-.56.56h-2.08v-2.48h2.08zM78.28 20.8h-2.8l-3.44 7.04h-.16l.48-3.36V20.8h-2.88V32h2.8l3.44-7.04h.16l-.48 3.36V32h2.88V20.8zM84.92 32v-4.56h1.36l2 4.56h2.88v-1.12l-2.48-4.56 2.24-4.4V20.8h-2.88l-1.76 4.56h-1.36V20.8h-2.88V32h2.88zm12.238-1.92c-.32 0-.56-.24-.56-.56v-6.24c0-.32.24-.56.56-.56h2.08c.32 0 .56.24.56.56v6.24c0 .32-.24.56-.56.56h-2.08zm2.96 2.08c1.536 0 2.56-1.04 2.56-2.4v-6.72c0-1.28-.96-2.4-2.56-2.4h-3.84c-1.536 0-2.56 1.04-2.56 2.4v6.72c0 1.36 1.024 2.4 2.56 2.4h3.84zm6.087-11.36V32h6.24c1.536 0 2.56-1.04 2.56-2.4V28c0-.72-.464-1.136-.96-1.376a3.223 3.223 0 00-.96-.304v-.16c.272-.064.528-.16.752-.304.384-.24.768-.656.768-1.376V23.2c0-1.36-1.024-2.4-2.56-2.4h-5.84zm2.88 9.12v-2.48h2.48c.32 0 .56.24.56.56v1.36c0 .32-.24.56-.56.56h-2.48zm2.08-7.04c.32 0 .56.24.56.56v1.36c0 .32-.24.56-.56.56h-2.08v-2.48h2.08z"/>
    </symbol>

    <!-- Score -->
    <symbol id="score" viewBox="0 0 60 60">
        <path d="M60 35.494c0 6.582-2.095 12.83-6.058 18.069a2.344 2.344 0 11-3.738-2.829c3.342-4.418 5.108-9.688 5.108-15.24 0-13.99-11.33-25.299-25.312-25.299-13.992 0-25.313 11.318-25.313 25.3 0 5.551 1.767 10.822 5.109 15.24a2.344 2.344 0 11-3.739 2.828C2.095 48.322 0 42.075 0 35.493 0 18.912 13.427 5.508 30 5.508c16.582 0 30 13.413 30 29.986zM44.85 21.38c.915.915.915 2.4 0 3.314l-7.64 7.64a8.148 8.148 0 01.988 3.896c0 4.52-3.678 8.197-8.198 8.197-4.52 0-8.198-3.677-8.198-8.197S25.48 28.03 30 28.03c1.41 0 2.736.358 3.896.987l7.64-7.64a2.344 2.344 0 013.314 0zm-11.34 14.85A3.514 3.514 0 0030 32.72a3.514 3.514 0 00-3.51 3.51A3.514 3.514 0 0030 39.74a3.514 3.514 0 003.51-3.51z"/>
    </symbol>

    <!-- Shield -->
    <symbol id="shield" viewBox="0 0 24 24" xmlns="http://www.w3.org/2000/svg">
        <path fill-rule="evenodd" clip-rule="evenodd" d="M11.7455 23.9001C11.8455 23.95 11.9954 24 12.1453 24C12.2203 24 12.2952 23.9875 12.3702 23.975C12.4452 23.9625 12.5201 23.95 12.5951 23.95L16.8928 21.9511C19.9413 20.5518 21.8902 17.5034 21.8902 14.1551V3.51067C21.8902 3.01093 21.4904 2.56117 20.9907 2.51119C17.8923 2.16137 15.0938 1.36179 12.5951 0.112441C12.2952 -0.0374805 11.9954 -0.0374805 11.6955 0.112441C9.19685 1.36179 6.39831 2.16137 3.29992 2.51119C2.80018 2.56117 2.40039 3.01093 2.40039 3.51067V14.1551C2.40039 17.5034 4.34938 20.5518 7.44776 21.9011L11.7455 23.9001ZM4.39935 14.1551V4.4102C7.19789 4.01041 9.79654 3.2608 12.1453 2.1114C14.4941 3.2608 17.0927 4.01041 19.8913 4.4102V14.1551C19.8913 16.7538 18.3921 19.1026 16.0433 20.152L12.1453 21.9511L8.24734 20.152C5.89857 19.0526 4.39935 16.7038 4.39935 14.1551ZM15.3175 8.66507C15.7454 8.23664 16.3873 8.23664 16.8152 8.66507C17.2431 9.09351 17.2431 9.73616 16.9578 10.1646L12.1796 14.9488C11.9657 15.163 11.6804 15.2344 11.3951 15.2344C11.1099 15.2344 10.8246 15.163 10.6107 14.9488L8.1963 12.5302C7.76841 12.1018 7.76841 11.4591 8.1963 11.0307C8.6242 10.6023 9.26605 10.6023 9.69395 11.0307L11.3238 12.6638L15.3175 8.66507Z"/>
    </symbol>


    <!-- Truck -->
    <symbol id="truck" viewBox="0 0 26 24" xmlns="http://www.w3.org/2000/svg">
        <path fill-rule="evenodd" clip-rule="evenodd" d="M1.84215 2.76562H1.90948H3.12999H16.0428C16.5317 2.76562 16.9317 3.16563 16.9317 3.65451V7.12951H21.1539C21.4206 7.12951 21.6873 7.26285 21.865 7.48507L24.8428 11.3517C24.9761 11.5295 25.0206 11.7073 25.0206 11.8851V18.5833C25.0206 19.0722 24.6206 19.4722 24.1317 19.4722H22.2723C21.9168 20.6819 20.9859 21.3906 19.6428 21.3906C18.2998 21.3906 17.3689 20.6819 17.0133 19.4722H9.1258C8.77024 20.6819 7.83934 21.3906 6.49629 21.3906C5.15323 21.3906 4.22233 20.6819 3.86677 19.4722H3.12999H2.37823H1.89062C1.37285 19.4722 0.95312 19.0525 0.953125 18.5347L0.953255 3.65451C0.953255 3.16563 1.35326 2.76562 1.84215 2.76562ZM2.73103 17.6944H3.12999H3.86677C4.22233 16.4847 5.15323 15.776 6.49629 15.776C7.83934 15.776 8.77024 16.4378 9.1258 17.6944H15.1539V4.5434H3.12999H2.73103V17.6944ZM6.49629 19.6128C5.91365 19.6128 5.46677 19.166 5.46677 18.5833C5.46677 18.0007 5.91365 17.5538 6.49629 17.5538C7.07893 17.5538 7.5258 18.0007 7.5258 18.5833C7.5258 19.166 7.07893 19.6128 6.49629 19.6128ZM19.6873 19.6128C19.1046 19.6128 18.6577 19.166 18.6577 18.5833C18.6577 18.0007 19.1046 17.5538 19.6873 17.5538C20.2699 17.5538 20.7168 18.0007 20.7168 18.5833C20.7168 19.166 20.2699 19.6128 19.6873 19.6128ZM23.2428 17.6944H22.3168C21.9612 16.4847 21.0303 15.776 19.6873 15.776C18.3442 15.776 17.4133 16.4847 17.0577 17.6944H16.9761V8.95174H20.7539L23.2428 12.1962V17.6944Z"/>
    </symbol>

    <!-- Umbrella -->
    <symbol id="umbrella" viewBox="0 0 60 60">
        <path d="M32.81 4.134V2.505A2.513 2.513 0 0030.305 0 2.513 2.513 0 0027.8 2.505v1.629C14.397 5.386 4 16.66 4 30.314c0 .876.376 1.628 1.127 2.003a2.103 2.103 0 002.255.25c6.764-2.504 13.528-2.63 20.543-.5v20.292c0 1.503-1.128 2.63-2.63 2.63-1.504 0-2.631-1.127-2.631-2.63a2.513 2.513 0 00-2.505-2.505 2.513 2.513 0 00-2.506 2.505A7.592 7.592 0 0025.294 60a7.592 7.592 0 007.641-7.64V32.191c6.89-2.13 13.654-2.004 20.543.501.752.25 1.628.125 2.255-.25.626-.501 1.127-1.253 1.127-2.005C56.735 16.66 46.213 5.386 32.81 4.134zm-2.505 23.674c-7.015-2.38-14.155-2.63-21.044-.877C11.015 16.785 19.783 9.02 30.305 9.02S49.72 16.785 51.349 26.93c-6.89-1.754-13.904-1.503-21.044.877z"/>
    </symbol>

    <!-- Pack -->
    <symbol id="pack" viewBox="0 0 60 60">
        <path d="M58.44 11.426L30.967.187a2.435 2.435 0 00-1.873 0L1.623 11.426C.624 11.926 0 12.799 0 13.798v32.466c0 1 .624 1.873 1.498 2.373L28.97 59.875c.25.125.624.125.999.125.374 0 .624 0 .999-.125l27.471-11.238c1-.375 1.499-1.249 1.499-2.373V13.798c0-.999-.625-1.873-1.499-2.372zM29.968 5.307l20.853 8.491L29.97 22.29 9.116 13.8l20.853-8.492zM4.995 17.544l22.476 9.24v26.973L4.995 44.64V17.544zm27.471 36.212V26.66l22.477-9.116v27.097l-22.477 9.116z"/>
    </symbol>

    <!-- Cup -->
    <symbol id="cup" viewBox="0 0 60 60">
        <path d="M55.5 2.5H48V0H13v2.5H5.5C4.25 2.5 3 3.75 3 5v10.175C3 22.699 6.845 27.353 15.5 27.5c.696 1.721 1.835 2.835 2.952 4.184C20.019 33.58 20.898 34.117 23 35v10l-8.003 1.123A1.997 1.997 0 0013 48.12v9.883c0 1.103.894 1.997 1.997 1.997h31.006A1.997 1.997 0 0048 58.003V48.12a1.997 1.997 0 00-1.997-1.997L38 45V35c2.101-.883 2.869-1.421 4.436-3.316 1.117-1.35 2.368-2.463 3.064-4.184C52.905 27.353 58 22.525 58 15V5c0-2.5-2.5-2.5-2.5-2.5zM6.993 15.175V6.256h7.14V18.47c0 1.555.143 3.067.414 4.513-4.343-.453-7.554-2.913-7.554-7.807zM43 50v5H18v-5h25zm-10.01-5h-4.98v-7.565c.43.04 2.111.065 2.548.065.437 0 2.003-.025 2.432-.065V45zm-2.432-12.055C24.08 32.945 18 28.388 18 20V5h25v15c0 8.388-4.829 12.945-12.442 12.945zM54.25 15c0 4.894-3.453 7.528-7.796 7.982.27-1.446.413-2.958.413-4.513V6.256l7.383-.006V15z"/>
    </symbol>

    <!-- FAQ -->
    <symbol id="faq" viewBox="0 0 60 60">
        <path d="M24.085 22.735c-.775 0-1.507.097-2.196.291-.69.194-1.454.506-2.294.937l-1.357-3.65c.84-.54 1.83-.948 2.972-1.228a13.12 13.12 0 013.36-.453c1.379 0 2.51.183 3.392.55.905.366 1.616.829 2.133 1.389.517.56.872 1.174 1.066 1.841a6.21 6.21 0 01.323 1.906c0 .604-.097 1.163-.29 1.68a6.389 6.389 0 01-.68 1.39c-.28.43-.602.84-.968 1.227a53.78 53.78 0 01-1.067 1.099c-.258.258-.527.538-.807.84-.28.28-.539.581-.776.904a5.927 5.927 0 00-.549 1.034c-.15.345-.226.7-.226 1.066v.388c0 .172.01.323.032.452H21.89a6.319 6.319 0 01-.097-.71v-.711c0-.603.075-1.142.226-1.615.15-.496.344-.948.581-1.357.259-.431.55-.83.873-1.196.323-.366.657-.721 1.001-1.066.496-.495.948-.98 1.357-1.454.41-.495.614-1.055.614-1.68 0-.517-.205-.958-.614-1.324-.388-.367-.97-.55-1.744-.55zm3.005 16.251c0 .948-.312 1.68-.937 2.197a3.087 3.087 0 01-2.067.775c-.776 0-1.476-.258-2.1-.775-.604-.517-.905-1.25-.905-2.197 0-.948.301-1.68.904-2.197.625-.517 1.325-.775 2.1-.775.776 0 1.465.258 2.068.775.625.517.937 1.25.937 2.197zM39.499 24.932c0 1.745-.065 3.371-.194 4.879a87.891 87.891 0 01-.517 4.587h-3.683c-.215-1.55-.398-3.08-.55-4.587a57.32 57.32 0 01-.193-4.879V19.15h5.137v5.783zm.42 14.054c0 .948-.313 1.68-.937 2.197a3.087 3.087 0 01-2.068.775c-.775 0-1.475-.258-2.1-.775-.603-.517-.904-1.25-.904-2.197 0-.948.301-1.68.904-2.197.625-.517 1.325-.775 2.1-.775.776 0 1.465.258 2.068.775.624.517.937 1.25.937 2.197z"/>
        <path fill-rule="evenodd" d="M30 55.385c14.02 0 25.385-11.365 25.385-25.385C55.385 15.98 44.02 4.615 30 4.615 15.98 4.615 4.615 15.98 4.615 30 4.615 44.02 15.98 55.385 30 55.385zM30 60c16.569 0 30-13.431 30-30C60 13.431 46.569 0 30 0 13.431 0 0 13.431 0 30c0 16.569 13.431 30 30 30z" clip-rule="evenodd"/>
    </symbol>

    <!-- Right Arrow in Round -->
    <symbol id="right-arrow" viewBox="0 0 20 20">
        <path fill="none" d="M9 7l3.333 3L9 13"/>
    </symbol>

    <!-- Empty User -->
    <symbol id="empty-user" viewBox="0 0 80 80">
        <path d="M40 46.897c8.532 0 15.448-6.917 15.448-15.449S48.532 16 40 16s-15.448 6.916-15.448 15.448S31.468 46.897 40 46.897zM40 54.62c-15.464 0-28 12.537-28 28h56c0-15.463-12.536-28-28-28z"/>
    </symbol>

    <!-- History -->
    <symbol id="history" viewBox="0 0 64 64">
        <path d="M31.996 20l-.006 13.992c0 .532.211 1.04.586 1.414l10.01 10.008 2.828-2.828-9.424-9.422L35.996 20h-4z"/>
        <path d="M36 4C21.922 4 10.271 14.455 8.32 28H0l10 10 10-10h-7.639C14.275 16.667 24.131 8 36 8c13.234 0 24 10.766 24 24S49.234 56 36 56c-7.44 0-14.338-3.367-18.926-9.238l-3.152 2.46C19.273 56.07 27.32 60 36 60c15.44 0 28-12.563 28-28S51.44 4 36 4z"/>
    </symbol>

    <!-- ### -->
    <symbol id="###" viewBox="0 0 96 42">
          <path fill="#57B601" fill-rule="evenodd" d="M19.906 0h28.015v42H19.906V0zm26.538 40.552V1.448H21.38v39.104h25.065z" clip-rule="evenodd"/>
          <path fill="#fff" fill-rule="evenodd" d="M7.312 18.327c1.14 0 2.163.21 3.068.63.905.42 1.671.987 2.298 1.701a7.538 7.538 0 011.443 2.499c.335.952.503 1.96.503 3.024a9.11 9.11 0 01-.503 3.045 7.515 7.515 0 01-1.443 2.498 6.736 6.736 0 01-2.298 1.69c-.907.413-1.928.62-3.068.62-1.14 0-2.163-.206-3.069-.62a6.739 6.739 0 01-2.297-1.69A7.519 7.519 0 01.5 29.226 9.177 9.177 0 010 26.18c0-1.065.167-2.071.503-3.025a7.497 7.497 0 011.443-2.498 6.86 6.86 0 012.298-1.702c.905-.42 1.927-.63 3.067-.63v.002zm-.001 2.142c-.812 0-1.515.161-2.106.483a4.108 4.108 0 00-1.443 1.292 5.774 5.774 0 00-.824 1.837 8.308 8.308 0 00-.266 2.1c0 .713.088 1.413.266 2.1.179.685.453 1.298.824 1.837.37.54.851.97 1.443 1.292.592.321 1.294.483 2.106.483.812 0 1.514-.161 2.105-.483a4.111 4.111 0 001.444-1.29c.37-.539.644-1.152.823-1.838a8.375 8.375 0 00.266-2.1c0-.713-.089-1.413-.266-2.1a5.794 5.794 0 00-.824-1.836 4.1 4.1 0 00-1.443-1.292c-.592-.322-1.293-.483-2.106-.483v-.002zm30.344 1.785c.199.364.356.762.47 1.197h2.672c-.085-.812-.306-1.533-.663-2.163a5.26 5.26 0 00-1.4-1.607 6.26 6.26 0 00-1.999-1.007 8.202 8.202 0 00-2.416-.347c-1.14 0-2.163.21-3.067.63a6.859 6.859 0 00-2.298 1.701 7.494 7.494 0 00-1.444 2.499 9.04 9.04 0 00-.502 3.024c0 1.078.167 2.093.502 3.045a7.528 7.528 0 001.444 2.499 6.726 6.726 0 002.299 1.69c.905.413 1.927.62 3.069.62.925 0 1.773-.147 2.543-.444.77-.294 1.44-.71 2.01-1.25a6.022 6.022 0 001.358-1.92c.334-.741.53-1.56.587-2.456h-2.607a5.906 5.906 0 01-.364 1.532 3.936 3.936 0 01-.77 1.25 3.52 3.52 0 01-1.175.84c-.457.204-.984.305-1.583.305-.813 0-1.514-.162-2.106-.483a4.085 4.085 0 01-1.443-1.291 5.782 5.782 0 01-.824-1.837 8.317 8.317 0 01-.267-2.1c0-.714.089-1.415.267-2.1a5.774 5.774 0 01.824-1.837c.37-.54.851-.97 1.443-1.292.59-.322 1.294-.483 2.105-.483.556 0 1.044.073 1.464.22.421.148.788.355 1.1.62.313.266.572.583.77.945zM55.647 28.68c0 .573.1 1.064.299 1.47.199.406.478.738.833.997a3.59 3.59 0 001.231.566c.462.12.966.18 1.506.18.583 0 1.083-.066 1.497-.2.413-.133.747-.303 1.004-.513.256-.21.442-.452.556-.724.113-.274.17-.55.17-.831 0-.575-.132-1-.395-1.272a2.261 2.261 0 00-.865-.578 18.59 18.59 0 00-1.892-.556c-.72-.174-1.607-.402-2.66-.682-.657-.166-1.203-.388-1.636-.661a3.867 3.867 0 01-1.037-.914 3.191 3.191 0 01-.546-1.07 4.253 4.253 0 01-.16-1.156c0-.756.16-1.41.48-1.962a4.223 4.223 0 011.273-1.376 5.64 5.64 0 011.796-.809 7.993 7.993 0 012.031-.263c.798 0 1.55.102 2.256.304a5.596 5.596 0 011.86.915c.535.405.959.906 1.273 1.501.314.595.47 1.284.47 2.068h-2.673c-.071-.967-.405-1.649-1.004-2.048-.599-.4-1.362-.599-2.288-.599-.314 0-.634.032-.962.095a3.098 3.098 0 00-.9.315 1.98 1.98 0 00-.673.6c-.178.252-.267.566-.267.945 0 .532.168.948.502 1.25.335.3.774.527 1.316.68l.674.18c.39.105.83.22 1.314.347.484.126.959.248 1.423.367.462.119.794.206.994.262.498.154.933.364 1.305.63.37.266.68.57.928.914.25.343.435.711.556 1.103.12.392.182.785.182 1.177 0 .84-.175 1.556-.524 2.152a4.442 4.442 0 01-1.38 1.46 6.099 6.099 0 01-1.946.83c-.728.174-1.47.26-2.224.26-.87 0-1.688-.105-2.459-.315-.77-.21-1.44-.531-2.01-.966a4.748 4.748 0 01-1.368-1.669c-.342-.68-.52-1.48-.534-2.404h2.674zm12.442-9.997h2.437v2.269h-2.437v-2.269zm2.437 4.138h-2.437v10.857h2.437V22.82zM83.04 19.04h2.844l5.88 14.995h-2.865l-1.433-3.969h-6.093l-1.432 3.969h-2.757L83.04 19.04zm-.938 9.03h4.66l-2.288-6.446h-.063l-2.31 6.447zm13.897-9.03h-2.436v14.995h2.436V19.04zM34.517 5.905c.125.12.196.28.214.477v.003h.802a1.28 1.28 0 00-.14-.536 1.39 1.39 0 00-.326-.413 1.498 1.498 0 00-.46-.27 1.578 1.578 0 00-.552-.096c-.346 0-.636.076-.872.226a1.773 1.773 0 00-.571.589c-.145.241-.25.508-.313.8a4.175 4.175 0 00-.094.874c0 .353.025.683.077.987.05.306.143.572.277.798.133.226.315.406.546.537.231.13.526.196.886.196.242 0 .464-.041.665-.123a1.509 1.509 0 00.85-.87c.077-.2.115-.417.115-.65 0-.23-.035-.443-.105-.64a1.4 1.4 0 00-.791-.854 1.635 1.635 0 00-.653-.125c-.219 0-.423.048-.611.142-.19.094-.338.237-.445.43l-.015-.015.014-.14c.005-.064.012-.13.019-.2.01-.12.03-.244.059-.367.028-.125.065-.243.109-.355.044-.112.102-.211.175-.298a.799.799 0 01.266-.21.82.82 0 01.374-.08c.21 0 .377.06.5.183zm-.179 3.432a.786.786 0 01-.378.087h-.002a.805.805 0 01-.658-.308.941.941 0 01-.169-.32 1.253 1.253 0 01-.055-.378c0-.133.02-.26.056-.379a.9.9 0 01.168-.313.799.799 0 01.277-.212.87.87 0 01.382-.08c.144 0 .27.028.378.082a.836.836 0 01.431.53 1.372 1.372 0 010 .747.925.925 0 01-.16.32.854.854 0 01-.27.224z" clip-rule="evenodd"/>
    </symbol>

    <!-- Burger -->
    <symbol id="burger" viewBox="0 0 24 24"  xmlns="http://www.w3.org/2000/svg">
        <path fill-rule="evenodd" clip-rule="evenodd" d="M0.75 5.09007C0.75 4.34997 1.35098 3.75 2.09233 3.75H21.9077C22.649 3.75 23.25 4.34997 23.25 5.09007C23.25 5.83018 22.649 6.43015 21.9077 6.43015H2.09233C1.35098 6.43015 0.75 5.83018 0.75 5.09007ZM0.75 18.9099C0.75 18.1698 1.35098 17.5699 2.09233 17.5699H21.9077C22.649 17.5699 23.25 18.1698 23.25 18.9099C23.25 19.65 22.649 20.25 21.9077 20.25H2.09233C1.35098 20.25 0.75 19.65 0.75 18.9099ZM2.09233 10.6599C1.35098 10.6599 0.75 11.2599 0.75 12C0.75 12.7401 1.35098 13.3401 2.09233 13.3401H21.9077C22.649 13.3401 23.25 12.7401 23.25 12C23.25 11.2599 22.649 10.6599 21.9077 10.6599H2.09233Z" fill="currentColor"/>
    </symbol>

    <!-- Close -->
    <symbol id="close" viewBox="0 0 24 24" xmlns="http://www.w3.org/2000/svg">
        <path d="M4.79308 3.51618C4.54014 3.51624 4.29298 3.59176 4.08318 3.73308C3.87337 3.8744 3.71047 4.07509 3.6153 4.30951C3.52012 4.54392 3.49699 4.8014 3.54887 5.04903C3.60075 5.29666 3.72528 5.52319 3.90654 5.69965L10.2021 11.9973L3.90654 18.2949C3.78452 18.4121 3.68709 18.5524 3.61998 18.7078C3.55287 18.8631 3.51741 19.0303 3.51569 19.1995C3.51397 19.3687 3.54602 19.5365 3.60996 19.6932C3.6739 19.8498 3.76844 19.9922 3.88806 20.1118C4.00768 20.2315 4.14996 20.326 4.30657 20.39C4.46318 20.454 4.63098 20.486 4.80013 20.4843C4.96929 20.4826 5.1364 20.4471 5.29168 20.38C5.44696 20.3128 5.58729 20.2154 5.70444 20.0933L12 13.7957L18.2956 20.0933C18.4127 20.2154 18.553 20.3128 18.7083 20.38C18.8636 20.4471 19.0307 20.4826 19.1999 20.4843C19.369 20.486 19.5368 20.454 19.6934 20.39C19.85 20.3261 19.9923 20.2315 20.1119 20.1118C20.2316 19.9922 20.3261 19.8498 20.39 19.6932C20.454 19.5365 20.486 19.3687 20.4843 19.1995C20.4826 19.0303 20.4471 18.8631 20.38 18.7078C20.3129 18.5524 20.2155 18.4121 20.0935 18.2949L13.7979 11.9973L20.0935 5.69965C20.2772 5.52101 20.4027 5.29101 20.4535 5.0398C20.5043 4.78859 20.478 4.52788 20.3782 4.29185C20.2783 4.05581 20.1095 3.85546 19.8939 3.71705C19.6782 3.57864 19.4258 3.50862 19.1697 3.51618C18.8394 3.52602 18.5258 3.66412 18.2956 3.9012L12 10.1988L5.70444 3.9012C5.58596 3.77937 5.44426 3.68253 5.28773 3.6164C5.1312 3.55027 4.963 3.51619 4.79308 3.51618Z" fill="currentColor"/>
    </symbol>

    <symbol id="user" viewBox="0 0 24 24"  xmlns="http://www.w3.org/2000/svg">
        <path fill-rule="evenodd" clip-rule="evenodd" d="M6.64294 7.04252C6.64294 4.09608 9.05152 1.6875 11.998 1.6875C14.9444 1.6875 17.353 4.09608 17.353 7.04252C17.353 9.98897 14.9444 12.3975 11.998 12.3975C9.05152 12.3975 6.64294 9.98897 6.64294 7.04252ZM20.6502 15.6947C20.8607 15.9987 21.0477 16.3261 21.188 16.6769C21.2582 16.8172 21.2348 16.9809 21.1179 17.1212C20.9309 17.4486 20.7204 17.7526 20.4866 18.0566C20.1592 18.5009 19.785 18.8984 19.4109 19.2726C19.0835 19.5999 18.7093 19.9273 18.3352 20.2079C16.4878 21.5876 14.2663 22.3125 11.9746 22.3125C9.68298 22.3125 7.46145 21.5876 5.61411 20.2079C5.23992 19.9039 4.86578 19.5999 4.53841 19.2726C4.14086 18.8984 3.79008 18.5009 3.46272 18.0566C3.25226 17.776 3.01844 17.4486 2.83134 17.1212C2.76121 16.9809 2.73784 16.8172 2.80798 16.6769C2.94825 16.3495 3.13535 15.9987 3.3458 15.6947C4.39809 14.1046 6.08175 13.0523 7.9525 12.7951C8.18632 12.7483 8.44355 12.8184 8.63065 12.9587C9.6128 13.6837 10.782 14.0578 11.998 14.0578C13.214 14.0578 14.3832 13.6837 15.3654 12.9587C15.5525 12.8184 15.8097 12.7717 16.0435 12.7951C17.9143 13.0523 19.5745 14.1046 20.6502 15.6947Z" fill="white"/>
    </symbol>

    <symbol id="green-triangle" viewBox="0 0 12 12" xmlns="http://www.w3.org/2000/svg">
        <g clip-path="url(#clip0)">
            <path d="M5.99999 10L-2.51372e-05 3L12 3L5.99999 10Z" fill="currentColor"/>
        </g>
        <defs>
            <clipPath id="clip0">
                <rect width="12" height="12" fill="white"/>
            </clipPath>
        </defs>
    </symbol>

    <symbol id="enter" viewBox="0 0 24 24" fill="none" xmlns="http://www.w3.org/2000/svg">
        <path fill-rule="evenodd" clip-rule="evenodd" d="M19.2113 0.00768109C19.2219 0.0108938 19.2325 0.0140963 19.2438 0.0150146C20.4168 -0.0800171 21.4219 0.834045 21.4219 2.00006V20.0001C21.4219 20.855 20.8779 21.618 20.0669 21.8979L14.0588 23.9009C13.8389 23.9691 13.6359 24 13.4218 24C12.3188 24 11.4219 23.103 11.4219 21.9999V21H8.42194C6.76794 21 5.42194 19.654 5.42194 18V16.9374C5.42194 16.3856 5.86981 15.9375 6.42188 15.9375C6.97394 15.9375 7.42181 16.3856 7.42181 16.9374V18C7.42181 18.551 7.87079 18.9999 8.42194 18.9999H11.4219V3.99994C11.4219 3.14502 11.9659 2.38202 12.7758 2.10205L13.0809 2.00006H8.42194C7.87079 2.00006 7.42181 2.44904 7.42181 3V3.06244C7.42181 3.6145 6.97394 4.06256 6.42188 4.06256C5.86981 4.06256 5.42194 3.6145 5.42194 3.06244V3C5.42194 1.34601 6.76794 0 8.42194 0H19.1719C19.186 0 19.1987 0.00384783 19.2113 0.00768109ZM5.30072 5.76178L9.30066 9.29297C9.69177 9.68408 9.69177 10.316 9.30066 10.7069L5.30072 14.2383C5.01471 14.5243 4.58478 14.6102 4.21069 14.4553C3.83771 14.3002 3.59381 13.9352 3.59381 13.5313L4.53131 11.0001H0.999939C0.448059 11.0001 0 10.552 0 9.99994C0 9.44806 0.448059 9 0.999939 9H4.53131L3.59381 6.46875C3.59381 6.06482 3.83771 5.69971 4.21069 5.5448C4.58478 5.38971 5.01471 5.47577 5.30072 5.76178Z" fill="#201F32"/>
    </symbol>

    <symbol id="user-black" viewBox="0 0 24 24" fill="none" xmlns="http://www.w3.org/2000/svg">
        <path fill-rule="evenodd" clip-rule="evenodd" d="M6.64294 7.04252C6.64294 4.09608 9.05152 1.6875 11.998 1.6875C14.9444 1.6875 17.353 4.09608 17.353 7.04252C17.353 9.98897 14.9444 12.3975 11.998 12.3975C9.05152 12.3975 6.64294 9.98897 6.64294 7.04252ZM20.6502 15.6947C20.8607 15.9987 21.0477 16.3261 21.188 16.6769C21.2582 16.8172 21.2348 16.9809 21.1179 17.1212C20.9309 17.4486 20.7204 17.7526 20.4866 18.0566C20.1592 18.5009 19.785 18.8984 19.4109 19.2726C19.0835 19.5999 18.7093 19.9273 18.3352 20.2079C16.4878 21.5876 14.2663 22.3125 11.9746 22.3125C9.68298 22.3125 7.46145 21.5876 5.61411 20.2079C5.23992 19.9039 4.86578 19.5999 4.53841 19.2726C4.14086 18.8984 3.79008 18.5009 3.46272 18.0566C3.25226 17.776 3.01844 17.4486 2.83134 17.1212C2.76121 16.9809 2.73784 16.8172 2.80798 16.6769C2.94825 16.3495 3.13535 15.9987 3.3458 15.6947C4.39809 14.1046 6.08175 13.0523 7.9525 12.7951C8.18632 12.7483 8.44355 12.8184 8.63065 12.9587C9.6128 13.6837 10.782 14.0578 11.998 14.0578C13.214 14.0578 14.3832 13.6837 15.3654 12.9587C15.5525 12.8184 15.8097 12.7717 16.0435 12.7951C17.9143 13.0523 19.5745 14.1046 20.6502 15.6947Z" fill="#201F32"/>
    </symbol>

    <symbol id="exit" viewBox="0 0 24 24" fill="none" xmlns="http://www.w3.org/2000/svg">
        <path fill-rule="evenodd" clip-rule="evenodd" d="M2.91366 0.00768109C2.9263 0.00384783 2.93898 0 2.95313 0H13.7031C15.3571 0 16.7031 1.34601 16.7031 3V3.06244C16.7031 3.6145 16.2552 4.06256 15.7031 4.06256C15.1511 4.06256 14.7032 3.6145 14.7032 3.06244V3C14.7032 2.44904 14.2542 2.00006 13.7031 2.00006H9.04413L9.34918 2.10205C10.1591 2.38202 10.7031 3.14502 10.7031 3.99994V18.9999H13.7031C14.2542 18.9999 14.7032 18.551 14.7032 18V16.9374C14.7032 16.3856 15.1511 15.9375 15.7031 15.9375C16.2552 15.9375 16.7031 16.3856 16.7031 16.9374V18C16.7031 19.654 15.3571 21 13.7031 21H10.7031V21.9999C10.7031 23.103 9.80621 24 8.70319 24C8.48914 24 8.28607 23.9691 8.06616 23.9009L2.05811 21.8979C1.24713 21.618 0.703125 20.855 0.703125 20.0001V2.00006C0.703125 0.834045 1.70819 -0.0800171 2.88116 0.0150146C2.89252 0.0140963 2.90307 0.0108937 2.91366 0.00768109ZM23.0037 9.29291L19.0038 5.76172C18.7178 5.47571 18.2878 5.38965 17.9138 5.54474C17.5408 5.69965 17.2969 6.06476 17.2969 6.46869L18.2344 8.99994H14.703C14.1511 8.99994 13.7031 9.448 13.7031 9.99988C13.7031 10.5519 14.1511 11 14.703 11H18.2344L17.2969 13.5312C17.2969 13.9352 17.5408 14.3001 17.9138 14.4552C18.2878 14.6101 18.7178 14.5242 19.0038 14.2382L23.0037 10.7068C23.3948 10.3159 23.3948 9.68402 23.0037 9.29291Z" fill="#201F32"/>
    </symbol>

    <symbol id="chevron-down" viewBox="0 0 24 24" fill="none" xmlns="http://www.w3.org/2000/svg">
        <path d="M12.0076 14.0864L5.23131 7.31012C4.74228 6.82116 3.94944 6.82116 3.46041 7.31012C2.97153 7.79922 2.97153 8.59199 3.46041 9.08102L11.1221 16.7427C11.6111 17.2316 12.404 17.2316 12.893 16.7427L20.5547 9.08101C21.0352 8.58347 21.0214 7.79063 20.5239 7.31012C20.0385 6.84141 19.2691 6.84141 18.7838 7.31012L12.0076 14.0864Z" fill="#8F8E99"/>
    </symbol>

    <symbol  id="plus" viewBox="0 0 24 24" fill="none" xmlns="http://www.w3.org/2000/svg">
        <path fill-rule="evenodd" clip-rule="evenodd" d="M12 6.89062C12.5644 6.89062 13.0219 7.34813 13.0219 7.9125V10.9781H16.0875C16.6519 10.9781 17.1094 11.4356 17.1094 12C17.1094 12.5644 16.6519 13.0219 16.0875 13.0219H13.0219V16.0875C13.0219 16.6519 12.5644 17.1094 12 17.1094C11.4356 17.1094 10.9781 16.6519 10.9781 16.0875V13.0219H7.9125C7.34813 13.0219 6.89062 12.5644 6.89062 12C6.89062 11.4356 7.34813 10.9781 7.9125 10.9781H10.9781V7.9125C10.9781 7.34813 11.4356 6.89062 12 6.89062Z" fill="#27B4B8"/>
        <path fill-rule="evenodd" clip-rule="evenodd" d="M1.35938 12C1.35938 6.1324 6.1324 1.35938 12 1.35938C17.8676 1.35938 22.6406 6.1324 22.6406 12C22.6406 17.8676 17.8676 22.6406 12 22.6406C6.1324 22.6406 1.35938 17.8676 1.35938 12ZM3.0078 12C3.0078 16.9577 7.04234 20.9922 12 20.9922C16.9577 20.9922 20.9922 16.9577 20.9922 12C20.9922 7.04234 16.9585 3.0078 12 3.0078C7.04234 3.0078 3.0078 7.04234 3.0078 12Z" fill="#27B4B8"/>
    </symbol>

    <symbol id="clock" viewBox="0 0 24 24" fill="none" xmlns="http://www.w3.org/2000/svg">
        <path fill-rule="evenodd" clip-rule="evenodd" d="M12 1.35938C6.1324 1.35938 1.35938 6.1324 1.35938 12C1.35938 17.8676 6.1324 22.6406 12 22.6406C17.8676 22.6406 22.6406 17.8676 22.6406 12C22.6406 6.1324 17.8676 1.35938 12 1.35938ZM12 20.9922C7.04234 20.9922 3.0078 16.9577 3.0078 12C3.0078 7.04234 7.04234 3.0078 12 3.0078C16.9585 3.0078 20.9922 7.04234 20.9922 12C20.9922 16.9577 16.9577 20.9922 12 20.9922ZM16.543 14.2517L12.9876 11.5852V6.15338C12.9876 5.60722 12.5461 5.16575 12 5.16575C11.4538 5.16575 11.0123 5.60722 11.0123 6.15338V12.079C11.0123 12.3901 11.1585 12.6835 11.4074 12.8691L15.3578 15.832C15.5355 15.9653 15.743 16.0295 15.9494 16.0295C16.2506 16.0295 16.5469 15.8942 16.7405 15.6334C17.0684 15.1979 16.9795 14.5786 16.543 14.2517Z" fill="#27B4B8"/>
    </symbol>

    <symbol id="plus-new" viewBox="0 0 16 16">
        <path fill-rule="evenodd" clip-rule="evenodd" d="M9 4C9 3.44772 8.55228 3 8 3C7.44772 3 7 3.44772 7 4V7H4C3.44772 7 3 7.44772 3 8C3 8.55228 3.44772 9 4 9H7V12C7 12.5523 7.44772 13 8 13C8.55228 13 9 12.5523 9 12V9H12C12.5523 9 13 8.55228 13 8C13 7.44772 12.5523 7 12 7H9V4Z"/>
    </symbol>

    <symbol id="cirkle-plus" viewBox="0 0 24 24">
        <path fill-rule="evenodd" clip-rule="evenodd" d="M11 0.359375C5.1324 0.359375 0.359375 5.1324 0.359375 11C0.359375 16.8676 5.1324 21.6406 11 21.6406C16.8676 21.6406 21.6406 16.8676 21.6406 11C21.6406 5.1324 16.8676 0.359375 11 0.359375ZM11 19.9922C6.04234 19.9922 2.0078 15.9577 2.0078 11C2.0078 6.04234 6.04234 2.0078 11 2.0078C15.9585 2.0078 19.9922 6.04234 19.9922 11C19.9922 15.9577 15.9577 19.9922 11 19.9922ZM12.0219 6.9125C12.0219 6.34813 11.5644 5.89062 11 5.89062C10.4356 5.89062 9.97812 6.34813 9.97812 6.9125V9.97812H6.9125C6.34813 9.97812 5.89062 10.4356 5.89062 11C5.89062 11.5644 6.34813 12.0219 6.9125 12.0219H9.97812V15.0875C9.97812 15.6519 10.4356 16.1094 11 16.1094C11.5644 16.1094 12.0219 15.6519 12.0219 15.0875V12.0219H15.0875C15.6519 12.0219 16.1094 11.5644 16.1094 11C16.1094 10.4356 15.6519 9.97812 15.0875 9.97812H12.0219V6.9125Z" fill="currentColor"/>
    </symbol>
    
    <symbol id="cirkle-time" viewBox="0 0 24 24"> 
        <path fill-rule="evenodd" clip-rule="evenodd" d="M11 0.359375C5.1324 0.359375 0.359375 5.1324 0.359375 11C0.359375 16.8676 5.1324 21.6406 11 21.6406C16.8676 21.6406 21.6406 16.8676 21.6406 11C21.6406 5.1324 16.8676 0.359375 11 0.359375ZM11 19.9922C6.04234 19.9922 2.0078 15.9577 2.0078 11C2.0078 6.04234 6.04234 2.0078 11 2.0078C15.9585 2.0078 19.9922 6.04234 19.9922 11C19.9922 15.9577 15.9577 19.9922 11 19.9922ZM15.543 13.2517L11.9876 10.5852V5.15338C11.9876 4.60722 11.5461 4.16575 11 4.16575C10.4538 4.16575 10.0123 4.60722 10.0123 5.15338V11.079C10.0123 11.3901 10.1585 11.6835 10.4074 11.8691L14.3578 14.832C14.5355 14.9653 14.743 15.0295 14.9494 15.0295C15.2506 15.0295 15.5469 14.8942 15.7405 14.6334C16.0684 14.1979 15.9795 13.5786 15.543 13.2517Z" fill="currentColor"/>
    </symbol>

    <symbol id="simple-plus" viewBox="0 0 20 20">
        <path fill-rule="evenodd" clip-rule="evenodd" d="M11.3437 4.625C11.3437 3.88287 10.7421 3.28125 10 3.28125C9.25787 3.28125 8.65625 3.88287 8.65625 4.625V8.65625H4.625C3.88287 8.65625 3.28125 9.25787 3.28125 10C3.28125 10.7421 3.88287 11.3437 4.625 11.3437H8.65625V15.375C8.65625 16.1171 9.25787 16.7188 10 16.7188C10.7421 16.7188 11.3437 16.1171 11.3437 15.375V11.3437H15.375C16.1171 11.3437 16.7188 10.7421 16.7188 10C16.7188 9.25787 16.1171 8.65625 15.375 8.65625H11.3437V4.625Z" fill="currentColor"/>
    </symbol>

    <symbol id="simple-minus" viewBox="0 0 20 20">
        <path d="M0.753968 9.24762C0.604965 9.3967 0.503821 9.58684 0.463467 9.79374C0.423113 10.0006 0.445383 10.2149 0.527429 10.4091C0.609475 10.6033 0.74757 10.7687 0.924058 10.884C1.10055 10.9994 1.30741 11.0595 1.5182 11.0566C15.264 11.0589 4.73908 11.0571 18.4786 11.0594C18.6195 11.0623 18.7596 11.037 18.8907 10.9851C19.0217 10.9331 19.1411 10.8556 19.2418 10.7569C19.3425 10.6582 19.4225 10.5405 19.4771 10.4105C19.5317 10.2805 19.5598 10.141 19.5598 9.99997C19.5598 9.85898 19.5316 9.7194 19.477 9.58941C19.4223 9.45942 19.3423 9.34163 19.2416 9.24294C19.1409 9.14425 19.0215 9.06664 18.8904 9.01466C18.7593 8.96268 18.6192 8.93737 18.4782 8.94022C4.34867 8.93791 15.7285 8.9398 1.51788 8.93747C1.37627 8.9355 1.23571 8.96192 1.1045 9.0152C0.973293 9.06847 0.854101 9.1475 0.753968 9.24762Z" fill="currentColor"/>
    </symbol>
</svg>
