<svg width="148" height="95" viewBox="0 0 148 95" fill="none" xmlns="http://www.w3.org/2000/svg">
<path d="M37.5404 62.7447C38.0204 62.7447 38.4684 62.7927 38.8844 62.8887C39.3004 62.9847 39.6578 63.1287 39.9564 63.3207C40.2551 63.5127 40.4898 63.7527 40.6604 64.0407C40.8311 64.3287 40.9164 64.6647 40.9164 65.0487C40.9164 65.2941 40.8738 65.5181 40.7884 65.7207C40.7031 65.9234 40.5964 66.1047 40.4684 66.2647C40.3404 66.4247 40.1964 66.5634 40.0364 66.6807C39.8871 66.7874 39.7431 66.8621 39.6044 66.9047C40.0951 67.0541 40.4791 67.3207 40.7564 67.7047C41.0444 68.0781 41.1884 68.5527 41.1884 69.1287C41.1884 69.9181 40.8684 70.5047 40.2284 70.8887C39.5884 71.2727 38.7191 71.4647 37.6204 71.4647C36.9484 71.4647 36.3671 71.4114 35.8764 71.3047C35.3964 71.1981 35.0551 71.0967 34.8524 71.0007L35.1084 69.7367C35.2791 69.8007 35.5831 69.8914 36.0204 70.0087C36.4684 70.1154 37.0018 70.1687 37.6204 70.1687C38.2924 70.1687 38.8044 70.0674 39.1564 69.8647C39.5084 69.6514 39.6844 69.3367 39.6844 68.9207C39.6844 68.6221 39.6151 68.3821 39.4764 68.2007C39.3484 68.0087 39.1831 67.8647 38.9804 67.7687C38.7778 67.6727 38.5591 67.6087 38.3244 67.5767C38.0898 67.5447 37.8711 67.5287 37.6684 67.5287H36.2764V66.3447H37.6204C37.8124 66.3447 38.0098 66.3341 38.2124 66.3127C38.4258 66.2807 38.6178 66.2221 38.7884 66.1367C38.9698 66.0514 39.1191 65.9341 39.2364 65.7847C39.3538 65.6247 39.4124 65.4167 39.4124 65.1607C39.4124 64.9581 39.3591 64.7874 39.2524 64.6487C39.1564 64.4994 39.0231 64.3767 38.8524 64.2807C38.6818 64.1847 38.4791 64.1154 38.2444 64.0727C38.0204 64.0194 37.7858 63.9927 37.5404 63.9927C37.3484 63.9927 37.1404 64.0087 36.9164 64.0407C36.6924 64.0727 36.4738 64.1154 36.2604 64.1687C36.0471 64.2114 35.8551 64.2594 35.6844 64.3127C35.5138 64.3661 35.3911 64.4141 35.3164 64.4567L35.0444 63.1767C35.1298 63.1447 35.2631 63.1021 35.4444 63.0487C35.6258 62.9954 35.8284 62.9474 36.0524 62.9047C36.2871 62.8621 36.5324 62.8247 36.7884 62.7927C37.0444 62.7607 37.2951 62.7447 37.5404 62.7447ZM46.0725 70.2007C46.4245 70.2007 46.7339 70.1954 47.0005 70.1847C47.2779 70.1634 47.5072 70.1314 47.6885 70.0887V67.6087C47.5819 67.5554 47.4059 67.5127 47.1605 67.4807C46.9259 67.4381 46.6379 67.4167 46.2965 67.4167C46.0725 67.4167 45.8325 67.4327 45.5765 67.4647C45.3312 67.4967 45.1019 67.5661 44.8885 67.6727C44.6859 67.7687 44.5152 67.9074 44.3765 68.0887C44.2379 68.2594 44.1685 68.4887 44.1685 68.7767C44.1685 69.3101 44.3392 69.6834 44.6805 69.8967C45.0219 70.0994 45.4859 70.2007 46.0725 70.2007ZM45.9445 62.7447C46.5419 62.7447 47.0432 62.8247 47.4485 62.9847C47.8645 63.1341 48.1952 63.3527 48.4405 63.6407C48.6965 63.9181 48.8779 64.2541 48.9845 64.6487C49.0912 65.0327 49.1445 65.4594 49.1445 65.9287V71.1287C49.0165 71.1501 48.8352 71.1821 48.6005 71.2247C48.3765 71.2567 48.1205 71.2887 47.8325 71.3207C47.5445 71.3527 47.2299 71.3794 46.8885 71.4007C46.5579 71.4327 46.2272 71.4487 45.8965 71.4487C45.4272 71.4487 44.9952 71.4007 44.6005 71.3047C44.2059 71.2087 43.8645 71.0594 43.5765 70.8567C43.2885 70.6434 43.0645 70.3661 42.9045 70.0247C42.7445 69.6834 42.6645 69.2727 42.6645 68.7927C42.6645 68.3341 42.7552 67.9394 42.9365 67.6087C43.1285 67.2781 43.3845 67.0114 43.7045 66.8087C44.0245 66.6061 44.3979 66.4567 44.8245 66.3607C45.2512 66.2647 45.6992 66.2167 46.1685 66.2167C46.3179 66.2167 46.4725 66.2274 46.6325 66.2487C46.7925 66.2594 46.9419 66.2807 47.0805 66.3127C47.2299 66.3341 47.3579 66.3554 47.4645 66.3767C47.5712 66.3981 47.6459 66.4141 47.6885 66.4247V66.0087C47.6885 65.7634 47.6619 65.5234 47.6085 65.2887C47.5552 65.0434 47.4592 64.8301 47.3205 64.6487C47.1819 64.4567 46.9899 64.3074 46.7445 64.2007C46.5099 64.0834 46.2005 64.0247 45.8165 64.0247C45.3259 64.0247 44.8939 64.0621 44.5205 64.1367C44.1579 64.2007 43.8859 64.2701 43.7045 64.3447L43.5285 63.1127C43.7205 63.0274 44.0405 62.9474 44.4885 62.8727C44.9365 62.7874 45.4219 62.7447 45.9445 62.7447ZM58.3039 71.2727H56.8159V64.2007H53.1039V71.2727H51.6159V62.9527H58.3039V71.2727ZM68.2099 67.1127C68.2099 67.7741 68.1139 68.3714 67.9219 68.9047C67.7299 69.4381 67.4579 69.8967 67.1059 70.2807C66.7646 70.6647 66.3539 70.9634 65.8739 71.1767C65.3939 71.3794 64.8713 71.4807 64.3059 71.4807C63.7406 71.4807 63.2179 71.3794 62.7379 71.1767C62.2579 70.9634 61.8419 70.6647 61.4899 70.2807C61.1486 69.8967 60.8819 69.4381 60.6899 68.9047C60.4979 68.3714 60.4019 67.7741 60.4019 67.1127C60.4019 66.4621 60.4979 65.8701 60.6899 65.3367C60.8819 64.7927 61.1486 64.3287 61.4899 63.9447C61.8419 63.5607 62.2579 63.2674 62.7379 63.0647C63.2179 62.8514 63.7406 62.7447 64.3059 62.7447C64.8713 62.7447 65.3939 62.8514 65.8739 63.0647C66.3539 63.2674 66.7646 63.5607 67.1059 63.9447C67.4579 64.3287 67.7299 64.7927 67.9219 65.3367C68.1139 65.8701 68.2099 66.4621 68.2099 67.1127ZM66.6579 67.1127C66.6579 66.1741 66.4446 65.4327 66.0179 64.8887C65.6019 64.3341 65.0313 64.0567 64.3059 64.0567C63.5806 64.0567 63.0046 64.3341 62.5779 64.8887C62.1619 65.4327 61.9539 66.1741 61.9539 67.1127C61.9539 68.0514 62.1619 68.7981 62.5779 69.3527C63.0046 69.8967 63.5806 70.1687 64.3059 70.1687C65.0313 70.1687 65.6019 69.8967 66.0179 69.3527C66.4446 68.7981 66.6579 68.0514 66.6579 67.1127ZM73.1994 64.2007C73.1994 64.5527 73.1888 64.9314 73.1674 65.3367C73.1568 65.7314 73.1301 66.1314 73.0874 66.5367C73.0448 66.9314 72.9861 67.3261 72.9114 67.7207C72.8368 68.1047 72.7408 68.4674 72.6234 68.8087C72.5061 69.1501 72.3568 69.4701 72.1754 69.7687C72.0048 70.0674 71.7914 70.3341 71.5354 70.5687C71.2794 70.7927 70.9808 70.9847 70.6394 71.1447C70.2981 71.2941 69.8981 71.3901 69.4394 71.4327L69.2314 70.1847C69.7541 70.0781 70.1648 69.8807 70.4634 69.5927C70.7728 69.3047 71.0181 68.9527 71.1994 68.5367C71.3594 68.1741 71.4768 67.7634 71.5514 67.3047C71.6261 66.8461 71.6794 66.3714 71.7114 65.8807C71.7434 65.3794 71.7594 64.8781 71.7594 64.3767C71.7701 63.8754 71.7754 63.4007 71.7754 62.9527H77.3114V71.2727H75.8234V64.2007H73.1994ZM86.6819 71.2727H85.1939V67.5927H81.3539V71.2727H79.8659V62.9527H81.3539V66.3447H85.1939V62.9527H86.6819V71.2727ZM96.2329 62.9527V71.2727H94.7929V64.9367C94.4729 65.3421 94.1209 65.8167 93.7369 66.3607C93.3529 66.9047 92.9689 67.4701 92.5849 68.0567C92.2009 68.6327 91.8329 69.2034 91.4809 69.7687C91.1289 70.3341 90.8249 70.8354 90.5689 71.2727H89.2409V62.9527H90.6809V68.9367C90.9583 68.4781 91.2729 67.9767 91.6249 67.4327C91.9769 66.8781 92.3396 66.3341 92.7129 65.8007C93.0969 65.2567 93.4756 64.7394 93.8489 64.2487C94.2329 63.7474 94.5903 63.3154 94.9209 62.9527H96.2329ZM104.66 62.9527V64.2007H101.956V71.2727H100.468V64.2007H97.7638V62.9527H104.66ZM105.73 67.1287C105.73 66.3927 105.837 65.7527 106.05 65.2087C106.263 64.6541 106.546 64.1954 106.898 63.8327C107.25 63.4701 107.655 63.1981 108.114 63.0167C108.573 62.8354 109.042 62.7447 109.522 62.7447C110.642 62.7447 111.501 63.0967 112.098 63.8007C112.695 64.4941 112.994 65.5554 112.994 66.9847C112.994 67.0487 112.994 67.1341 112.994 67.2407C112.994 67.3367 112.989 67.4274 112.978 67.5127H107.282C107.346 68.3767 107.597 69.0327 108.034 69.4807C108.471 69.9287 109.154 70.1527 110.082 70.1527C110.605 70.1527 111.042 70.1101 111.394 70.0247C111.757 69.9287 112.029 69.8381 112.21 69.7527L112.418 71.0007C112.237 71.0967 111.917 71.1981 111.458 71.3047C111.01 71.4114 110.498 71.4647 109.922 71.4647C109.197 71.4647 108.567 71.3581 108.034 71.1447C107.511 70.9207 107.079 70.6167 106.738 70.2327C106.397 69.8487 106.141 69.3954 105.97 68.8727C105.81 68.3394 105.73 67.7581 105.73 67.1287ZM111.442 66.3127C111.453 65.6407 111.282 65.0914 110.93 64.6647C110.589 64.2274 110.114 64.0087 109.506 64.0087C109.165 64.0087 108.861 64.0781 108.594 64.2167C108.338 64.3447 108.119 64.5154 107.938 64.7287C107.757 64.9421 107.613 65.1874 107.506 65.4647C107.41 65.7421 107.346 66.0247 107.314 66.3127H111.442ZM45.3497 86.0567H46.2457C46.5977 85.5447 46.8751 85.0167 47.0777 84.4727C47.2911 83.9287 47.4511 83.3687 47.5577 82.7927C47.6644 82.2061 47.7337 81.5981 47.7657 80.9687C47.7977 80.3287 47.8191 79.6567 47.8297 78.9527H53.2857V86.0567H54.4057V89.5927H52.9977V87.2727H46.7577V89.5927H45.3497V86.0567ZM51.7977 86.0567V80.2007H49.1897C49.1791 80.7021 49.1524 81.2087 49.1097 81.7207C49.0671 82.2221 48.9977 82.7234 48.9017 83.2247C48.8057 83.7154 48.6671 84.2007 48.4857 84.6807C48.3151 85.1501 48.0964 85.6087 47.8297 86.0567H51.7977ZM58.8304 86.2007C59.1824 86.2007 59.4917 86.1954 59.7584 86.1847C60.0357 86.1634 60.265 86.1314 60.4464 86.0887V83.6087C60.3397 83.5554 60.1637 83.5127 59.9184 83.4807C59.6837 83.4381 59.3957 83.4167 59.0544 83.4167C58.8304 83.4167 58.5904 83.4327 58.3344 83.4647C58.089 83.4967 57.8597 83.5661 57.6464 83.6727C57.4437 83.7687 57.273 83.9074 57.1344 84.0887C56.9957 84.2594 56.9264 84.4887 56.9264 84.7767C56.9264 85.3101 57.097 85.6834 57.4384 85.8967C57.7797 86.0994 58.2437 86.2007 58.8304 86.2007ZM58.7024 78.7447C59.2997 78.7447 59.801 78.8247 60.2064 78.9847C60.6224 79.1341 60.953 79.3527 61.1984 79.6407C61.4544 79.9181 61.6357 80.2541 61.7424 80.6487C61.849 81.0327 61.9024 81.4594 61.9024 81.9287V87.1287C61.7744 87.1501 61.593 87.1821 61.3584 87.2247C61.1344 87.2567 60.8784 87.2887 60.5904 87.3207C60.3024 87.3527 59.9877 87.3794 59.6464 87.4007C59.3157 87.4327 58.985 87.4487 58.6544 87.4487C58.185 87.4487 57.753 87.4007 57.3584 87.3047C56.9637 87.2087 56.6224 87.0594 56.3344 86.8567C56.0464 86.6434 55.8224 86.3661 55.6624 86.0247C55.5024 85.6834 55.4224 85.2727 55.4224 84.7927C55.4224 84.3341 55.513 83.9394 55.6944 83.6087C55.8864 83.2781 56.1424 83.0114 56.4624 82.8087C56.7824 82.6061 57.1557 82.4567 57.5824 82.3607C58.009 82.2647 58.457 82.2167 58.9264 82.2167C59.0757 82.2167 59.2304 82.2274 59.3904 82.2487C59.5504 82.2594 59.6997 82.2807 59.8384 82.3127C59.9877 82.3341 60.1157 82.3554 60.2224 82.3767C60.329 82.3981 60.4037 82.4141 60.4464 82.4247V82.0087C60.4464 81.7634 60.4197 81.5234 60.3664 81.2887C60.313 81.0434 60.217 80.8301 60.0784 80.6487C59.9397 80.4567 59.7477 80.3074 59.5024 80.2007C59.2677 80.0834 58.9584 80.0247 58.5744 80.0247C58.0837 80.0247 57.6517 80.0621 57.2784 80.1367C56.9157 80.2007 56.6437 80.2701 56.4624 80.3447L56.2864 79.1127C56.4784 79.0274 56.7984 78.9474 57.2464 78.8727C57.6944 78.7874 58.1797 78.7447 58.7024 78.7447ZM71.1897 87.2727H69.7017V83.5927H65.8617V87.2727H64.3737V78.9527H65.8617V82.3447H69.7017V78.9527H71.1897V87.2727ZM80.5647 87.2727H79.0767V83.5927H75.2367V87.2727H73.7487V78.9527H75.2367V82.3447H79.0767V78.9527H80.5647V87.2727ZM86.1797 83.1607C85.8917 83.1607 85.6091 83.1714 85.3317 83.1927C85.0651 83.2034 84.8251 83.2354 84.6117 83.2887V86.1527C84.6757 86.1634 84.7664 86.1741 84.8837 86.1847C85.0117 86.1954 85.1451 86.2061 85.2837 86.2167C85.4331 86.2167 85.5824 86.2221 85.7317 86.2327C85.8811 86.2327 86.0144 86.2327 86.1317 86.2327C86.7824 86.2327 87.2837 86.1101 87.6357 85.8647C87.9877 85.6194 88.1637 85.2247 88.1637 84.6807C88.1637 84.4141 88.1051 84.1847 87.9877 83.9927C87.8811 83.8007 87.7317 83.6461 87.5397 83.5287C87.3584 83.4007 87.1504 83.3101 86.9157 83.2567C86.6811 83.1927 86.4357 83.1607 86.1797 83.1607ZM83.1237 78.9527H84.6117V82.1367C84.7931 82.0941 85.0544 82.0514 85.3957 82.0087C85.7477 81.9661 86.0837 81.9447 86.4037 81.9447C86.8411 81.9447 87.2571 81.9981 87.6517 82.1047C88.0464 82.2007 88.3931 82.3607 88.6917 82.5847C88.9904 82.7981 89.2251 83.0807 89.3957 83.4327C89.5771 83.7741 89.6677 84.1847 89.6677 84.6647C89.6677 85.1661 89.5824 85.5927 89.4117 85.9447C89.2411 86.2967 89.0011 86.5847 88.6917 86.8087C88.3824 87.0327 88.0091 87.1927 87.5717 87.2887C87.1344 87.3954 86.6544 87.4487 86.1317 87.4487C85.6304 87.4487 85.1237 87.4167 84.6117 87.3527C84.0997 87.2994 83.6037 87.2141 83.1237 87.0967V78.9527ZM92.6917 87.2727H91.2037V78.9527H92.6917V87.2727ZM94.7847 83.1287C94.7847 82.3927 94.8914 81.7527 95.1047 81.2087C95.3181 80.6541 95.6007 80.1954 95.9527 79.8327C96.3047 79.4701 96.7101 79.1981 97.1687 79.0167C97.6274 78.8354 98.0967 78.7447 98.5767 78.7447C99.6967 78.7447 100.555 79.0967 101.153 79.8007C101.75 80.4941 102.049 81.5554 102.049 82.9847C102.049 83.0487 102.049 83.1341 102.049 83.2407C102.049 83.3367 102.043 83.4274 102.033 83.5127H96.3367C96.4007 84.3767 96.6514 85.0327 97.0887 85.4807C97.5261 85.9287 98.2087 86.1527 99.1367 86.1527C99.6594 86.1527 100.097 86.1101 100.449 86.0247C100.811 85.9287 101.083 85.8381 101.265 85.7527L101.473 87.0007C101.291 87.0967 100.971 87.1981 100.513 87.3047C100.065 87.4114 99.5527 87.4647 98.9767 87.4647C98.2514 87.4647 97.6221 87.3581 97.0887 87.1447C96.5661 86.9207 96.1341 86.6167 95.7927 86.2327C95.4514 85.8487 95.1954 85.3954 95.0247 84.8727C94.8647 84.3394 94.7847 83.7581 94.7847 83.1287ZM100.497 82.3127C100.507 81.6407 100.337 81.0914 99.9847 80.6647C99.6434 80.2274 99.1687 80.0087 98.5607 80.0087C98.2194 80.0087 97.9154 80.0781 97.6487 80.2167C97.3927 80.3447 97.1741 80.5154 96.9927 80.7287C96.8114 80.9421 96.6674 81.1874 96.5607 81.4647C96.4647 81.7421 96.4007 82.0247 96.3687 82.3127H100.497Z" fill="#9E9E9E"/>
<path d="M64.9917 49V42.0455H58.0371V49H64.9917ZM77.4881 49V42.0455H70.5336V49H77.4881ZM89.9846 49V42.0455H83.03V49H89.9846Z" fill="#201F32"/>
</svg>
