<svg width="115" height="57" viewBox="0 0 115 57" fill="none" xmlns="http://www.w3.org/2000/svg">
<path d="M95.425 41.1646H107.71V27.333H95.425V41.1646Z" fill="white"/>
<path d="M95.425 41.1646H107.71V27.333H95.425V41.1646Z" stroke="#5B5B5B" stroke-width="1.5" stroke-miterlimit="10" stroke-linecap="round" stroke-linejoin="round"/>
<path d="M71.438 41.1718H95.3379V25.3324L71.438 25.3324V41.1718Z" fill="white"/>
<path d="M71.438 41.1718H95.3379V25.3324L71.438 25.3324V41.1718Z" stroke="#5B5B5B" stroke-width="1.5" stroke-miterlimit="10" stroke-linecap="round" stroke-linejoin="round"/>
<path d="M53.1608 41.1716H71.4766V25.3323H53.1608V41.1716Z" fill="white"/>
<path d="M53.1608 41.1716H71.4766V25.3323H53.1608V41.1716Z" stroke="#5B5B5B" stroke-width="1.5" stroke-miterlimit="10" stroke-linecap="round" stroke-linejoin="round"/>
<path d="M75.1638 25.3187H85.1035V13.1604L75.1638 13.1604V25.3187Z" fill="#E0E0E0"/>
<path d="M75.1638 25.3187H85.1035V13.1604L75.1638 13.1604V25.3187Z" stroke="#5B5B5B" stroke-width="1.5" stroke-miterlimit="10" stroke-linecap="round" stroke-linejoin="round"/>
<path d="M92.9134 13.1621H85.0957V25.3205H92.9134V13.1621Z" fill="white"/>
<path d="M92.9134 13.1621H85.0957V25.3205H92.9134V13.1621Z" stroke="#5B5B5B" stroke-width="1.5" stroke-miterlimit="10" stroke-linecap="round" stroke-linejoin="round"/>
<path d="M58.7976 25.3187H68.7373V13.1604L58.7976 13.1604V25.3187Z" fill="#E0E0E0"/>
<path d="M58.7976 25.3187H68.7373V13.1604L58.7976 13.1604V25.3187Z" stroke="#5B5B5B" stroke-width="1.5" stroke-miterlimit="10" stroke-linecap="round" stroke-linejoin="round"/>
<path d="M76.6087 13.1621H68.791V25.3205H76.6087V13.1621Z" fill="white"/>
<path d="M76.6087 13.1621H68.791V25.3205H76.6087V13.1621Z" stroke="#5B5B5B" stroke-width="1.5" stroke-miterlimit="10" stroke-linecap="round" stroke-linejoin="round"/>
<path d="M65.3873 13.1583H70.748V0.999969H65.3873V13.1583Z" fill="#E0E0E0"/>
<path d="M65.3873 13.1583H70.748V0.999969H65.3873V13.1583Z" stroke="#5B5B5B" stroke-width="1.5" stroke-miterlimit="10" stroke-linecap="round" stroke-linejoin="round"/>
<path d="M85.0951 1.00391H70.7998V13.1623H85.0951V1.00391Z" fill="white"/>
<path d="M85.0951 1.00391H70.7998V13.1623H85.0951V1.00391Z" stroke="#5B5B5B" stroke-width="1.5" stroke-miterlimit="10" stroke-linecap="round" stroke-linejoin="round"/>
<path d="M70.2417 56.219C74.0658 56.219 77.1659 53.1227 77.1659 49.3032C77.1659 45.4837 74.0658 42.3875 70.2417 42.3875C66.4175 42.3875 63.3174 45.4837 63.3174 49.3032C63.3174 53.1227 66.4175 56.219 70.2417 56.219Z" fill="#5B5B5B"/>
<path d="M108.661 41.3837H48.4648V46.5147H103.524C106.316 46.5147 108.661 44.1723 108.661 41.3837Z" fill="#E0E0E0"/>
<path d="M108.661 41.3837H48.4648V46.5147H103.524C106.316 46.5147 108.661 44.1723 108.661 41.3837Z" stroke="#5B5B5B" stroke-width="1.5" stroke-miterlimit="10" stroke-linecap="round" stroke-linejoin="round"/>
<path d="M48.4409 41.3445L113.998 41.3445V29.8554L48.4409 29.8554V41.3445Z" fill="white"/>
<path d="M48.4409 41.3445L113.998 41.3445V29.8554L48.4409 29.8554V41.3445Z" stroke="#5B5B5B" stroke-width="1.5" stroke-miterlimit="10" stroke-linecap="round" stroke-linejoin="round"/>
<path d="M93.0249 56.219C96.849 56.219 99.9491 53.1227 99.9491 49.3032C99.9491 45.4837 96.849 42.3875 93.0249 42.3875C89.2007 42.3875 86.1006 45.4837 86.1006 49.3032C86.1006 53.1227 89.2007 56.219 93.0249 56.219Z" fill="#5B5B5B"/>
<path d="M93.0238 52.2032C94.6275 52.2032 95.9276 50.9047 95.9276 49.303C95.9276 47.7013 94.6275 46.4028 93.0238 46.4028C91.4201 46.4028 90.1201 47.7013 90.1201 49.303C90.1201 50.9047 91.4201 52.2032 93.0238 52.2032Z" fill="white"/>
<path d="M14.8491 56.2191C18.6732 56.2191 21.7733 53.1228 21.7733 49.3033C21.7733 45.4838 18.6732 42.3876 14.8491 42.3876C11.0249 42.3876 7.9248 45.4838 7.9248 49.3033C7.9248 53.1228 11.0249 56.2191 14.8491 56.2191Z" fill="#5B5B5B"/>
<path d="M1 48.7462H48.4647V9.37085H25.4583C11.9448 9.37085 1 20.3022 1 33.7992V48.7462Z" fill="currentColor"/>
<path d="M23.7832 48.7451H48.4649V9.36975H48.2415C34.728 9.36975 23.7832 20.3011 23.7832 33.7981V48.7451Z" fill="currentColor"/>
<path d="M1 33.7984L23.7831 33.91V33.7984C23.7831 26.6596 26.7985 20.3015 31.7125 15.8397H8.9294C4.01541 20.3015 1 26.6596 1 33.7984Z" fill="white"/>
<path d="M23.7832 33.7982L42.8808 33.9097C43.5509 33.9097 43.9976 33.352 43.9976 32.7943V16.9549C43.9976 16.2857 43.4392 15.8395 42.8808 15.8395H31.7126C26.7986 20.3013 23.7832 26.6593 23.7832 33.7982Z" fill="#E0E0E0"/>
<path d="M8.9294 15.8397H42.8806C43.5507 15.8397 43.9975 16.3974 43.9975 16.9552V32.7945C43.9975 33.4638 43.4391 33.91 42.8806 33.91H1" stroke="#5B5B5B" stroke-width="0.75" stroke-miterlimit="10" stroke-linecap="round" stroke-linejoin="round"/>
<path d="M23.7832 48.7451H48.4649V9.36975H48.2415C34.728 9.36975 23.7832 20.3011 23.7832 33.7981V48.7451V48.7451Z" stroke="#5B5B5B" stroke-width="1.5" stroke-miterlimit="10" stroke-linecap="round" stroke-linejoin="round"/>
<path d="M1 48.7462H48.4647V9.37085H25.4583C11.9448 9.37085 1 20.3022 1 33.7992V48.7462V48.7462Z" stroke="#5B5B5B" stroke-width="1.5" stroke-miterlimit="10" stroke-linecap="round" stroke-linejoin="round"/>
<path d="M37.6313 56.2191C41.4555 56.2191 44.5556 53.1228 44.5556 49.3033C44.5556 45.4838 41.4555 42.3876 37.6313 42.3876C33.8071 42.3876 30.707 45.4838 30.707 49.3033C30.707 53.1228 33.8071 56.2191 37.6313 56.2191Z" fill="#5B5B5B"/>
<path d="M37.6303 52.2034C39.234 52.2034 40.534 50.905 40.534 49.3032C40.534 47.7015 39.234 46.4031 37.6303 46.4031C36.0266 46.4031 34.7266 47.7015 34.7266 49.3032C34.7266 50.905 36.0266 52.2034 37.6303 52.2034Z" fill="white"/>
<path d="M43.104 37.0326H38.6367" stroke="#5B5B5B" stroke-width="0.75" stroke-miterlimit="10" stroke-linecap="round" stroke-linejoin="round"/>
<path d="M19.0926 43.6141H23.8949V39.9331H19.0926C18.7575 39.9331 18.5342 40.1562 18.5342 40.4908V43.0564C18.5342 43.391 18.7575 43.6141 19.0926 43.6141Z" fill="white"/>
<path d="M19.0926 43.6141H23.8949V39.9331H19.0926C18.7575 39.9331 18.5342 40.1562 18.5342 40.4908V43.0564C18.5342 43.391 18.7575 43.6141 19.0926 43.6141Z" stroke="#5B5B5B" stroke-width="0.75" stroke-miterlimit="10" stroke-linecap="round" stroke-linejoin="round"/>
<path d="M1 43.6141H5.80231C6.13736 43.6141 6.36072 43.391 6.36072 43.0564V40.4908C6.36072 40.1562 6.13736 39.9331 5.80231 39.9331H1V43.6141Z" fill="white"/>
<path d="M1 43.6141H5.80231C6.13736 43.6141 6.36072 43.391 6.36072 43.0564V40.4908C6.36072 40.1562 6.13736 39.9331 5.80231 39.9331H1V43.6141Z" stroke="#5B5B5B" stroke-width="0.75" stroke-miterlimit="10" stroke-linecap="round" stroke-linejoin="round"/>
</svg>
