<svg width="197" height="69" viewBox="0 0 197 69" fill="none" xmlns="http://www.w3.org/2000/svg">
<path d="M115.249 68.8469C111.581 68.8469 108.607 65.8731 108.607 62.2046C108.607 58.5361 111.581 55.5623 115.249 55.5623C118.918 55.5623 121.892 58.5361 121.892 62.2046C121.892 65.8731 118.918 68.8469 115.249 68.8469Z" fill="#5B5B5B"/>
<path d="M129.388 68.8469C125.719 68.8469 122.746 65.8731 122.746 62.2046C122.746 58.5361 125.719 55.5623 129.388 55.5623C133.056 55.5623 136.03 58.5361 136.03 62.2046C136.03 65.8731 133.056 68.8469 129.388 68.8469Z" fill="#5B5B5B"/>
<path fill-rule="evenodd" clip-rule="evenodd" d="M146.164 56.1064C143.701 57.0654 141.912 59.4588 141.912 62.2994C141.912 64.9936 143.555 67.3699 145.929 68.3993C148.41 67.4365 150.169 65.026 150.169 62.2046C150.169 59.4732 148.52 57.1268 146.164 56.1064ZM145.147 55.7613C144.628 55.6313 144.085 55.5623 143.527 55.5623C139.858 55.5623 136.884 58.5361 136.884 62.2046C136.884 65.8731 139.858 68.8469 143.527 68.8469C144.086 68.8469 144.628 68.7779 145.147 68.6479C142.842 67.4079 141.248 64.9656 141.248 62.2045C141.248 59.4435 142.842 57.0012 145.147 55.7613Z" fill="#5B5B5B"/>
<path d="M148.555 68.8469C144.886 68.8469 141.913 65.8731 141.913 62.2046C141.913 58.5361 144.886 55.5623 148.555 55.5623C152.223 55.5623 155.197 58.5361 155.197 62.2046C155.197 65.8731 152.223 68.8469 148.555 68.8469Z" fill="#5B5B5B"/>
<path d="M148.555 65.9052C146.511 65.9052 144.854 64.2484 144.854 62.2045C144.854 60.1607 146.511 58.5038 148.555 58.5038C150.599 58.5038 152.256 60.1607 152.256 62.2045C152.256 64.2484 150.599 65.9052 148.555 65.9052Z" fill="white"/>
<path d="M148.555 63.4381C147.873 63.4381 147.321 62.8858 147.321 62.2045C147.321 61.5232 147.873 60.9709 148.555 60.9709C149.236 60.9709 149.788 61.5232 149.788 62.2045C149.788 62.8858 149.236 63.4381 148.555 63.4381Z" fill="#5B5B5B"/>
<path d="M162.694 68.8469C159.025 68.8469 156.051 65.8731 156.051 62.2046C156.051 58.5361 159.025 55.5623 162.694 55.5623C166.362 55.5623 169.336 58.5361 169.336 62.2046C169.336 65.8731 166.362 68.8469 162.694 68.8469Z" fill="#5B5B5B"/>
<path d="M162.694 65.9052C160.65 65.9052 158.993 64.2484 158.993 62.2045C158.993 60.1607 160.65 58.5038 162.694 58.5038C164.738 58.5038 166.395 60.1607 166.395 62.2045C166.395 64.2484 164.738 65.9052 162.694 65.9052Z" fill="white"/>
<path d="M162.693 63.4381C162.012 63.4381 161.46 62.8858 161.46 62.2045C161.46 61.5232 162.012 60.9709 162.693 60.9709C163.374 60.9709 163.927 61.5232 163.927 62.2045C163.927 62.8858 163.374 63.4381 162.693 63.4381Z" fill="#5B5B5B"/>
<path d="M176.832 68.8469C173.164 68.8469 170.19 65.8731 170.19 62.2046C170.19 58.5361 173.164 55.5623 176.832 55.5623C180.501 55.5623 183.475 58.5361 183.475 62.2046C183.475 65.8731 180.501 68.8469 176.832 68.8469Z" fill="#5B5B5B"/>
<path d="M176.832 65.9052C174.789 65.9052 173.132 64.2484 173.132 62.2045C173.132 60.1607 174.789 58.5038 176.832 58.5038C178.876 58.5038 180.533 60.1607 180.533 62.2045C180.533 64.2484 178.876 65.9052 176.832 65.9052Z" fill="white"/>
<path d="M176.832 63.4381C176.151 63.4381 175.598 62.8858 175.598 62.2045C175.598 61.5232 176.151 60.9709 176.832 60.9709C177.513 60.9709 178.065 61.5232 178.065 62.2045C178.065 62.8858 177.513 63.4381 176.832 63.4381Z" fill="#5B5B5B"/>
<path d="M60.6867 1H196.19V53.4745H60.6867V1Z" fill="white"/>
<path d="M60.6867 1H196.19V53.4745H60.6867V1Z" stroke="#5B5B5B" stroke-width="1.5" stroke-miterlimit="10" stroke-linecap="round" stroke-linejoin="round"/>
<path d="M27.3799 1H60.6865V53.4745H27.3799V1Z" fill="#E0E0E0"/>
<path d="M27.3799 1H60.6865V53.4745H27.3799V1Z" stroke="#5B5B5B" stroke-width="1.5" stroke-miterlimit="10" stroke-linecap="round" stroke-linejoin="round"/>
<path d="M89.4381 53.5693H140.489V62.2993H89.4381V53.5693Z" fill="#5B5B5B"/>
<path d="M89.4381 53.5693H140.489V62.2993H89.4381V53.5693Z" stroke="#5B5B5B" stroke-width="1.5" stroke-miterlimit="10" stroke-linecap="round" stroke-linejoin="round"/>
<path d="M14.1897 68.8467C10.5212 68.8467 7.54735 65.8728 7.54735 62.2043C7.54735 58.5359 10.5212 55.562 14.1897 55.562C17.8582 55.562 20.832 58.5359 20.832 62.2043C20.832 65.8728 17.8582 68.8467 14.1897 68.8467Z" fill="#5B5B5B"/>
<path d="M1.00008 17.7956V62.2044H58.0293V4.70068H14.095C7.16798 4.70068 1.47453 10.1094 1.09497 16.9416C1.00008 17.2262 1.00008 17.5109 1.00008 17.7956Z" fill="currentColor"/>
<path d="M34.3069 17.7963V62.2051H88.9639V53.57H58.0295V4.7963H47.4018C40.1901 4.70141 34.3069 10.5846 34.3069 17.7963Z" fill="currentColor"/>
<path d="M52.6211 42.3723V47.5913" stroke="#5B5B5B" stroke-width="0.75" stroke-miterlimit="10"/>
<path d="M2.61288 57.365H8.49611C8.87567 57.365 9.06543 57.0803 9.06543 56.7956V53.5693C9.06543 53.1898 8.78078 53 8.49611 53H2.61288C2.23332 53 2.04353 53.2847 2.04353 53.5693V56.7956C2.04353 57.0803 2.23332 57.365 2.61288 57.365Z" fill="white"/>
<path d="M2.61288 57.365H8.49611C8.87567 57.365 9.06543 57.0803 9.06543 56.7956V53.5693C9.06543 53.1898 8.78078 53 8.49611 53H2.61288C2.23332 53 2.04353 53.2847 2.04353 53.5693V56.7956C2.04353 57.0803 2.23332 57.365 2.61288 57.365Z" stroke="#5B5B5B" stroke-width="0.75" stroke-miterlimit="10"/>
<path d="M26.2408 57.365H32.124C32.5036 57.365 32.6934 57.0803 32.6934 56.7956V53.5693C32.6934 53.1898 32.4087 53 32.124 53H26.2408C25.8612 53 25.6714 53.2847 25.6714 53.5693V56.7956C25.5765 57.0803 25.8612 57.365 26.2408 57.365Z" fill="white"/>
<path d="M26.2408 57.365H32.124C32.5036 57.365 32.6934 57.0803 32.6934 56.7956V53.5693C32.6934 53.1898 32.4087 53 32.124 53H26.2408C25.8612 53 25.6714 53.2847 25.6714 53.5693V56.7956C25.5765 57.0803 25.8612 57.365 26.2408 57.365Z" stroke="#5B5B5B" stroke-width="0.75" stroke-miterlimit="10"/>
<path d="M12.577 55.657H22.2559C22.5405 55.657 22.8252 55.3723 22.8252 55.0877V54.803C22.8252 54.5183 22.5405 54.2336 22.2559 54.2336H12.577C12.2924 54.2336 12.0077 54.5183 12.0077 54.803V55.0877C11.9128 55.3723 12.1975 55.657 12.577 55.657Z" fill="#5B5B5B"/>
<path d="M7.07381 48.635C7.07381 49.8686 8.0227 50.8175 9.25628 50.8175H25.4826C26.7161 50.8175 27.665 49.8686 27.665 48.635H7.07381Z" stroke="#5B5B5B" stroke-width="0.75" stroke-miterlimit="10"/>
<path d="M5.55488 45.314C5.55488 46.5475 6.50377 47.4965 7.73735 47.4965H27.0001C28.2337 47.4965 29.1826 46.5475 29.1826 45.314H5.55488Z" stroke="#5B5B5B" stroke-width="0.75" stroke-miterlimit="10"/>
<path d="M4.03692 41.9927C4.03692 43.2263 4.98582 44.1752 6.21939 44.1752H28.5187C29.7522 44.1752 30.7012 43.2263 30.7012 41.9927H4.03692Z" stroke="#5B5B5B" stroke-width="0.75" stroke-miterlimit="10"/>
<path d="M1.00005 17.7957V39.5256H34.3066V17.7957C34.3066 17.511 34.3066 17.2263 34.3066 16.9417H1.00005C1.00005 17.2263 1.00005 17.511 1.00005 17.7957Z" fill="white"/>
<path d="M34.3065 17.7957V39.5256H52.8102C54.1387 39.5256 55.2773 38.4818 55.2773 37.0585V19.4088C55.2773 18.0803 54.2335 16.9417 52.8102 16.9417H34.4014C34.3065 17.2263 34.3065 17.511 34.3065 17.7957Z" fill="#E0E0E0"/>
<path d="M0.999126 17.7957V39.5256H52.7145C54.0429 39.5256 55.1816 38.4818 55.1816 37.0585V19.4088C55.1816 18.0803 54.1378 16.9417 52.7145 16.9417H0.999126C0.999126 17.2263 0.999126 17.511 0.999126 17.7957Z" stroke="#5B5B5B" stroke-width="0.75" stroke-miterlimit="10"/>
<path d="M58.0291 4.70068H14.0948C7.16781 4.70068 1.47436 10.1094 1.0948 16.9416C1.0948 17.2262 1.0948 17.5109 1.0948 17.7956V62.2044H58.124" stroke="#5B5B5B" stroke-width="1.5" stroke-miterlimit="10" stroke-linecap="round" stroke-linejoin="round"/>
<path d="M34.3069 17.7963V62.2051H88.9639V53.57H58.0295V4.7963H47.4018C40.1901 4.70141 34.3069 10.5846 34.3069 17.7963Z" stroke="#5B5B5B" stroke-width="1.5" stroke-miterlimit="10" stroke-linecap="round" stroke-linejoin="round"/>
<path d="M47.4963 68.8467C43.8279 68.8467 40.854 65.8728 40.854 62.2043C40.854 58.5359 43.8279 55.562 47.4963 55.562C51.1648 55.562 54.1387 58.5359 54.1387 62.2043C54.1387 65.8728 51.1648 68.8467 47.4963 68.8467Z" fill="#5B5B5B"/>
<path d="M47.4965 65.905C45.4527 65.905 43.7958 64.2481 43.7958 62.2043C43.7958 60.1604 45.4527 58.5035 47.4965 58.5035C49.5404 58.5035 51.1973 60.1604 51.1973 62.2043C51.1973 64.2481 49.5404 65.905 47.4965 65.905Z" fill="white"/>
<path d="M47.4959 63.4378C46.8146 63.4378 46.2623 62.8856 46.2623 62.2043C46.2623 61.523 46.8146 60.9707 47.4959 60.9707C48.1772 60.9707 48.7295 61.523 48.7295 62.2043C48.7295 62.8856 48.1772 63.4378 47.4959 63.4378Z" fill="#5B5B5B"/>
<path d="M80.803 68.8467C77.1345 68.8467 74.1606 65.8728 74.1606 62.2043C74.1606 58.5359 77.1345 55.562 80.803 55.562C84.4714 55.562 87.4453 58.5359 87.4453 62.2043C87.4453 65.8728 84.4714 68.8467 80.803 68.8467Z" fill="#5B5B5B"/>
<path d="M80.8032 65.905C78.7593 65.905 77.1025 64.2481 77.1025 62.2043C77.1025 60.1604 78.7593 58.5035 80.8032 58.5035C82.847 58.5035 84.5039 60.1604 84.5039 62.2043C84.5039 64.2481 82.847 65.905 80.8032 65.905Z" fill="white"/>
<path d="M80.8025 63.4378C80.1213 63.4378 79.569 62.8856 79.569 62.2043C79.569 61.523 80.1213 60.9707 80.8025 60.9707C81.4838 60.9707 82.0361 61.523 82.0361 62.2043C82.0361 62.8856 81.4838 63.4378 80.8025 63.4378Z" fill="#5B5B5B"/>
</svg>
