<svg width="135" height="65" viewBox="0 0 135 65" fill="none" xmlns="http://www.w3.org/2000/svg">
<path fill-rule="evenodd" clip-rule="evenodd" d="M54.6786 47.2117H97.0518V49.4668C94.6495 50.9254 93.062 53.5623 93.062 56.6057C93.062 59.3301 94.3667 61.7287 96.3645 63.248C95.2735 63.8527 94.0179 64.1971 92.6817 64.1971C88.484 64.1971 85.0811 60.7984 85.0811 56.6059C85.0811 55.0635 85.5417 53.6285 86.333 52.4307H54.6786V47.2117ZM97.0594 62.8122C95.1049 61.435 93.8221 59.1627 93.8221 56.6057C93.8221 54.0489 95.1048 51.7767 97.0592 50.3994C99.0089 51.7737 100.282 54.0413 100.282 56.6059C100.282 59.1704 99.009 61.4379 97.0594 62.8122Z" fill="#5B5B5B"/>
<path d="M75.2959 64.1971C71.0982 64.1971 67.6954 60.7984 67.6954 56.6059C67.6954 52.4134 71.0982 49.0146 75.2959 49.0146C79.4936 49.0146 82.8965 52.4134 82.8965 56.6059C82.8965 60.7984 79.4936 64.1971 75.2959 64.1971Z" fill="#5B5B5B"/>
<path d="M28.0766 1H57.0537V47.2117H28.0766V1Z" fill="#E0E0E0"/>
<path d="M28.0766 1H57.0537V47.2117H28.0766V1Z" stroke="#5B5B5B" stroke-width="1.5" stroke-miterlimit="10" stroke-linecap="round" stroke-linejoin="round"/>
<path d="M57.0539 1H133.725V47.2117H57.0539V1Z" fill="white"/>
<path d="M57.1489 1H133.725V47.2117H57.1489V1Z" stroke="#5B5B5B" stroke-width="1.5" stroke-miterlimit="10" stroke-linecap="round" stroke-linejoin="round"/>
<path d="M118.809 64.1971C114.611 64.1971 111.208 60.7984 111.208 56.6059C111.208 52.4134 114.611 49.0146 118.809 49.0146C123.006 49.0146 126.409 52.4134 126.409 56.6059C126.409 60.7984 123.006 64.1971 118.809 64.1971Z" fill="#5B5B5B"/>
<path d="M118.809 60.7812C116.5 60.7812 114.629 58.9119 114.629 56.606C114.629 54.3001 116.5 52.4308 118.809 52.4308C121.118 52.4308 122.989 54.3001 122.989 56.606C122.989 58.9119 121.118 60.7812 118.809 60.7812Z" fill="white"/>
<path d="M118.808 58.1241C117.968 58.1241 117.288 57.4444 117.288 56.6059C117.288 55.7674 117.968 55.0876 118.808 55.0876C119.648 55.0876 120.328 55.7674 120.328 56.6059C120.328 57.4444 119.648 58.1241 118.808 58.1241Z" fill="#5B5B5B"/>
<path d="M101.423 64.1971C97.2252 64.1971 93.8223 60.7984 93.8223 56.6059C93.8223 52.4134 97.2252 49.0146 101.423 49.0146C105.621 49.0146 109.023 52.4134 109.023 56.6059C109.023 60.7984 105.621 64.1971 101.423 64.1971Z" fill="#5B5B5B"/>
<path d="M101.423 60.7812C99.1145 60.7812 97.2429 58.9119 97.2429 56.606C97.2429 54.3001 99.1145 52.4308 101.423 52.4308C103.732 52.4308 105.604 54.3001 105.604 56.606C105.604 58.9119 103.732 60.7812 101.423 60.7812Z" fill="white"/>
<path d="M101.423 58.1241C100.584 58.1241 99.9031 57.4444 99.9031 56.6059C99.9031 55.7674 100.584 55.0876 101.423 55.0876C102.263 55.0876 102.943 55.7674 102.943 56.6059C102.943 57.4444 102.263 58.1241 101.423 58.1241Z" fill="#5B5B5B"/>
<path d="M14.7754 64.1971C10.5777 64.1971 7.17485 60.7984 7.17485 56.6059C7.17485 52.4134 10.5777 49.0146 14.7754 49.0146C18.9731 49.0146 22.376 52.4134 22.376 56.6059C22.376 60.7984 18.9731 64.1971 14.7754 64.1971Z" fill="#5B5B5B"/>
<path d="M0.999699 28.6132V57.8395H54.6787V7.45264H11.6405L10.2154 10.3942L0.999699 28.6132Z" fill="currentColor"/>
<path d="M30.0719 57.8395H54.6787V7.45264H40.7127L30.0719 28.6132V57.8395Z" fill="currentColor"/>
<path d="M0.99929 28.6133H30.0714L39.2871 10.3943H10.215L0.99929 28.6133Z" fill="white"/>
<path d="M30.0714 28.6133H50.2129V10.3943H39.2871L30.0714 28.6133Z" fill="#E0E0E0"/>
<path d="M0.999255 28.6133H50.2129V10.3943H10.2149L0.999255 28.6133Z" stroke="#5B5B5B" stroke-width="0.75" stroke-miterlimit="10" stroke-linecap="round" stroke-linejoin="round"/>
<path d="M30.0719 57.8395H54.6787V7.45264H40.7127L30.0719 28.6132V57.8395Z" stroke="#5B5B5B" stroke-width="1.5" stroke-miterlimit="10" stroke-linecap="round" stroke-linejoin="round"/>
<path d="M0.999697 28.6132V57.8395H54.6787V7.45264H11.6405L10.2154 10.3942L0.999697 28.6132Z" stroke="#5B5B5B" stroke-width="1.5" stroke-miterlimit="10" stroke-linecap="round" stroke-linejoin="round"/>
<path d="M40.9024 64.1971C36.7047 64.1971 33.3018 60.7984 33.3018 56.6059C33.3018 52.4134 36.7047 49.0146 40.9024 49.0146C45.1 49.0146 48.5029 52.4134 48.5029 56.6059C48.5029 60.7984 45.1 64.1971 40.9024 64.1971Z" fill="#5B5B5B"/>
<path d="M40.9027 60.7812C38.594 60.7812 36.7224 58.9119 36.7224 56.606C36.7224 54.3001 38.594 52.4308 40.9027 52.4308C43.2114 52.4308 45.083 54.3001 45.083 56.606C45.083 58.9119 43.2114 60.7812 40.9027 60.7812Z" fill="white"/>
<path d="M40.9027 58.1241C40.0632 58.1241 39.3826 57.4444 39.3826 56.6059C39.3826 55.7674 40.0632 55.0876 40.9027 55.0876C41.7423 55.0876 42.4229 55.7674 42.4229 56.6059C42.4229 57.4444 41.7423 58.1241 40.9027 58.1241Z" fill="#5B5B5B"/>
<path d="M49.0732 32.5986V38.7665" stroke="#5B5B5B" stroke-width="0.75" stroke-miterlimit="10" stroke-linecap="round" stroke-linejoin="round"/>
<path d="M3.65938 52.4309H9.26478C9.83482 52.4309 10.2148 51.9564 10.2148 51.482V48.1608C10.2148 47.5915 9.73981 47.2119 9.26478 47.2119H3.65938C3.08934 47.2119 2.70931 47.6864 2.70931 48.1608V51.482C2.70931 51.9564 3.18434 52.4309 3.65938 52.4309Z" fill="white"/>
<path d="M3.65938 52.4309H9.26478C9.83482 52.4309 10.2148 51.9564 10.2148 51.482V48.1608C10.2148 47.5915 9.73981 47.2119 9.26478 47.2119H3.65938C3.08934 47.2119 2.70931 47.6864 2.70931 48.1608V51.482C2.70931 51.9564 3.18434 52.4309 3.65938 52.4309Z" stroke="#5B5B5B" stroke-width="0.75" stroke-miterlimit="10" stroke-linecap="round" stroke-linejoin="round"/>
<path d="M21.8058 52.4308H27.4113C27.9813 52.4308 28.3613 51.9563 28.3613 51.4819V48.1607C28.3613 47.5914 27.8863 47.2118 27.4113 47.2118H21.8058C21.2358 47.2118 20.8558 47.6862 20.8558 48.1607V51.4819C20.8558 51.9563 21.3308 52.4308 21.8058 52.4308Z" fill="white"/>
<path d="M21.8058 52.4308H27.4113C27.9813 52.4308 28.3613 51.9563 28.3613 51.4819V48.1607C28.3613 47.5914 27.8863 47.2118 27.4113 47.2118H21.8058C21.2358 47.2118 20.8558 47.6862 20.8558 48.1607V51.4819C20.8558 51.9563 21.3308 52.4308 21.8058 52.4308Z" stroke="#5B5B5B" stroke-width="0.75" stroke-miterlimit="10" stroke-linecap="round" stroke-linejoin="round"/>
<path d="M23.7061 43.606H7.36489" stroke="#5B5B5B" stroke-width="0.75" stroke-miterlimit="10" stroke-linecap="round" stroke-linejoin="round"/>
<path d="M23.7061 41.2339H7.36489" stroke="#5B5B5B" stroke-width="0.75" stroke-miterlimit="10" stroke-linecap="round" stroke-linejoin="round"/>
<path d="M26.3662 38.7666H4.79958" stroke="#5B5B5B" stroke-width="0.75" stroke-miterlimit="10" stroke-linecap="round" stroke-linejoin="round"/>
</svg>
