<svg width="36" height="12" viewBox="0 0 36 12" fill="none" xmlns="http://www.w3.org/2000/svg">
<path fill-rule="evenodd" clip-rule="evenodd" d="M17.8321 0.561314L15.5269 11.4422H12.7387L15.0448 0.561314H17.8321ZM29.5609 7.58696L31.0284 3.50146L31.8732 7.58696H29.5609ZM32.6716 11.4422H35.25L32.9994 0.561314H30.62C30.0847 0.561314 29.6335 0.87531 29.4332 1.35929L25.2503 11.4422H28.1769L28.7584 9.8167H32.3347L32.6716 11.4422ZM25.3951 7.88951C25.4076 5.01806 21.4623 4.85937 21.4896 3.57645C21.4981 3.18634 21.8662 2.77154 22.672 2.66527C23.0709 2.61269 24.1725 2.57189 25.4204 3.15182L25.9102 0.84483C25.2389 0.598729 24.3763 0.362305 23.302 0.362305C20.5468 0.362305 18.6071 1.84149 18.5916 3.95899C18.5732 5.52607 19.9758 6.39935 21.0325 6.92042C22.1181 7.45359 22.4823 7.79581 22.4783 8.27253C22.4701 9.00293 21.612 9.32483 20.8097 9.33757C19.4081 9.3595 18.5946 8.95503 17.9465 8.65006L17.4418 11.0345C18.0925 11.3362 19.2949 11.5994 20.5418 11.6123C23.4706 11.6123 25.386 10.1522 25.3951 7.88951ZM13.8485 0.561314L9.33187 11.4422H6.38516L4.16231 2.75848C4.02734 2.22387 3.91042 2.0276 3.5001 1.80278C2.8299 1.43525 1.72335 1.09077 0.75 0.876923L0.815646 0.561314H5.5594C6.16378 0.561314 6.70764 0.967235 6.845 1.67054L8.01896 7.96724L10.9203 0.561314H13.8485Z" fill="url(#paint0_linear)"/>
<defs>
<linearGradient id="paint0_linear" x1="0.75" y1="5.98732" x2="35.25" y2="5.98732" gradientUnits="userSpaceOnUse">
<stop stop-color="#231E5D"/>
<stop offset="1" stop-color="#074EA2"/>
</linearGradient>
</defs>
</svg>
